<svg xmlns="http://www.w3.org/2000/svg" xmlns:xlink="http://www.w3.org/1999/xlink" id="OBJECTS" x="0" y="0" version="1.1" viewBox="0 0 500 500" xml:space="preserve" style="enable-background:new 0 0 500 500"><style type="text/css">.st0{opacity:.18}.st1{fill:#adbec4}.st2{fill:#0062ff}.st3{fill:#ef6e4b}.st4{fill:#ff8b66}.st5{fill:#cfd8dc}.st6{fill:#db614d}.st7{fill:#1a4850}.st8{fill:#fff}.st9{fill:#164353}.st10{fill:#205260}.st11{fill:#8b383e}.st12{fill:#662c33}.st13{fill:#f95555}.st14{fill:#ff5f59}.st15{fill:#c64a4a}.st16{fill:#0c476b}.st17{fill:#105e99}.st18{fill:#225866}.st19{fill:#8bbddb}.st20{fill:#6097b2}.st21{fill:#3888fc}.st22{fill:#ce364c}.st23{fill:#a02e44}.st24{fill:#3e6575}.st25{fill:#ff4343}</style><g class="st0"><path d="M110.8,411.3H55.7c-1,0-1.8-0.8-1.8-1.8v-1c0-1,0.8-1.8,1.8-1.8h55.1c1,0,1.8,0.8,1.8,1.8v1 C112.5,410.5,111.8,411.3,110.8,411.3z" class="st1"/><path d="M459.9,411.3h-15.1c-1,0-1.8-0.8-1.8-1.8v-1c0-1,0.8-1.8,1.8-1.8h15.1c1,0,1.8,0.8,1.8,1.8v1 C461.7,410.5,460.9,411.3,459.9,411.3z" class="st1"/><path d="M214.5,411.3h-55.1c-1,0-1.8-0.8-1.8-1.8v-1c0-1,0.8-1.8,1.8-1.8h55.1c1,0,1.8,0.8,1.8,1.8v1 C216.2,410.5,215.5,411.3,214.5,411.3z" class="st1"/><path d="M295.4,411.3h-55.1c-1,0-1.8-0.8-1.8-1.8v-1c0-1,0.8-1.8,1.8-1.8h55.1c1,0,1.8,0.8,1.8,1.8v1 C297.1,410.5,296.4,411.3,295.4,411.3z" class="st1"/><path d="M394.5,411.3h-75.1c-1,0-1.8-0.8-1.8-1.8v-1c0-1,0.8-1.8,1.8-1.8h75.1c1,0,1.8,0.8,1.8,1.8v1 C396.2,410.5,395.4,411.3,394.5,411.3z" class="st1"/></g><g><path d="M129.3,161.1c0,0-5.8-4-14.3-0.9c-8.5,3-10.4,14.5-8.3,23.8c2.1,9.3-9.6,41.1-9.6,41.1s6.1,8.6,27.4,5.3 c0,0,15.9-28.8,14.7-49.6S129.3,161.1,129.3,161.1z" class="st2"/><path d="M136,196.8c8-2.6,12.9,4.1,17.5,16.5c4.6,12.4,6.1,13.6,6.1,13.6l17.7,11.4l-1.5,6.6c0,0-16.8-6.6-20.9-10.8 c-4.1-4.2-15.8-25.4-15.8-25.4L136,196.8z" class="st3"/><path d="M97,276.9c0,0-3.5,17.6-2.9,44c0,0-13.7,20.2-2.4,77.7h5.9c0,0,4.8-49,8.5-62.2c3.7-13.3,17.4-17.3,18.1-57.7 L97,276.9z" class="st4"/><path d="M69.9,328.6c-3.4-11.3-12.3-30.3-35-56.1c0,0-1.4-0.7-3.2,0.4c-1.9,1.2-1.9,2.6-1.9,2.6s11.4,24.8,18.6,43 c2.4,6.1,8.3,10.1,14.9,10.1H69.9z" class="st4"/><path d="M111.2,350.6c0,0,0.1,8.5-5.5,8.6c-7.8,0.2-8.1-8.3-17-8c-8.9,0.3-27.2,2.5-33-11.4c-3-7.2,1.1-16.4-8.6-23.3 c-9.7-6.9-5-14.7,0-18.9c5-4.2-2.2-8.7,3.1-10.8c1.2-0.5,2.5-0.4,3.6-0.1c0.7,0.2,1.3,0.6,1.9,1c2.8,1.8,4.7,5,4.7,5 C75,252.3,101.2,247,101.2,247l25.9,8.9C127.8,318.6,111.2,350.6,111.2,350.6z" class="st2"/><path d="M136,196.8c0,0-6,2-14.6,0.7c-8.6-1.3-11.4-6.7-17.4-3.2c-9.1,5.2-4.8,23.2-2.5,32.5 c0.8,3.5,1.9,12.6-0.1,20.2c0,0,12.1,9.4,25.9,8.9l7.5-16.4C134.7,239.5,151.1,219.9,136,196.8z" class="st5"/><path d="M120.6,181.8c0,0,1,8.5-2.1,16.2c0,0,4.5,6.6,8.8,2.3c0,0,0.4-7.8,5.2-16.6 C135.7,177.8,120.6,181.8,120.6,181.8z" class="st3"/><g><path d="M113.8,182.1c0,0-3.8-2.4-3.4,1.3c0.5,4.3,4.7,5.1,5.1,3.6C116,185.5,113.8,182.1,113.8,182.1z" class="st4"/><path d="M135.5,177.4c0,0,2.4-3.8,3.6-0.3c1.4,4.1-2,6.6-3.1,5.5C134.9,181.5,135.5,177.4,135.5,177.4z" class="st4"/><path d="M127.6,194.9c-6.9,1.5-11.7-2.1-14.7-15.5c-1.6-6.9,1-12,8.7-13.7c7.7-1.7,11.9,1.8,13.4,8.7 C138.3,188.8,134.7,193.3,127.6,194.9z" class="st4"/><ellipse cx="132.3" cy="180.3" class="st6" rx="1.6" ry="1.3" transform="matrix(0.9238 -0.3829 0.3829 0.9238 -58.9584 64.4146)"/><ellipse cx="118.2" cy="183.5" class="st6" rx="1.6" ry="1.3" transform="matrix(0.988 -0.1546 0.1546 0.988 -26.9369 20.4729)"/><g><path d="M129.1,173.4c-0.1,0-0.1,0-0.2-0.1c-1.2-0.8-2.8-0.4-2.9-0.4c-0.2,0.1-0.4-0.1-0.4-0.3 c0-0.2,0.1-0.4,0.3-0.4c0.1,0,2-0.5,3.4,0.5c0.2,0.1,0.2,0.3,0.1,0.5C129.3,173.4,129.2,173.4,129.1,173.4z" class="st2"/></g><g><path d="M116.1,176.3c-0.1,0-0.1,0-0.2-0.1c-0.2-0.1-0.2-0.3-0.1-0.5c0.9-1.5,2.8-1.9,2.9-1.9c0.2,0,0.4,0.1,0.4,0.3 c0,0.2-0.1,0.4-0.3,0.4c0,0-1.7,0.3-2.4,1.5C116.4,176.3,116.3,176.3,116.1,176.3z" class="st2"/></g><ellipse cx="128.5" cy="177.4" class="st7" rx=".9" ry="1.6" transform="matrix(0.9758 -0.2185 0.2185 0.9758 -35.6506 32.3599)"/><ellipse cx="119" cy="179.4" class="st7" rx=".9" ry="1.6" transform="matrix(0.9758 -0.2185 0.2185 0.9758 -36.3283 30.3259)"/><path d="M122.9,187.3c0,0,4.4-0.4,6.3-2c0,0-0.5,3.4-2.9,3.7C123.9,189.2,122.9,187.3,122.9,187.3z" class="st7"/><path d="M127,177.3c0,0,0.2-2.2,1-2.3c0.9,0,1.9,1.6,1.9,1.6l1.1-0.9l-1.2,0.4c0,0-1.1-1.7-1.9-1.6 C126.7,174.9,127,177.3,127,177.3z" class="st7"/><path d="M120.4,179c0,0-1.1-2-1.9-1.6c-0.8,0.3-1,2.3-1,2.3l-1.4-0.4l1.3-0.1c0,0,0.2-2,1-2.2 C119.5,176.7,120.4,179,120.4,179z" class="st7"/><g><path d="M125.1,183.3l-0.4-0.7c0.6-0.3,0.6-0.7,0.6-1c-0.1-0.4-0.4-0.7-0.7-0.7c-0.1,0-0.3,0.1-0.3,0.4l-0.7-0.3 c0.3-0.8,0.9-0.9,1.1-0.8c0.6,0,1.2,0.6,1.3,1.3C126.2,182.3,125.9,182.9,125.1,183.3z" class="st6"/></g><path d="M114.3,184.5c0,0-2.1-7.8-0.9-13.3c0,0,6-8.3,17.5-4.2c0,0,3.4,5.5,5.1,13.2c0,0,0.4-2.8-0.7-8.9 c-1.1-6.2-6.6-10-14.1-8.8C113.7,163.8,105.7,171.2,114.3,184.5z" class="st2"/></g><path d="M126.4,165.3c0,0,0.5,2-1.5,7.3c0,0-1.4-1.5-3.1,0c-1.7,1.5-5,1-6.2,1.8c-1.2,0.8-1.2,2.6-1.2,2.6s-1-2.3,0-5 c0,0-2.2,2.9-1.9,6.4c0,0-3-0.5-2.9-5.5c0.1-5,7.3-13.2,15.3-12.6c8,0.5,9.9,13.2,9.9,13.2s-0.7-0.6-1.9-0.3c0,0-0.2-2.7-2-6.1 c0,0,0.8,2.4,0,5.1c0,0-2.2-1.2-4-0.8C126.9,171.3,128,169.2,126.4,165.3z" class="st2"/><path d="M101.9,196c3.9-3.1,6.9,0.8,7.7,6.2c0.7,5.4-6.3,37.3-11.8,36.2c-2.1-0.5-3-8.8-3-8.8s2.1-9,3.5-22.5 C99,200.8,99.8,197.6,101.9,196z" class="st4"/><path d="M90.5,233.8c-5.3-5-14.7-21.6-17.1-30.1l4-1.6c0,0,12,17.2,17.5,21.5c5.5,4.3,7.4,9.2,5,13.3 C97.4,241.1,91.6,234.9,90.5,233.8z" class="st4"/><g><path d="M75.1,192.7c-0.3,5.4,4.2,6.7,2.2,10.9c-0.4,0.9-1,1.3-1.7,1.5c-1.2,0.4-2.6,0-3.5-0.9 c-2.1-2.1-5.4-4.4-7.1-5.4c-2-1.1-0.9-1.4-0.9-1.4c-0.2-0.1-0.4-0.2-0.6-0.2c-1.4-0.6-2.5-0.8-1.5-1.4c1.1-0.7,5.2,0.8,5.2,0.8 c-5.3-3.5-6.7-2.7-5.8-3.4c1.3-1,6.3,1.3,6.5,1.4c-2.8-2.6-4.8-3.2-3.7-3.6c1.1-0.4,6.7,3.6,8.7,5.1c0.5,0.3,0.7,0.6,0.7,0.6 C73.7,192.1,75.1,192.7,75.1,192.7z" class="st4"/><path d="M73,196c0.5,0.3,0.7,0.6,0.7,0.6s-0.9,1.6,0.3,3.7C74,200.2,71.8,198.7,73,196z" class="st3"/><path d="M68.4,199.1c-0.5-0.3-3.1-1.8-4.2-1.7c-0.2-0.1-0.4-0.2-0.6-0.2C64.4,196.2,67.9,198.7,68.4,199.1z" class="st3"/></g><g><circle cx="88.3" cy="279.7" r="1.1" class="st8"/><circle cx="107.3" cy="287" r="1.1" class="st8"/><circle cx="123.6" cy="291" r="1.1" class="st8"/><circle cx="98.6" cy="265.7" r="1.1" class="st8"/><circle cx="102.2" cy="275.9" r="1.1" class="st8"/><circle cx="119.1" cy="281.7" r="1.1" class="st8"/><circle cx="121.4" cy="264.2" r="1.1" class="st8"/><circle cx="110.4" cy="260.5" r="1.1" class="st8"/><circle cx="78.9" cy="300.5" r="1.1" class="st8"/><circle cx="63.6" cy="295.9" r="1.1" class="st8"/><path d="M55.6,287.6c-0.2,0.3-0.5,0.5-0.9,0.5c-0.6,0-1.1-0.5-1.1-1.1c0-0.1,0-0.3,0.1-0.4 C54.4,286.9,55,287.2,55.6,287.6z" class="st8"/><circle cx="84.3" cy="314.4" r="1.1" class="st8"/><circle cx="57" cy="329.5" r="1.1" class="st8"/><circle cx="68.2" cy="320.4" r="1.1" class="st8"/><circle cx="51.5" cy="312.3" r="1.1" class="st8"/><circle cx="65" cy="344.2" r="1.1" class="st8"/><circle cx="75.1" cy="288.1" r="1.1" class="st8"/><circle cx="85.4" cy="270.1" r="1.1" class="st8"/><circle cx="97" cy="255.1" r="1.1" class="st8"/><circle cx="73.5" cy="276.9" r="1.1" class="st8"/><circle cx="86.4" cy="259.5" r="1.1" class="st8"/><circle cx="66" cy="307.5" r="1.1" class="st8"/><circle cx="52.6" cy="298.1" r="1.1" class="st8"/><circle cx="91.5" cy="294.9" r="1.1" class="st8"/><circle cx="113.6" cy="300.5" r="1.1" class="st8"/><circle cx="112.5" cy="270.1" r="1.1" class="st8"/><circle cx="125.3" cy="272.3" r="1.1" class="st8"/><circle cx="99.7" cy="308.6" r="1.1" class="st8"/><circle cx="90.4" cy="327.6" r="1.1" class="st8"/><circle cx="74" cy="330.6" r="1.1" class="st8"/><circle cx="119.1" cy="314.4" r="1.1" class="st8"/><circle cx="104.4" cy="322.5" r="1.1" class="st8"/><circle cx="82.2" cy="346.3" r="1.1" class="st8"/><circle cx="98.6" cy="340.8" r="1.1" class="st8"/><circle cx="114.5" cy="334.5" r="1.1" class="st8"/><circle cx="107.3" cy="352.8" r="1.1" class="st8"/></g><g><path d="M107.2,409.1H89.7c-1.1-3.3,1-6.5,0.6-9.4c-0.6-4.9,2.2-2.2,2.2-2.2c0.5-5.2,7.8-6.2,7.8-3.9 c-0.1,3.4,0.5,5.6,1.5,7c2,2.9,5.2,2.8,5.8,4.9c0.1,0.2,0.1,0.4,0.1,0.6C108.3,408.6,107.2,409.1,107.2,409.1z" class="st9"/><path d="M107.7,406c-3.6,0.8-12-0.3-12.3-2.4c-0.3-2,4.2-3,6.4-3.1c2,2.9,5.2,2.8,5.8,4.9 C107.7,405.6,107.7,405.8,107.7,406z" class="st10"/></g><g><path d="M35.2,273.3c-1.9-1.7-4.9,1.1-4.9,1.1s1.6,2.4,0.6,3.4c-1.1,1-2.3-1.3-4.4-0.3c-0.2,0.1-0.3,0.2-0.5,0.3 c-1.6,1-3.3,3-4.7,4.5c-0.3,0.3-0.5,0.6-0.8,0.9c-1.6,1.7-5.7,2.6-6.5-1.8c-0.8-4.4,4.2-9.6,9.7-14.4c5.5-4.8,9-1.9,9-1.9 s1.2,2,1.2,3.3c0,1.2,1.1,1.9,1.7,3.1C36.4,272.5,35.2,273.3,35.2,273.3z" class="st9"/><path d="M26,277.8c-1.6,1-3.3,3-4.7,4.5c-2.1,0.5-3.9,0.3-4.2-1.6c-0.7-4.7,8.6-10.6,7.9-7.3 C24.6,275.1,25.3,276.6,26,277.8z" class="st10"/></g></g><g><path d="M350.6,401.5c-0.9-0.5-1.7-1.5-2.4-2.7c0,0-0.6-3.7,0-7.7c0.6-3.9-1.1-7.1-6.6-8.3c-5.4-1.2-8.6,1.4-7.4,12.3 c0,0,0,0,0,0c-0.8,4.5-1,9.7,0.9,14h16.6C351.7,409.1,354.4,403.4,350.6,401.5z" class="st5"/><path d="M365.2,343c0,0,0,10.8-6.1,21.9c-6.2,11.3-13.9,26.8-13.9,26.8s-5.1,5-8.4-3.3c0,0,2.3-28.8,7.6-39.4 C349.7,338.6,365.2,343,365.2,343z" class="st4"/><path d="M444.9,307.7c0,0,9.9,41.6,16.2,52.6c0,0-1.4,4.6-8.3,6c0,0-21.5-31.6-22.9-45 C428.5,308,444.9,307.7,444.9,307.7z" class="st4"/><g><path d="M449.6,317.5c-2.6,6.3-23,6.7-23,6.7l-1.6-2.3l-0.4-0.6l-3.2-4.7c0,0-33.7-33-40.2-30.3h0 c-0.2,0.1-0.4,0.2-0.6,0.3c-4.5,3.2-4.9,20.9-10.3,50.5c-0.5,2.8-1.6,6.1-2.5,8.3c-0.1,0.2-0.2,0.5-0.3,0.7 c-0.5,1.3-0.8,2.1-0.8,2.1c-20.6,8.3-27.3-8.1-27.3-8.1s0.2-0.5,0.6-1.2c0.1-0.2,0.2-0.4,0.3-0.6c1.1-2.4,2.8-6.5,2.8-8.7 c0-2.4,0-4.7-0.1-6.9c0-0.2,0-0.4,0-0.6c0-7.1,0-13.3,0-18.7V303c0-2.3,0.1-4.5,0.1-6.6v-0.6c0.2-9.4,0.5-15.6,0.8-19.8 c0-0.2,0-0.4,0-0.6c0.6-7,1.2-7.7,1.2-7.7l-4.1-28.6H386c0,0,6.8,6.8,15.5,15.7c0.2,0.2,0.4,0.4,0.5,0.5c3.2,3.2,6.6,6.7,10,10.3 c0.1,0.1,0.3,0.3,0.4,0.4c1.4,1.4,2.7,2.8,4.1,4.2c0.2,0.2,0.3,0.3,0.5,0.5c4.5,4.7,8.9,9.3,12.6,13.3c0.1,0.1,0.3,0.3,0.4,0.4 c5.1,5.5,9,10,10.4,12c3.6,5.5,6.3,12.5,7.9,16.9c0,0,0,0,0,0c0.1,0.2,0.1,0.4,0.2,0.6C449.2,316.2,449.6,317.5,449.6,317.5z" class="st11"/><g><path d="M351.9,272.1c-1.8,2.2-4.5,3.5-7.9,4c0-0.2,0-0.4,0-0.6c3.2-0.5,5.8-1.7,7.5-3.8c3.1-3.6,2.6-8.6,2.6-8.6 l0.6-0.1C354.7,263.2,355.2,268.2,351.9,272.1z" class="st12"/><path d="M402.1,255.4c-0.2,0-0.3,0-0.5,0c-5,0-10.2-5.5-10.5-5.7l0.4-0.4c0.1,0.1,5.3,5.5,10.1,5.6 C401.7,255,401.9,255.2,402.1,255.4z" class="st12"/><path d="M368,345.5c-0.1,0.2-0.2,0.5-0.3,0.7c-3.3,1.2-6.4,1.7-9.2,1.7c-8.9,0-15-5.1-18.4-9 c0.1-0.2,0.2-0.4,0.3-0.6C344.7,343.4,353.9,350.9,368,345.5z" class="st12"/><path d="M380,276.1c0.7,3.2,1.2,6.7,1.2,10.3c-0.2,0.1-0.4,0.2-0.6,0.3c0-16.8-9.7-29.8-9.8-30l0.4-0.3 c0.1,0.1,5.8,7.9,8.6,19.1c1.1-0.7,1.9-1.8,2.2-3.2c1.4-5.9-5-15.5-5-15.6l0.5-0.3c0.3,0.4,6.6,9.9,5.1,16 C382.3,274,381.4,275.2,380,276.1z" class="st12"/><path d="M430.1,284.5c-1.7,1.8-3.2,3.3-3.4,3.5l-0.3,0.3l-0.1-0.4c-2.2-5.7-16.2-18-16.3-18.2l-0.2-0.2l2.3-3.9 c0.1,0.1,0.3,0.3,0.4,0.4l-2,3.2c2.7,0.9,4.7,1.1,6,0.9c0.2,0.2,0.3,0.3,0.5,0.5c-0.5,0.1-0.9,0.1-1.5,0.1 c-1.3,0-2.7-0.3-4.3-0.7c3.2,2.9,13,12,15.3,17.1c0.9-0.9,2-2,3.1-3.2C429.8,284.2,430,284.4,430.1,284.5z" class="st12"/><path d="M353.3,322.7l-0.2,0c-0.2,0.1-2.7,0.6-5.6,0.6c-1.5,0-3-0.1-4.4-0.5c0-0.2,0-0.4,0-0.6 c3.7,1.1,8.6,0.2,9.7,0l-0.9-23.1c-0.5,1.3-1.6,3-3.5,4c-0.9,0.5-2,0.7-3.1,0.7c-0.7,0-1.4-0.1-2.1-0.2V303 c1.9,0.4,3.6,0.3,5-0.4c2.4-1.2,3.3-3.7,3.6-4.7c-1.9,0.3-5.6-0.7-8.4-1.5v-0.6c3.1,0.9,7.2,2,8.7,1.5l0.4-0.1L353.3,322.7z" class="st12"/><path d="M448.5,314c-3.2,3.2-9.8,8.1-20,8.1c-1.1,0-2.2-0.1-3.4-0.2l-0.4-0.6c12.4,1.4,20.1-4.4,23.6-7.8 C448.4,313.7,448.5,313.9,448.5,314z" class="st12"/></g></g><path d="M394.3,117.4c0,0-1.2-2.8-6.5-2.8c-4,0-5.6,2.2-5.6,2.2c-2.4,7-5,34-5.9,34.9c-0.5,0.5-30.3,20.6-30.3,20.6 c16.2,0.3,26.3,20.3,26.3,20.3c0.5-6.6,18.8-32.5,19-34.9C391.8,153.3,399.5,133.8,394.3,117.4z" class="st13"/><path d="M342.6,258.2c0,0-0.1,5.6,1.7,6c1.8,0.4,16.6,4.7,33.6-3c17-7.7,20-13.5,15-17.7 C387.9,239.2,342.6,258.2,342.6,258.2z" class="st13"/><path d="M335.7,176.2c0,0-15.5-1.8-24.4,2c0,0-2.5,11,9.7,35.6c12.2,24.6,9.4,40.1,23.1,45.9 c12.2,5.2,48.2-10.2,49.3-15.3c2.8-12.8-19.2-35.4-20.5-48.5C371.6,182.8,358.8,163.2,335.7,176.2z" class="st14"/><path d="M311.4,178.2c-10.8,3.8-23,16-23,21.9c0,5.9,10.2,8.1,10.2,8.1l16.7-8.1c0,0,4.8-3.3,1.7-13 C313.9,177.3,311.4,178.2,311.4,178.2z" class="st13"/><g><path d="M355.8,189c-3.2,0-7.2-1.2-9.7-2.9c-1.4-1-2.2-2.1-2.4-3.2c-0.6-3.8,3.1-5.8,3.3-5.9l0.5,1 c-0.1,0.1-3.2,1.7-2.7,4.7c0.1,0.8,0.8,1.7,1.9,2.5c2.8,2,7.6,3.2,10.8,2.6c1.4-0.2,2.3-0.8,2.8-1.5c0.5-0.9,0.1-2,0.1-2l1-0.4 c0,0.1,0.6,1.5-0.1,2.9c-0.6,1.1-1.8,1.8-3.5,2.1C357.1,188.9,356.5,189,355.8,189z" class="st5"/></g><g><path d="M342.1,200.7c-2.4,0-6.4-1-6.9-4.9c-0.3-2-0.1-3.7,0.1-5.1c0.2-2.2,0.4-3.9-0.8-5.9c-2.1-3.4-4.9-3.6-5-3.6 l0.1-1.1c0.1,0,3.5,0.2,5.9,4.1c1.5,2.4,1.2,4.4,1,6.6c-0.2,1.5-0.3,3-0.1,4.9c0.6,4.2,6,4,6.2,4l0.1,1.1 C342.4,200.7,342.3,200.7,342.1,200.7z" class="st5"/></g><path d="M345.5,180.8c0,0,8.2-5.6,6.2-11.6c-1.9-6-28.3-5.6-35.1,1.6c-6.8,7.2,14.7,12,14.7,12 C333,179.4,343.6,179,345.5,180.8z" class="st13"/><path d="M330.8,179.8c-3.9-1.3-6.2-4.1-5.4-7.4c0.8-3.2,17.5-3.3,20.7-0.7C349.3,174.3,344.8,184.6,330.8,179.8z" class="st15"/><path d="M328.9,170.7c0,0,3.4,5.9,1.8,9.1c0,0,11.8,4.1,11.8-2.5c0,0-2.2-4.9-1.4-8.1L328.9,170.7z" class="st3"/><g><path d="M325,165.6c0,0-5.8-9.3-5.3-18.1c0.3-4.4,2.5-6.2,2.5-6.2s-1.8-2.6,0.1-6.5c0,0,2.7,3.2,12.3,2.2 c9.2-1,10.2,5.6,10.2,5.6c6.6,1,2.1,21-2.5,23H325z" class="st14"/><path d="M322.5,157c0,0-3.3-3.3-3.7,0.6c-0.5,4.5,3.6,6.3,4.4,4.9C324,161.1,322.5,157,322.5,157z" class="st4"/><path d="M345.8,157.3c0,0,3.3-3.3,3.7,0.6c0.5,4.5-3.6,6.3-4.4,4.9C344.4,161.3,345.8,157.3,345.8,157.3z" class="st4"/><path d="M333.8,173.3c-7.4,0-11.6-4.8-11.6-19.3c0-7.5,3.8-12,12.1-12c8.3,0,11.8,4.6,11.8,12 C346.1,169.6,341.5,173.3,333.8,173.3z" class="st4"/><ellipse cx="342" cy="159.5" class="st6" rx="1.7" ry="1.4" transform="matrix(0.9851 -0.1719 0.1719 0.9851 -22.3247 61.1523)"/><ellipse cx="326.8" cy="159.5" class="st6" rx="1.7" ry="1.4" transform="matrix(0.9979 6.507868e-002 -6.507868e-002 0.9979 11.0727 -20.9273)"/><g><path d="M340.4,151.4c-0.1,0-0.2,0-0.3-0.1c-1.2-0.9-2.9-0.6-3-0.6c-0.2,0-0.4-0.1-0.4-0.3c0-0.2,0.1-0.4,0.3-0.4 c0.1,0,2.1-0.4,3.6,0.7c0.2,0.1,0.2,0.4,0.1,0.5C340.6,151.4,340.5,151.4,340.4,151.4z" class="st14"/></g><g><path d="M326.3,151.5c-0.1,0-0.2-0.1-0.2-0.1c-0.1-0.2-0.1-0.4,0.1-0.5c1.4-1.1,3.4-0.8,3.5-0.8 c0.2,0,0.3,0.2,0.3,0.4c0,0.2-0.2,0.3-0.4,0.3c0,0-1.8-0.3-2.9,0.7C326.5,151.5,326.4,151.5,326.3,151.5z" class="st14"/></g><ellipse cx="338.7" cy="155.6" class="st7" rx=".9" ry="1.7"/><ellipse cx="328.9" cy="155.6" class="st7" rx=".9" ry="1.7"/><path d="M324.5,143.6c0,0,7.9,2.9,19.2,2.1c0,0,2.4,3,2.1,13.6c0,0,6.6-19.1-12.7-19.1s-10.6,18.6-10.6,18.6 S321,147.2,324.5,143.6z" class="st14"/><g><path d="M334.3,160.5l-0.6-0.6l1.5-1.5c-1.4-2-1.4-6.6-1.4-6.8l0.8,0c0,0,0,5,1.4,6.6l0.3,0.3L334.3,160.5z" class="st6"/></g><path d="M329.4,163c0,0,7.3,0.3,10.9-0.7c0,0,0.6,5.3-5,5.6C329.4,168.1,329.4,163,329.4,163z" class="st7"/></g><path d="M360.5,183c1.4-0.3,1.2,3.4,0,2.3C359.2,184.2,359.1,183.2,360.5,183z" class="st5"/><path d="M343.7,200.6c-0.2,1.4-3.6,0.1-2.2-0.8C343,199,344,199.2,343.7,200.6z" class="st5"/><path d="M328.8,208.1c0,0-2.2,5.7-2.1,8.8c0.1,3.2,1.2,2.8,1.2,2.8s-1.7,0.7-2,2.5c-0.3,1.8,4.3,3.2,4.6,3.2 c0.3,0,3.6-1.2,3.6-1.2l0.7-10.4l-2.9-1.8L328.8,208.1z" class="st3"/><path d="M330.6,207.4c0,0,4,2.5,5.6,4c1.6,1.5,0.7,13.3,0,13.9c-0.7,0.6-5.8,1.7-6.8,1.1c-1-0.6,0.4-4.1,0.4-4.1 s2.6-0.6,2.2,0.4c-0.4,1,0,1.8,0,1.8l1.1-0.4c0,0-0.5-2.6,0-4.6c0.5-1.9-3.6-4-4.1-7.5C328.4,208.4,330.6,207.4,330.6,207.4z" class="st4"/><path d="M289,201.7c-1.3-5.5,4.2-7.5,11.9-6.6c8.9,1.1,27.1,3.4,31.1,13c0,0,1.3,3.8-2.1,5.6 C320.6,218.9,291.4,212.1,289,201.7z" class="st13"/><path d="M316.8,198c0,0-10.6-4.4-15.9-4.8C295.7,192.7,308.2,197.3,316.8,198z" class="st15"/><g><path d="M396.1,102.7c-0.8,0.9-2.1,4.5-2.1,4.5c-0.6,3-0.9,4.6-1.9,6c-1,1.4-0.5,3.8-0.5,3.8s-4,2.1-7.4-0.5 c0,0,0.4-2.4,0-3.1c-0.7-1.4-2.9-2.1-3.7-4.8c-0.8-2.7-3.1-5.8-3.1-5.8s0.7-1.4,1.9-0.6c1.2,0.9,2,3.1,2.6,3.3 c0.1,0,0.3,0.1,0.4,0.1c0,0,0,0,0,0c0.5,0.1,1,0,1.3-0.3c0,0,0.1,0,0.1-0.1c1.1-1.3,1.4-5,1.3-6.7c-0.1-2.3,0-5.6,1.4-5 c1.4,0.5,0.1,1.8,1.2,7l0.5,0.1c0.1,0.4,1.1-3.1,1.3-6.4c0.2-2.3,1.6-1.4,2-0.7c0.3,0.7-0.2,3-0.3,4.6c-0.1,1.1-0.2,2.2-0.2,2.9 l0.6,0.3c2.2-3.9,1.5-5.5,2.8-5.6c1.3-0.1,0.8,3.2,0.1,4.5c-0.3,0.5-0.6,1.7-0.8,2.8c2.3-2.7,2-4,3.1-3.9 C397.9,99.1,396.9,101.8,396.1,102.7z" class="st4"/><path d="M386.2,108.8c-0.8-2.1-3.6-3.1-3.9-3.2c0.5,0.1,1,0,1.3-0.3C386.4,106.4,386.2,108.8,386.2,108.8z" class="st3"/></g><g><path d="M338,392.8c0,0-1.5-3.1-0.2-4.5c1.4-1.3,3,1.2,5.3,0.6c2.3-0.6,2.9-2.2,3.5,0 C347.2,391.2,346.5,398.3,338,392.8z" class="st5"/><path d="M346.8,392.6c0,0-6.3,2.2-9.5,0l0.8,2.7c0,0,6.8,0.7,7.8-1L346.8,392.6z" class="st1"/><path d="M346.7,396c0,0-5.8-0.8-8.5,0.6v1.3c0,0,7.5-1.8,9.9,0L346.7,396z" class="st1"/><path d="M337.9,400.8c0,0,1.1-2.7,4.6-2.9c3.5-0.2,5.9,1.7,5.9,1.7S342.8,397.3,337.9,400.8z" class="st1"/></g><g><path d="M486,363c-11,14.7-26.1,17.6-26.1,17.6c-4.4-3.5-4.5-7.6-4.5-7.6s-4.2-3.8-4.8-5.6c-0.6-1.8,3.6-7.2,6.1-6.7 c1.7,0.4,2.7,1.8,3.2,2.6c-2.1-4.7-0.4-6.3,2.5-5.9c3.1,0.4,0.2,1.1,2.4,3.6c0.2,0.2,0.3,0.3,0.5,0.5c0.4,0.3,0.9,0.5,1.4,0.6 c0.5,0.1,1,0.1,1.6,0.1c0.3,0,0.6,0,0.9-0.1c0.6-0.1,1.1-0.2,1.7-0.4c0.9-0.3,1.9-0.7,2.8-1.2c3.8-2.1,5.4-2.8,8.3-2.1 c2.9,0.7,2.9,2.9,2.9,2.9L486,363z" class="st5"/><path d="M486,363c-11,14.7-26.1,17.6-26.1,17.6c7.7-3.3,14.7-7.6,19.5-12.9C484.3,362.3,486,363,486,363z" class="st1"/><g><path d="M465.4,361.5c0.4,0.3,0.9,0.5,1.4,0.6c-2.9,0.6-3.1,3.2-3.1,3.2l-1.2-0.4 C462.7,361.7,465.2,361.5,465.4,361.5z" class="st1"/><path d="M467.3,365.6l-1.3,0c-0.5-1.8,0.1-2.9,0.8-3.6c0.5,0.1,1,0.1,1.6,0.1C466.8,363.7,467.3,365.6,467.3,365.6z" class="st1"/><path d="M470.5,364.9l-1.3,0.2c-0.5-1.3-0.4-2.3,0-3c0.6-0.1,1.1-0.2,1.7-0.4C469.9,363.2,470.5,364.9,470.5,364.9z" class="st1"/></g></g><path d="M346.9,227.9c0,0,2.9,15.4-2.9,21.5c-5.8,6.1-2,1.1-0.2-6.8C345.5,234.7,344.2,226.4,346.9,227.9z" class="st13"/><path d="M373.5,221.1c0,0,9.1,3,13.8,11.4C387.4,232.5,381,218.8,373.5,221.1z" class="st13"/></g><g><g><path d="M137.5,106.8c1.2,0,4.7,1.4,4.7,1.4c2.6,1.6,4,2.5,5.7,2.6c1.7,0.2,2.4,3.1,2.4,3.1s6.7,1.5,7.1-2.8 c0,0-3.8-5.3-4-6c-0.5-1.4,0.4-3.6-1.1-6c-1.5-2.4-2.2-6.2-2.2-6.2s-1.5-0.5-1.7,1c-0.2,1.5,0.9,3.5,0.7,4.2 c-0.1,0.1-0.1,0.2-0.2,0.4c0,0,0,0,0,0c-0.3,0.4-0.7,0.7-1.1,0.7c0,0-0.1,0-0.1,0c-1.7,0-4.6-2.4-5.8-3.5 c-1.7-1.6-4.1-3.7-4.7-2.3c-0.6,1.4,1.3,1.3,4.4,5.6l-0.3,0.4c0.2,0.3-3-1.3-5.6-3.3c-1.8-1.4-2.2,0.3-1.8,1 c0.3,0.7,2.3,1.9,3.6,2.9c0.9,0.7,1.7,1.4,2.3,1.8l-0.2,0.7c-4.4-1-5.1-2.6-6-1.7c-0.9,0.9,1.8,2.8,3.2,3.1 c0.6,0.1,1.6,0.7,2.6,1.3c-3.5-0.1-4.4-1.2-5-0.3C133.7,105.7,136.3,106.7,137.5,106.8z" class="st4"/><path d="M148.7,103.5c-1.1-2,0.1-4.7,0.2-5.1c-0.3,0.4-0.7,0.7-1.1,0.7C146.8,102,148.7,103.5,148.7,103.5z" class="st3"/></g><g><path d="M335.3,106.8c-1.2,0-4.7,1.4-4.7,1.4c-2.6,1.6-4,2.5-5.7,2.6c-1.7,0.2-2.4,3.1-2.4,3.1s-6.7,1.5-7.1-2.8 c0,0,3.8-5.3,4-6c0.5-1.4-0.4-3.6,1.1-6c1.5-2.4,2.2-6.2,2.2-6.2s1.5-0.5,1.7,1c0.2,1.5-0.9,3.5-0.7,4.2c0.1,0.1,0.1,0.2,0.2,0.4 c0,0,0,0,0,0c0.3,0.4,0.7,0.7,1.1,0.7c0,0,0.1,0,0.1,0c1.7,0,4.6-2.4,5.8-3.5c1.7-1.6,4.1-3.7,4.7-2.3c0.6,1.4-1.3,1.3-4.4,5.6 l0.3,0.4c-0.2,0.3,3-1.3,5.6-3.3c1.8-1.4,2.2,0.3,1.8,1c-0.3,0.7-2.3,1.9-3.6,2.9c-0.9,0.7-1.7,1.4-2.3,1.8l0.2,0.7 c4.4-1,5.1-2.6,6-1.7c0.9,0.9-1.8,2.8-3.2,3.1c-0.6,0.1-1.6,0.7-2.6,1.3c3.5-0.1,4.4-1.2,5-0.3 C339.1,105.7,336.5,106.7,335.3,106.8z" class="st4"/><path d="M324.1,103.5c1.1-2-0.1-4.7-0.2-5.1c0.3,0.4,0.7,0.7,1.1,0.7C326,102,324.1,103.5,324.1,103.5z" class="st3"/></g><path d="M276.2,310.6l-12.9-80l-25.9,2.9l-25.9-2.9l-12.9,80l-6.2,77.6c0,0,2,6.4,14.9,2c0,0,9.6-72,11.1-73.5 c1.5-1.6,16.7-48.6,16.7-48.6h4.8c0,0,15.2,47,16.7,48.6c1.5,1.6,11.1,73.5,11.1,73.5c12.9,4.4,14.9-2,14.9-2L276.2,310.6z" class="st16"/><path d="M229.3,153.2c1.6,1.6,9.7,4.5,13.9,0l2.9,2.8c0,0-3.3,7.7-9,8c-5.8,0.3-9.9-6.9-9.9-6.9L229.3,153.2z" class="st16"/><path d="M252.1,152.3c9.6-4.1,40.7-15.2,40.7-15.2s20.9-26.2,25.2-30.1c0,0,4.6,0.8,6,6.6c0,0-13.5,28.8-20.8,37.1 c-7.3,8.2-44.4,26.1-44.4,26.1L252.1,152.3z" class="st16"/><path d="M218.4,151.7c2.9-1.8,17.2,7.8,17.2,7.8s18.7-9.9,23.1-8c0,0,4,5.3,5.5,18.9c1.6,13.6,1.7,69.5,1.7,69.5 s-12.6,4.4-29.6,4.4c-19.4,0-29.8-5.6-29.8-5.6S203.1,161.3,218.4,151.7z" class="st13"/><path d="M230.1,150.2c0,0,2.1,6.5,0,9c0,0,2.1,4.5,6,4.7c4.5,0.2,6-4.7,6-4.7s-2.4-6.3,0-8.5L230.1,150.2z" class="st3"/><g><path d="M224.9,143.8c0,0-4.4-8.4-3.5-17.3c0.9-9,14.4-11,23.5-6.6c0,0-2.7-2.6-1.6-3.4c1.1-0.7,2.9,4,2.9,4 s2.9-0.9,3.3,0c0.4,0.9-2.9,1.4-2.9,1.4s5.9,3.3,0.4,20.6L224.9,143.8z" class="st2"/><path d="M224.2,138.5c0,0-3.2-3.2-3.6,0.5c-0.5,4.4,3.5,6.2,4.3,4.8C225.7,142.4,224.2,138.5,224.2,138.5z" class="st4"/><path d="M247,138.8c0,0,3.2-3.2,3.6,0.5c0.5,4.4-3.5,6.2-4.3,4.8C245.5,142.7,247,138.8,247,138.8z" class="st4"/><path d="M235.3,154.4c-7.2,0-11.3-4.7-11.3-18.8c0-7.3,3.7-11.7,11.8-11.7c8.1,0,11.5,4.5,11.5,11.7 C247.2,150.8,242.7,154.4,235.3,154.4z" class="st4"/><ellipse cx="243.2" cy="140.9" class="st6" rx="1.7" ry="1.3" transform="matrix(0.9851 -0.1718 0.1718 0.9851 -20.5969 43.8866)"/><ellipse cx="228.4" cy="140.9" class="st6" rx="1.7" ry="1.3" transform="matrix(0.9979 6.502973e-002 -6.502973e-002 0.9979 9.6475 -14.5527)"/><g><path d="M241.6,133.3c-0.1,0-0.2,0-0.3-0.1c-1-1-2.7-1-2.8-1c-0.2,0-0.4-0.1-0.4-0.3c0-0.2,0.1-0.4,0.3-0.4 c0.1,0,2.1-0.1,3.3,1.2c0.1,0.1,0.1,0.4,0,0.5C241.7,133.3,241.6,133.3,241.6,133.3z" class="st2"/></g><g><path d="M228,133.3c-0.1,0-0.2,0-0.2-0.1c-0.1-0.1-0.1-0.4,0-0.5c1.2-1.3,3.2-1.2,3.3-1.2c0.2,0,0.4,0.2,0.3,0.4 c0,0.2-0.2,0.4-0.4,0.3c0,0-1.8,0-2.8,1C228.2,133.3,228.1,133.3,228,133.3z" class="st2"/></g><ellipse cx="240" cy="137.1" class="st7" rx=".9" ry="1.6"/><ellipse cx="230.4" cy="137.1" class="st7" rx=".9" ry="1.6"/><path d="M231.3,146.7c0,0,6.4,0.8,9.6-0.8c0,0-1.8,4.3-5.3,3.9C232.1,149.5,231.3,146.7,231.3,146.7z" class="st7"/><path d="M246.5,140.4c0,0-0.2-7.8-3.3-13.9c0,0-5.4,2.5-6.6,1.9c-1.2-0.6,1.1-1.9,1.1-1.9s-8.9,2.9-9.4,2.3 c-0.5-0.6,2.9-2.3,2.9-2.3l-5.5,1.9c0,0-1.7,7.1-1,12c0,0-2.4-4.1-2.7-6.9c-0.3-2.8,1-10.9,9.3-11.5c8.3-0.6,13,1.3,15.1,5.1 C248.5,130.9,248.3,135.6,246.5,140.4z" class="st2"/><g><path d="M236.5,144.4c-0.7,0-1.4-0.2-1.6-0.2l0.2-0.7c0.8,0.2,1.9,0.3,2.2,0c0.1-0.1,0.1-0.4-0.1-0.7 c-1-2.2-1.3-7.8-1.3-8.1l0.8,0c0,0.1,0.2,5.7,1.2,7.8c0.3,0.6,0.3,1.1,0,1.5C237.6,144.3,237.1,144.4,236.5,144.4z" class="st6"/></g></g><path d="M244.5,155.2c0,0,13,40.5,14.3,73.4c0,0,4.7,1.3,10-5.9c5.3-7.2,2.1-64.4-8-73.9 C260.8,148.8,256.2,147.8,244.5,155.2z" class="st17"/><path d="M246.6,162.3c0,0,2.3-5.4,1.3-9.1s-4.7,0-4.7,0S244.7,159.2,246.6,162.3z" class="st16"/><path d="M220.4,152.3c-9.6-4.1-40.7-15.2-40.7-15.2s-21-26.9-25.2-30.8c0,0-5.3,3-5.6,9.2c0,0,13.2,27,20.5,35.3 c7.3,8.2,44.4,26.1,44.4,26.1L220.4,152.3z" class="st16"/><path d="M228,155.2c0,0-13,40.5-14.3,73.4c0,0-4.7,1.3-10-5.9c-5.3-7.2-2.1-64.4,8-73.9 C211.7,148.8,216.3,147.8,228,155.2z" class="st17"/><path d="M225.9,162.3c0,0-2.3-5.4-1.3-9.1c1-3.7,4.7,0,4.7,0S227.8,159.2,225.9,162.3z" class="st16"/><g><path d="M293.9,409.1H268c-1.8-10.3,1.1-20.6,1.1-20.6l11.8-2c1.1,6.5,2.4,9.1,4.2,10.4c0,0,0,0,0,0 c1.3,1,2.9,1.3,4.8,1.9c2.2,0.8,3.4,2.2,4,3.7C295.1,405.5,293.9,409.1,293.9,409.1z" class="st9"/><path d="M294,402.5c-6.4,0.8-20.4,2.2-19.6-1.5c0.7-3.1,6.6-3.9,10.7-4.1c0,0,0,0,0,0c1.3,1,2.9,1.3,4.8,1.9 C292.2,399.5,293.4,401,294,402.5z" class="st18"/></g><g><path d="M207.2,409.1h-25.9c0,0-0.8-2.4-0.4-5c0.3-2.1,1.4-4.3,4.4-5.3c2.2-0.8,4-1.1,5.4-2.4 c1.5-1.4,2.7-4.1,3.6-9.9l11.8,2C206.2,388.5,209,398.8,207.2,409.1z" class="st9"/><path d="M180.9,404.1c0.3-2.1,1.4-4.3,4.4-5.3c2.2-0.8,4-1.1,5.4-2.4c3.3,1,7.9,2.9,9.3,5.7 C201.9,405.9,186.8,405.3,180.9,404.1z" class="st18"/></g></g><g><g><path d="M393.1,407.2c0,1.1-0.1,1.9-0.1,1.9h-31.5c0-0.6,0-1.2,0-1.9c0.4-8.2,3-15.4,3-15.4l7.9-3.4 c0.7,4.1,2.4,6.6,4.6,8.3c0.6,0.5,1.2,0.8,1.8,1.2c0.3,0.2,0.6,0.3,0.9,0.4c0.7,0.3,1.3,0.5,2,0.7c2.8,0.8,5.6,1,7.5,1.3 C392.6,401,393.1,404.8,393.1,407.2z" class="st9"/><path d="M393.1,407.2c0,1.1-0.1,1.9-0.1,1.9h-31.5c0-0.6,0-1.2,0-1.9H393.1z" class="st18"/><path d="M378.8,397.9l-4.4,1.4l-0.9-1.6l3.5-1C377.6,397.2,378.2,397.6,378.8,397.9z" class="st18"/><path d="M381.7,399.1l-2.9,2l-1.8-0.7l2.7-2C380.3,398.7,381,398.9,381.7,399.1z" class="st18"/></g><g><path d="M272.9,407.2c-0.1,1.1-0.4,1.9-0.4,1.9h-21c-0.3-0.6-0.5-1.2-0.6-1.9c-2.1-10,11.9-22.3,11.9-22.3l4.4,5.9 c0,0-0.5,9.4,3.2,11.4C272.8,403.4,273.1,405.6,272.9,407.2z" class="st9"/><path d="M251,407.2h21.9c-0.1,1.1-0.4,1.9-0.4,1.9h-21C251.4,408.4,251.2,407.8,251,407.2z" class="st18"/><path d="M269.6,401.5c0,0-8.8-2-12.9,0.6v-1.5C256.7,400.6,264.2,397,269.6,401.5z" class="st18"/><path d="M267.8,399.2c0,0-5.6-2.6-11.1,0l0.6-1.5C257.4,397.7,263.9,395.3,267.8,399.2z" class="st18"/></g><path d="M383.6,318.1c0,8.4-7.5,77.1-7.5,77.1c-7.5,0.7-13.5-0.8-13.5-0.8c-2.1-34.8-2.3-64.8-2.3-64.8l-35.9-26.9 l-0.1-0.1c0,0-0.1,0.6-0.4,1.7c-1.8,7.9-9.3,40.9-12.4,48.5c-3.6,8.6-42.5,44.8-42.5,44.8c-7.2-1-13.4-6.2-13.4-6.2 c14-23.2,33.1-46.5,33.1-46.5c1.5-8.4,2.6-27,3.2-40.9c0-0.2,0-0.4,0-0.6c0.4-9.4,0.6-16.5,0.6-16.5l-6.6-13.5l41.8-15.3l9.4,12 c0,0,2.1,2,5.5,5.2c0.2,0.1,0.3,0.3,0.5,0.4C355.7,287.6,383.6,314.3,383.6,318.1z" class="st19"/><g><path d="M292,304.2c0-0.2,0-0.4,0-0.6c8.8-4.8,7.3-12.4,7.3-12.5l0.5-0.1C299.9,291,301.5,299.2,292,304.2z" class="st20"/><path d="M323.9,297.4c0.3,1.7,0.5,3.5,0.6,5.4l-0.1-0.1c0,0-0.1,0.6-0.4,1.7c-0.4-13.1-5.8-20.8-5.8-20.9l0.5-0.3 c0.1,0.1,3.5,5,5.1,13.5c6.4-5.6,0.1-17.2,0.1-17.3l0.5-0.3C324.4,279.3,331,291.6,323.9,297.4z" class="st20"/><path d="M343.2,275.8C343.2,275.8,343.2,275.8,343.2,275.8c-0.3,0.1-0.6,0.2-0.9,0.2c-3.1,0-8.2-4.3-8.5-4.5l0.4-0.4 c1.7,1.4,6.4,4.8,8.6,4.3C342.9,275.5,343,275.6,343.2,275.8z" class="st20"/></g><path d="M289,201.7c0,0,12.7-2,19.1,2c6.4,4.1,14.7,14.6,14.7,14.6s-9.9,1.3-11,8C311.8,226.4,304.5,209.2,289,201.7z" class="st1"/><path d="M269.9,208.3c-5.4,2.9-14.4,13.8-14.8,20.5c-0.4,6.5,4.4,12.6,7.7,17.7c10.2,16,20.9,30.1,25.5,48.8 c0,0.1,23.3,9.4,50.6-23.5c0,0-15.4-20.8-20.8-38.5c-2.2-7.2-4.4-14.8-8.6-21.2c-4.6-7-12.5-11.1-20.6-10.4 C282.1,202.2,275.2,205.4,269.9,208.3z" class="st5"/><path d="M267.7,201.6c0,0,3.4,5.9,1.8,9.1c0,0,11.8,4.1,11.8-2.5c0,0-2.2-4.9-1.4-8.1L267.7,201.6z" class="st3"/><path d="M293.9,241.8c0,0-6.6,1.9-8.2,4.2s-3.1,7.5-3.1,7.5h11.3l2.1-3.9l2.5-5.2L293.9,241.8z" class="st3"/><g><path d="M283,195c0,0,4.6-1.9,1.6-15.8c-2-9.2-4.8-10.5-6.7-10.6c0,0-2.2-3.4-10-1.8c-5.3,1.1-9.6,4.4-11.5,10.4 c-2,6.3,2,19.7,7.1,21L283,195z" class="st21"/><path d="M284.1,185.7c0,0,2.9-4,4-0.1c1.3,4.6-2.7,7.2-3.8,5.9C283.3,190.1,284.1,185.7,284.1,185.7z" class="st4"/><path d="M259.8,189.9c0,0-4-2.9-3.8,1.2c0.3,4.8,4.9,6,5.4,4.3C262,193.9,259.8,189.9,259.8,189.9z" class="st4"/><path d="M275.1,204.6c7.7-1.3,11.2-7,8.7-22.1c-1.3-7.8-6-11.9-14.7-10.5c-8.6,1.4-11.5,6.8-10.2,14.6 C261.7,202.8,267.1,205.9,275.1,204.6z" class="st4"/><ellipse cx="264.2" cy="191.6" class="st6" rx="1.8" ry="1.4" transform="matrix(-1 -9.197052e-003 9.197052e-003 -1 526.677 385.6056)"/><ellipse cx="280.1" cy="189" class="st6" rx="1.8" ry="1.4" transform="matrix(-0.974 0.2266 -0.2266 -0.974 595.7406 309.5529)"/><g><path d="M264.6,183.2c-0.1,0-0.2,0-0.2-0.1c-0.2-0.1-0.2-0.4-0.1-0.5c1.1-1.6,3.2-1.9,3.3-1.9c0.2,0,0.4,0.1,0.4,0.3 c0,0.2-0.1,0.4-0.3,0.4c0,0-1.9,0.3-2.8,1.6C264.8,183.1,264.7,183.2,264.6,183.2z" class="st7"/></g><g><path d="M279.1,180.8c-0.1,0-0.2,0-0.2-0.1c-1.2-0.9-3.1-0.6-3.1-0.6c-0.2,0-0.4-0.1-0.5-0.3c0-0.2,0.1-0.4,0.3-0.5 c0.1,0,2.2-0.4,3.8,0.7c0.2,0.1,0.2,0.4,0.1,0.5C279.3,180.7,279.2,180.8,279.1,180.8z" class="st7"/></g><ellipse cx="267" cy="187" class="st7" rx="1" ry="1.8" transform="matrix(-0.9867 0.1628 -0.1628 -0.9867 560.7874 328.0125)"/><ellipse cx="277.2" cy="185.3" class="st7" rx="1" ry="1.8" transform="matrix(-0.9867 0.1628 -0.1628 -0.9867 580.9617 322.9614)"/><path d="M279.2,194.1c0,0-6.7,1.8-10.4,1.1c0,0,2.6,3.2,6.2,2.3C278.7,196.6,279.2,194.1,279.2,194.1z" class="st7"/><path d="M279.5,175.5c0,0-8.7,6.3-19.6,6.8l0.3,9.7c0,0-10.2-18.8,10-22.1c20.1-3.3,14.3,17.6,14.3,17.6 S283.8,178.5,279.5,175.5z" class="st2"/><g><path d="M272.4,191.5l-0.1-0.8c0,0,1.2-0.1,1.5-0.8c0.1-0.3-0.4-1.2-0.8-2.1c-0.6-1.2-1.4-2.6-1.7-4.2l0.8-0.2 c0.3,1.5,1,2.9,1.6,4c0.6,1.2,1.1,2.1,0.8,2.8C274.1,191.4,272.4,191.5,272.4,191.5z" class="st6"/></g><path d="M284.2,175.5c-14.6-6.4-28.4,6.8-28.4,6.8s-1.6-10.7,1.2-13.2c0.7-0.7,1.5-1.2,2.3-1.7 c6.5-4.1,15.1-4,19-2.6c0.8,0.3,1.4,0.6,1.8,1C282.4,168.3,284.2,175.5,284.2,175.5z" class="st22"/><path d="M282.4,173.1c0,0-12.3-2.4-23.7,5.2c0,0-0.7-6.9,0.6-10.9c6.5-4.1,15.1-4,19-2.6 C280.6,167.5,282.4,173.1,282.4,173.1z" class="st5"/><path d="M257,181.1c0,0,1.9-8.3,4.6-10.6c4.4-3.9,16.6-5.2,23.1-2.9s0,9.4,0,9.4S274.4,169.6,257,181.1z" class="st23"/></g><path d="M276,236.1c0,0,5,7.8,13.6,12.4c0,0,10.7-9.3,24.6-8.5c0,0-11.5,20.7-21.4,23c-5.2,1.2-24-11.2-24-11.2 S272.5,238.6,276,236.1z" class="st4"/><path d="M257.5,222c4.6-7.5,15.2,3.6,18.8,11.5c3.6,7.9,6.2,9.6,6.2,9.6s-10.6,4.4-10.5,12.4 C272,255.4,247.4,238.3,257.5,222z" class="st1"/><path d="M289.5,245c0,0,6.5-6.3,27.7-14.6l-2.7-8.6c2.4-3.2,6.9-3.2,6.9-3.2s10.9,15.4,9,19.9 C329.2,241.4,306.5,244.4,289.5,245z" class="st3"/><path d="M312.8,232.5c0,0,0.2-0.9,1-2c0.8-1.1,0.6-3.1,0.9-3.7c0.3-0.6,2-3.2,3.1-3.7c1.1-0.5,2.6-1.3,2.9,0.1 c0.3,1.4-2,1-3,3c0,0,2.3-0.7,4-0.3c1.8,0.4,2.3,2.1,0.1,2c-1.8,0-4,1.2-4,1.2s2.3,0.3,1.9,1.4C319,232,316.2,231.1,312.8,232.5z" class="st4"/></g><g><path d="M155.8,261.4c1.9,4.9,9.7,13.2,9.7,13.2s19-11.4,27.7-6.6c8.8,4.8,15.7,7.7,21.4,5.6 c5.7-2.1-18.7-46.4-18.7-46.4l-31.6-12.1c0,0-0.7,8-4.3,9.4c-3.6,1.4-7.5,14.6-7.2,17.1C153.1,244.2,155.8,261.4,155.8,261.4z" class="st24"/><path d="M191.3,274.9c0,0-8.1,16-25,36.4c0,0-1.7,24.3-46.2,62.6l-4.7-3.7c0,0,26.5-41.5,31.8-54.2 c5.3-12.7-2.9-24.4,21.4-56.5L191.3,274.9z" class="st3"/><path d="M165.4,246.6c-7,13.4-9.4,30.6-9.4,30.6l-3.2,8.1c0,0,11.3,6.1,24.4,8.3l5.2-13.9L165.4,246.6z" class="st12"/><path d="M202,273.6c0,0,3.5,17.6,2.9,44c0,0,13.7,20.2,2.4,77.7h-5.9c0,0-4.8-49-8.5-62.2 c-3.7-13.3-17.4-17.3-18.1-57.7L202,273.6z" class="st4"/><g><path d="M205.5,292.5c0,0-11.1,2-30.8,1.1l-0.3-2.2l-0.1-0.6l-2-14.3c0,0-1.9-2.3-3.8-6.1c-0.2-0.4-0.5-0.9-0.7-1.4 c-2.6-5.6-5-13.8-2.4-22.3l4.1,0.2l0.6,0l13.9,0.6l0.6,0l4.6,0.2l0.7,0l3,0.1c0,0,15,13.5,12.3,38.5l0.2,3.5l0,0.6L205.5,292.5z" class="st11"/><g><path d="M170.1,246.8c-0.4,1.1-3,9.6-1.7,23.5c-0.2-0.4-0.5-0.9-0.7-1.4c-1-12.7,1.3-20.6,1.8-22.2 c0.1-0.2,0.1-0.3,0.1-0.3l0.5,0.2C170.2,246.7,170.2,246.8,170.1,246.8z" class="st12"/><path d="M205.4,290.4c-3.9,1-10.6,1.3-17,1.3c-5.7,0-11.1-0.2-14-0.4l-0.1-0.6c5,0.2,18.1,0.8,26.6-0.2l-0.5-8.9 c0.1-10.4-3-19.3-6.1-25.5c-7.7-1.4-9.8-7.1-10.3-8.7c-0.1-0.3-0.1-0.4-0.1-0.4l0.5-0.1c0,0,0,0.2,0.1,0.5c0.5,1.7,2.6,6.6,9.4,8 c-2.1-4-4-6.8-4.8-7.8c-0.2-0.3-0.4-0.5-0.4-0.5l0.4-0.4c0,0,0.3,0.3,0.7,0.9c2.6,3.5,11.3,16.7,11,33.9l0.5,8.9 c1.5-0.2,2.8-0.4,3.9-0.7L205.4,290.4z" class="st12"/></g></g><path d="M177,186.4c-4.4-2.4-36.3,10.1-36.3,10.1s-4.7,8.4-1.8,11.7c2.9,3.3,13.4,1.8,16.5,0 c3.2-1.8,11.6-3.2,11.6-3.2L177,186.4z" class="st19"/><path d="M205.1,159.9c0,0,6.6,2.5,9,10.1c2.4,7.6-4.8,26.8-2.3,35.6c2.5,8.8,2.1,25.5-5.7,29 c-7.8,3.5-23.7-2.8-27.1-12.4c-3.4-9.6-1.9-46.1,4.6-58.5C190.3,151.3,203.6,157.5,205.1,159.9z" class="st25"/><path d="M197.6,192.6c1.7,1.9,6.2-1.5,6.2-1.5s-0.1,16.5-4.9,17.8c-4.8,1.3-17.1-13-16.6-16.9 C182.8,188.1,193.7,188.4,197.6,192.6z" class="st19"/><path d="M179.1,188.4c0,0,4.9,4.1,13.3,6.1c8.5,2,13.1-2,17.4,3.4c6.5,8.2-4.1,23.3-9.6,31.1 c-2.1,2.9-6.5,11-7.3,18.8c0,0-14.7,4.3-27.4-1.3l-0.9-18C164.5,228.6,156.5,204.3,179.1,188.4z" class="st14"/><path d="M194.3,206c0,0,6.7-16,8.7-17c1.9-1,6.9,1.4,7.9,3.6c1,2.2,0,7,0,7S205.5,193.5,194.3,206z" class="st19"/><path d="M226.4,273.6c-3.1,6.3-10.5,8-10.5,8s-0.6-0.9-1.5-2.4c-0.1-0.2-0.2-0.3-0.3-0.5 c-5.9-9.6-23.9-40.1-23.6-56.1c0.4-19,12.8-29.4,12.8-29.4c6.3,1.5,8.3,3.2,8.3,3.2s2.1,10.8,0.2,23.8c-1.9,13-5.5,16.4-3.7,17.4 c1.8,1,0,2.9,0,2.9s10.4,14.6,12.4,19.1c1.3,3,3.4,8,4.8,11.1c0.1,0.2,0.2,0.4,0.3,0.6C226,272.7,226.4,273.6,226.4,273.6z" class="st20"/><path d="M208.3,196.4c0,0-7.5,5.5-3.1,14l20.7,21.5c-11.4,12.1-12.5,17.1-20.7,22.7l3.1,4.8c0,0,28.8-22.1,28.9-27.5 C237.1,229.6,219.5,201.7,208.3,196.4z" class="st4"/><path d="M204.7,254.6c0,0-4,0.4-6.4,1.1c-2.5,0.6-5.8,1.2-5.9,1.8c-0.1,0.5,5.5,0,5.5,0s-4.6,1.9-4.7,2.6 s5.8-0.5,5.8-0.5s-3.7,2.3-3.5,2.9c0.2,0.6,4.8-0.9,4.8-0.9s-0.9,2.2-1.7,3.2c0,0,0.9,0.5,2.7-1.5c1.8-2,4.7-1.4,7-3.1 C210.5,258.3,206.8,254.4,204.7,254.6z" class="st4"/><path d="M183.5,191.1c0,0-5.7,3.7-9.3,12.6c-3.6,8.9-14.9,25.6-17.6,29.9c-2.7,4.3-0.8,27.8-0.8,27.8 s-3.3-14.2-4.8-19.8c-1.5-5.6,4.8-19.3,5.7-20c0.9-0.7,5.8,0.6,4.8-5s12-29.6,15.4-30.2C177,186.4,182.5,187.4,183.5,191.1z" class="st20"/><path d="M165.9,192.3c-0.1,0.2-0.2,0.4-0.3,0.6c-1.3,1.9-3.7,3.3-3.7,3.3s-4.3,6.1-4.4,6.8c0,0.6-7.5,6-10.9,5.9h0 c-0.5,0-0.8-0.1-1.1-0.4c-2-1.9,6.7-17.5,8.6-20.9c0.1-0.2,0.2-0.4,0.3-0.5c0-0.1,0.1-0.1,0.1-0.1s-1.5-5.7,4.9-4.6 c5.3,0.9,6.4,5.1,6.9,7.9C166.4,191,166.3,191.6,165.9,192.3z" class="st20"/><path d="M143.6,198.2c4.4-5.8,19.9-17,28-20.3l2,3.8c0,0-15.7,13.8-19.4,19.7c-3.7,5.9-8.3,8.4-12.6,6.4 C137.1,205.9,142.6,199.4,143.6,198.2z" class="st4"/><path d="M164.4,191.1l-0.8,1l-0.4,0.5l-1.4,1.6c0,0-3.5,4.2-3.3,5.9c0.1,1.2-6.6,6.6-11.8,8.9c-2.1,0.9-4,1.3-5.1,0.7 c-3.8-2.2-2.9-8.7-0.8-13.1c1.9-3.9,10.1-8.8,12.2-10.1c0.3-0.2,0.4-0.3,0.5-0.3c0,0,0,0,0,0l0.8-3.1c0,0,2.9-1.7,5.1-0.7 c0,0-5,0.2-4.2,2.2C156.1,186.4,163,191,164.4,191.1z" class="st19"/><g><path d="M182.5,175.1c-5,2.1-4.3,6.6-8.9,6.6c-2.9,0-3.2-3.3-3.2-3.3c1.3-2.8,2.1-7.5,2.3-9.8 c0.2-2.3,0.9-1.4,0.9-1.4c0-0.2,0-0.4,0-0.6c-0.1-1.5-0.3-2.6,0.7-2c1.1,0.7,1.5,5,1.5,5c0.9-6.3-0.5-7.2,0.6-6.7 c1.5,0.8,1.5,6.3,1.5,6.5c1.2-3.7,0.9-5.7,1.7-4.9c0.8,0.8-0.4,7.5-0.9,10c-0.1,0.6-0.2,0.9-0.2,0.9 C182.5,173.6,182.5,175.1,182.5,175.1z" class="st4"/><path d="M178.7,174.6c-0.1,0.6-0.2,0.9-0.2,0.9s-1.8-0.2-3.2,1.8C175.3,177.3,175.7,174.7,178.7,174.6z" class="st3"/><path d="M173.9,171.8c0-0.5,0.3-3.6-0.3-4.5c0-0.2,0-0.4,0-0.6C174.7,166.9,174,171.1,173.9,171.8z" class="st3"/></g><path d="M177,198.2c0,0,3.4-9.2,4.5-11.3c1.1-2.1,6.7-1.7,11-0.9c4.3,0.8,5.1,6.5,5.1,6.5S184.6,186.5,177,198.2z" class="st19"/><path d="M198.9,180.1c0,0-4.1,7.5-4,15.9c0,0-6.6,4.5-9-1.1c0,0,2.5-7.4,1.3-17.3C186.4,170.8,198.9,180.1,198.9,180.1 z" class="st3"/><g><path d="M185.9,169.7c0,0-1.2-4.3-3.4-1.3c-2.5,3.5,0,6.9,1.4,6.1C185.2,173.7,185.9,169.7,185.9,169.7z" class="st4"/><path d="M205.1,180.8c0,0,4.3-1.2,2.8,2.2c-1.7,4-5.9,3.5-5.9,2C202,183.4,205.1,180.8,205.1,180.8z" class="st4"/><path d="M187.7,188.5c-6.1-3.4-7.3-9.4-0.6-21.4c3.5-6.2,8.8-8.2,15.6-4.4c6.9,3.9,7.6,9.3,4.1,15.5 C199.6,191.1,194,192,187.7,188.5z" class="st4"/><ellipse cx="200.9" cy="180.8" class="st6" rx="1.6" ry="1.3" transform="matrix(0.9427 0.3337 -0.3337 0.9427 71.8384 -56.6635)"/><ellipse cx="188.3" cy="173.7" class="st6" rx="1.6" ry="1.3" transform="matrix(0.8376 0.5463 -0.5463 0.8376 125.4695 -74.6363)"/><g><path d="M203.3,173.6c-0.2,0-0.3-0.1-0.3-0.3c-0.3-1.4-1.9-2.2-1.9-2.2c-0.2-0.1-0.2-0.3-0.1-0.5 c0.1-0.2,0.3-0.2,0.5-0.1c0.1,0,1.8,1,2.2,2.6C203.7,173.3,203.6,173.5,203.3,173.6C203.3,173.6,203.3,173.6,203.3,173.6z" class="st25"/></g><g><path d="M194.9,167.6c-0.1,0-0.1,0-0.2-0.1c0,0-1.5-0.9-2.8-0.5c-0.2,0.1-0.4,0-0.4-0.2c-0.1-0.2,0-0.4,0.2-0.4 c1.6-0.5,3.3,0.5,3.4,0.5c0.2,0.1,0.2,0.3,0.1,0.5C195.1,167.5,195,167.6,194.9,167.6z" class="st7"/></g><ellipse cx="200" cy="176.1" class="st7" rx=".9" ry="1.6" transform="matrix(0.8714 0.4907 -0.4907 0.8714 112.1157 -75.4769)"/><ellipse cx="191.4" cy="171.5" class="st7" rx=".9" ry="1.6" transform="matrix(0.8713 0.4907 -0.4907 0.8713 108.7583 -71.8576)"/><path d="M189.2,179.7c0,0,3.5,2.7,6.1,2.8c0,0-2.7,2.2-4.6,0.8C188.7,181.8,189.2,179.7,189.2,179.7z" class="st7"/><path d="M198.9,175c0,0,1.6-1.6,2.3-1c0.7,0.5,0.3,2.5,0.3,2.5l1.4,0l-1.2-0.5c0,0,0.4-2-0.3-2.4 C200.4,173,198.9,175,198.9,175z" class="st7"/><path d="M192.8,171.8c0,0,0.5-2.2-0.3-2.5c-0.8-0.3-2.3,1-2.3,1l-0.8-1.2l1,0.8c0,0,1.5-1.4,2.2-0.9 C193.8,169.6,192.8,171.8,192.8,171.8z" class="st7"/><path d="M204.4,165.3c0,0-2.2-3.1-5.2-0.6c-3,2.4-9.9,6.3-13.2,5c-3.4-1.3,7.4-15.6,16.7-11.4 c9.3,4.2,8.5,17.9,4.6,22.2c-3.9,4.3-2,0.3-2,0.3s0.3-6.2,1.6-10.2C208,166.4,204.4,165.3,204.4,165.3z" class="st25"/><g><path d="M194,178.3c-0.2,0-0.3,0-0.5-0.1l0.2-0.7c0.6,0.2,0.9-0.1,1.1-0.4c0.2-0.4,0.2-0.8,0-1 c-0.1-0.1-0.3-0.1-0.5,0l-0.4-0.7c0.8-0.4,1.2-0.1,1.4,0.1c0.4,0.4,0.5,1.3,0.1,1.9C195.1,178,194.6,178.3,194,178.3z" class="st6"/></g></g><g><path d="M238.9,231.1c-0.4,5.4-13.7,22.9-15.9,23.5c-0.6,0.2-1.2,0.5-1.7,0.9c-0.2,0.2-0.5,0.3-0.7,0.5 c-1.3,1-2.2,2.2-2.2,2.2c-3.9-0.3-14.8-5.3-11.3-6.4c0.2-0.1,0.4-0.2,0.7-0.4c0.1-0.1,0.3-0.2,0.5-0.4 c4.1-3.5,12.2-17.5,12.2-18.6c0-1.2,1.4-1.4,1.4-1.4s-7.6-11.1-12-12.5c-4.4-1.3-6.6-6.7-6.6-6.7c-4.3-18.4,8.3-15.5,8.3-15.5 C220.9,202,239.3,225.7,238.9,231.1z" class="st19"/><g><path d="M221.3,255.5c-0.2,0.2-0.5,0.3-0.7,0.5c-6-0.4-11-3.3-12.8-4.6c0.1-0.1,0.3-0.2,0.5-0.4 C210.2,252.3,215.3,255.2,221.3,255.5z" class="st24"/></g></g><g><path d="M165.9,192.3c-0.1,0.2-0.2,0.4-0.3,0.6c-0.9,0-1.7-0.1-2.4-0.3c-3.9-0.8-7-3-9-4.9c-0.5-0.4-0.9-0.9-1.2-1.3 c0.3-0.2,0.4-0.3,0.5-0.3c0.3,0.3,0.6,0.7,1,1c2,1.9,5.1,4.2,9.1,4.9C164.3,192.2,165.1,192.3,165.9,192.3z" class="st24"/></g><g><path d="M225.5,271.4c-1.8,3.1-5.2,6.8-11.1,7.8c-0.1-0.2-0.2-0.3-0.3-0.5c6.1-0.9,9.4-4.9,11.2-7.9 C225.3,271,225.4,271.2,225.5,271.4z" class="st24"/></g><g><path d="M124.4,372.5c0,0-1.4,1.4-2.8,3.9c-1.4,2.5,0.1,4.8-6.8,10.6c0,0-14.1-8.2-20.5-18.9c0,0,0.1-3,3.2-3.7 c1.7-0.4,6.2,1.8,10.6,2.6c0.6,0.1,1.2,0.2,1.9,0.3c0.8,0.1,1.5,0.1,2.2,0c0.7-0.1,1.3-0.2,1.9-0.5h0c1.5-0.6,2.7-1.8,3.3-3.9 c0,0,3.7,2.1,1.2,5.7C118.6,368.5,123,366.6,124.4,372.5z" class="st5"/><path d="M114.8,387c0,0-14.1-8.2-20.5-18.9c0,0,2.4-0.5,4.3,3C100.6,374.6,115.9,382.6,114.8,387z" class="st1"/><path d="M114.8,370.3c-1.1,1.8-1.1-1.5-2.6-3.1c0.7-0.1,1.3-0.2,1.9-0.5h0C114.8,367.5,115.7,368.9,114.8,370.3z" class="st1"/><path d="M110.4,370.4c-1.2,1.1-1.6-1.8-2.3-3.4c0.6,0.1,1.2,0.2,1.9,0.3C110.6,368.2,111.3,369.5,110.4,370.4z" class="st1"/></g><g><path d="M211.1,409.1h-19.9c0,0-0.8-2.8,0-5.8c0.4-1.3,2.4-2.6,4.3-4.3c0.5-0.5,1-1,1.5-1.5c0.4-0.4,0.7-0.9,1-1.5 c0.4-0.6,0.7-1.3,0.8-2.1c0.3-1.5,0.2-3.3-0.7-5.4c0,0,6.8-1.4,9.2,2.3c0,0,0.2-1.7,2.4-0.6c0,0-0.3,3.4,0.1,6.3 C210.3,399.3,213,400.2,211.1,409.1z" class="st5"/><path d="M205.9,397.1c-0.2,0.2-0.4,0.3-0.7,0.3c-0.2,0-0.4-0.1-0.6-0.2c-1-0.8-3.3-2.1-6.6-1.2 c0.4-0.6,0.7-1.3,0.8-2.1c1.3-0.5,3.8-0.8,6.9,1.9C206.2,396.1,206.3,396.7,205.9,397.1z" class="st1"/><path d="M204.3,400.4l-0.1,0.2c-0.3,0.4-0.8,0.5-1.2,0.3c-1.4-0.8-4.4-2.3-7.4-1.9c0.5-0.5,1-1,1.5-1.5 c1.5-0.3,4.3-0.5,7,1.7C204.4,399.5,204.5,400,204.3,400.4z" class="st1"/></g></g></svg>