<svg xmlns="http://www.w3.org/2000/svg" xmlns:xlink="http://www.w3.org/1999/xlink" id="Objects" x="0" y="0" version="1.1" viewBox="0 0 500 500" xml:space="preserve" style="enable-background:new 0 0 500 500"><style type="text/css">.st0{opacity:.37;fill:url(#SVGID_1_)}.st1{fill:#292522;stroke:#e29b49;stroke-width:2}.st1,.st2,.st3{stroke-miterlimit:10}.st2{fill:none;stroke:#6dc8e3}.st3{stroke:#6297d9}.st3,.st4{fill:none}.st5{fill:#e29b49}.st6{fill:#f6e1b6}.st7{stroke:#e29b49}.st7,.st8,.st9{fill:none;stroke-miterlimit:10}.st8{stroke:#e3404b}.st9{stroke:#f6e1b6;stroke-width:2}.st10{clip-path:url(#SVGID_5_)}.st11{fill:none;stroke:#f6e1b6;stroke-width:.75;stroke-linecap:round;stroke-linejoin:round;stroke-miterlimit:10}.st12{fill:#292522}.st13{fill:#e29b49;stroke-miterlimit:10}.st13,.st14{stroke:#292522}.st14,.st15{stroke-miterlimit:10}.st14{fill:#292522;stroke-width:1.5}.st15{fill:none;stroke:#f6e1b6;stroke-width:.5}</style><g><radialGradient id="SVGID_1_" cx="232.877" cy="446.34" r="156.627" gradientTransform="matrix(1.1203 0 0 0.1155 -10.8919 396.5797)" gradientUnits="userSpaceOnUse"><stop offset="0" style="stop-color:#292522"/><stop offset="1" style="stop-color:#292522;stop-opacity:0"/></radialGradient><ellipse cx="250" cy="448.1" class="st0" rx="246.7" ry="18.7"/><g><circle cx="250" cy="219.4" r="186.3" class="st1"/><g><g><g><g><path d="M111.3,310.6C94.1,284.4,84,253.1,84,219.4c0-36.7,12-70.7,32.3-98.3" class="st2"/><path d="M383.7,121.2c20.3,27.5,32.3,61.5,32.3,98.3c0,33.6-10,64.9-27.2,91" class="st2"/></g><g><path d="M115,308.3c-16.8-25.5-26.7-56-26.7-88.8c0-36,11.8-69.2,31.7-96.1" class="st3"/><path d="M379.9,123.4c19.9,26.9,31.7,60.1,31.7,96c0,32.9-9.9,63.5-26.8,89.1" class="st3"/></g></g><g><g><g><path id="SVGID_x5F_2_x5F_" d="M93.5,219.7c0-86.4,70.1-156.5,156.5-156.5s156.5,70.1,156.5,156.5" class="st4"/><text><textPath startOffset=".003%" xlink:href="#SVGID_x5F_2_x5F_"><tspan class="st6" style="font-family:'JosefinSans-SemiBold';font-size:17.1523px;letter-spacing:100">WILDERNESS EXPERIENCE</tspan></textPath></text></g><g><circle cx="372.2" cy="110.4" r="2.3" class="st5"/><circle cx="127.8" cy="110.4" r="2.3" class="st5"/></g></g><g><g><circle cx="379.1" cy="320.7" r="2.3" class="st5"/><g><path d="M123.4,320.7c0-1.2-1-2.3-2.3-2.3c-1.2,0-2.3,1-2.3,2.3c0,1.2,1,2.3,2.3,2.3 C122.4,323,123.4,321.9,123.4,320.7z" class="st5"/></g></g><g><g><path id="SVGID_x5F_3_x5F_" d="M80.8,220.9c0,93.4,75.7,169.2,169.2,169.2s169.2-75.7,169.2-169.2" class="st4"/><text><textPath startOffset="0%" xlink:href="#SVGID_x5F_3_x5F_"><tspan class="st6" style="font-family:'JosefinSans-SemiBold';font-size:17.1523px;letter-spacing:100">DREAM EXPLORE DISCOVER</tspan></textPath></text></g><g><circle cx="187.4" cy="371.5" r="1.2" class="st6"/><path d="M286.7,379.5c0-0.7-0.5-1.2-1.2-1.2c-0.7,0-1.2,0.5-1.2,1.2c0,0.7,0.5,1.2,1.2,1.2 C286.2,380.7,286.7,380.2,286.7,379.5z" class="st6"/></g></g></g></g></g><g><ellipse cx="250" cy="219.4" class="st7" rx="142.9" ry="142.9" transform="matrix(0.7071 -0.7071 0.7071 0.7071 -81.9406 241.0475)"/><circle cx="250" cy="219.4" r="138.6" class="st8"/></g></g><g><circle cx="250" cy="219.4" r="132.9" class="st9"/><g><g><defs><path id="SVGID_4_" d="M122.9,215.2C122.9,144.4,180.3,87,251,87s128.1,57.4,128.1,128.1H122.9z"/></defs><clipPath id="SVGID_5_"><use xlink:href="#SVGID_4_" style="overflow:visible"/></clipPath><g class="st10"><g><g><g><g><g><line x1="189.3" x2="252.4" y1="147.8" y2="183" class="st11"/><line x1="176.1" x2="185.5" y1="140.4" y2="145.6" class="st11"/><line x1="186.6" x2="251.1" y1="165.6" y2="182.8" class="st11"/><line x1="173.2" x2="181.1" y1="162" y2="164.1" class="st11"/><line x1="158.9" x2="168.2" y1="158.2" y2="160.7" class="st11"/><line x1="138.2" x2="251.1" y1="179.8" y2="182.8" class="st11"/><line x1="130.3" x2="252.5" y1="209.6" y2="182.2" class="st11"/><line x1="157.5" x2="253" y1="230.1" y2="180.8" class="st11"/><line x1="134.7" x2="151.5" y1="242.3" y2="233.3" class="st11"/><line x1="174" x2="249.8" y1="254.1" y2="183.2" class="st11"/><line x1="152.7" x2="167.6" y1="273.6" y2="260" class="st11"/><line x1="283.5" x2="292.2" y1="134" y2="120.8" class="st11"/><line x1="253" x2="280.3" y1="180.8" y2="139.1" class="st11"/><line x1="253.4" x2="273.2" y1="180.5" y2="115.8" class="st11"/><line x1="254.5" x2="254.7" y1="120.7" y2="109.6" class="st11"/><line x1="252.6" x2="254.4" y1="184.6" y2="126" class="st11"/><line x1="238.1" x2="234.1" y1="127.7" y2="111.9" class="st11"/><line x1="252.5" x2="239.6" y1="182.2" y2="132.9" class="st11"/><line x1="251.8" x2="215.9" y1="181.6" y2="120.7" class="st11"/><line x1="252.5" x2="195.8" y1="182.2" y2="128.9" class="st11"/></g></g></g><g><g><g><line x1="337.8" x2="250.4" y1="268.3" y2="181.4" class="st11"/><line x1="349.6" x2="341.7" y1="279.9" y2="272.1" class="st11"/><line x1="300.9" x2="250.4" y1="266.4" y2="181.6" class="st11"/><line x1="308.8" x2="303.7" y1="279.8" y2="271" class="st11"/><line x1="322.9" x2="311.5" y1="303.5" y2="284.3" class="st11"/><line x1="283.8" x2="250.6" y1="305" y2="182.8" class="st11"/><line x1="250.4" x2="251.1" y1="301.7" y2="182.3" class="st11"/><line x1="219.5" x2="250.8" y1="291.1" y2="180" class="st11"/><line x1="212.3" x2="217.6" y1="314.9" y2="297.3" class="st11"/><line x1="196.6" x2="250.2" y1="271.1" y2="182.7" class="st11"/><line x1="177.4" x2="193.2" y1="301.2" y2="276.3" class="st11"/><line x1="300" x2="307.2" y1="137.8" y2="131.5" class="st11"/><line x1="254.2" x2="295.8" y1="180.4" y2="141.8" class="st11"/><line x1="253" x2="321" y1="180.8" y2="145.1" class="st11"/><line x1="324.8" x2="339.7" y1="163.4" y2="160" class="st11"/><line x1="248.6" x2="319.3" y1="181.6" y2="164.6" class="st11"/><line x1="364.2" x2="383.9" y1="183.5" y2="183.8" class="st11"/><line x1="251.2" x2="358.5" y1="181.2" y2="183.3" class="st11"/><line x1="249.9" x2="370" y1="181.1" y2="214.2" class="st11"/><line x1="350.8" x2="364.7" y1="238.3" y2="246.1" class="st11"/><line x1="250.6" x2="345.1" y1="181.5" y2="235.3" class="st11"/><line x1="373.7" x2="364.4" y1="199.2" y2="197.8" class="st11"/></g></g></g></g></g><g><g><g><g><g><line x1="233.6" x2="251.8" y1="136.3" y2="182.9" class="st11"/><line x1="221.2" x2="231.8" y1="105.9" y2="132" class="st11"/><line x1="218.4" x2="252.5" y1="140.2" y2="182.2" class="st11"/><line x1="209.8" x2="215.4" y1="129.3" y2="136.4" class="st11"/><line x1="197.8" x2="206.9" y1="114" y2="125.6" class="st11"/><line x1="177.3" x2="251.6" y1="126.6" y2="182.3" class="st11"/><line x1="158.6" x2="251.8" y1="145" y2="182.9" class="st11"/><line x1="165.1" x2="251.9" y1="170.8" y2="182.7" class="st11"/><line x1="141.2" x2="159.3" y1="167.3" y2="169.9" class="st11"/><line x1="160.4" x2="250" y1="192" y2="182.4" class="st11"/><line x1="138.6" x2="155.9" y1="194.3" y2="192.5" class="st11"/><line x1="331.8" x2="345.2" y1="150.9" y2="146.2" class="st11"/><line x1="319.1" x2="327" y1="155.8" y2="152.9" class="st11"/><line x1="252.7" x2="314.3" y1="181.6" y2="157.7" class="st11"/><line x1="252.7" x2="327.3" y1="181.4" y2="129.4" class="st11"/><line x1="302" x2="307.5" y1="123.1" y2="116.5" class="st11"/><line x1="252.6" x2="299" y1="182" y2="126.5" class="st11"/><line x1="278.8" x2="288.2" y1="126.7" y2="107.5" class="st11"/><line x1="253.4" x2="276.9" y1="180.5" y2="130.9" class="st11"/><line x1="252.5" x2="266.2" y1="182.2" y2="103.9" class="st11"/><line x1="245.3" x2="243.8" y1="116.1" y2="102.7" class="st11"/><line x1="253" x2="245.7" y1="180.8" y2="121.5" class="st11"/></g></g></g><g><g><g><line x1="265" x2="250.5" y1="277.9" y2="180.7" class="st11"/><line x1="267.9" x2="265.7" y1="297.2" y2="282.5" class="st11"/><line x1="239.3" x2="250.8" y1="274.8" y2="180.5" class="st11"/><line x1="237.7" x2="238.7" y1="288.1" y2="279.4" class="st11"/><line x1="235.4" x2="237.1" y1="306.7" y2="292.6" class="st11"/><line x1="204" x2="251.2" y1="294.6" y2="181" class="st11"/><line x1="164.6" x2="251.2" y1="289.4" y2="181" class="st11"/><line x1="183.8" x2="252.5" y1="230.7" y2="181.1" class="st11"/><line x1="166.5" x2="179.3" y1="243.3" y2="234" class="st11"/><line x1="179.7" x2="249.8" y1="208.4" y2="181.5" class="st11"/><line x1="151" x2="172.8" y1="219.3" y2="211" class="st11"/><line x1="342.9" x2="362.7" y1="171.7" y2="169.6" class="st11"/><line x1="252.5" x2="337.7" y1="181.1" y2="172.2" class="st11"/><line x1="252.5" x2="359.9" y1="181.1" y2="196.9" class="st11"/><line x1="350.5" x2="369" y1="223.3" y2="231.2" class="st11"/><line x1="249.2" x2="346.1" y1="180" y2="221.4" class="st11"/><line x1="350.9" x2="359.5" y1="257.8" y2="264.2" class="st11"/><line x1="251.2" x2="347.1" y1="181" y2="254.8" class="st11"/><line x1="250.6" x2="338.1" y1="181.7" y2="291.7" class="st11"/><line x1="295.7" x2="301.1" y1="287.9" y2="300.4" class="st11"/><line x1="250.6" x2="293.4" y1="181.7" y2="282.9" class="st11"/></g></g></g><line x1="200.6" x2="202.9" y1="302.7" y2="297" class="st11"/><line x1="195.7" x2="199.3" y1="314.5" y2="305.8" class="st11"/></g></g></g><g class="st10"><path d="M250,214c-18.4,0-33.4-15-33.4-33.4s15-33.4,33.4-33.4c18.4,0,33.4,15,33.4,33.4S268.4,214,250,214z" class="st5"/><path d="M250,148.2c17.9,0,32.4,14.5,32.4,32.4S267.9,213,250,213s-32.4-14.5-32.4-32.4S232.1,148.2,250,148.2 M250,146.2c-19,0-34.4,15.4-34.4,34.4S231,215,250,215c19,0,34.4-15.4,34.4-34.4S269,146.2,250,146.2L250,146.2z" class="st12"/></g></g><g><g><g><g><path d="M311.6,287.9c0,0-0.5,5-4.8,8.6h2.6c0,0-0.9,4.1-6.1,6.9h5c0,0-3.3,5.8-8.6,9.1h5.9 c0,0-1.8,4.4-7.9,8.7h7.1h4.9v3.3c0,0.3,0.2,0.5,0.5,0.5h3c0.3,0,0.5-0.2,0.5-0.5v-3.3h4.9h7.1c-6.1-4.3-7.9-8.7-7.9-8.7 h5.9c-5.3-3.3-8.6-9.1-8.6-9.1h5c-5.2-2.8-6.1-6.9-6.1-6.9h2.6c-4.3-3.6-4.8-8.6-4.8-8.6S311.7,287.7,311.6,287.9z" class="st6"/></g><g><path d="M188.2,287.9c0,0-0.5,5-4.8,8.6h2.6c0,0-0.9,4.1-6.1,6.9h5c0,0-3.3,5.8-8.6,9.1h5.9 c0,0-1.8,4.4-7.9,8.7h7.1h4.9v3.3c0,0.3,0.2,0.5,0.5,0.5h3c0.3,0,0.5-0.2,0.5-0.5v-3.3h4.9h7.1c-6.1-4.3-7.9-8.7-7.9-8.7 h5.9c-5.3-3.3-8.6-9.1-8.6-9.1h5c-5.2-2.8-6.1-6.9-6.1-6.9h2.6c-4.3-3.6-4.8-8.6-4.8-8.6S188.3,287.7,188.2,287.9z" class="st6"/></g><g><path d="M287.1,291.4c0,0-0.5,4.4-4.3,7.7h2.3c0,0-0.8,3.6-5.4,6.1h4.4c0,0-2.9,5.2-7.7,8.1h5.3 c0,0-1.6,3.9-7.1,7.8h6.3h4.4v3c0,0.2,0.2,0.4,0.4,0.4h2.7c0.2,0,0.4-0.2,0.4-0.4v-3h4.4h6.3c-5.5-3.9-7.1-7.8-7.1-7.8h5.3 c-4.8-3-7.7-8.1-7.7-8.1h4.4c-4.6-2.5-5.4-6.1-5.4-6.1h2.3c-3.8-3.2-4.3-7.7-4.3-7.7S287.2,291.2,287.1,291.4z" class="st6"/></g><g><path d="M219,291.4c0,0-0.5,4.4-4.3,7.7h2.3c0,0-0.8,3.6-5.4,6.1h4.4c0,0-2.9,5.2-7.7,8.1h5.3 c0,0-1.6,3.9-7.1,7.8h6.3h4.4v3c0,0.2,0.2,0.4,0.4,0.4h2.7c0.2,0,0.4-0.2,0.4-0.4v-3h4.4h6.3c-5.5-3.9-7.1-7.8-7.1-7.8h5.3 c-4.8-3-7.7-8.1-7.7-8.1h4.4c-4.6-2.5-5.4-6.1-5.4-6.1h2.3c-3.8-3.2-4.3-7.7-4.3-7.7S219.1,291.2,219,291.4z" class="st6"/></g></g><g><g><g><g><polygon points="218.4 322 250 272.6 281.6 322" class="st6"/><path d="M250,274l30.2,47.3h-60.4L250,274 M250,271.2l-1.3,2l-30.2,47.3l-1.5,2.3h2.7h60.4h2.7l-1.5-2.3 l-30.2-47.3L250,271.2L250,271.2z" class="st12"/></g><g><path d="M250,277.1c-0.4,0-0.7-0.3-0.7-0.7v-9.2c0-0.4,0.3-0.7,0.7-0.7c0.4,0,0.7,0.3,0.7,0.7v9.2 C250.7,276.8,250.4,277.1,250,277.1z" class="st6"/><path d="M250,275.7c-0.1,0-0.2,0-0.3-0.1c-0.3-0.2-0.5-0.6-0.3-0.9l3.8-7.5c0.2-0.3,0.6-0.5,0.9-0.3 c0.3,0.2,0.5,0.6,0.3,0.9l-3.8,7.5C250.5,275.5,250.2,275.7,250,275.7z" class="st6"/><path d="M250,275.7c-0.2,0-0.5-0.1-0.6-0.4l-3.8-7.5c-0.2-0.3,0-0.7,0.3-0.9c0.3-0.2,0.7,0,0.9,0.3l3.8,7.5 c0.2,0.3,0,0.7-0.3,0.9C250.2,275.7,250.1,275.7,250,275.7z" class="st6"/></g></g><polygon points="250 277.1 240.3 321.3 259.7 321.3" class="st12"/><path d="M240.3,321.3c0,0-5.2-2.3-8.2-7.5c0,0,9.4-10.2,13.4-16.5L240.3,321.3z" class="st13"/></g></g></g><g><path d="M171.9,322.8c0,0,31.6,26.5,76.6,26.5c52.3,0,80.7-27.3,80.7-27.3H171L171.9,322.8z" class="st14"/><g><g><g><line x1="261.4" x2="277.6" y1="333.3" y2="333.3" class="st15"/></g><g><line x1="255.7" x2="273.9" y1="330.4" y2="330.4" class="st15"/></g><g><line x1="230.2" x2="248.4" y1="339" y2="339" class="st15"/></g><g><line x1="200" x2="209.1" y1="336.2" y2="336.2" class="st15"/></g><g><line x1="211" x2="218" y1="336.2" y2="336.2" class="st15"/></g><g><line x1="178.6" x2="185.6" y1="326.2" y2="326.2" class="st15"/></g><g><line x1="279.6" x2="289.4" y1="340.5" y2="340.5" class="st15"/></g><g><line x1="239.6" x2="246.5" y1="336.2" y2="336.2" class="st15"/></g><g><line x1="242.5" x2="252.3" y1="341.9" y2="341.9" class="st15"/></g><g><line x1="279.4" x2="282.8" y1="333.3" y2="333.3" class="st15"/></g><g><line x1="250.2" x2="253.6" y1="330.4" y2="330.4" class="st15"/></g><g><line x1="205.8" x2="196.8" y1="333.3" y2="333.3" class="st15"/></g><g><line x1="217.2" x2="203.9" y1="326.2" y2="326.2" class="st15"/></g><g><line x1="317.3" x2="289.7" y1="326.2" y2="326.2" class="st15"/></g><g><line x1="195" x2="191.6" y1="333.3" y2="333.3" class="st15"/></g><g><line x1="219.1" x2="222.5" y1="326.2" y2="326.2" class="st15"/></g></g><line x1="164.6" x2="333.4" y1="321.3" y2="321.3" class="st15"/></g></g><g><polygon points="160.1 285.4 161.2 287.5 163.5 287.9 161.8 289.5 162.2 291.8 160.1 290.7 158 291.8 158.4 289.5 156.7 287.9 159 287.5" class="st5"/><polygon points="201.1 274.9 202.1 277 204.5 277.4 202.8 279 203.2 281.3 201.1 280.2 198.9 281.3 199.3 279 197.6 277.4 200 277" class="st5"/><polygon points="174.9 268.6 175.9 270.7 178.3 271.1 176.6 272.7 177 275 174.9 273.9 172.7 275 173.1 272.7 171.4 271.1 173.8 270.7" class="st5"/><polygon points="227.3 269.6 228.4 271.7 230.8 272.1 229.1 273.7 229.5 276 227.3 274.9 225.2 276 225.6 273.7 223.9 272.1 226.3 271.7" class="st5"/><polygon points="301.2 277.6 302.2 279.7 304.6 280 302.9 281.7 303.3 284 301.2 282.9 299.1 284 299.5 281.7 297.8 280 300.1 279.7" class="st5"/><polygon points="330.1 267.3 331.1 269.3 333.5 269.7 331.8 271.3 332.2 273.6 330.1 272.5 328 273.6 328.4 271.3 326.6 269.7 329 269.3" class="st5"/><polygon points="339.8 291.1 340.9 293.2 343.2 293.5 341.5 295.1 341.9 297.4 339.8 296.4 337.7 297.4 338.1 295.1 336.4 293.5 338.7 293.2" class="st5"/><polygon points="271.2 263.2 272.3 265.3 274.7 265.6 272.9 267.3 273.4 269.6 271.2 268.5 269.1 269.6 269.5 267.3 267.8 265.6 270.2 265.3" class="st5"/></g></g></g></g><g><g><path d="M69.1,279.5c-6.4-19.3-9.7-39.5-9.7-60c0-20.6,3.3-40.8,9.7-60.1l1.3-3.9l3.9,1.1 c26.9,7.4,99,24.5,186.5,24.5c59.8,0,115.3-8.1,164.8-24l4.1-1.3l1.3,4c6.3,19.2,9.6,39.3,9.6,59.8c0,20.4-3.2,40.5-9.6,59.8 l-1.3,4l-4-1.3c-51.2-16.3-107.5-24.6-167.5-24.6c-87.3,0-157.6,17.4-183.8,24.9l-4,1.1L69.1,279.5z" class="st12"/><path d="M73.2,160.6c-6.1,18.5-9.5,38.2-9.5,58.8c0,20.5,3.3,40.2,9.4,58.7c39.6-11.3,197.5-50,353.8-0.2 c6.1-18.4,9.4-38,9.4-58.4c0-20.4-3.3-40-9.4-58.4C275.3,209.9,113.4,171.6,73.2,160.6z" class="st1"/></g><g><g><path d="M105,243.2c-4.6,0.7-6.9,1-11.4,1.7c-0.2,1.9-0.4,2.8-0.6,4.6c0.9,5.4,1.4,8,2.3,12 c-5.5,1.5-8.1,2.3-13.4,3.8c1.6-5,2.4-8.1,4-14.3c2.9-20.3,6.9-40.2,9.4-60.6c-1.2-5.9-1.7-8.9-2.9-13.5 c5,1.4,7.5,2.1,12.5,3.3c3.7,21.7,7.9,43.3,10.5,65.2c1.5,4.5,2.2,6.6,3.7,10c-6.7,1.5-10.1,2.4-16.6,4.1 c1.2-4.3,1.8-7.1,3-12.4C105.3,245.6,105.2,244.8,105,243.2z M95.7,231c3.2-0.2,4.7-0.3,7.9-0.5c-1.3-10.6-2-10.3-3.8-21.1 C98.4,220.1,97.6,219.7,95.7,231z" class="st6"/><path d="M121.1,255c1.5-3.9,2.2-6.3,3.7-10.9c0.4-16.5,0.5-32.8,0.3-49.4c-1.4-4.6-2.1-6.9-3.6-10.7 c12.8,2.6,19.3,3.7,31.8,5.9c1.3,3.3,2,5.2,3.3,8.8c0,13.8,0,27.6-0.1,41.5c-1.4,3.6-2.1,5.5-3.5,8.8 C140.3,250.9,133.8,252.2,121.1,255z M146.7,201.1c-0.5-1.4-0.7-2.2-1.2-3.6c-4.5-0.6-6.8-0.9-11.4-1.5 c0.5,1.6,0.7,2.3,1.2,3.9c0.3,13.1,0.2,26.2-0.3,39.2c-0.4,1.4-0.7,2.1-1.1,3.6c4.6-0.6,6.9-0.9,11.4-1.4 c0.5-1.3,0.7-2,1.1-3.3C146.7,221.5,146.7,217.7,146.7,201.1z" class="st6"/><path d="M185.3,201.4c-1.1-3.1-1.6-4.7-2.7-7.6c5.6,0.5,8.3,0.7,13.9,1.1c-1.6,2.6-2.4,4-3.9,6.8 c-3.8,14.7-7.2,29.3-10.3,44.2c-3.3,0.3-4.9,0.4-8.2,0.7c-4.1-15.6-8.4-31.2-11.2-47.1c-1.6-3.5-2.4-5.4-4-8.7 c6.6,1.1,9.8,1.5,16.4,2.2c-1,2.7-1.6,4.3-2.6,7.4c2.1,9.6,2.9,13.9,5.3,22c0.5,2.3,0.8,3.6,1.4,6.2c0.4-2.6,0.5-3.8,0.9-6.1 C182.1,214.4,183.3,210.2,185.3,201.4z" class="st6"/><path d="M228.4,196.2c0,3.9,0,6,0,10.1c-2.7-1.4-4-2.1-6.7-3.5c-4.4-0.1-6.5-0.1-10.9-0.3c0.4,0.8,0.6,1.2,0.9,2.1 c0,4.3,0,6.5,0,10.5c1.3,0,2,0,3.3,0c2.6-1.3,4-2,6.6-3.4c0,5.4,0,7.8,0.1,13.1c-2.7-1.3-4-2-6.7-3.3c-1.3,0-2,0-3.3,0 c0.2,5,0.3,7.9,0.5,13.5c-0.3,0.8-0.4,1.1-0.7,1.9c4.2-0.1,6.3-0.2,10.5-0.3c2.6-1.5,3.9-2.2,6.4-3.6c0.1,4.1,0.1,6.2,0.2,10.2 c-11.6,0.3-17.3,0.6-29.1,1.4c1.2-2.9,1.8-4.4,3-7.3c-0.6-14.6-0.8-20.6-0.9-35c-1.3-2.9-2-4.4-3.4-7.2 C210.4,195.8,216.4,196,228.4,196.2z" class="st6"/><path d="M268.8,196.2c-1.4,2.7-2.1,4-3.5,6.8c-0.1,13.4-0.1,26.8-0.1,40.1c-2.9-0.1-4.4-0.1-7.3-0.1 c-6.4-11.2-9.6-16.7-16-27.8c0.3,1.6,0.4,2.4,0.7,4c0,6.7,0,10.2,0,17.1c1.3,2.7,2,4,3.3,6.6c-5.5,0.1-8.2,0.1-13.7,0.2 c1.3-2.7,1.9-4.1,3.2-6.8c-0.1-13.5-0.1-19.9-0.1-33.4c-1.3-2.7-2-4.1-3.3-6.7c4.3,0.1,6.4,0.1,10.7,0.1 c6.2,11,9.3,16.6,15.5,27.6c-0.1-1.6-0.2-2.5-0.3-4.1c0-6.6,0-10.1,0-16.9c-1.3-2.7-2-4-3.3-6.6 C260.2,196.4,263.1,196.3,268.8,196.2z" class="st6"/><path d="M302,208.9c-2.3-1.2-3.5-1.8-5.8-3.1c0-1.5,0.1-2.2,0.1-3.6c-1.6,0.1-2.5,0.1-4.1,0.2 c-0.4,14.2-0.5,20.3-0.5,34.7c1.3,2.9,2,4.4,3.3,7.2c-6.6-0.4-10-0.6-16.6-0.8c1.3-2.6,2-4,3.3-6.8c0-14,0-20.2,0.3-34.1 c-1.6,0-2.4,0.1-4,0.1c0,1.4,0,2.1-0.1,3.5c-2.4,1.3-3.6,1.9-6,3.1c0.1-5.3,0.1-8,0.1-13.2c12.2-0.3,18.3-0.5,30.3-1.3 C302.3,200.1,302.2,203.2,302,208.9z" class="st6"/><path d="M329.8,200.2c-1.2-3.1-1.8-4.7-3.1-7.4c5.6-0.6,8.2-0.9,14-1.8c-1.3,3.2-2,5-3.2,8.5c0,13.4,0,26.8,0,40.2 c-1.3,3.3-2,4.9-3.3,7.7c-9-0.9-13.5-1.3-22.5-2c-1.3-2.9-2-4.5-3.3-7.6c0-15.2,0.1-21.3,0.6-36.3c-1.2-2.9-1.8-4.4-3.1-7 c6.7-0.5,10-0.7,16.4-1.4c-1.4,3-2.1,4.6-3.5,7.8c-0.4,14.5-0.6,19.9-0.5,34.7c0.5,1.1,0.7,1.6,1.1,2.7 c3.6,0.2,5.4,0.3,9.1,0.6c0.4-1.1,0.6-1.6,1.1-2.7C329.5,220.9,329.5,215.4,329.8,200.2z" class="st6"/><path d="M369.6,227.9c-0.5-1.3-0.7-1.9-1.2-3c-4.1-0.1-6.2-0.1-10.3-0.1c0.5,9.2,0.7,17,1.2,26.3 c-5.6-1-8.4-1.5-14.1-2.3c1.4-2.9,2-4.6,3.3-8c-0.4-14.2-0.6-28.2-0.6-42.4c-1.3-3.5-2-5.1-3.4-8c12.5-2,19.3-3,32.3-5.6 c1.3,3.1,1.9,5.2,3.1,9.4c-0.2,7.7-0.4,12.4-0.6,19c-0.8,2.2-1.2,3.2-2.1,4.9c-2.2,1.3-3.4,1.7-5.4,2.9 c2.2,1.1,3.2,1.8,5.4,3.2c1,2.1,1.5,3.3,2.4,5.8c0.3,5.6,0.4,9,0.7,15.1c1.5,4.8,2.3,7.3,3.8,11.3c-3.9-1-5.9-1.4-9.9-2.3 c-1.6-3.8-2.3-6.1-3.9-10.5C370.1,237.2,369.9,233.6,369.6,227.9z M357.9,217.6c4.1,0,6.1,0,10.2,0c0.5-1,0.7-1.6,1.2-2.8 c0.1-5.2,0.2-8.8,0.3-15.2c-0.5-1.5-0.7-2.2-1.2-3.7c-4.6,0.6-7,0.9-11.6,1.4c0.5,1.3,0.7,2,1.1,3.4 C357.9,208.1,357.9,212.1,357.9,217.6z" class="st6"/><path d="M417.1,174.4c-0.2,6.4-0.3,11.4-0.5,20.5c-2.5-2.6-3.7-3.8-6.2-6.1c-4.2,0.9-6.4,1.3-10.7,2.1 c0.3,1.4,0.5,2.2,0.8,3.7c-0.3,8.1-0.5,12.7-0.8,19c1.3,0,2-0.1,3.3-0.1c2.7-2.2,4.1-3.5,6.8-6.3c-0.4,10.5-0.6,10.5-0.3,19.5 c-2.7-2.3-4-3.4-6.8-5c-1.3,0-2,0-3.3,0c0.3,6.2,0.5,12.5,0.8,23.1c-0.3,1.4-0.4,2.1-0.7,3.4c4.2,0.8,6.3,1.2,10.4,1.9 c2.5-2.4,3.8-3.7,6.3-6.4c0.1,9.2,0.2,14.4,0.3,21.2c-11.2-3.2-16.9-4.8-28.6-7.7c1.1-3.5,1.6-5.8,2.7-10.6 c-0.8-18.3-0.8-35.8-0.1-54.1c-1.2-4.6-1.8-6.8-3-10.2C400,179.7,406.2,178.2,417.1,174.4z" class="st6"/></g></g></g></g></g></svg>