<svg xmlns="http://www.w3.org/2000/svg" xmlns:xlink="http://www.w3.org/1999/xlink" id="OBJECTS" x="0" y="0" version="1.1" viewBox="0 0 250 250" xml:space="preserve" style="enable-background:new 0 0 250 250"><style type="text/css">.st0{fill:#efe1d3}.st1{fill:#5871ad}.st2{fill:#dd034b}</style><g><path id="XMLID_68_" d="M-343.7,301.4h-31.6c-35.1,0-63.5-28.4-63.5-63.5V99.8h158.7v138.1 C-280.2,273-308.7,301.4-343.7,301.4z" class="st0"/><path d="M-286.4,107.8h-147.8c-0.6,0-1.1-0.5-1.1-1.1c0-0.6,0.5-1.1,1.1-1.1h147.8c0.6,0,1.1,0.5,1.1,1.1 C-285.2,107.3-285.7,107.8-286.4,107.8z" class="st1"/><g id="XMLID_69_"><path d="M-359.4,210.3c-0.3,0-0.6-0.1-0.8-0.3l-15.9-15.9c-2.2-2.1-3.4-4.9-3.4-7.9c0-6,4.9-10.9,10.9-10.9 c4.1,0,7.8,2.4,9.6,5.9c1.8-3.5,5.5-5.9,9.6-5.9c6,0,10.9,4.9,10.9,10.9c0,3.4-1.5,6.5-4.2,8.5l-16,15.2 C-358.8,210.2-359.1,210.3-359.4,210.3z M-368.6,177.6c-4.8,0-8.6,3.9-8.6,8.6c0,2.4,1,4.6,2.7,6.3l15.1,15.1l15.3-14.5 c2.2-1.7,3.4-4.2,3.4-6.8c0-4.8-3.9-8.6-8.6-8.6c-4.2,0-7.9,3.2-8.5,7.4c-0.1,0.6-0.6,1-1.1,1c-0.6,0-1-0.4-1.1-1 C-360.7,180.8-364.3,177.6-368.6,177.6z" class="st1"/><path d="M-332.7,234.2C-332.7,234.2-332.7,234.2-332.7,234.2L-332.7,234.2c-3.4,0-6.5-1.5-8.6-4.2l-15.2-16 c-0.4-0.4-0.4-1.1,0-1.6l15.9-15.9c2.1-2.2,4.8-3.4,7.8-3.4c0,0,0,0,0,0c6,0,10.9,4.9,10.8,10.9c0,4.1-2.4,7.8-5.9,9.6 c3.5,1.8,5.9,5.5,5.8,9.6c0,2.9-1.1,5.6-3.2,7.7C-327.1,233.1-329.8,234.2-332.7,234.2z M-332.7,232 C-332.7,232-332.7,232-332.7,232c2.3,0,4.5-0.9,6.1-2.5c1.6-1.6,2.5-3.8,2.5-6.1c0-4.2-3.1-7.9-7.3-8.5c-0.6-0.1-1-0.6-1-1.1 c0-0.6,0.4-1,1-1.1c4.2-0.6,7.4-4.3,7.4-8.5c0-4.8-3.8-8.6-8.6-8.6c0,0,0,0,0,0c-2.4,0-4.6,1-6.2,2.7l-15.2,15.1l14.5,15.3 C-337.9,230.7-335.4,232-332.7,232L-332.7,232z" class="st1"/><path d="M-350.6,250.8C-350.7,250.8-350.7,250.8-350.6,250.8c-4.2,0-7.8-2.4-9.6-5.9c-1.8,3.5-5.5,5.8-9.6,5.8 c0,0,0,0,0,0c-6,0-10.8-4.9-10.8-10.9l0,0c0-3.4,1.5-6.5,4.2-8.5l16-15.2c0.4-0.4,1.1-0.4,1.6,0l15.8,16c2.2,2.1,3.4,4.9,3.3,7.9 C-339.8,245.9-344.7,250.8-350.6,250.8z M-360.3,240.2C-360.3,240.2-360.3,240.2-360.3,240.2c0.6,0,1,0.4,1.1,1 c0.6,4.2,4.2,7.4,8.5,7.4c0,0,0,0,0,0c2.3,0,4.4-0.9,6.1-2.5c1.6-1.6,2.5-3.8,2.6-6.1c0-2.4-0.9-4.6-2.7-6.3l-15.1-15.2 l-15.3,14.5c-2.2,1.7-3.4,4.2-3.4,6.8c0,4.8,3.8,8.6,8.6,8.7c0,0,0,0,0,0c4.2,0,7.9-3.1,8.5-7.3 C-361.3,240.6-360.8,240.2-360.3,240.2z" class="st1"/><path d="M-386.4,232.8C-386.5,232.8-386.5,232.8-386.4,232.8c-6.1,0-10.9-4.9-10.9-10.9c0-4.1,2.4-7.8,5.9-9.6 c-3.5-1.9-5.8-5.5-5.8-9.7c0-6,4.9-10.8,10.9-10.8c0,0,0,0,0.1,0c3.4,0,6.5,1.6,8.5,4.2l15.1,16.1c0.4,0.4,0.4,1.1,0,1.6l-16,15.8 C-380.7,231.6-383.5,232.8-386.4,232.8z M-386.3,194c-4.7,0-8.6,3.8-8.6,8.6c0,4.2,3.1,7.9,7.3,8.6c0.5,0.1,1,0.6,1,1.1 c0,0.6-0.4,1-1,1.1c-4.2,0.6-7.4,4.2-7.4,8.5c0,4.8,3.8,8.6,8.6,8.7c0,0,0,0,0.1,0c2.4,0,4.6-0.9,6.2-2.7l15.2-15l-14.4-15.4 C-381.2,195.3-383.6,194-386.3,194L-386.3,194C-386.3,194-386.3,194-386.3,194z" class="st1"/></g><g id="XMLID_92_"><g id="XMLID_88_"><path d="M-415.2,131.9v-13.1h1.8l4.2,6.6c1,1.5,1.7,2.9,2.3,4.2l0,0c-0.2-1.7-0.2-3.3-0.2-5.4v-5.5h1.6v13.1h-1.7 l-4.1-6.6c-0.9-1.5-1.8-2.9-2.4-4.4l-0.1,0c0.1,1.6,0.1,3.2,0.1,5.4v5.6H-415.2z" class="st1"/><path d="M-394.2,127.8l-1.4,4.1h-1.7l4.4-13.1h2l4.5,13.1h-1.8l-1.4-4.1H-394.2z M-389.9,126.5l-1.3-3.8 c-0.3-0.9-0.5-1.6-0.7-2.4h0c-0.2,0.8-0.4,1.6-0.7,2.4l-1.3,3.8H-389.9z" class="st1"/><path d="M-377.2,120.3h-4v-1.4h9.7v1.4h-4v11.6h-1.7V120.3z" class="st1"/><path d="M-362.2,118.9v7.7c0,2.9,1.3,4.2,3,4.2c1.9,0,3.2-1.3,3.2-4.2v-7.7h1.7v7.6c0,4-2.1,5.7-4.9,5.7 c-2.7,0-4.7-1.5-4.7-5.6v-7.7H-362.2z" class="st1"/><path d="M-345.1,119c0.9-0.2,2.1-0.3,3.2-0.3c1.8,0,3,0.3,3.8,1.1c0.7,0.6,1,1.5,1,2.5c0,1.7-1.1,2.9-2.5,3.3v0.1 c1,0.3,1.6,1.3,1.9,2.6c0.4,1.8,0.7,3.1,1,3.6h-1.7c-0.2-0.4-0.5-1.5-0.9-3.1c-0.4-1.8-1.1-2.5-2.6-2.5h-1.6v5.7h-1.7V119z M-343.5,125h1.7c1.8,0,2.9-1,2.9-2.5c0-1.7-1.2-2.4-3-2.4c-0.8,0-1.4,0.1-1.7,0.2V125z" class="st1"/><path d="M-326.3,127.8l-1.4,4.1h-1.7l4.4-13.1h2l4.5,13.1h-1.8l-1.4-4.1H-326.3z M-322,126.5l-1.3-3.8 c-0.3-0.9-0.5-1.6-0.7-2.4h0c-0.2,0.8-0.4,1.6-0.7,2.4l-1.3,3.8H-322z" class="st1"/><path d="M-310.4,118.9h1.7v11.6h5.6v1.4h-7.3V118.9z" class="st1"/></g><g id="XMLID_94_"><path d="M-396.4,149.5c-0.5,0.2-1.4,0.5-2.6,0.5c-2.8,0-4.9-1.8-4.9-5.1c0-3.1,2.1-5.3,5.2-5.3c1.2,0,2,0.3,2.4,0.4 l-0.3,1.1c-0.5-0.2-1.2-0.4-2-0.4c-2.3,0-3.9,1.5-3.9,4.1c0,2.5,1.4,4,3.8,4c0.8,0,1.6-0.2,2.1-0.4L-396.4,149.5z" class="st1"/><path d="M-381.8,144.7c0,3.4-2.1,5.3-4.7,5.3c-2.6,0-4.5-2.1-4.5-5.1c0-3.2,2-5.3,4.7-5.3 C-383.5,139.6-381.8,141.7-381.8,144.7z M-389.6,144.8c0,2.1,1.2,4.1,3.2,4.1c2.1,0,3.2-1.9,3.2-4.2c0-2-1-4.1-3.2-4.1 C-388.5,140.7-389.6,142.6-389.6,144.8z" class="st1"/><path d="M-366.9,145.4c-0.1-1.4-0.2-3.1-0.1-4.3h0c-0.3,1.2-0.8,2.4-1.3,3.8l-1.8,4.9h-1l-1.6-4.8 c-0.5-1.4-0.9-2.7-1.2-3.9h0c0,1.2-0.1,2.9-0.2,4.4l-0.3,4.3h-1.2l0.7-10h1.6l1.7,4.8c0.4,1.2,0.8,2.3,1,3.4h0 c0.3-1,0.6-2.1,1.1-3.4l1.8-4.8h1.6l0.6,10h-1.3L-366.9,145.4z" class="st1"/><path d="M-358.6,139.9c0.6-0.1,1.4-0.2,2.5-0.2c1.3,0,2.2,0.3,2.8,0.8c0.5,0.5,0.9,1.2,0.9,2.1 c0,0.9-0.3,1.6-0.8,2.1c-0.7,0.7-1.8,1.1-3.1,1.1c-0.4,0-0.7,0-1-0.1v4h-1.3V139.9z M-357.3,144.7c0.3,0.1,0.6,0.1,1.1,0.1 c1.6,0,2.5-0.8,2.5-2.1c0-1.3-0.9-2-2.4-2c-0.6,0-1,0-1.2,0.1V144.7z" class="st1"/><path d="M-345.6,146.6l-1,3.2h-1.3l3.4-10h1.6l3.4,10h-1.4l-1.1-3.2H-345.6z M-342.3,145.6l-1-2.9 c-0.2-0.7-0.4-1.2-0.5-1.8h0c-0.1,0.6-0.3,1.2-0.5,1.8l-1,2.9H-342.3z" class="st1"/><path d="M-333.4,149.8v-10h1.4l3.2,5.1c0.7,1.2,1.3,2.2,1.8,3.3l0,0c-0.1-1.3-0.1-2.6-0.1-4.1v-4.2h1.2v10h-1.3 l-3.2-5.1c-0.7-1.1-1.4-2.3-1.9-3.3l0,0c0.1,1.3,0.1,2.5,0.1,4.1v4.3H-333.4z" class="st1"/><path d="M-316.7,149.8v-4.3l-3.2-5.8h1.5l1.4,2.8c0.4,0.8,0.7,1.4,1,2.1h0c0.3-0.7,0.6-1.3,1-2.1l1.4-2.8h1.5 l-3.4,5.8v4.3H-316.7z" class="st1"/></g></g><g id="XMLID_95_"><path d="M-421.5,180.2c0.3,0.2,0.8,0.4,1.3,0.4c0.7,0,1.1-0.4,1.1-0.9c0-0.5-0.3-0.8-1-1.1c-0.9-0.3-1.4-0.8-1.4-1.5 c0-0.8,0.7-1.5,1.8-1.5c0.6,0,1,0.1,1.2,0.3l-0.2,0.6c-0.2-0.1-0.5-0.3-1-0.3c-0.7,0-1,0.4-1,0.8c0,0.5,0.3,0.8,1.1,1 c0.9,0.4,1.4,0.8,1.4,1.6c0,0.8-0.6,1.6-1.9,1.6c-0.5,0-1.1-0.2-1.4-0.3L-421.5,180.2z" class="st1"/><path d="M-414.1,175.6v5.4h-0.7v-5.4H-414.1z" class="st1"/><path d="M-410.3,181.1v-5.4h0.8l1.7,2.8c0.4,0.6,0.7,1.2,1,1.8l0,0c-0.1-0.7-0.1-1.4-0.1-2.2v-2.3h0.7v5.4h-0.7 l-1.7-2.8c-0.4-0.6-0.7-1.2-1-1.8l0,0c0,0.7,0.1,1.3,0.1,2.2v2.3H-410.3z" class="st1"/><path d="M-398.6,180.9c-0.3,0.1-0.8,0.3-1.4,0.3c-1.5,0-2.7-1-2.7-2.8c0-1.7,1.2-2.9,2.8-2.9c0.7,0,1.1,0.1,1.3,0.2 l-0.2,0.6c-0.3-0.1-0.6-0.2-1.1-0.2c-1.3,0-2.1,0.8-2.1,2.2c0,1.3,0.8,2.2,2.1,2.2c0.4,0,0.9-0.1,1.1-0.2L-398.6,180.9z" class="st1"/><path d="M-392.3,178.5h-2.1v2h2.4v0.6h-3.1v-5.4h2.9v0.6h-2.2v1.7h2.1V178.5z" class="st1"/></g><g id="XMLID_100_"><path d="M-323.6,176.5L-323.6,176.5l-0.9,0.5l-0.1-0.5l1.1-0.6h0.6v5.2h-0.7V176.5z" class="st1"/><path d="M-318,180.6c0.2,0,0.3,0,0.6,0c0.4-0.1,0.8-0.2,1.1-0.5c0.3-0.3,0.6-0.8,0.7-1.4h0c-0.3,0.4-0.7,0.6-1.2,0.6 c-0.9,0-1.5-0.7-1.5-1.6c0-1,0.7-1.9,1.8-1.9c1.1,0,1.7,0.9,1.7,2.2c0,1.2-0.4,2-0.9,2.5c-0.4,0.4-1,0.6-1.5,0.7 c-0.3,0-0.5,0-0.7,0V180.6z M-317.7,177.5c0,0.7,0.4,1.1,1,1.1c0.5,0,0.8-0.2,1-0.5c0-0.1,0.1-0.1,0.1-0.3c0-0.9-0.3-1.6-1.1-1.6 C-317.3,176.3-317.7,176.8-317.7,177.5z" class="st1"/><path d="M-311.7,179.7c0-0.7,0.4-1.1,1-1.4l0,0c-0.6-0.3-0.8-0.7-0.8-1.2c0-0.8,0.7-1.4,1.6-1.4c1,0,1.5,0.6,1.5,1.3 c0,0.4-0.2,0.9-0.9,1.2v0c0.7,0.3,1.1,0.7,1.1,1.4c0,0.9-0.8,1.5-1.8,1.5C-311.1,181.1-311.7,180.5-311.7,179.7z M-308.9,179.7 c0-0.6-0.4-0.9-1.2-1.1c-0.6,0.2-0.9,0.6-0.9,1.1c0,0.5,0.4,1,1,1C-309.3,180.6-308.9,180.2-308.9,179.7z M-310.9,177.1 c0,0.5,0.4,0.8,1,1c0.5-0.2,0.8-0.5,0.8-1c0-0.4-0.3-0.9-0.9-0.9C-310.5,176.2-310.9,176.6-310.9,177.1z" class="st1"/><path d="M-305,179.7c0-0.7,0.4-1.1,1-1.4l0,0c-0.6-0.3-0.8-0.7-0.8-1.2c0-0.8,0.7-1.4,1.6-1.4c1,0,1.5,0.6,1.5,1.3 c0,0.4-0.2,0.9-0.9,1.2v0c0.7,0.3,1.1,0.7,1.1,1.4c0,0.9-0.8,1.5-1.8,1.5C-304.3,181.1-305,180.5-305,179.7z M-302.2,179.7 c0-0.6-0.4-0.9-1.2-1.1c-0.6,0.2-0.9,0.6-0.9,1.1c0,0.5,0.4,1,1,1C-302.6,180.6-302.2,180.2-302.2,179.7z M-304.1,177.1 c0,0.5,0.4,0.8,1,1c0.5-0.2,0.8-0.5,0.8-1c0-0.4-0.3-0.9-0.9-0.9C-303.8,176.2-304.1,176.6-304.1,177.1z" class="st1"/></g><path d="M-360.3,278.6c-0.6,0-1.1-0.5-1.1-1.1v-33.6c0-0.6,0.5-1.1,1.1-1.1s1.1,0.5,1.1,1.1v33.6 C-359.2,278.1-359.7,278.6-360.3,278.6z" class="st1"/></g><g><g><path d="M63.9,126.8c0.3,0.4,0.4,1,0.4,1.7c0,1.3-0.3,2.4-1,3.2c-1.9,2.3-3.8,3.9-5.5,4.8s-3.9,1.4-6.5,1.4 c-1.8,0-3.4-0.2-4.9-0.7c-1.5-0.4-3.3-1.1-5.5-2c-1.9-0.9-3.8-1.6-5.6-2.1c-1.7,3.2-4.3,4.8-7.8,4.8c-1.9,0-3.4-0.4-4.6-1.3 c-1.1-0.9-1.7-2-1.7-3.3c0-1.7,0.8-3.1,2.4-4.2c1.6-1.1,3.7-1.7,6.4-1.7h0.7l0.9-14.9c0.2-3.4,0.8-6.2,1.8-8.4 c1-2.2,2.4-4.1,4.2-5.7c1.6-1.4,3.4-2.4,5.4-3.1c2-0.7,4.1-1,6.4-1c3.7,0,6.5,1,8.5,2.9c2,1.9,3,4.4,3,7.5c0,2.1-0.4,3.8-1.1,5 c-0.8,1.3-1.8,1.9-3.1,1.9c-1,0-1.7-0.2-2.3-0.7c-0.5-0.5-0.8-1.1-0.8-2c0-0.3,0.1-0.9,0.2-1.7c0.2-1,0.3-1.8,0.3-2.6 c0-1.4-0.4-2.6-1.3-3.4c-0.8-0.8-2.1-1.3-3.8-1.3c-3,0-5.3,1-7,2.9c-1.6,2-2.7,5-3.1,9.2l-1.2,11.6c-0.2,1.6-0.4,3.1-0.7,4.2 c2.2,0.4,4.9,1,8.2,1.8c1.9,0.5,3.4,0.8,4.4,1c1,0.2,1.9,0.3,2.7,0.3c2,0,3.7-0.3,5.1-1c1.4-0.7,2.8-1.7,4-3.2 c0.4-0.5,0.9-0.7,1.4-0.7C63.3,126.2,63.6,126.4,63.9,126.8z" class="st2"/><path d="M61.6,135.7c-1-1.4-1.5-3.2-1.5-5.3c0-2.6,0.2-4.9,0.5-7c0.3-2.1,0.9-4.4,1.7-6.8c0.3-1,0.8-1.8,1.4-2.2 c0.6-0.4,1.6-0.7,2.9-0.7c0.7,0,1.3,0.1,1.6,0.4c0.3,0.2,0.4,0.6,0.4,1.1c0,0.3-0.2,1.2-0.6,2.8c-0.3,1.3-0.6,2.4-0.8,3.4 c-0.7,3.6-1,6-1,7.2c0,0.7,0.1,1.2,0.3,1.5c0.2,0.3,0.4,0.4,0.8,0.4c0.5,0,1.2-0.5,1.9-1.5c0.8-1,1.6-2.6,2.5-4.7 c0.9-2.1,1.7-4.6,2.5-7.7c0.3-1,0.7-1.8,1.3-2.2c0.6-0.4,1.4-0.7,2.5-0.7c0.8,0,1.3,0.1,1.6,0.3c0.3,0.2,0.5,0.5,0.5,1 c0,0.9-0.4,3.2-1.3,7c-1,4.4-1.4,7.1-1.4,8.1c0,0.6,0.1,1.2,0.4,1.5c0.3,0.4,0.6,0.5,1.1,0.5c0.7,0,1.5-0.4,2.4-1.3 c0.9-0.8,2.2-2.2,3.8-4.1c0.4-0.5,0.9-0.7,1.4-0.7c0.4,0,0.8,0.2,1,0.6c0.3,0.4,0.4,1,0.4,1.7c0,1.4-0.3,2.4-1,3.2 c-1.5,1.8-3,3.3-4.7,4.4c-1.7,1.2-3.6,1.7-5.8,1.7c-1.6,0-2.8-0.6-3.6-1.9c-0.8-1.3-1.2-3-1.2-5.3c-0.6,2.3-1.4,4.1-2.6,5.3 c-1.2,1.2-2.4,1.9-3.7,1.9C63.8,137.8,62.6,137.1,61.6,135.7z" class="st2"/><path d="M113.9,126.8c0.3,0.4,0.4,1,0.4,1.7c0,1.4-0.3,2.4-1,3.2c-1.4,1.7-2.9,3.2-4.6,4.4c-1.7,1.2-3.3,1.8-5,1.8 c-2.6,0-4.6-1.5-5.9-4.6c-1.4,1.8-2.7,3-3.8,3.6c-1.1,0.6-2.3,0.9-3.8,0.9c-2.1,0-3.8-0.8-5.1-2.3c-1.3-1.6-2-3.6-2-6.1 c0-2.7,0.6-5.3,1.7-7.6c1.2-2.3,2.8-4.2,4.8-5.7c2-1.5,4.3-2.4,6.8-2.6c0.6-6.6,1.9-12.3,3.7-17c1.8-4.7,4.2-7,7.2-7 c1.5,0,2.7,0.7,3.7,2s1.5,3.3,1.5,6c0,3.8-0.9,8.3-2.8,13.4c-1.9,5.1-4.4,10.4-7.5,15.8c0.1,2,0.4,3.4,0.9,4.2 c0.5,0.9,1,1.3,1.8,1.3c0.9,0,1.9-0.4,2.8-1.2c1-0.8,2.2-2.2,3.8-4.1c0.4-0.5,0.9-0.7,1.4-0.7 C113.2,126.2,113.6,126.4,113.9,126.8z M94,131.9c0.6-0.5,1.5-1.5,2.5-2.9c-0.3-1.8-0.5-3.9-0.5-6.2c0-0.8,0-2.1,0.1-4 c-1.9,0.6-3.4,1.8-4.7,3.8c-1.2,1.9-1.9,4.1-1.9,6.4c0,2.5,0.9,3.7,2.6,3.7C92.7,132.7,93.3,132.4,94,131.9z M104.8,98 c-0.6,2.3-1.2,5.3-1.7,9c-0.5,3.7-0.8,7.6-1,11.7c3.8-8.3,5.7-15,5.7-20c0-1.3-0.1-2.3-0.3-3c-0.2-0.7-0.5-1.1-0.8-1.1 C106.1,94.5,105.5,95.7,104.8,98z" class="st2"/><path d="M111.6,135.5c-1-1.6-1.5-3.6-1.5-6.2c0-1.5,0.2-3.5,0.6-5.9c0.4-2.4,0.9-4.6,1.5-6.7c0.3-1.1,0.7-1.8,1.2-2.3 c0.5-0.4,1.3-0.6,2.5-0.6c1.7,0,2.6,0.6,2.6,1.7c0,0.9-0.3,2.8-1,5.9c-0.8,3.8-1.2,6.3-1.2,7.6c0,1,0.1,1.8,0.4,2.4 c0.3,0.5,0.7,0.8,1.4,0.8c0.6,0,1.4-0.4,2.3-1.3c0.9-0.9,2.1-2.2,3.7-4c0.4-0.5,0.9-0.7,1.4-0.7c0.4,0,0.8,0.2,1,0.6 c0.3,0.4,0.4,1,0.4,1.7c0,1.4-0.3,2.4-1,3.2c-3.4,4.1-6.5,6.2-9.5,6.2C114.2,137.8,112.6,137,111.6,135.5z M113.6,109.4 c-0.7-0.7-1.1-1.6-1.1-2.8c0-1.2,0.5-2.2,1.4-3c0.9-0.8,2.1-1.2,3.5-1.2c1.3,0,2.3,0.3,3.1,0.9c0.8,0.6,1.2,1.5,1.2,2.6 c0,1.4-0.4,2.4-1.3,3.2c-0.9,0.8-2.1,1.2-3.5,1.2C115.4,110.4,114.3,110,113.6,109.4z" class="st2"/><path d="M124.6,135c-1.9-1.9-2.8-4.4-2.8-7.5c0-2.8,0.5-5.2,1.6-7.3c1.1-2.1,2.5-3.7,4.2-4.8s3.6-1.7,5.5-1.7 c1.9,0,3.3,0.6,4.4,1.7c1,1.1,1.6,2.5,1.6,4.3c0,1.4-0.3,2.6-0.9,3.6c-0.6,1-1.5,1.5-2.5,1.5c-0.6,0-1.2-0.2-1.6-0.5 c-0.4-0.3-0.6-0.7-0.6-1.3c0-0.2,0-0.5,0.1-0.8c0.1-0.3,0.1-0.5,0.2-0.7c0.2-0.5,0.3-1,0.3-1.4c0-0.4-0.1-0.8-0.3-1 s-0.5-0.4-0.9-0.4c-0.8,0-1.5,0.4-2.2,1c-0.7,0.7-1.2,1.6-1.6,2.8c-0.4,1.2-0.6,2.5-0.6,3.9c0,4,1.7,5.9,5.2,5.9 c1.4,0,2.9-0.5,4.5-1.4c1.6-0.9,3.2-2.3,4.8-4.2c0.4-0.5,0.9-0.7,1.4-0.7c0.4,0,0.8,0.2,1,0.6c0.3,0.4,0.4,1,0.4,1.7 c0,1.3-0.3,2.4-1,3.2c-1.6,2-3.5,3.5-5.8,4.6c-2.2,1.1-4.4,1.6-6.5,1.6C129.1,137.8,126.5,136.9,124.6,135z" class="st2"/><path d="M142.4,135.8c-0.5-1.4-0.8-3.5-0.8-6.5c0-4.4,0.6-8.6,1.9-12.6c0.3-1,0.8-1.7,1.5-2.2 c0.7-0.5,1.7-0.7,2.9-0.7c0.7,0,1.2,0.1,1.4,0.3c0.3,0.2,0.4,0.5,0.4,1c0,0.5-0.3,1.8-0.8,3.7c-0.3,1.4-0.6,2.6-0.8,3.6 c-0.2,1-0.4,2.3-0.5,3.8c1.1-2.9,2.4-5.3,3.8-7.2c1.4-1.8,2.8-3.2,4.1-3.9s2.6-1.2,3.7-1.2c2.2,0,3.3,1.1,3.3,3.3 c0,0.4-0.2,1.5-0.5,3.2c-0.3,1.4-0.4,2.2-0.4,2.6c0,1.2,0.4,1.8,1.3,1.8c1,0,2.2-0.8,3.7-2.3c0.4-0.4,0.9-0.7,1.4-0.7 c0.4,0,0.8,0.2,1,0.6c0.3,0.4,0.4,0.9,0.4,1.6c0,1.3-0.3,2.3-1,3c-1,1-2.1,1.8-3.4,2.5c-1.3,0.7-2.6,1-4.1,1 c-1.8,0-3.2-0.5-4.1-1.4c-0.9-0.9-1.4-2.2-1.4-3.7c0-0.5,0.1-1,0.2-1.5c0.1-0.7,0.1-1.1,0.1-1.4c0-0.5-0.2-0.8-0.6-0.8 c-0.5,0-1.2,0.6-2,1.7c-0.8,1.1-1.7,2.7-2.5,4.5c-0.8,1.9-1.5,3.9-2,5.9c-0.4,1.6-0.8,2.7-1.3,3.2c-0.5,0.6-1.3,0.8-2.3,0.8 C143.8,137.8,142.9,137.1,142.4,135.8z" class="st2"/><path d="M191.9,122.5c0.2,0.4,0.4,1,0.4,1.7c0,1.6-0.5,2.6-1.5,2.9c-2,0.7-4.3,1.1-6.8,1.2c-0.6,2.9-1.9,5.2-3.8,6.9 c-1.9,1.7-4.1,2.6-6.5,2.6c-2,0-3.8-0.5-5.2-1.5c-1.4-1-2.5-2.3-3.3-3.9s-1.1-3.4-1.1-5.3c0-2.6,0.5-4.9,1.5-6.9 c1-2,2.4-3.6,4.1-4.8c1.7-1.1,3.7-1.7,5.8-1.7c2.6,0,4.7,0.9,6.3,2.7c1.6,1.8,2.5,4,2.8,6.6c1.6-0.1,3.5-0.4,5.7-1 c0.3-0.1,0.5-0.1,0.7-0.1C191.3,121.9,191.6,122.1,191.9,122.5z M176.9,131.1c0.8-0.9,1.3-2.2,1.6-3.8c-1.1-0.7-1.9-1.7-2.4-2.8 c-0.6-1.2-0.8-2.4-0.8-3.7c0-0.5,0.1-1.1,0.2-1.6h-0.3c-1.4,0-2.5,0.7-3.4,2s-1.4,3.2-1.4,5.5c0,1.9,0.4,3.3,1.1,4.3 c0.7,1,1.6,1.5,2.6,1.5C175.2,132.4,176.1,132,176.9,131.1z" class="st2"/><path d="M189.3,135.7c-1-1.4-1.5-3.2-1.5-5.3c0-2.6,0.2-4.9,0.5-7s0.9-4.4,1.7-6.8c0.3-1,0.8-1.8,1.4-2.2 c0.6-0.4,1.6-0.7,2.9-0.7c0.7,0,1.3,0.1,1.6,0.4c0.3,0.2,0.4,0.6,0.4,1.1c0,0.3-0.2,1.2-0.6,2.8c-0.3,1.3-0.6,2.4-0.8,3.4 c-0.7,3.6-1,6-1,7.2c0,0.7,0.1,1.2,0.3,1.5c0.2,0.3,0.4,0.4,0.8,0.4c0.5,0,1.2-0.5,1.9-1.5c0.8-1,1.6-2.6,2.5-4.7 c0.9-2.1,1.7-4.6,2.5-7.7c0.3-1,0.7-1.8,1.3-2.2c0.6-0.4,1.4-0.7,2.5-0.7c0.8,0,1.3,0.1,1.6,0.3c0.3,0.2,0.5,0.5,0.5,1 c0,0.9-0.4,3.2-1.3,7c-1,4.4-1.4,7.1-1.4,8.1c0,0.6,0.1,1.2,0.4,1.5c0.3,0.4,0.6,0.5,1.1,0.5c0.7,0,1.5-0.4,2.4-1.3 c0.9-0.8,2.2-2.2,3.8-4.1c0.4-0.5,0.9-0.7,1.4-0.7c0.4,0,0.8,0.2,1,0.6s0.4,1,0.4,1.7c0,1.4-0.3,2.4-1,3.2c-1.5,1.8-3,3.3-4.7,4.4 c-1.7,1.2-3.6,1.7-5.8,1.7c-1.6,0-2.8-0.6-3.6-1.9c-0.8-1.3-1.2-3-1.2-5.3c-0.6,2.3-1.4,4.1-2.6,5.3c-1.2,1.2-2.4,1.9-3.7,1.9 C191.5,137.8,190.3,137.1,189.3,135.7z" class="st2"/><path d="M216.9,137.7c-0.9-0.8-1.4-1.7-1.4-2.8c0-0.9,0.3-1.7,1-2.3c0.6-0.6,1.6-1,2.9-1c0.4,0,1,0,1.6,0.1 c0.6,0.1,1,0.1,1.4,0.2c0-0.9-0.2-1.7-0.6-2.5c-0.4-0.8-0.8-1.5-1.4-2.3c-0.5-0.7-1.1-1.4-1.5-1.9c-1.1,2-2.1,3.7-3.1,5 c-1,1.3-2.2,2.6-3.4,3.8c-0.6,0.6-1.3,0.9-1.9,0.9c-0.5,0-1-0.2-1.3-0.6c-0.3-0.4-0.5-0.9-0.5-1.5c0-0.7,0.2-1.3,0.7-1.9l0.7-0.8 c1.9-2.3,3.3-4.2,4.2-5.7c0.6-1,1.2-2.2,1.9-3.5c0.6-1.4,1.5-3.2,2.5-5.6c0.6-1.5,2-2.3,4-2.3c1,0,1.6,0.1,2,0.3 c0.4,0.2,0.6,0.4,0.6,0.8c0,0.2-0.1,0.5-0.2,1c-0.1,0.4-0.3,0.9-0.6,1.3c-0.6,1.2-0.9,2.3-0.9,3.1c0,0.5,0.2,1.1,0.5,1.7 c0.4,0.6,0.9,1.4,1.7,2.3c1.1,1.4,1.9,2.7,2.5,3.7c0.6,1,0.8,2.1,0.8,3.3c0,1.4-0.3,2.8-1,4.1s-1.6,2.3-2.8,3.1 c-1.2,0.8-2.6,1.2-4.1,1.2C219.2,138.9,217.8,138.5,216.9,137.7z" class="st2"/></g><g><path d="M155.1,154.5c-0.6-0.4-1-1-1-1.9c0-0.4,0.1-0.8,0.2-1c0.2-0.2,0.4-0.3,0.7-0.3c0.2,0,0.4,0.1,0.5,0.2s0.2,0.3,0.2,0.4 c0,0.2,0,0.3,0,0.4c0,0,0,0.1,0,0.2c0,0.1,0,0.2,0,0.3c0,0.4,0.2,0.6,0.5,0.8c0.4,0.2,0.9,0.3,1.5,0.3c0.7,0,1.2-0.1,1.6-0.4 c0.4-0.2,0.6-0.6,0.6-1c0-0.3-0.1-0.5-0.3-0.7c-0.2-0.2-0.4-0.4-0.7-0.5s-0.6-0.3-1.1-0.5c-0.6-0.2-1.1-0.5-1.5-0.7 s-0.7-0.5-1-0.9c-0.3-0.4-0.4-0.8-0.4-1.4c0-0.6,0.2-1.1,0.5-1.5c0.3-0.4,0.8-0.8,1.3-1c0.6-0.2,1.3-0.4,2-0.4 c0.6,0,1.1,0.1,1.6,0.3s0.9,0.4,1.2,0.8c0.3,0.4,0.4,0.8,0.4,1.3c0,0.5-0.1,0.9-0.2,1.1s-0.4,0.4-0.7,0.4c-0.2,0-0.4-0.1-0.5-0.2 c-0.1-0.1-0.2-0.3-0.2-0.5c0-0.2,0-0.3,0-0.4c0-0.2,0-0.4,0-0.5c0-0.3-0.2-0.6-0.5-0.8c-0.3-0.2-0.7-0.3-1.2-0.3 c-0.7,0-1.2,0.1-1.6,0.4s-0.5,0.6-0.5,1.1c0,0.3,0.1,0.6,0.3,0.8c0.2,0.2,0.4,0.4,0.7,0.5c0.3,0.1,0.7,0.3,1.2,0.5 c0.6,0.2,1.1,0.5,1.5,0.7c0.4,0.2,0.7,0.5,0.9,0.8c0.3,0.3,0.4,0.8,0.4,1.3c0,0.9-0.4,1.7-1.1,2.2s-1.7,0.8-2.9,0.8 C156.6,155.1,155.7,154.9,155.1,154.5z"/><path d="M162.9,154.5c-0.2-0.4-0.4-0.9-0.4-1.5c0-0.4,0-0.8,0.1-1.4c0.1-0.6,0.2-1.1,0.4-1.6c0.1-0.3,0.2-0.4,0.3-0.5 c0.1-0.1,0.3-0.1,0.6-0.1c0.4,0,0.6,0.1,0.6,0.4c0,0.2-0.1,0.7-0.2,1.4c-0.2,0.9-0.3,1.5-0.3,1.8c0,0.2,0,0.4,0.1,0.6 c0.1,0.1,0.2,0.2,0.3,0.2c0.1,0,0.3-0.1,0.5-0.3c0.2-0.2,0.5-0.5,0.9-0.9c0.1-0.1,0.2-0.2,0.3-0.2c0.1,0,0.2,0,0.2,0.1 c0.1,0.1,0.1,0.2,0.1,0.4c0,0.3-0.1,0.6-0.2,0.7c-0.8,1-1.5,1.5-2.2,1.5C163.5,155.1,163.1,154.9,162.9,154.5z M163.4,148.4 c-0.2-0.2-0.3-0.4-0.3-0.7c0-0.3,0.1-0.5,0.3-0.7c0.2-0.2,0.5-0.3,0.8-0.3c0.3,0,0.5,0.1,0.7,0.2c0.2,0.1,0.3,0.3,0.3,0.6 c0,0.3-0.1,0.6-0.3,0.8c-0.2,0.2-0.5,0.3-0.8,0.3C163.8,148.6,163.5,148.6,163.4,148.4z"/><path d="M165.7,154.6c-0.1-0.3-0.2-0.8-0.2-1.5c0-1,0.1-2,0.4-3c0.1-0.2,0.2-0.4,0.4-0.5c0.2-0.1,0.4-0.2,0.7-0.2 c0.2,0,0.3,0,0.3,0.1c0.1,0,0.1,0.1,0.1,0.2c0,0.1-0.1,0.4-0.2,0.9c-0.1,0.3-0.1,0.6-0.2,0.8c0,0.2-0.1,0.5-0.1,0.9 c0.3-0.7,0.6-1.2,0.9-1.7c0.3-0.4,0.6-0.7,1-0.9c0.3-0.2,0.6-0.3,0.9-0.3c0.5,0,0.8,0.3,0.8,0.8c0,0.3-0.1,0.9-0.3,1.7 c-0.2,0.7-0.2,1.2-0.2,1.4c0,0.3,0.1,0.5,0.3,0.5c0.2,0,0.4-0.1,0.6-0.3s0.5-0.5,0.9-1c0.1-0.1,0.2-0.2,0.3-0.2 c0.1,0,0.2,0,0.2,0.1c0.1,0.1,0.1,0.2,0.1,0.4c0,0.3-0.1,0.6-0.2,0.7c-0.3,0.4-0.7,0.8-1.1,1c-0.4,0.3-0.8,0.4-1.4,0.4 c-0.4,0-0.7-0.1-0.9-0.4s-0.3-0.6-0.3-1c0-0.2,0.1-0.6,0.2-1.2c0.1-0.5,0.2-0.9,0.2-1c0-0.1,0-0.2-0.1-0.2c-0.1,0-0.3,0.1-0.4,0.4 c-0.2,0.3-0.4,0.6-0.6,1.1c-0.2,0.4-0.4,0.9-0.5,1.4c-0.1,0.4-0.2,0.6-0.3,0.8c-0.1,0.1-0.3,0.2-0.5,0.2 C166,155.1,165.8,154.9,165.7,154.6z"/><path d="M171.9,154.4c-0.4-0.4-0.7-1-0.7-1.8c0-0.6,0.1-1.2,0.4-1.7c0.3-0.5,0.6-0.9,1-1.1c0.4-0.3,0.8-0.4,1.3-0.4 c0.4,0,0.8,0.1,1,0.4s0.4,0.6,0.4,1c0,0.3-0.1,0.6-0.2,0.9c-0.1,0.2-0.3,0.3-0.6,0.3c-0.2,0-0.3,0-0.4-0.1 c-0.1-0.1-0.1-0.2-0.1-0.3c0-0.1,0-0.1,0-0.2c0-0.1,0-0.1,0-0.2c0-0.1,0.1-0.2,0.1-0.3c0-0.1,0-0.2-0.1-0.2s-0.1-0.1-0.2-0.1 c-0.2,0-0.4,0.1-0.5,0.2s-0.3,0.4-0.4,0.7c-0.1,0.3-0.1,0.6-0.1,0.9c0,0.9,0.4,1.4,1.2,1.4c0.3,0,0.7-0.1,1.1-0.3 c0.4-0.2,0.8-0.6,1.1-1c0.1-0.1,0.2-0.2,0.3-0.2c0.1,0,0.2,0,0.2,0.1c0.1,0.1,0.1,0.2,0.1,0.4c0,0.3-0.1,0.6-0.2,0.7 c-0.4,0.5-0.8,0.8-1.4,1.1c-0.5,0.3-1,0.4-1.5,0.4C173,155.1,172.4,154.9,171.9,154.4z"/><path d="M180.4,152.9c0.1,0.1,0.1,0.2,0.1,0.4c0,0.3-0.1,0.5-0.2,0.7c-0.2,0.3-0.5,0.6-0.9,0.8c-0.4,0.2-0.8,0.3-1.3,0.3 c-0.8,0-1.4-0.2-1.8-0.7c-0.4-0.5-0.6-1.1-0.6-1.9c0-0.6,0.1-1.1,0.3-1.5c0.2-0.5,0.6-0.9,1-1.1s0.9-0.4,1.4-0.4 c0.5,0,0.8,0.1,1.1,0.4c0.3,0.3,0.4,0.6,0.4,1.1c0,0.6-0.2,1-0.6,1.4c-0.4,0.4-1.1,0.7-2,0.9c0.2,0.4,0.5,0.6,1,0.6 c0.3,0,0.6-0.1,0.8-0.2c0.2-0.2,0.5-0.4,0.7-0.8c0.1-0.1,0.2-0.2,0.3-0.2C180.3,152.7,180.4,152.8,180.4,152.9z M177.4,151.1 c-0.2,0.3-0.3,0.8-0.3,1.2v0c0.5-0.1,0.8-0.3,1.1-0.5c0.3-0.2,0.4-0.5,0.4-0.8c0-0.2,0-0.3-0.1-0.4c-0.1-0.1-0.2-0.1-0.3-0.1 C177.9,150.6,177.7,150.8,177.4,151.1z"/><path d="M185.2,154.9c-0.2-0.1-0.2-0.3-0.2-0.6l0-0.1c0.1-0.8,0.2-1.7,0.3-2.6c0.1-0.9,0.2-1.6,0.3-2.1l-0.9,0.3l-0.1,0 c-0.2,0-0.3-0.1-0.4-0.2s-0.1-0.3-0.1-0.4l0-0.1c0-0.2,0.1-0.3,0.1-0.4c0.1-0.1,0.2-0.2,0.5-0.3c0.2-0.1,0.6-0.2,1-0.3l0.5-0.1 c0.2,0,0.3-0.1,0.5-0.1c0.2,0,0.4,0.1,0.5,0.2s0.2,0.3,0.2,0.5c0,0.1,0,0.2,0,0.3c-0.1,0.6-0.4,2.4-0.7,5.3 c-0.1,0.5-0.3,0.7-0.9,0.7C185.6,155.1,185.4,155,185.2,154.9z"/><path d="M193.3,148.8c0.4,0.5,0.7,1.2,0.7,2.1c0,0.8-0.1,1.5-0.4,2.2c-0.3,0.6-0.7,1.1-1.2,1.5s-1.1,0.5-1.8,0.5 c-0.6,0-1.1-0.1-1.5-0.4c-0.4-0.3-0.6-0.7-0.7-1.1l0-0.1c0-0.2,0.1-0.4,0.2-0.5c0.1-0.1,0.3-0.2,0.6-0.2c0.2,0,0.3,0,0.4,0.1 c0.1,0.1,0.2,0.3,0.3,0.5c0.1,0.2,0.2,0.3,0.3,0.4c0.1,0.1,0.3,0.1,0.6,0.1c0.5,0,0.8-0.2,1.1-0.5s0.5-0.9,0.5-1.6 c-0.2,0.2-0.4,0.4-0.7,0.5c-0.3,0.1-0.6,0.2-0.9,0.2c-0.4,0-0.8-0.1-1.1-0.3s-0.6-0.4-0.7-0.7c-0.2-0.3-0.3-0.6-0.3-1 c0-0.5,0.1-0.9,0.3-1.2c0.2-0.4,0.5-0.7,0.9-0.9c0.4-0.2,0.9-0.3,1.4-0.3C192.3,148,192.9,148.3,193.3,148.8z M192,150.9 c0.2-0.2,0.3-0.4,0.3-0.8c0-0.3-0.1-0.5-0.2-0.7s-0.4-0.3-0.7-0.3c-0.3,0-0.6,0.1-0.8,0.3c-0.2,0.2-0.3,0.5-0.3,0.8 c0,0.3,0.1,0.5,0.2,0.6s0.4,0.2,0.6,0.2C191.5,151.2,191.8,151.1,192,150.9z"/><path d="M200.5,148.2c0.1,0.1,0.1,0.3,0.1,0.5c0,0.2,0,0.4-0.1,0.5c-0.1,0.1-0.2,0.2-0.3,0.3s-0.2,0.2-0.3,0.2 c-0.8,0.6-1.4,1.3-1.8,2s-0.5,1.6-0.6,2.4c0,0.3-0.1,0.6-0.3,0.7c-0.1,0.2-0.3,0.2-0.6,0.2c-0.2,0-0.4-0.1-0.6-0.2 c-0.2-0.2-0.2-0.4-0.2-0.8c0-0.5,0.1-1,0.3-1.5c0.2-0.5,0.4-1.1,0.8-1.6s0.9-1,1.4-1.5l-3,0c-0.2,0-0.3-0.1-0.4-0.2 s-0.1-0.3-0.1-0.4c0-0.2,0.1-0.4,0.2-0.6c0.1-0.2,0.3-0.2,0.5-0.2c0.4,0,1,0,1.7,0.1c0.2,0,0.4,0,0.8,0c0.4,0,0.7,0,1,0 c0.1,0,0.3,0,0.5-0.1c0,0,0.1,0,0.2-0.1c0.1,0,0.2,0,0.3,0C200.3,148,200.4,148.1,200.5,148.2z"/><path d="M203.1,149.8c-0.3,0.4-0.5,0.9-0.5,1.6c0.2-0.2,0.4-0.4,0.7-0.5c0.3-0.1,0.6-0.1,0.9-0.1c0.4,0,0.8,0.1,1.1,0.3 c0.3,0.2,0.6,0.4,0.7,0.7c0.2,0.3,0.3,0.6,0.3,1c0,0.5-0.1,0.9-0.3,1.2s-0.5,0.7-0.9,0.9c-0.4,0.2-0.9,0.3-1.4,0.3 c-0.8,0-1.5-0.3-1.9-0.8c-0.4-0.5-0.7-1.2-0.7-2.1c0-0.8,0.1-1.5,0.4-2.2c0.3-0.6,0.7-1.1,1.2-1.5c0.5-0.3,1.1-0.5,1.8-0.5 c0.6,0,1.1,0.1,1.5,0.4c0.4,0.3,0.6,0.7,0.7,1.1l0,0.1c0,0.2-0.1,0.4-0.2,0.5c-0.1,0.1-0.3,0.2-0.6,0.2c-0.2,0-0.3,0-0.4-0.1 s-0.2-0.3-0.3-0.5c-0.1-0.2-0.2-0.3-0.3-0.4c-0.1-0.1-0.3-0.1-0.6-0.1C203.7,149.2,203.4,149.4,203.1,149.8z M203,152.2 c-0.2,0.2-0.3,0.4-0.3,0.8c0,0.3,0.1,0.5,0.2,0.7s0.4,0.3,0.7,0.3c0.3,0,0.6-0.1,0.8-0.3c0.2-0.2,0.3-0.5,0.3-0.8 c0-0.3-0.1-0.5-0.2-0.6s-0.4-0.2-0.6-0.2C203.4,151.9,203.1,152,203,152.2z"/></g></g></svg>