<svg xmlns="http://www.w3.org/2000/svg" xmlns:xlink="http://www.w3.org/1999/xlink" id="OBJECTS" x="0" y="0" version="1.1" viewBox="0 0 250 250" xml:space="preserve" style="enable-background:new 0 0 250 250"><style type="text/css">.st0{fill:#feddd6}.st1{fill:#4b465b}</style><g><path d="M219.5,174.4c-14.4,22.7-38.6,27.7-62.7,34.4c-27.3,7.5-54.1,18.3-82.9,13.2c-24.4-4.3-47.7-18.9-60.7-40.2 c-12.3-20.2-13-47.8,4.5-65.3c9.2-9.2,21.5-14.3,31.6-22.4c10.6-8.5,18.9-18.9,25.6-30.6c4.8-8.5,10.3-18,17.2-25.7 c2.9-3.5,6.3-6.6,10.2-9.1c3-2,6.3-3.6,9.8-4.6c1.1-0.3,2.2-0.7,3.3-0.9c26.3-6.3,56.9,6.1,77.7,21.7 C232.1,74.1,246.5,131.9,219.5,174.4z" class="st0"/><g><g><path d="M123.5,222.6c-51.5,0-93.4-41.9-93.4-93.4c0-51.5,41.9-93.4,93.4-93.4c51.5,0,93.4,41.9,93.4,93.4 C216.9,180.7,175,222.6,123.5,222.6z M123.5,37.3c-50.7,0-91.9,41.2-91.9,91.9s41.2,91.9,91.9,91.9c50.7,0,91.9-41.2,91.9-91.9 S174.2,37.3,123.5,37.3z" class="st1"/></g><g><g><rect width="157.4" height="1.5" x="44.8" y="102.3" class="st1"/></g><g><rect width="156.2" height="1.5" x="46.1" y="154.7" class="st1"/></g></g><g><path d="M59.5,121.3h12.7v2.6h-9.7v7.8h8.9v2.5h-8.9v10.7h-3V121.3z" class="st1"/><path d="M77.6,137.5l-2.5,7.4H72l8-23.6h3.7l8.1,23.6h-3.3l-2.5-7.4H77.6z M85.3,135.1l-2.3-6.8 c-0.5-1.5-0.9-2.9-1.2-4.3h-0.1c-0.4,1.4-0.7,2.8-1.2,4.3l-2.3,6.8H85.3z" class="st1"/><path d="M94.8,141.2c1.4,0.8,3.4,1.5,5.5,1.5c3.1,0,4.9-1.6,4.9-4c0-2.2-1.3-3.5-4.4-4.7c-3.9-1.4-6.2-3.4-6.2-6.7 c0-3.7,3-6.4,7.6-6.4c2.4,0,4.2,0.6,5.2,1.2l-0.8,2.5c-0.8-0.4-2.3-1.1-4.5-1.1c-3.2,0-4.4,1.9-4.4,3.5c0,2.2,1.4,3.3,4.7,4.6 c4,1.5,6,3.5,6,6.9c0,3.6-2.7,6.8-8.3,6.8c-2.3,0-4.8-0.7-6-1.5L94.8,141.2z" class="st1"/><path d="M115.5,121.3v9.9h11.4v-9.9h3.1v23.6h-3.1v-11.1h-11.4v11.1h-3v-23.6H115.5z" class="st1"/><path d="M138.3,121.3v23.6h-3v-23.6H138.3z" class="st1"/><path d="M163.8,132.8c0,8.1-4.9,12.4-11,12.4c-6.2,0-10.6-4.8-10.6-12c0-7.5,4.7-12.4,11-12.4 C159.7,120.9,163.8,125.8,163.8,132.8z M145.5,133.2c0,5,2.7,9.6,7.5,9.6c4.8,0,7.6-4.4,7.6-9.8c0-4.7-2.5-9.6-7.5-9.6 C148,123.4,145.5,128,145.5,133.2z" class="st1"/><path d="M167.8,144.9v-23.6h3.3l7.6,11.9c1.8,2.8,3.1,5.3,4.2,7.7l0.1,0c-0.3-3.2-0.4-6-0.4-9.7v-9.9h2.9v23.6h-3.1 l-7.5-12c-1.6-2.6-3.2-5.3-4.4-7.9l-0.1,0c0.2,3,0.2,5.8,0.2,9.7v10.1H167.8z" class="st1"/></g><g><path d="M90.7,176.7c0.8,0.5,1.9,0.9,3.1,0.9c1.8,0,2.8-0.9,2.8-2.3c0-1.2-0.7-2-2.5-2.6c-2.2-0.8-3.5-1.9-3.5-3.8 c0-2.1,1.7-3.6,4.3-3.6c1.4,0,2.3,0.3,2.9,0.7l-0.5,1.4c-0.4-0.2-1.3-0.6-2.5-0.6c-1.8,0-2.5,1.1-2.5,2c0,1.2,0.8,1.9,2.6,2.6 c2.2,0.9,3.4,2,3.4,3.9c0,2.1-1.5,3.8-4.7,3.8c-1.3,0-2.7-0.4-3.4-0.8L90.7,176.7z" class="st1"/><path d="M106.6,167h-4v-1.5h9.8v1.5h-4.1v11.8h-1.7V167z" class="st1"/><path d="M129.4,172c0,4.6-2.8,7-6.2,7c-3.5,0-6-2.7-6-6.7c0-4.2,2.6-7,6.2-7C127.1,165.3,129.4,168.1,129.4,172z M119.1,172.2c0,2.8,1.5,5.4,4.2,5.4c2.7,0,4.3-2.5,4.3-5.5c0-2.6-1.4-5.4-4.2-5.4C120.5,166.7,119.1,169.3,119.1,172.2z" class="st1"/><path d="M135.8,165.7c0.9-0.2,2.1-0.3,3.3-0.3c1.8,0,3,0.3,3.8,1.1c0.7,0.6,1,1.5,1,2.5c0,1.8-1.1,2.9-2.5,3.4v0.1 c1,0.4,1.6,1.3,2,2.7c0.4,1.9,0.7,3.1,1,3.6h-1.8c-0.2-0.4-0.5-1.5-0.9-3.2c-0.4-1.8-1.1-2.5-2.7-2.6h-1.6v5.8h-1.7V165.7z M137.6,171.7h1.8c1.8,0,3-1,3-2.5c0-1.7-1.2-2.5-3.1-2.5c-0.8,0-1.4,0.1-1.7,0.2V171.7z" class="st1"/><path d="M157.5,172.6h-5.2v4.8h5.8v1.4h-7.5v-13.3h7.2v1.4h-5.5v4.2h5.2V172.6z" class="st1"/></g><g><g><path d="M122.7,99.4L110,86.7v-9.3h25.4v9.3L122.7,99.4z M111.4,86.1l11.2,11.2l11.2-11.2v-7.2h-22.5V86.1z" class="st1"/></g><g><rect width="30.8" height="1.5" x="106.9" y="86.1" class="st1"/></g><g><polygon points="122.7 87.7 110.3 78.8 111.1 77.6 122.7 85.9 134.2 77.6 135 78.8" class="st1"/></g><g><rect width="1.5" height="11.6" x="121.9" y="86.8" class="st1"/></g></g><g><path d="M124.2,224.3c-53.6,0-97.2-43.6-97.2-97.2c0-53.6,43.6-97.2,97.2-97.2c53.6,0,97.2,43.6,97.2,97.2 C221.4,180.7,177.8,224.3,124.2,224.3z M124.2,30.6c-53.2,0-96.5,43.3-96.5,96.5s43.3,96.5,96.5,96.5s96.5-43.3,96.5-96.5 S177.4,30.6,124.2,30.6z" class="st1"/></g><g><path d="M123.5,228.6c-53.6,0-97.2-43.6-97.2-97.2c0-53.6,43.6-97.2,97.2-97.2c53.6,0,97.2,43.6,97.2,97.2 C220.8,185,177.1,228.6,123.5,228.6z M123.5,35c-53.2,0-96.5,43.3-96.5,96.5c0,53.2,43.3,96.5,96.5,96.5 c53.2,0,96.5-43.3,96.5-96.5C220,78.2,176.7,35,123.5,35z" class="st1"/></g></g></g></svg>