<svg xmlns="http://www.w3.org/2000/svg" xmlns:xlink="http://www.w3.org/1999/xlink" id="OBJECTS" x="0" y="0" version="1.1" viewBox="0 0 250 250" xml:space="preserve" style="enable-background:new 0 0 250 250"><g><path d="M45.8,122.4l-2.2-6h-8.7l-2.2,6h-2.1l7.7-20.3h1.9l7.7,20.3H45.8z M39.6,105.6c-0.1-0.2-0.1-0.4-0.2-0.6 c-0.1-0.2-0.1-0.5-0.2-0.8h-0.1c-0.1,0.3-0.1,0.6-0.2,0.8s-0.1,0.4-0.2,0.6l-3.3,9h7.4L39.6,105.6z"/><path d="M65,122.4L53.8,106c-0.1-0.2-0.3-0.4-0.4-0.6c-0.1-0.2-0.2-0.4-0.3-0.6h-0.1c0,0.2,0,0.4,0,0.7s0,0.7,0,1.1v15.8h-1.9V102 h2.1l11.1,16.1c0.2,0.3,0.3,0.5,0.5,0.7c0.1,0.2,0.3,0.4,0.4,0.6h0.1c0-0.3-0.1-0.7-0.1-1c0-0.4,0-0.8,0-1.3V102H67v20.3H65z"/><path d="M86.2,122.4L74.9,106c-0.1-0.2-0.3-0.4-0.4-0.6c-0.1-0.2-0.2-0.4-0.3-0.6h-0.1c0,0.2,0,0.4,0,0.7s0,0.7,0,1.1v15.8h-1.9 V102h2.1l11.1,16.1c0.2,0.3,0.3,0.5,0.5,0.7c0.1,0.2,0.3,0.4,0.4,0.6h0.1c0-0.3-0.1-0.7-0.1-1c0-0.4,0-0.8,0-1.3V102h1.9v20.3H86.2 z"/><path d="M106.6,122.4l-2.2-6h-8.7l-2.2,6h-2.1l7.7-20.3h1.9l7.7,20.3H106.6z M100.4,105.6c-0.1-0.2-0.1-0.4-0.2-0.6 c-0.1-0.2-0.1-0.5-0.2-0.8H100c-0.1,0.3-0.1,0.6-0.2,0.8s-0.1,0.4-0.2,0.6l-3.3,9h7.4L100.4,105.6z"/><path d="M137.9,122.4v-14c0-0.7,0.1-1.9,0.2-3.5H138c-0.1,0.4-0.3,0.8-0.4,1.1s-0.2,0.6-0.3,0.8l-7.1,15.6h-0.8l-7.1-15.5 c-0.2-0.5-0.4-1.1-0.6-2h-0.1c0,0.4,0.1,0.9,0.1,1.5c0,0.6,0,1.2,0,1.9v14.2h-1.8V102h2.2l6.9,15.3c0.1,0.3,0.3,0.7,0.4,1 c0.1,0.3,0.3,0.7,0.4,1.1h0.1c0.1-0.4,0.3-0.7,0.4-1s0.2-0.6,0.4-1l7-15.3h2.1v20.3H137.9z"/><path d="M153.3,122.7c-1.5,0-2.8-0.3-4-0.8s-2.2-1.3-3-2.2c-0.8-0.9-1.4-2-1.9-3.3c-0.4-1.3-0.7-2.6-0.7-4c0-1.6,0.2-3,0.7-4.4 c0.4-1.3,1.1-2.4,1.9-3.4c0.8-0.9,1.9-1.7,3.1-2.2c1.2-0.5,2.6-0.8,4.2-0.8c1.4,0,2.7,0.3,3.9,0.8c1.1,0.5,2.1,1.2,2.9,2.1 c0.8,0.9,1.4,2,1.8,3.2c0.4,1.2,0.6,2.6,0.6,4.1c0,1.5-0.2,3-0.6,4.3c-0.4,1.3-1,2.5-1.9,3.4c-0.8,1-1.8,1.7-3,2.3 C156.2,122.5,154.9,122.7,153.3,122.7z M153.5,103.4c-1.2,0-2.3,0.2-3.3,0.7c-0.9,0.5-1.8,1.1-2.4,1.9c-0.7,0.8-1.1,1.7-1.5,2.8 s-0.5,2.2-0.5,3.4c0,1.2,0.1,2.3,0.4,3.3c0.3,1.1,0.8,2,1.4,2.8c0.6,0.8,1.4,1.5,2.3,1.9c0.9,0.5,2.1,0.7,3.3,0.7s2.4-0.2,3.3-0.7 c1-0.4,1.8-1,2.4-1.8c0.6-0.8,1.1-1.7,1.5-2.8c0.3-1.1,0.5-2.3,0.5-3.5c0-1.2-0.1-2.3-0.4-3.4c-0.3-1.1-0.7-2-1.3-2.8 c-0.6-0.8-1.4-1.4-2.3-1.9C155.9,103.6,154.8,103.4,153.5,103.4z"/><path d="M178.1,122.4l-3.1-5.8c-0.3-0.6-0.6-1.1-0.9-1.4c-0.3-0.4-0.6-0.7-0.9-0.9c-0.3-0.2-0.6-0.4-1-0.5 c-0.3-0.1-0.7-0.1-1.2-0.1h-2.2v8.9H167V102h5.9c0.8,0,1.5,0.1,2.2,0.3c0.7,0.2,1.3,0.6,1.9,1c0.6,0.4,1,1,1.3,1.7s0.5,1.5,0.5,2.3 c0,0.7-0.1,1.4-0.3,2c-0.2,0.6-0.5,1.1-0.9,1.6c-0.4,0.5-0.9,0.9-1.5,1.2s-1.2,0.6-1.9,0.7v0.1c0.3,0.1,0.5,0.3,0.8,0.4 c0.2,0.2,0.4,0.4,0.7,0.7c0.2,0.3,0.4,0.5,0.6,0.9c0.2,0.3,0.4,0.7,0.7,1.1l3.4,6.3H178.1z M168.9,103.8v8h3.4 c0.7,0,1.3-0.1,1.9-0.3c0.6-0.2,1.1-0.5,1.5-0.9c0.4-0.4,0.7-0.8,0.9-1.3s0.3-1.1,0.3-1.8c0-1.2-0.4-2.1-1.1-2.8s-1.9-1-3.3-1 H168.9z"/><path d="M194.9,122.4l-3.1-5.8c-0.3-0.6-0.6-1.1-0.9-1.4c-0.3-0.4-0.6-0.7-0.9-0.9c-0.3-0.2-0.6-0.4-1-0.5 c-0.3-0.1-0.7-0.1-1.2-0.1h-2.2v8.9h-1.9V102h5.9c0.8,0,1.5,0.1,2.2,0.3c0.7,0.2,1.3,0.6,1.9,1c0.6,0.4,1,1,1.3,1.7 s0.5,1.5,0.5,2.3c0,0.7-0.1,1.4-0.3,2c-0.2,0.6-0.5,1.1-0.9,1.6c-0.4,0.5-0.9,0.9-1.5,1.2s-1.2,0.6-1.9,0.7v0.1 c0.3,0.1,0.5,0.3,0.8,0.4c0.2,0.2,0.4,0.4,0.7,0.7c0.2,0.3,0.4,0.5,0.6,0.9c0.2,0.3,0.4,0.7,0.7,1.1l3.4,6.3H194.9z M185.7,103.8v8 h3.4c0.7,0,1.3-0.1,1.9-0.3c0.6-0.2,1.1-0.5,1.5-0.9c0.4-0.4,0.7-0.8,0.9-1.3s0.3-1.1,0.3-1.8c0-1.2-0.4-2.1-1.1-2.8s-1.9-1-3.3-1 H185.7z"/><path d="M202.4,122.4h-1.9V102h1.9V122.4z"/><path d="M206.9,119.4c0.3,0.3,0.7,0.5,1.1,0.7c0.4,0.2,0.8,0.4,1.3,0.5c0.4,0.1,0.9,0.2,1.3,0.3c0.4,0.1,0.8,0.1,1.2,0.1 c1.5,0,2.7-0.3,3.5-0.9s1.1-1.5,1.1-2.6c0-0.5-0.1-1-0.3-1.4s-0.5-0.8-0.8-1.1c-0.4-0.3-0.9-0.7-1.4-1s-1.3-0.7-2-1.2 c-0.9-0.5-1.6-0.9-2.2-1.3c-0.6-0.4-1.1-0.9-1.5-1.3c-0.4-0.4-0.7-0.9-0.9-1.4c-0.2-0.5-0.3-1.1-0.3-1.7c0-0.8,0.2-1.6,0.5-2.2 s0.8-1.2,1.4-1.7s1.3-0.8,2.1-1.1c0.8-0.2,1.7-0.4,2.6-0.4c1.6,0,2.9,0.2,4,0.7v2.1c-1.2-0.7-2.6-1-4.2-1c-0.6,0-1.2,0.1-1.7,0.2 c-0.5,0.1-1,0.4-1.4,0.6c-0.4,0.3-0.7,0.6-1,1.1s-0.3,0.9-0.3,1.5c0,0.5,0.1,1,0.2,1.4c0.2,0.4,0.4,0.7,0.8,1.1s0.8,0.7,1.4,1 c0.6,0.3,1.3,0.7,2.1,1.2c0.9,0.5,1.6,0.9,2.2,1.3s1.2,0.9,1.6,1.3c0.4,0.5,0.7,1,0.9,1.5c0.2,0.5,0.3,1.1,0.3,1.8 c0,0.9-0.2,1.7-0.5,2.3c-0.3,0.7-0.8,1.2-1.4,1.7c-0.6,0.4-1.3,0.8-2.1,1s-1.7,0.3-2.7,0.3c-0.3,0-0.7,0-1.1-0.1 c-0.4-0.1-0.9-0.1-1.3-0.2c-0.5-0.1-0.9-0.2-1.3-0.4c-0.4-0.1-0.7-0.3-1-0.4V119.4z"/></g><g><path d="M79.9,137.2v2.4h2.4v0.5h-2.4v2.9h-0.6v-6.4h3.1v0.5H79.9z"/><path d="M87.2,143.1l-0.7-1.9h-2.8l-0.7,1.9h-0.7l2.5-6.4h0.6l2.4,6.4H87.2z M85.3,137.7c0-0.1,0-0.1-0.1-0.2c0-0.1,0-0.2-0.1-0.3 h0c0,0.1,0,0.2-0.1,0.3c0,0.1,0,0.1-0.1,0.2l-1,2.9h2.4L85.3,137.7z"/><path d="M88.7,142.1c0.1,0.1,0.2,0.2,0.4,0.2s0.3,0.1,0.4,0.2c0.1,0,0.3,0.1,0.4,0.1s0.3,0,0.4,0c0.5,0,0.9-0.1,1.1-0.3 c0.2-0.2,0.4-0.5,0.4-0.8c0-0.2,0-0.3-0.1-0.4c-0.1-0.1-0.1-0.2-0.3-0.4c-0.1-0.1-0.3-0.2-0.5-0.3c-0.2-0.1-0.4-0.2-0.6-0.4 c-0.3-0.1-0.5-0.3-0.7-0.4c-0.2-0.1-0.4-0.3-0.5-0.4c-0.1-0.1-0.2-0.3-0.3-0.5c-0.1-0.2-0.1-0.3-0.1-0.6c0-0.3,0.1-0.5,0.2-0.7 c0.1-0.2,0.3-0.4,0.4-0.5s0.4-0.3,0.7-0.3c0.3-0.1,0.5-0.1,0.8-0.1c0.5,0,0.9,0.1,1.3,0.2v0.7c-0.4-0.2-0.8-0.3-1.3-0.3 c-0.2,0-0.4,0-0.5,0.1c-0.2,0-0.3,0.1-0.4,0.2c-0.1,0.1-0.2,0.2-0.3,0.3c-0.1,0.1-0.1,0.3-0.1,0.5c0,0.2,0,0.3,0.1,0.4 c0,0.1,0.1,0.2,0.2,0.3c0.1,0.1,0.3,0.2,0.4,0.3c0.2,0.1,0.4,0.2,0.7,0.4c0.3,0.1,0.5,0.3,0.7,0.4c0.2,0.1,0.4,0.3,0.5,0.4 s0.2,0.3,0.3,0.5c0.1,0.2,0.1,0.4,0.1,0.6c0,0.3-0.1,0.5-0.2,0.7c-0.1,0.2-0.3,0.4-0.4,0.5c-0.2,0.1-0.4,0.2-0.7,0.3 c-0.3,0.1-0.5,0.1-0.9,0.1c-0.1,0-0.2,0-0.4,0c-0.1,0-0.3,0-0.4-0.1c-0.1,0-0.3-0.1-0.4-0.1c-0.1,0-0.2-0.1-0.3-0.1V142.1z"/><path d="M97.8,143.1v-3h-3.5v3h-0.6v-6.4h0.6v2.9h3.5v-2.9h0.6v6.4H97.8z"/><path d="M100.6,143.1H100v-6.4h0.6V143.1z"/><path d="M104.9,143.2c-0.5,0-0.9-0.1-1.3-0.3s-0.7-0.4-0.9-0.7s-0.5-0.6-0.6-1c-0.1-0.4-0.2-0.8-0.2-1.3c0-0.5,0.1-1,0.2-1.4 c0.1-0.4,0.3-0.8,0.6-1.1s0.6-0.5,1-0.7c0.4-0.2,0.8-0.3,1.3-0.3c0.5,0,0.9,0.1,1.2,0.2c0.4,0.2,0.7,0.4,0.9,0.7 c0.3,0.3,0.5,0.6,0.6,1s0.2,0.8,0.2,1.3c0,0.5-0.1,0.9-0.2,1.4s-0.3,0.8-0.6,1.1c-0.3,0.3-0.6,0.5-1,0.7 C105.9,143.1,105.4,143.2,104.9,143.2z M105,137.1c-0.4,0-0.7,0.1-1,0.2c-0.3,0.1-0.6,0.3-0.8,0.6c-0.2,0.3-0.4,0.5-0.5,0.9 s-0.2,0.7-0.2,1.1c0,0.4,0,0.7,0.1,1c0.1,0.3,0.2,0.6,0.4,0.9s0.4,0.5,0.7,0.6c0.3,0.2,0.7,0.2,1.1,0.2s0.8-0.1,1.1-0.2 s0.6-0.3,0.8-0.6c0.2-0.2,0.4-0.5,0.5-0.9s0.2-0.7,0.2-1.1c0-0.4,0-0.7-0.1-1.1c-0.1-0.3-0.2-0.6-0.4-0.9c-0.2-0.3-0.4-0.5-0.7-0.6 S105.4,137.1,105,137.1z"/><path d="M113.7,143.1l-3.6-5.2c0-0.1-0.1-0.1-0.1-0.2c0-0.1-0.1-0.1-0.1-0.2h0c0,0.1,0,0.1,0,0.2s0,0.2,0,0.4v5h-0.6v-6.4h0.7 l3.5,5.1c0.1,0.1,0.1,0.2,0.1,0.2c0,0.1,0.1,0.1,0.1,0.2h0c0-0.1,0-0.2,0-0.3c0-0.1,0-0.3,0-0.4v-4.8h0.6v6.4H113.7z"/><path d="M119.1,137.2v2.4h2.4v0.5h-2.4v2.9h-0.6v-6.4h3.1v0.5H119.1z"/><path d="M125.5,143.2c-0.5,0-0.9-0.1-1.3-0.3s-0.7-0.4-0.9-0.7s-0.5-0.6-0.6-1c-0.1-0.4-0.2-0.8-0.2-1.3c0-0.5,0.1-1,0.2-1.4 c0.1-0.4,0.3-0.8,0.6-1.1s0.6-0.5,1-0.7c0.4-0.2,0.8-0.3,1.3-0.3c0.5,0,0.9,0.1,1.2,0.2s0.7,0.4,0.9,0.7c0.3,0.3,0.5,0.6,0.6,1 c0.1,0.4,0.2,0.8,0.2,1.3c0,0.5-0.1,0.9-0.2,1.4s-0.3,0.8-0.6,1.1c-0.3,0.3-0.6,0.5-1,0.7S126,143.2,125.5,143.2z M125.6,137.1 c-0.4,0-0.7,0.1-1,0.2c-0.3,0.1-0.6,0.3-0.8,0.6c-0.2,0.3-0.4,0.5-0.5,0.9s-0.2,0.7-0.2,1.1c0,0.4,0,0.7,0.1,1 c0.1,0.3,0.2,0.6,0.4,0.9s0.4,0.5,0.7,0.6c0.3,0.2,0.7,0.2,1.1,0.2s0.8-0.1,1.1-0.2s0.6-0.3,0.8-0.6s0.4-0.5,0.5-0.9 s0.2-0.7,0.2-1.1c0-0.4,0-0.7-0.1-1.1s-0.2-0.6-0.4-0.9c-0.2-0.3-0.4-0.5-0.7-0.6S126,137.1,125.6,137.1z"/><path d="M133.4,143.1l-1-1.8c-0.1-0.2-0.2-0.3-0.3-0.5s-0.2-0.2-0.3-0.3c-0.1-0.1-0.2-0.1-0.3-0.2s-0.2,0-0.4,0h-0.7v2.8h-0.6v-6.4 h1.9c0.2,0,0.5,0,0.7,0.1c0.2,0.1,0.4,0.2,0.6,0.3c0.2,0.1,0.3,0.3,0.4,0.5s0.2,0.5,0.2,0.7c0,0.2,0,0.4-0.1,0.6s-0.2,0.4-0.3,0.5 c-0.1,0.1-0.3,0.3-0.5,0.4c-0.2,0.1-0.4,0.2-0.6,0.2v0c0.1,0,0.2,0.1,0.2,0.1s0.1,0.1,0.2,0.2s0.1,0.2,0.2,0.3 c0.1,0.1,0.1,0.2,0.2,0.4l1.1,2H133.4z M130.5,137.2v2.5h1.1c0.2,0,0.4,0,0.6-0.1c0.2-0.1,0.3-0.2,0.5-0.3c0.1-0.1,0.2-0.3,0.3-0.4 c0.1-0.2,0.1-0.4,0.1-0.6c0-0.4-0.1-0.7-0.4-0.9c-0.2-0.2-0.6-0.3-1-0.3H130.5z"/><path d="M143.3,143.1h-0.6l-1.4-4.8c0-0.1-0.1-0.2-0.1-0.3c0-0.1,0-0.2,0-0.3h0c0,0.2-0.1,0.4-0.1,0.6l-1.4,4.8h-0.6l-1.9-6.4h0.7 l1.4,5.1c0,0.1,0.1,0.2,0.1,0.3s0,0.2,0,0.3h0c0-0.1,0.1-0.3,0.1-0.6l1.5-5.1h0.5l1.4,5.1c0,0.1,0.1,0.2,0.1,0.3c0,0.1,0,0.2,0,0.3 h0c0-0.1,0-0.1,0-0.2c0-0.1,0-0.2,0.1-0.3l1.4-5.2h0.7L143.3,143.1z"/><path d="M148.7,143.2c-0.5,0-0.9-0.1-1.3-0.3c-0.4-0.2-0.7-0.4-0.9-0.7s-0.5-0.6-0.6-1s-0.2-0.8-0.2-1.3c0-0.5,0.1-1,0.2-1.4 s0.3-0.8,0.6-1.1c0.3-0.3,0.6-0.5,1-0.7c0.4-0.2,0.8-0.3,1.3-0.3c0.5,0,0.9,0.1,1.2,0.2c0.4,0.2,0.7,0.4,0.9,0.7s0.5,0.6,0.6,1 c0.1,0.4,0.2,0.8,0.2,1.3c0,0.5-0.1,0.9-0.2,1.4c-0.1,0.4-0.3,0.8-0.6,1.1c-0.3,0.3-0.6,0.5-1,0.7S149.2,143.2,148.7,143.2z M148.8,137.1c-0.4,0-0.7,0.1-1,0.2c-0.3,0.1-0.6,0.3-0.8,0.6c-0.2,0.3-0.4,0.5-0.5,0.9s-0.2,0.7-0.2,1.1c0,0.4,0,0.7,0.1,1 c0.1,0.3,0.2,0.6,0.4,0.9s0.4,0.5,0.7,0.6c0.3,0.2,0.7,0.2,1.1,0.2c0.4,0,0.8-0.1,1.1-0.2c0.3-0.1,0.6-0.3,0.8-0.6 c0.2-0.2,0.4-0.5,0.5-0.9c0.1-0.3,0.2-0.7,0.2-1.1c0-0.4,0-0.7-0.1-1.1c-0.1-0.3-0.2-0.6-0.4-0.9c-0.2-0.3-0.4-0.5-0.7-0.6 C149.6,137.1,149.2,137.1,148.8,137.1z"/><path d="M158.8,143.1v-4.5c0-0.2,0-0.6,0.1-1.1h0c0,0.1-0.1,0.3-0.1,0.4c0,0.1-0.1,0.2-0.1,0.2l-2.2,5h-0.3l-2.3-4.9 c-0.1-0.1-0.1-0.4-0.2-0.6h0c0,0.1,0,0.3,0,0.5c0,0.2,0,0.4,0,0.6v4.5h-0.6v-6.4h0.7l2.2,4.8c0,0.1,0.1,0.2,0.1,0.3 c0,0.1,0.1,0.2,0.1,0.3h0c0-0.1,0.1-0.2,0.1-0.3s0.1-0.2,0.1-0.3l2.2-4.8h0.7v6.4H158.8z"/><path d="M161.1,143.1v-6.4h3.1v0.5h-2.5v2.4h2.4v0.5h-2.4v2.4h2.7v0.5H161.1z"/><path d="M170.1,143.1l-3.6-5.2c0-0.1-0.1-0.1-0.1-0.2c0-0.1-0.1-0.1-0.1-0.2h0c0,0.1,0,0.1,0,0.2c0,0.1,0,0.2,0,0.4v5h-0.6v-6.4 h0.7l3.5,5.1c0.1,0.1,0.1,0.2,0.1,0.2c0,0.1,0.1,0.1,0.1,0.2h0c0-0.1,0-0.2,0-0.3c0-0.1,0-0.3,0-0.4v-4.8h0.6v6.4H170.1z"/></g><g><path d="M243.4,167.2H6.6V82.8h236.8V167.2z M7.6,166.2h234.8V83.8H7.6V166.2z"/></g><g><rect width="187.1" height="1" x="30" y="129.3"/></g></svg>