<svg xmlns="http://www.w3.org/2000/svg" xmlns:xlink="http://www.w3.org/1999/xlink" id="OBJECTS" x="0" y="0" version="1.1" viewBox="0 0 250 250" xml:space="preserve" style="enable-background:new 0 0 250 250"><style type="text/css">.st0{fill:#284773}.st1{fill:#709bd2}.st2{fill:#fff}</style><g><g><g><polygon points="213.8 130.2 217.9 125 212.8 118.6 217 111.6 212.1 107 214.8 100.9 208.2 96.1 210.4 88.2 204.5 85.1 205.5 78.5 197.9 75.6 197.9 67.4 191.4 65.9 190.7 59.3 182.6 58.4 180.5 50.5 173.9 50.7 171.5 44.5 163.4 45.8 159.4 38.6 153 40.6 149.1 35.2 141.6 38.5 135.8 32.7 130.2 36.2 125 32.1 118.6 37.2 111.6 33 107 37.9 100.9 35.2 96.1 41.8 88.2 39.6 85.1 45.5 78.5 44.5 75.6 52.1 67.4 52.1 65.9 58.6 59.3 59.3 58.4 67.4 50.5 69.5 50.7 76.1 44.5 78.5 45.8 86.6 38.6 90.6 40.6 97 35.2 100.9 38.5 108.4 32.7 114.2 36.2 119.8 32.1 125 37.2 131.4 33 138.4 37.9 143 35.2 149.1 41.8 153.9 39.6 161.8 45.5 164.9 44.5 171.5 52.1 174.4 52.1 182.6 58.6 184.1 59.3 190.7 67.4 191.6 69.5 199.5 76.1 199.3 78.5 205.5 86.6 204.2 90.6 211.4 97 209.4 100.9 214.8 108.4 211.5 114.2 217.3 119.8 213.8 125 217.9 131.4 212.8 138.4 217 143 212.1 149.1 214.8 153.9 208.2 161.8 210.4 164.9 204.5 171.5 205.5 174.4 197.9 182.6 197.9 184.1 191.4 190.7 190.7 191.6 182.6 199.5 180.5 199.3 173.9 205.5 171.5 204.2 163.4 211.4 159.4 209.4 153 214.8 149.1 211.5 141.6 217.3 135.8" class="st0"/></g><g><ellipse cx="125" cy="125" class="st1" rx="84.5" ry="84.5" transform="matrix(0.2602 -0.9656 0.9656 0.2602 -28.2173 213.1725)"/></g><g><ellipse cx="125" cy="125" class="st0" rx="80.8" ry="80.8" transform="matrix(0.9739 -0.2269 0.2269 0.9739 -25.098 31.616)"/></g><g><g><path d="M65.6,132.8h-9.3v9.3h10.4v2.8H53.2v-25.8h12.9v2.8h-9.8v8.1h9.3V132.8z" class="st2"/></g><g><path d="M83.5,144.9l-3.1-5.7c-1.2-2.2-2-3.6-2.8-5.1h-0.1c-0.7,1.5-1.4,2.9-2.6,5.1l-2.9,5.7h-3.6l7.3-13l-7-12.7 h3.6l3.2,6c0.9,1.7,1.6,3,2.2,4.4h0.1c0.7-1.5,1.3-2.7,2.2-4.4l3.3-6h3.6l-7.3,12.5l7.5,13.2H83.5z" class="st2"/></g><g><path d="M90.3,119.4c1.5-0.3,3.4-0.5,5.9-0.5c3.1,0,5.3,0.8,6.7,2.1c1.3,1.2,2.1,3.1,2.1,5.4c0,2.3-0.6,4.2-1.8,5.5 c-1.6,1.9-4.3,2.8-7.3,2.8c-0.9,0-1.8,0-2.5-0.2v10.3h-3.1V119.4z M93.4,131.9c0.7,0.2,1.5,0.3,2.6,0.3c3.7,0,6-1.9,6-5.5 c0-3.4-2.2-5-5.7-5c-1.4,0-2.4,0.1-2.9,0.3V131.9z" class="st2"/></g><g><path d="M108.9,119.1h3.1v23h10.2v2.8h-13.3V119.1z" class="st2"/></g><g><path d="M144.4,131.7c0,8.9-5,13.6-11.1,13.6c-6.3,0-10.8-5.3-10.8-13.1c0-8.2,4.7-13.5,11.1-13.5 C140.2,118.7,144.4,124.1,144.4,131.7z M125.8,132.2c0,5.5,2.8,10.4,7.6,10.4c4.9,0,7.7-4.9,7.7-10.7c0-5.1-2.5-10.5-7.6-10.5 C128.3,121.4,125.8,126.5,125.8,132.2z" class="st2"/></g><g><path d="M148,119.5c1.6-0.3,3.8-0.5,5.9-0.5c3.3,0,5.4,0.7,6.9,2.1c1.2,1.1,1.9,2.9,1.9,4.9c0,3.4-2,5.7-4.5,6.6 v0.1c1.8,0.7,3,2.5,3.5,5.2c0.8,3.6,1.4,6.1,1.8,7.1h-3.2c-0.4-0.7-0.9-2.9-1.6-6.2c-0.7-3.6-2-4.9-4.8-5h-2.9v11.2H148V119.5z M151.1,131.2h3.2c3.3,0,5.4-1.9,5.4-4.9c0-3.3-2.2-4.8-5.5-4.8c-1.5,0-2.6,0.2-3.1,0.3V131.2z" class="st2"/></g><g><path d="M179.2,132.8h-9.3v9.3h10.4v2.8h-13.5v-25.8h12.9v2.8h-9.8v8.1h9.3V132.8z" class="st2"/></g><g><path d="M184,119.5c1.6-0.3,3.8-0.5,5.9-0.5c3.3,0,5.4,0.7,6.9,2.1c1.2,1.1,1.9,2.9,1.9,4.9c0,3.4-2,5.7-4.5,6.6 v0.1c1.8,0.7,3,2.5,3.5,5.2c0.8,3.6,1.4,6.1,1.8,7.1h-3.2c-0.4-0.7-0.9-2.9-1.6-6.2c-0.7-3.6-2-4.9-4.8-5H187v11.2H184V119.5z M187,131.2h3.2c3.3,0,5.4-1.9,5.4-4.9c0-3.3-2.2-4.8-5.5-4.8c-1.5,0-2.6,0.2-3.1,0.3V131.2z" class="st2"/></g></g><g><g><polygon points="125 152.1 127.5 159.7 135.5 159.7 129 164.4 131.5 172 125 167.3 118.5 172 121 164.4 114.5 159.7 122.5 159.7" class="st1"/></g><g><g><polygon points="101.4 152.9 102.7 156.9 106.9 156.9 103.5 159.4 104.8 163.4 101.4 160.9 98 163.4 99.3 159.4 95.9 156.9 100.1 156.9" class="st1"/></g><g><polygon points="148.6 152.9 149.9 156.9 154.1 156.9 150.7 159.4 152 163.4 148.6 160.9 145.2 163.4 146.5 159.4 143.1 156.9 147.3 156.9" class="st1"/></g></g></g><g><g><path d="M87.6,105.5l20.2-36.5l4.1,7.2l12.9-23.7l13,23.3c0,0,4-7.3,3.8-7.1c-0.3,0.2,20.9,36.9,20.9,36.9 L87.6,105.5z" class="st1"/></g><g><path d="M102.5,83l5.4-9.6l2.6,4.6l-2.3,4.6l-1.6-1.8c0,0-2.3,6.1-2.2,5.7C104.6,86.1,102.5,83,102.5,83z" class="st2"/></g><g><path d="M117.1,72.5L123,83l3.8-6.7l7.5,14.4l2.2-5.1l5.9,4.8c0,0-17.4-31.6-17.6-31.3 C124.6,59.3,117.1,72.5,117.1,72.5z" class="st2"/></g><g><polygon points="139 78.4 141.5 73.5 153.9 95.2 148.8 90.1 147.2 92.4" class="st2"/></g></g><g><g><path d="M61.3,91.6c0.4,0.3,1.1,0.5,1.8,0.5c1,0,1.6-0.5,1.6-1.3c0-0.7-0.4-1.1-1.4-1.5c-1.2-0.4-2-1.1-2-2.2 c0-1.2,1-2.1,2.5-2.1c0.8,0,1.3,0.2,1.7,0.4L65,86.3c-0.2-0.1-0.8-0.4-1.4-0.4c-1,0-1.4,0.6-1.4,1.1c0,0.7,0.5,1.1,1.5,1.5 c1.3,0.5,1.9,1.1,1.9,2.2c0,1.2-0.9,2.2-2.7,2.2c-0.7,0-1.5-0.2-1.9-0.5L61.3,91.6z" class="st2"/></g><g><path d="M67.9,85.3v7.6h-1v-7.6H67.9z" class="st2"/></g><g><path d="M69.6,92.8v-7.6h1.1l2.4,3.8c0.6,0.9,1,1.7,1.4,2.5l0,0c-0.1-1-0.1-1.9-0.1-3.1v-3.2h0.9v7.6h-1L71.9,89 c-0.5-0.8-1-1.7-1.4-2.5l0,0c0.1,1,0.1,1.9,0.1,3.1v3.2H69.6z" class="st2"/></g><g><path d="M82.3,92.6c-0.4,0.2-1.1,0.4-2,0.4c-2.1,0-3.8-1.4-3.8-3.8c0-2.4,1.6-4,4-4c0.9,0,1.5,0.2,1.8,0.3l-0.2,0.8 c-0.4-0.2-0.9-0.3-1.5-0.3c-1.8,0-3,1.1-3,3.1c0,1.9,1.1,3.1,2.9,3.1c0.6,0,1.2-0.1,1.6-0.3L82.3,92.6z" class="st2"/></g><g><path d="M87.5,89.3h-3V92h3.3v0.8h-4.3v-7.6h4.1v0.8h-3.1v2.4h3V89.3z" class="st2"/></g></g><g><g><path d="M163.4,86.4L163.4,86.4l-1.3,0.7l-0.2-0.8l1.6-0.9h0.8v7.3h-1V86.4z" class="st2"/></g><g><path d="M167.6,92.1c0.2,0,0.5,0,0.8,0c0.6-0.1,1.1-0.3,1.5-0.7c0.5-0.4,0.8-1.1,1-1.9h0c-0.4,0.5-1,0.8-1.7,0.8 c-1.3,0-2.2-1-2.2-2.2c0-1.4,1-2.6,2.5-2.6s2.4,1.2,2.4,3.1c0,1.6-0.5,2.7-1.3,3.4c-0.6,0.6-1.3,0.9-2.1,1 c-0.4,0.1-0.7,0.1-0.9,0.1V92.1z M167.9,87.9c0,0.9,0.6,1.6,1.4,1.6c0.7,0,1.2-0.3,1.4-0.8c0.1-0.1,0.1-0.2,0.1-0.4 c0-1.3-0.5-2.2-1.5-2.2C168.5,86.2,167.9,86.9,167.9,87.9z" class="st2"/></g><g><path d="M177.5,85.5v0.7l-3.2,6.7h-1l3.2-6.5v0h-3.6v-0.8H177.5z" class="st2"/></g><g><path d="M182.9,86.4h-2.8l-0.3,1.9c0.2,0,0.3,0,0.6,0c0.6,0,1.1,0.1,1.6,0.4c0.6,0.3,1,1,1,1.9 c0,1.4-1.1,2.5-2.7,2.5c-0.8,0-1.5-0.2-1.8-0.5l0.2-0.8c0.3,0.2,0.9,0.4,1.6,0.4c0.9,0,1.7-0.6,1.7-1.6c0-0.9-0.6-1.6-2.1-1.6 c-0.4,0-0.7,0-1,0.1l0.5-3.5h3.5V86.4z" class="st2"/></g></g></g><g><path d="M75.2,168.2c1-0.9,2.3-2,3.3-2.7l0,0c-1.1,0.4-2.3,0.9-3.7,1.3l-4.8,1.6l-0.6-0.8l2.7-4.1 c0.8-1.2,1.6-2.3,2.3-3.3l0,0c-1,0.7-2.3,1.7-3.6,2.5l-3.5,2.4l-0.7-1l8.2-5.5l1,1.3l-2.7,4.3c-0.7,1.1-1.4,2-2,2.8l0,0 c0.9-0.4,2-0.8,3.3-1.2l4.8-1.5l1,1.3l-7.4,6.6l-0.8-1L75.2,168.2z" class="st2"/><path d="M85.3,176.9c-2.2,2.5-5,2.5-6.9,0.9c-2-1.7-2-4.5,0-6.7c2.1-2.4,4.9-2.6,6.9-0.9 C87.3,172,87.2,174.7,85.3,176.9z M79.4,171.9c-1.4,1.6-1.8,3.8-0.3,5.1c1.5,1.3,3.6,0.7,5.1-1c1.3-1.5,1.9-3.7,0.3-5.1 C82.9,169.5,80.9,170.3,79.4,171.9z" class="st2"/><path d="M91.3,175.2l-3.1,5c-1.2,1.9-0.8,3.2,0.3,3.9c1.2,0.8,2.6,0.4,3.7-1.4l3.1-5l1.1,0.7l-3,4.9 c-1.6,2.6-3.6,2.8-5.4,1.7c-1.7-1.1-2.4-2.8-0.8-5.5l3.1-4.9L91.3,175.2z" class="st2"/><path d="M95.1,188.7l3.7-9.1l1.3,0.5l1,5.8c0.2,1.3,0.4,2.5,0.4,3.6l0,0c0.4-1.3,0.8-2.4,1.4-3.8l1.6-3.8l1.1,0.5 l-3.7,9.1l-1.2-0.5l-1-5.8c-0.2-1.3-0.4-2.6-0.5-3.7l0,0c-0.4,1.2-0.8,2.3-1.4,3.8l-1.6,3.9L95.1,188.7z" class="st2"/><path d="M109.9,184.6l-2.9-0.7l0.3-1.1l7.1,1.7l-0.3,1.1l-2.9-0.7l-2.1,8.5l-1.3-0.3L109.9,184.6z" class="st2"/><path d="M115.8,191.5l-1.4,3l-1.3-0.1l4.4-9.4l1.5,0.2l2.3,10.2l-1.4-0.1l-0.7-3.2L115.8,191.5z M119.1,190.9 l-0.6-2.9c-0.1-0.7-0.2-1.3-0.3-1.8l0,0c-0.2,0.6-0.4,1.1-0.7,1.7l-1.3,2.7L119.1,190.9z" class="st2"/><path d="M125.6,185.3l0.2,9.9l-1.3,0l-0.2-9.9L125.6,185.3z" class="st2"/><path d="M129.9,195.2l-1.2-9.8l1.4-0.2l3.7,4.6c0.9,1.1,1.6,2,2.1,3l0,0c-0.3-1.3-0.5-2.5-0.6-4l-0.5-4.1l1.2-0.1 l1.2,9.8l-1.3,0.2l-3.7-4.6c-0.8-1-1.6-2-2.2-3l0,0c0.2,1.2,0.4,2.4,0.6,4l0.5,4.2L129.9,195.2z" class="st2"/><path d="M152.8,189.1c-0.5,0.4-1.4,1.1-2.7,1.6c-1.4,0.5-2.7,0.6-3.9,0.1c-1.1-0.5-2-1.5-2.6-3 c-1-2.8,0.1-5.5,3.3-6.6c1.1-0.4,2-0.5,2.5-0.4l0.1,1.1c-0.6,0-1.3,0-2.2,0.4c-2.3,0.8-3.2,2.8-2.3,5.1c0.9,2.3,2.8,3.2,4.9,2.4 c0.8-0.3,1.3-0.6,1.5-0.8l-1-2.8l-1.9,0.7l-0.4-1l3-1.1L152.8,189.1z" class="st2"/><path d="M152.9,178.6l2.9,5.1c1.1,1.9,2.4,2.2,3.6,1.6c1.3-0.7,1.6-2,0.5-3.9l-2.9-5.1l1.1-0.6l2.9,5 c1.5,2.6,0.7,4.5-1.1,5.6c-1.8,1-3.7,0.8-5.2-1.9l-2.9-5L152.9,178.6z" class="st2"/><path d="M161.4,173.2l5.9,7.9l-1,0.8l-5.9-7.9L161.4,173.2z" class="st2"/><path d="M163.8,171.6c0.5-0.6,1.1-1.3,1.8-2c1.3-1.3,2.6-1.8,3.8-1.9c1.2,0,2.3,0.5,3.4,1.6c1.1,1.2,1.6,2.5,1.6,3.8 c0,1.3-0.8,2.7-2.2,4c-0.7,0.6-1.2,1.1-1.8,1.5L163.8,171.6z M170.7,177c0.3-0.2,0.6-0.5,1-0.8c2-1.9,2-4,0.2-5.9 c-1.6-1.7-3.6-1.9-5.5,0c-0.5,0.5-0.8,0.8-1,1.1L170.7,177z" class="st2"/><path d="M178.3,163.4l-2.4,3l2.8,2.2l2.6-3.4l0.8,0.7l-3.4,4.4l-7.8-6.1l3.3-4.2l0.8,0.7l-2.5,3.2l2.5,1.9l2.4-3 L178.3,163.4z" class="st2"/></g></g></svg>