<svg xmlns="http://www.w3.org/2000/svg" xmlns:xlink="http://www.w3.org/1999/xlink" id="OBJECTS" x="0" y="0" version="1.1" viewBox="0 0 250 250" xml:space="preserve" style="enable-background:new 0 0 250 250"><style type="text/css">.st0{fill:#4c5175}.st1{fill:#ce5757}.st2{fill:#387e4f}.st3{fill:#fdfaf0}</style><g><g><path d="M125,233.3c-44.6,0-81-36.3-81-81V97.7c0-44.6,36.3-81,81-81s81,36.3,81,81v54.7 C206,197,169.6,233.3,125,233.3z M125,20.2c-42.7,0-77.5,34.8-77.5,77.5v54.7c0,42.7,34.8,77.5,77.5,77.5 c42.7,0,77.5-34.8,77.5-77.5V97.7C202.5,54.9,167.7,20.2,125,20.2z" class="st0"/></g><g><path d="M74.1,179.7l-13.6,6.3l-0.9-1.9l6.1-2.8l-3.5-7.7l-6.1,2.8l-0.9-1.9l13.6-6.3l0.9,1.9l-5.9,2.7l3.5,7.7 l5.9-2.7L74.1,179.7z" class="st0"/><path d="M76.9,183.4l1.2,1.7L66,193.9l-1.2-1.7L76.9,183.4z" class="st0"/><path d="M83.3,201.3l1.5,1.4l-4,4.3c-1,0-1.9-0.3-2.8-0.7c-0.9-0.4-1.8-1-2.5-1.7c-1.1-1-1.8-2.2-2.3-3.5 c-0.4-1.3-0.5-2.6-0.2-3.9c0.3-1.3,0.9-2.5,1.9-3.6c1-1.1,2.1-1.8,3.4-2.2c1.3-0.4,2.6-0.4,3.9-0.1c1.3,0.3,2.5,1,3.6,2 c0.9,0.8,1.5,1.7,1.9,2.6c0.4,0.9,0.6,1.9,0.6,2.9l-1.9,0.1c-0.1-1.6-0.7-3-1.9-4.2c-0.8-0.8-1.7-1.3-2.7-1.5 c-1-0.2-2-0.2-2.9,0.1c-1,0.3-1.8,0.9-2.6,1.7c-0.7,0.8-1.2,1.7-1.5,2.7c-0.2,1-0.2,2,0.1,2.9c0.3,1,0.9,1.8,1.7,2.6 c1,0.9,2,1.4,3.2,1.6L83.3,201.3z" class="st0"/><path d="M104.5,205.3l-6.8,13.4l-1.9-0.9l3-6l-7.5-3.8l-3,6l-1.9-0.9l6.8-13.4l1.9,0.9l-2.9,5.8l7.5,3.8l2.9-5.8 L104.5,205.3z" class="st0"/><path d="M128.7,225.4c-0.5,0.5-1.1,0.9-1.7,1.2c-0.6,0.3-1.3,0.4-2.1,0.3c-0.9-0.1-1.8-0.3-2.5-0.8 c-0.8-0.5-1.6-1.3-2.6-2.5c-1.4-0.2-2.6-0.6-3.7-1.4c-1.1-0.8-1.9-1.7-2.4-2.9c-0.5-1.2-0.8-2.5-0.7-3.8c0.1-1.4,0.5-2.7,1.3-3.8 s1.7-2,3-2.6c1.2-0.6,2.6-0.8,4.1-0.7c1.5,0.1,2.8,0.5,3.9,1.3c1.1,0.7,2,1.7,2.6,2.9c0.6,1.2,0.8,2.5,0.8,4 c-0.1,1.2-0.4,2.3-0.9,3.3c-0.5,1-1.3,1.8-2.2,2.5c-0.9,0.6-2,1.1-3.1,1.3c0.5,0.6,0.9,1,1.3,1.2c0.4,0.3,0.9,0.4,1.4,0.4 c1,0.1,2-0.3,2.8-1.1L128.7,225.4z M115.6,218.7c0.4,0.9,1.1,1.6,1.9,2.2c0.8,0.6,1.8,0.9,2.9,0.9c1.1,0.1,2-0.1,2.9-0.6 c0.9-0.4,1.6-1.1,2.2-1.9c0.6-0.8,0.9-1.8,0.9-2.9c0.1-1.1-0.1-2.1-0.6-3c-0.4-0.9-1.1-1.6-1.9-2.2c-0.8-0.6-1.8-0.9-2.8-0.9 c-1.1-0.1-2.1,0.1-3,0.6c-0.9,0.4-1.6,1.1-2.2,1.9c-0.6,0.8-0.9,1.8-0.9,2.9C115,216.7,115.2,217.7,115.6,218.7z" class="st0"/><path d="M136.9,221.3c-1.3-0.9-2.2-2.3-2.7-4.4l-1.9-8.3l2-0.5l1.9,8.2c0.7,3.1,2.4,4.4,5.1,3.7 c1.3-0.3,2.2-0.9,2.7-1.9c0.5-0.9,0.6-2.2,0.2-3.8l-1.9-8.2l2-0.5l1.9,8.3c0.5,2.1,0.3,3.8-0.5,5.2c-0.8,1.4-2.2,2.3-4.1,2.7 C139.8,222.4,138.2,222.1,136.9,221.3z" class="st0"/><path d="M161.8,209.5l-6.8,3.8l0.4,4.1l-1.9,1l-1.4-16.4l1.8-1l13.1,9.9L165,212L161.8,209.5z M160.3,208.3l-6.3-4.9 l0.8,8L160.3,208.3z" class="st0"/><path d="M161.4,196.1l1.6-1.4l8.9,9.7l5.9-5.4l1.3,1.4l-7.4,6.8L161.4,196.1z" class="st0"/><path d="M170.3,187l1.3-1.6l11.8,9.3l-1.3,1.6L170.3,187z" class="st0"/><path d="M177.5,180l-2.5,4.4l-1.6-0.9l5.9-10.6l1.6,0.9l-2.5,4.4l11.5,6.4l-1,1.8L177.5,180z" class="st0"/><path d="M191.1,168.1l5,1.5l-0.6,2l-5-1.5l-11,2.8l0.7-2.1l8.9-2.2l-6.2-6.8l0.6-2L191.1,168.1z" class="st0"/></g><g><path d="M52.3,105.2h13.9v2.1l-9.4,7.5h9.4v2.5H52.3v-2.1l9.4-7.5h-9.4V105.2z" class="st0"/><path d="M63.1,91.2L62.9,98l3.2,1.4l-0.1,2.6l-13.7-6.5l0.1-2.5l14.1-5.8L66.4,90L63.1,91.2z M61.1,92l-6.1,2.4l6,2.7 L61.1,92z" class="st0"/><path d="M56.4,79.9l-1.2,4.4l-2.1-0.6l3-11.2l2.1,0.6l-1.2,4.4l11.3,3l-0.7,2.4L56.4,79.9z" class="st0"/><path d="M69.9,72c-1.5,0.4-3.1,0.1-4.8-0.9l-6.8-3.8l1.2-2.2l6.8,3.8c2.4,1.3,4.1,1,5.3-1c1.1-2,0.5-3.7-1.9-5 l-6.8-3.8l1.2-2.2l6.8,3.8c1.8,1,2.9,2.2,3.3,3.6c0.4,1.4,0.2,3-0.7,4.6C72.6,70.6,71.4,71.6,69.9,72z" class="st0"/><path d="M85.1,54.1l-4.8-0.9c-0.1,0.1-0.2,0.2-0.4,0.4l-2.2,2.2l2.9,2.9l-1.8,1.8l-9.8-9.8l4-4 c0.8-0.8,1.7-1.4,2.6-1.8c0.9-0.3,1.8-0.4,2.6-0.2c0.9,0.2,1.6,0.6,2.4,1.4c0.7,0.7,1.2,1.6,1.4,2.4c0.2,0.9,0.1,1.8-0.3,2.7 l5.4,1L85.1,54.1z M76.6,47c-0.7,0.1-1.5,0.5-2.3,1.3l-2.1,2.1l3.9,3.9l2.1-2.1c0.8-0.8,1.2-1.5,1.3-2.3c0.1-0.7-0.2-1.4-0.9-2.1 C78,47.2,77.4,47,76.6,47z" class="st0"/><path d="M95.6,43.2l-5.9,3.4l0.4,3.5l-2.3,1.3l-1.6-15.1l2.2-1.2l12.3,9l-2.3,1.3L95.6,43.2z M93.9,41.8l-5.3-4 l0.8,6.5L93.9,41.8z" class="st0"/><path d="M99.3,30.1l2.4-0.7l3.2,11.3l6.9-1.9l0.6,2.1l-9.3,2.6L99.3,30.1z" class="st0"/><path d="M131.9,40.6l-1.7-1.7c-1.3,1.1-2.8,1.6-4.6,1.6c-0.9,0-1.8-0.2-2.5-0.5c-0.7-0.3-1.3-0.8-1.8-1.3 c-0.4-0.6-0.6-1.2-0.6-1.9c0-0.9,0.3-1.6,0.8-2.3c0.5-0.6,1.3-1.3,2.4-1.9c-0.5-0.6-0.9-1.1-1.1-1.6c-0.2-0.5-0.3-1-0.3-1.5 c0-1,0.4-1.8,1.1-2.4c0.7-0.6,1.7-0.9,2.9-0.9c1.1,0,2,0.3,2.6,0.9c0.7,0.6,1,1.3,1,2.3c0,0.7-0.2,1.3-0.7,1.9 c-0.4,0.5-1.2,1.1-2.2,1.7l2.9,2.9c0.3-0.6,0.6-1.4,0.8-2.3l2,0.7c-0.3,1.2-0.7,2.3-1.3,3.2l1.7,1.7L131.9,40.6z M128.8,37.5 l-3.5-3.6c-0.8,0.4-1.3,0.8-1.7,1.2c-0.3,0.4-0.5,0.9-0.5,1.4c0,0.6,0.2,1.1,0.7,1.4c0.5,0.4,1.2,0.6,2,0.6 C127,38.5,128,38.2,128.8,37.5z M125.2,28.4c-0.3,0.3-0.5,0.6-0.5,1.1c0,0.3,0.1,0.6,0.2,0.9c0.2,0.3,0.5,0.7,1,1.2 c0.8-0.4,1.3-0.8,1.6-1.1c0.3-0.3,0.5-0.7,0.5-1.1c0-0.4-0.1-0.7-0.4-1c-0.3-0.2-0.7-0.4-1.2-0.4C125.9,28,125.5,28.1,125.2,28.4z" class="st0"/><path d="M145.2,42.1c-0.8-1-1.3-2.1-1.5-3.3c-0.2-1.2,0-2.5,0.5-3.8c0.5-1.3,1.2-2.3,2.2-3.1c1-0.8,2.1-1.3,3.4-1.4 c1.3-0.2,2.5,0,3.8,0.5c1.3,0.5,2.3,1.3,3.2,2.2c0.8,1,1.3,2.1,1.5,3.3c0.2,1.2,0,2.5-0.5,3.8c-0.5,1.3-1.2,2.3-2.2,3.1 c-1,0.8-2.1,1.2-3.4,1.4c-1.3,0.2-2.5,0-3.8-0.5C147,43.8,146,43.1,145.2,42.1z M151.7,42.6c0.8-0.1,1.6-0.5,2.2-1 c0.7-0.5,1.2-1.2,1.5-2.1c0.3-0.9,0.5-1.7,0.3-2.6c-0.1-0.8-0.4-1.6-1-2.3c-0.5-0.7-1.2-1.1-2.1-1.5c-0.8-0.3-1.7-0.4-2.5-0.3 c-0.8,0.1-1.6,0.5-2.2,1s-1.2,1.2-1.5,2.1c-0.3,0.9-0.5,1.7-0.3,2.6c0.1,0.8,0.4,1.6,1,2.3c0.5,0.7,1.2,1.1,2.1,1.5 C150,42.6,150.8,42.7,151.7,42.6z" class="st0"/><path d="M164.9,54.1l0.3-4.9c-0.1-0.1-0.2-0.2-0.4-0.3l-2.4-1.9l-2.5,3.2l-2-1.5l8.5-11l4.4,3.4 c0.9,0.7,1.6,1.5,2.1,2.4c0.4,0.8,0.6,1.7,0.5,2.6c-0.1,0.9-0.4,1.7-1.1,2.5c-0.6,0.8-1.4,1.4-2.2,1.7c-0.9,0.3-1.8,0.3-2.7,0 l-0.3,5.5L164.9,54.1z M171,44.9c-0.2-0.7-0.7-1.4-1.5-2.1l-2.3-1.8l-3.4,4.4l2.3,1.8c0.9,0.7,1.7,1,2.4,1c0.7,0,1.4-0.4,1.9-1.1 C170.9,46.3,171.1,45.6,171,44.9z" class="st0"/><path d="M180.5,61.3l1.4,1.9l-4.4,3.3c-0.9-0.2-1.7-0.6-2.5-1.2c-0.8-0.6-1.5-1.2-2.1-2c-0.8-1.1-1.3-2.3-1.5-3.6 c-0.2-1.3,0-2.5,0.5-3.6c0.5-1.2,1.3-2.1,2.4-3c1.1-0.8,2.3-1.3,3.5-1.4c1.3-0.1,2.5,0.1,3.6,0.6c1.2,0.5,2.2,1.4,3,2.5 c0.7,0.9,1.2,1.9,1.4,2.8c0.3,1,0.3,1.9,0.1,2.9l-2.2-0.3c0.2-1.5-0.1-2.8-1-4c-0.6-0.8-1.3-1.3-2-1.7c-0.8-0.4-1.6-0.5-2.4-0.4 c-0.8,0.1-1.7,0.4-2.4,1c-0.7,0.6-1.3,1.2-1.6,2c-0.3,0.8-0.5,1.6-0.3,2.4c0.1,0.9,0.4,1.7,1,2.4c0.6,0.9,1.4,1.5,2.3,1.8 L180.5,61.3z" class="st0"/><path d="M184.3,78l-2.5-6.4l-3.5-0.1l-0.9-2.4l15.2,0.7l0.9,2.3l-10.8,10.7l-1-2.5L184.3,78z M185.9,76.5l4.7-4.6 l-6.6-0.2L185.9,76.5z" class="st0"/><path d="M198,96.1l-13.9,1.2l-0.2-2.1l8.7-8.3l-9.4,0.8l-0.2-2.5l13.9-1.2l0.2,2.1l-8.7,8.3l9.4-0.8L198,96.1z" class="st0"/><path d="M197.7,102.1v2.5h-13.9v-2.5H197.7z" class="st0"/><path d="M184.5,112.4c0.6-1.1,1.5-2,2.6-2.6c1.1-0.6,2.3-0.9,3.7-0.9c1.4,0,2.6,0.3,3.7,1c1.1,0.6,1.9,1.5,2.6,2.6 c0.6,1.1,0.9,2.4,0.9,3.7c0,1.1-0.2,2.1-0.6,3.1c-0.4,0.9-1,1.7-1.7,2.3l-1.6-1.6c1.1-1,1.6-2.2,1.6-3.6c0-0.9-0.2-1.8-0.6-2.5 c-0.4-0.7-1-1.3-1.7-1.7c-0.7-0.4-1.6-0.6-2.5-0.6c-0.9,0-1.8,0.2-2.5,0.6c-0.7,0.4-1.3,1-1.7,1.7c-0.4,0.7-0.6,1.6-0.6,2.5 c0,1.4,0.5,2.7,1.6,3.6l-1.6,1.6c-0.8-0.6-1.3-1.4-1.7-2.3c-0.4-0.9-0.6-1.9-0.6-3.1C183.6,114.7,183.9,113.5,184.5,112.4z" class="st0"/></g><g><path d="M108,142.9c0,0-3.6-3.2-9.8-0.9c-11.4,4.3-17.6,29.4,6.6,31.7C133.4,176.3,126.9,137.1,108,142.9z" class="st1"/></g><g><path d="M141.8,142.9c0,0,3.6-3.2,9.8-0.9c11.4,4.3,17.6,29.4-6.6,31.7C116.4,176.3,122.8,137.1,141.8,142.9z" class="st1"/></g><g><g><g><g><path d="M141.8,145.2c-0.6,0-1.1-0.4-1.2-1c-5.2-26.6-9.9-38.2-11.5-41.8c-19.8,15.5-20.2,41.2-20.2,41.4 c0,0.7-0.5,1.2-1.2,1.2c0,0,0,0,0,0c-0.7,0-1.2-0.6-1.2-1.2c0-0.3,0.4-28.2,22.4-44.3l1.1-0.8l0.7,1.2 c0.2,0.4,5.9,10.3,12.4,43.8c0.1,0.7-0.3,1.3-1,1.4C142,145.2,141.9,145.2,141.8,145.2z" class="st2"/></g></g><g><g><path d="M127,116.6l-1.2-2.2c7.2-3.8,4-10.5,3.8-10.8l2.2-1.1C133.5,105.7,134.4,112.7,127,116.6z" class="st2"/></g></g><g><g><path d="M130.7,120.4l-1.1-2.2c3.1-1.5,3.2-6.1,3.2-6.2l2.4,0C135.2,112.3,135.1,118.2,130.7,120.4z" class="st2"/></g></g><g><g><path d="M118.7,124.9c-3.8-5.2-1.7-13-1.6-13.3l2.4,0.7c0,0.1-1.9,6.9,1.2,11.2L118.7,124.9z" class="st2"/></g></g><g><g><path d="M115,129c-3-3.8-2.9-8-2.9-8.2l2.4,0c0,0,0,3.5,2.4,6.6L115,129z" class="st2"/></g></g><g><g><path d="M112.3,116.4c-1.4,0-3.1-0.3-5-0.9l0.8-2.3c6.6,2.2,8.8-1,8.9-1.2l2.1,1.3 C118.9,113.5,117.1,116.4,112.3,116.4z" class="st2"/></g></g><g><g><path d="M108.9,123.6c-0.9,0-1.9-0.1-3-0.4l0.7-2.4c3.4,1,6-0.5,6-0.5l1.2,2.1 C113.7,122.5,111.7,123.6,108.9,123.6z" class="st2"/></g></g><g><g><path d="M139.6,116.1c-4.7,0-6.6-2.8-6.7-3l2-1.3c0.1,0.1,1.8,2.5,6.4,1.7l0.4,2.4 C141.1,116.1,140.3,116.1,139.6,116.1z" class="st2"/></g></g></g><g><path d="M128.8,99.6C128.8,99.6,128.8,99.6,128.8,99.6l0.6-0.4c0,0-6.5-11.8-27.2-8.8c0,0,3.9,16.4,25.3,10.3 c-8-4.8-18.7-7.5-18.7-7.5C120,93.5,128.8,99.6,128.8,99.6z" class="st2"/></g><g><path d="M129.1,100.6l1.4,1.9c20.5-0.5,21.9-17.6,21.9-17.6C131.2,83.1,129.1,100.6,129.1,100.6z M133,98.8 c0,0,5.9-7.6,15.6-11.5C148.6,87.3,142.7,93.3,133,98.8z" class="st2"/></g></g><g><path d="M129.9,98.8c0,0,5.5-21-8.5-31c0,0-9.5,17.3,6.4,29.3c0,0-0.9-12.2-4.1-21.4c0,0,4.3,7.8,4.9,22.3 C128.6,97.9,129.1,100.1,129.9,98.8z" class="st2"/></g><g><path d="M64.6,144.7h1.9v10.9H65l-6-6.2c-0.7-0.8-1.3-1.3-1.9-1.5c-0.5-0.3-1.1-0.4-1.6-0.4c-0.8,0-1.4,0.3-1.9,0.8 c-0.4,0.6-0.7,1.4-0.7,2.4c0,1.7,0.5,3,1.6,3.9l-1.3,1.5c-0.7-0.6-1.3-1.4-1.7-2.3c-0.4-1-0.6-2-0.6-3.2c0-1.6,0.4-2.9,1.1-3.8 s1.8-1.4,3.1-1.4c0.8,0,1.6,0.2,2.3,0.5c0.7,0.3,1.5,1,2.5,2l4.5,4.6V144.7z" class="st0"/><path d="M65.7,139.8c-0.6,0.9-1.5,1.7-2.7,2.2c-1.2,0.5-2.6,0.8-4.2,0.8s-3-0.3-4.2-0.8s-2.1-1.3-2.7-2.2 c-0.6-0.9-0.9-2-0.9-3.2c0-1.2,0.3-2.2,0.9-3.2s1.5-1.7,2.7-2.2c1.2-0.5,2.6-0.8,4.2-0.8s3,0.3,4.2,0.8c1.2,0.5,2.1,1.3,2.7,2.2 c0.6,0.9,0.9,2,0.9,3.2C66.6,137.8,66.3,138.9,65.7,139.8z M63.2,133.7c-1-0.7-2.4-1.1-4.3-1.1c-1.9,0-3.3,0.4-4.3,1.1 c-1,0.7-1.5,1.7-1.5,2.9c0,1.2,0.5,2.2,1.5,2.9c1,0.7,2.4,1.1,4.3,1.1c1.9,0,3.3-0.4,4.3-1.1c1-0.7,1.5-1.7,1.5-2.9 C64.7,135.4,64.2,134.4,63.2,133.7z" class="st0"/></g><g><path d="M199,132.7h-15.2v-2.1h13.3v-3.4h1.9V132.7z" class="st0"/><path d="M191.2,145.5c-0.8,0.8-1.8,1.2-3,1.2c-0.9,0-1.7-0.2-2.4-0.7c-0.7-0.4-1.3-1.1-1.7-1.9 c-0.4-0.9-0.6-1.9-0.6-3.2c0-1.1,0.2-2.1,0.5-3.1c0.3-1,0.8-1.8,1.4-2.5l1.7,1c-0.5,0.5-0.9,1.2-1.2,2c-0.3,0.8-0.4,1.7-0.4,2.6 c0,1.1,0.2,2,0.7,2.6c0.5,0.6,1.1,0.9,2,0.9s1.5-0.3,2-0.9c0.5-0.6,0.7-1.6,0.7-2.8v-1.2h1.5l4.7,3.8V136h1.9v10h-1.5l-4.9-4 C192.4,143.6,192,144.7,191.2,145.5z" class="st0"/></g><g><g><g><path d="M97.5,170.5c-0.1,0.2-2.2-0.5-4-2.2c-1.9-1.6-3.1-4-3.3-4.9c-0.3-0.9-0.8-3.5-0.3-5.7 c0.5-2.2,1.7-3.9,1.9-3.8c0.3,0.1-0.6,1.9-0.7,4c-0.2,2.1,0.3,4.3,0.6,5.1c0.2,0.8,1.1,3,2.6,4.6 C95.9,169.2,97.7,170.3,97.5,170.5z" class="st3"/></g></g><g><g><path d="M133.9,153.9c-0.3,0-0.6-0.8-0.4-1.7c0.1-0.9,0.7-1.9,0.9-2.2c0.2-0.3,1-1,2-1.4c0.9-0.4,1.8-0.3,1.8-0.1 c0.1,0.3-0.6,0.6-1.2,1.1c-0.6,0.5-1.1,1.1-1.3,1.3c-0.2,0.2-0.7,0.8-1.1,1.5C134.4,153.2,134.2,153.9,133.9,153.9z" class="st3"/></g></g><g><g><path d="M112.8,150.6c-0.3,0-0.5-0.3-0.8-0.6c-0.3-0.3-0.6-0.6-0.7-0.7c-0.1-0.1-0.3-0.4-0.6-0.7 c-0.3-0.3-0.6-0.6-0.5-0.8c0.1-0.2,0.6-0.4,1.1-0.2c0.6,0.1,1.1,0.5,1.3,0.7c0.2,0.2,0.5,0.7,0.6,1.2 C113.3,150.1,113.1,150.6,112.8,150.6z" class="st3"/></g></g><g><g><path d="M143,171.5c0,0.2-1.6,0.4-3.3-0.1c-1.7-0.4-3.5-1.3-4.1-1.7c-0.6-0.4-2.1-1.5-3-2.9c-1-1.3-1.4-2.7-1.2-2.8 c0.3-0.1,1,1,2.2,2.1c1.1,1.1,2.5,2,3,2.3c0.5,0.3,2,1.3,3.5,1.8C141.6,170.9,143,171.2,143,171.5z" class="st3"/></g></g></g><g><path d="M126,201.3H124c-29.4,0-53.3-23.9-53.3-53.3V98.8c0-29.4,23.9-53.3,53.3-53.3h1.9c29.4,0,53.3,23.9,53.3,53.3 V148C179.3,177.4,155.4,201.3,126,201.3z M124,48.9c-27.5,0-49.9,22.4-49.9,49.9V148c0,27.5,22.4,49.9,49.9,49.9h1.9 c27.5,0,49.9-22.4,49.9-49.9V98.8c0-27.5-22.4-49.9-49.9-49.9H124z" class="st0"/></g></g></svg>