<svg xmlns="http://www.w3.org/2000/svg" xmlns:xlink="http://www.w3.org/1999/xlink" id="Capa_1" x="0" y="0" version="1.1" viewBox="-49 141 512 512" xml:space="preserve" style="enable-background:new -49 141 512 512"><style type="text/css">.st0{fill:#fff}.st1{fill:#d7e6ff}.st2{fill:#0062ff}</style><g><path d="M-11.1,413.9c-49.3-80.2-24.4-185.2,55.8-234.5s185.1-24.4,234.5,55.8c17,27.6,25.7,59.4,25.3,91.8 c-3,94.2-80.8,168.8-175.1,167.9H-27.9l16.6-28.1C-1.4,450.5-1.4,430.2-11.1,413.9z" class="st0"/><path d="M425.3,560c49.3-80.2,24.3-185.2-55.9-234.5c-20.3-12.5-43-20.6-66.6-23.7c1.2,8.4,1.8,16.8,1.7,25.2 c-3,94.2-80.8,168.8-175.1,167.9h-17.8c13.9,84.7,87.3,146.6,173.1,146.1h157.4l-16.6-28.1C415.7,596.6,415.6,576.3,425.3,560z" class="st1"/><g><path d="M436,606.6c-7.5-12.4-7.5-27.8,0-40.2c52.8-85.9,26-198.4-59.9-251.2c-19-11.7-40-19.8-61.9-23.9 c-7.1-38.3-26.2-73.3-54.5-100c-37.5-35.9-88.6-53.9-140.3-49.6C18.9,149.6-56.3,237.5-48.4,338c2.3,29.1,11.5,57.3,26.9,82.1 c7.5,12.4,7.5,27.8,0,40.2l-16.9,28.2c-3.4,5.8-1.5,13.3,4.3,16.7c1.9,1.1,4,1.7,6.2,1.7h129.5c19.1,85.5,95,146.2,182.6,146.1 h157.9c6.7,0,12.2-5.5,12.2-12.2c0-2.2-0.6-4.3-1.7-6.2L436,606.6z M-6.5,482.6l5.8-9.9c12.1-20.1,12.1-45.3,0-65.4 c-45.8-74.4-22.6-171.9,51.8-217.7s172-22.5,217.8,51.9c15.8,25.6,23.9,55.1,23.5,85.2c-2.9,87.6-75.2,156.9-162.9,156h-136V482.6 z M284.8,628.7C210.4,629.1,145.2,579,126.5,507h2.9c100.9,0.8,184.1-79,187.2-179.9c0-3.5,0-7.1,0-10.6 c85.1,20,137.9,105.2,117.9,190.3c-3.9,16.5-10.4,32.3-19.3,46.8c-12.1,20.1-12.1,45.3,0,65.4l5.8,9.9L284.8,628.7L284.8,628.7z" class="st2"/><path d="M147.6,295L147.6,295c0,12.2-11.4,20-40.8,21.2l-1.2,1.2l5.4,37.7h24.3l2.6-14.2 c24.8-4.4,44.9-16.6,44.9-46.4l0,0c0-30.9-22.8-48.7-56.4-48.7c-21.8-0.5-42.7,8.7-57,25.2l21.4,23.5c8.9-10,21.6-15.8,34.9-16.1 C139.7,278.5,147.6,284.6,147.6,295z" class="st2"/><rect width="37.7" height="37.3" x="103.3" y="373.6" class="st2"/></g></g></svg>