<svg xmlns="http://www.w3.org/2000/svg" id="Layer_2" width="512" height="512" data-name="Layer 2" viewBox="0 0 128 128"><title>BACKPACK</title><path d="M117.732,68.7h-7.815V5.75A5.756,5.756,0,0,0,104.167,0H95.384a5.76,5.76,0,0,0-5.739,5.392L88.563,22.717q-1.308-.831-2.664-1.569L79.3,1.2A1.748,1.748,0,0,0,77.64,0H50.36A1.748,1.748,0,0,0,48.7,1.2L42.1,21.148q-1.355.738-2.664,1.569L38.355,5.392A5.76,5.76,0,0,0,32.616,0H23.833a5.756,5.756,0,0,0-5.75,5.75V68.7H10.268a7.759,7.759,0,0,0-7.75,7.75V107.5a7.759,7.759,0,0,0,7.75,7.75h7.815v4a8.76,8.76,0,0,0,8.75,8.75h74.334a8.76,8.76,0,0,0,8.75-8.75v-4h7.815a7.759,7.759,0,0,0,7.75-7.75V76.448A7.759,7.759,0,0,0,117.732,68.7Zm0,3.5a4.254,4.254,0,0,1,4.25,4.25v4.885H109.917V72.2Zm4.25,16.219H109.917V84.833h12.065ZM93.139,5.61A2.253,2.253,0,0,1,95.384,3.5h8.783a2.253,2.253,0,0,1,2.25,2.25V43.933A46.436,46.436,0,0,0,91.925,25.058ZM71.267,16.164a46.25,46.25,0,0,0-15.456.153L57.4,11.5H70.6l1.593,4.817C71.883,16.262,71.575,16.213,71.267,16.164ZM41.87,25.33a42.3,42.3,0,0,1,44.614.227L82.4,53.1a3.268,3.268,0,0,1-3.214,2.774H48.813A3.268,3.268,0,0,1,45.6,53.1L41.516,25.557C41.634,25.483,41.75,25.4,41.87,25.33Zm4.609-6.274L51.625,3.5h24.75l5.146,15.556a45.427,45.427,0,0,0-5.346-1.835L73.521,9.2A1.747,1.747,0,0,0,71.86,8H56.14a1.747,1.747,0,0,0-1.661,1.2l-2.654,8.021A45.427,45.427,0,0,0,46.479,19.056ZM21.583,5.75a2.253,2.253,0,0,1,2.25-2.25h8.783a2.253,2.253,0,0,1,2.245,2.11l1.214,19.448A46.427,46.427,0,0,0,21.583,43.933ZM6.018,84.833H18.083v3.584H6.018ZM10.268,72.2h7.815v9.135H6.018V76.448A4.254,4.254,0,0,1,10.268,72.2Zm0,39.552a4.254,4.254,0,0,1-4.25-4.25V91.917H18.083V111.75Zm96.149,7.5a5.256,5.256,0,0,1-5.25,5.25H26.833a5.256,5.256,0,0,1-5.25-5.25V61.5A42.817,42.817,0,0,1,38.307,27.781l3.829,25.835a6.79,6.79,0,0,0,6.677,5.761H79.187a6.79,6.79,0,0,0,6.677-5.761l3.829-25.835A42.817,42.817,0,0,1,106.417,61.5v57.75Zm11.315-7.5h-7.815V91.917h12.065V107.5A4.254,4.254,0,0,1,117.732,111.75Z"/><path d="M91.477,70.042H36.523a5.757,5.757,0,0,0-5.75,5.75V109.5a5.757,5.757,0,0,0,5.75,5.75H91.477a5.757,5.757,0,0,0,5.75-5.75V75.792A5.757,5.757,0,0,0,91.477,70.042Zm-57.2,5.75a2.253,2.253,0,0,1,2.25-2.25H91.477a2.253,2.253,0,0,1,2.25,2.25V88.417H34.273ZM78,91.917h4.707v9.333H78ZM91.477,111.75H36.523a2.253,2.253,0,0,1-2.25-2.25V91.917H74.5V103a1.749,1.749,0,0,0,1.75,1.75h8.207a1.749,1.749,0,0,0,1.75-1.75V91.917h7.52V109.5A2.253,2.253,0,0,1,91.477,111.75Z"/><path d="M60.667,47.247h6.666a9.667,9.667,0,1,0,0-19.334H60.667a9.667,9.667,0,0,0,0,19.334Zm0-15.834h6.666a6.167,6.167,0,1,1,0,12.334H60.667a6.167,6.167,0,0,1,0-12.334Z"/></svg>