<svg xmlns="http://www.w3.org/2000/svg" id="Layer_2" width="512" height="512" data-name="Layer 2" viewBox="0 0 128 128"><title>WATCH</title><path d="M107.125,64A43.051,43.051,0,0,0,91.476,30.788L84.706,1.357A1.752,1.752,0,0,0,83,0H45a1.752,1.752,0,0,0-1.706,1.357l-6.77,29.431a43.068,43.068,0,0,0,0,66.424l6.77,29.431A1.752,1.752,0,0,0,45,128H83a1.752,1.752,0,0,0,1.706-1.357l6.77-29.431A43.051,43.051,0,0,0,107.125,64ZM40.842,27.63,46.393,3.5H81.607l5.551,24.13a43.116,43.116,0,0,0-46.316,0Zm46.316,72.74L81.607,124.5H46.393l-5.551-24.13a43.074,43.074,0,0,0,46.316,0ZM70.05,103.163a39.276,39.276,0,0,1-6.05.462A40.032,40.032,0,0,1,26.714,77.419,39.576,39.576,0,0,1,24.375,64,40.031,40.031,0,0,1,49.711,27.04,39.6,39.6,0,0,1,64,24.375a40.032,40.032,0,0,1,37.286,26.206A39.634,39.634,0,0,1,70.05,103.163Z"/><path d="M87.55,40.732a1.866,1.866,0,0,0-.127-.155,1.843,1.843,0,0,0-.156-.127,33.057,33.057,0,0,0-46.534,0,1.843,1.843,0,0,0-.156.127,1.866,1.866,0,0,0-.127.155,33.059,33.059,0,0,0,0,46.536,1.866,1.866,0,0,0,.127.155,1.7,1.7,0,0,0,.156.127,33.057,33.057,0,0,0,46.534,0,1.7,1.7,0,0,0,.156-.127,1.866,1.866,0,0,0,.127-.155,33.059,33.059,0,0,0,0-46.536ZM90.375,65.75h3.194a29.494,29.494,0,0,1-7.434,17.91l-2.248-2.247a1.75,1.75,0,0,0-2.474,2.475l2.247,2.247a29.5,29.5,0,0,1-17.91,7.434V90.375a1.75,1.75,0,0,0-3.5,0v3.194a29.5,29.5,0,0,1-17.91-7.434l2.247-2.247a1.75,1.75,0,1,0-2.474-2.475L41.865,83.66a29.494,29.494,0,0,1-7.434-17.91h3.194a1.75,1.75,0,0,0,0-3.5H34.431a29.494,29.494,0,0,1,7.434-17.91l2.248,2.247a1.75,1.75,0,1,0,2.474-2.475L44.34,41.865a29.5,29.5,0,0,1,17.91-7.434v3.194a1.75,1.75,0,0,0,3.5,0V34.431a29.5,29.5,0,0,1,17.91,7.434l-2.247,2.247a1.75,1.75,0,1,0,2.474,2.475l2.248-2.247a29.494,29.494,0,0,1,7.434,17.91H90.375a1.75,1.75,0,0,0,0,3.5Z"/><path d="M70.477,68A7.6,7.6,0,0,0,65.75,56.586V45.75a1.75,1.75,0,0,0-3.5,0V56.586A7.619,7.619,0,1,0,68,70.478l4.447,4.447a1.75,1.75,0,0,0,2.475-2.475Zm-10.6-4a4.125,4.125,0,1,1,7.042,2.913l0,0,0,0A4.122,4.122,0,0,1,59.875,64Z"/><path d="M56.5,13.75h15a1.75,1.75,0,0,0,0-3.5h-15a1.75,1.75,0,0,0,0,3.5Z"/><path d="M71.5,114.25h-15a1.75,1.75,0,0,0,0,3.5h15a1.75,1.75,0,0,0,0-3.5Z"/></svg>