<svg id="Layer_2" height="512" viewBox="0 0 128 128" width="512" xmlns="http://www.w3.org/2000/svg" data-name="Layer 2"><path d="m126.945 77.852-26.695-11.544v-8.933a25.362 25.362 0 0 0 -25.333-25.333h-21.834a25.362 25.362 0 0 0 -25.333 25.333v8.933l-26.695 11.544a1.75 1.75 0 0 0 -.287 3.054 86.992 86.992 0 0 0 49.012 15.052h28.44a86.992 86.992 0 0 0 49.012-15.052 1.75 1.75 0 0 0 -.287-3.054zm-41.216-10.352a6.181 6.181 0 0 1 -8.192 2.9l-8.287-4.037v-.905h6.062a1.75 1.75 0 0 0 0-3.5h-6.062v-.905l8.287-4.032a6.079 6.079 0 0 1 5.912.313c2.806 1.756 2.868 4.638 2.868 7.57a6.247 6.247 0 0 1 -.588 2.596zm-19.979.143a1.75 1.75 0 1 1 -3.5 0v-7.872a1.75 1.75 0 0 1 3.5 0zm-15.978 3.037a6.177 6.177 0 0 1 -8.089-5.78v-2.387a6.17 6.17 0 0 1 8.78-5.492l8.287 4.032v.905h-6.063a1.75 1.75 0 0 0 0 3.5h6.063v.905l-8.287 4.037a5.943 5.943 0 0 1 -.691.28zm-18.522-8.972h6.968a23.435 23.435 0 0 0 0 4h-6.968zm58.567 3.2c0-1.06.057-2.139-.035-3.2h6.968v4h-6.968c.024-.268.035-.536.035-.808zm-36.734-29.366h21.834a21.857 21.857 0 0 1 21.833 21.833v.833h-7.961a9.585 9.585 0 0 0 -12.783-4.334l-7.306 3.555a5.249 5.249 0 0 0 -9.4 0l-7.308-3.555a9.585 9.585 0 0 0 -12.783 4.334h-7.959v-.833a21.857 21.857 0 0 1 21.833-21.833zm25.137 56.916h-28.44a83.486 83.486 0 0 1 -44.343-12.687l24.425-10.563h9.346a9.706 9.706 0 0 0 12.786 4.335l7.306-3.556a5.248 5.248 0 0 0 9.4 0l7.308 3.556a9.707 9.707 0 0 0 12.786-4.335h9.346l24.424 10.563a83.48 83.48 0 0 1 -44.344 12.687z"/></svg>