<svg xmlns="http://www.w3.org/2000/svg" id="Layer_2" width="512" height="512" data-name="Layer 2" viewBox="0 0 128 128"><title>TUXEDO</title><path d="M126.044,86.3,112.136,21.4a1.885,1.885,0,0,0-.97-1.218L90.04,10.3,80.25.513A1.808,1.808,0,0,0,78.979,0H49.019A1.8,1.8,0,0,0,47.75.513L37.96,10.3,16.834,20.181a1.891,1.891,0,0,0-.97,1.218L1.956,86.3a1.748,1.748,0,0,0,.871,1.9l23.006,12.585v15.455a1.749,1.749,0,0,0,1.13,1.636l26.409,10.008a1.751,1.751,0,0,0,2.186-.853L64,110.147l8.442,16.886a1.75,1.75,0,0,0,2.186.853l26.409-10.008a1.749,1.749,0,0,0,1.13-1.636V100.787L125.173,88.2A1.748,1.748,0,0,0,126.044,86.3ZM98.667,93.881c-2.572.049-8.107-.014-12.667-.1v-2.7H98.667ZM87.041,12.254,79.994,35.5a1.753,1.753,0,0,0,.175,1.41l3.587,5.963L67.32,63.667,79.057,9.772h0l.983-4.518,3.286,3.286ZM64,62.465,52.826,11.149H75.174ZM48.006,35.5,40.959,12.254l3.715-3.715L47.96,5.253l.983,4.518h0l11.737,53.9L44.244,42.873l3.587-5.963A1.753,1.753,0,0,0,48.006,35.5ZM75.937,7.649H52.063L51.16,3.5H76.84Zm-46.6,83.434H42v2.7c-4.56.083-10.1.146-12.667.1ZM5.651,85.757l12.01-56.04,8.172,34.488V96.8Zm47.483,38.3-23.8-9.019V97.38c.724.024,1.637.037,2.82.037,2.507,0,6.186-.055,11.633-.167A1.75,1.75,0,0,0,45.5,95.5V89.333a1.751,1.751,0,0,0-1.75-1.75H29.333V64a1.708,1.708,0,0,0-.047-.4l-9.68-40.849L37.891,14.2l6.54,21.572-3.81,6.335a1.748,1.748,0,0,0,.126,1.987L62.25,71.3V105.82Zm45.533-9.019-23.8,9.019L65.75,105.82V71.3l21.5-27.2a1.748,1.748,0,0,0,.126-1.987l-3.81-6.335L90.109,14.2l18.285,8.549L98.714,63.6a1.708,1.708,0,0,0-.047.4V87.583H84.25a1.751,1.751,0,0,0-1.75,1.75V95.5a1.75,1.75,0,0,0,1.714,1.75c5.448.112,9.126.167,11.633.167,1.183,0,2.1-.013,2.82-.037v17.654Zm3.5-18.236V64.205l8.172-34.488,12.01,56.04Z"/><path d="M74.478,78.083A5.417,5.417,0,1,0,79.9,83.5,5.422,5.422,0,0,0,74.478,78.083Zm0,7.334A1.917,1.917,0,1,1,76.4,83.5,1.918,1.918,0,0,1,74.478,85.417Z"/></svg>