<svg id="Layer_2" height="512" viewBox="0 0 128 128" width="512" xmlns="http://www.w3.org/2000/svg" data-name="Layer 2"><path d="m126.25 37.25a15.658 15.658 0 0 0 -14.083 8.905l-.523 1.1h-23.213a11.364 11.364 0 0 0 -11.281-10.005h-5.344a1.748 1.748 0 0 0 -1.151.432l-5.67 4.951a72.44 72.44 0 0 1 -6.5 5.523 69.971 69.971 0 0 1 -14.821 8.886 70.3 70.3 0 0 1 -13.773 4.487l-4.634.992a36.757 36.757 0 0 0 -17.317 9.008l-7.381 6.856a1.8 1.8 0 0 0 -.559 1.282v3.333a7.759 7.759 0 0 0 7.75 7.75h112.5a7.759 7.759 0 0 0 7.75-7.75v-44a1.75 1.75 0 0 0 -1.75-1.75zm-57.897 12.75-18.553 11.463-2.57-2.206a83.44 83.44 0 0 0 18.611-12.726zm-58.031 24.094a33.264 33.264 0 0 1 15.669-8.151l4.634-.992a73.743 73.743 0 0 0 13.075-4.11l4.78 4.111a1.75 1.75 0 0 0 2.06.162l21.25-13.125a1.748 1.748 0 0 0 .5-2.515l-3.8-5.254 3.974-3.47h4.686a7.857 7.857 0 0 1 7.85 8.186 1.75 1.75 0 0 0 1.749 1.822h26a1.75 1.75 0 0 0 1.581-1l1-2.1a12.155 12.155 0 0 1 9.171-6.776v37.035h-14.021l7.768-9.832a1.75 1.75 0 0 0 -1.373-2.835h-40.25a1.749 1.749 0 0 0 -1.373.665l-9.482 12h-59.564zm95.7 3.823h-35.792l7.243-9.167h35.789zm18.478 5.083a4.255 4.255 0 0 1 -4.25 4.25h-112.5a4.255 4.255 0 0 1 -4.25-4.25v-1.583h121z"/></svg>