<svg id="Layer_2" height="512" viewBox="0 0 128 128" width="512" xmlns="http://www.w3.org/2000/svg" data-name="Layer 2"><path d="m114.309 111.9-19.984-100.408v-9.742a1.75 1.75 0 0 0 -1.75-1.75h-57.15a1.75 1.75 0 0 0 -1.75 1.75v9.744l-18.375 92.347-1.6 8.055a1.75 1.75 0 0 0 .713 1.775c.828.586 20.797 14.329 50.087 14.329q2.748 0 5.374-.155 1.313-.075 2.592-.186c24.754-2.124 40.443-13.48 41.164-14.012a1.849 1.849 0 0 0 .679-1.75zm-12.615-4.647-12.978-64.971a1.75 1.75 0 1 0 -3.432.686l13.128 65.714a89.859 89.859 0 0 1 -13.402 4.318l-4.521-39.822a1.75 1.75 0 0 0 -3.478.394l4.56 40.173a88.638 88.638 0 0 1 -15.821 1.655v-46.442a1.75 1.75 0 0 0 -3.5 0v46.43a90.907 90.907 0 0 1 -15.8-1.812l4.542-40a1.75 1.75 0 0 0 -3.478-.394l-4.5 39.631a95.827 95.827 0 0 1 -13.388-4.313l13.09-65.527a1.75 1.75 0 1 0 -3.432-.686l-12.946 64.8a81.178 81.178 0 0 1 -7.369-3.771l17.892-89.9h54.279l17.9 89.961a74.642 74.642 0 0 1 -7.346 3.873zm-64.519-103.753h53.65v6.417h-53.65zm-19.819 107.917.893-4.484a89.017 89.017 0 0 0 8.559 4.174 1.68 1.68 0 0 0 .282.119 99.248 99.248 0 0 0 16.2 5.241 1.735 1.735 0 0 0 1.017.489 1.911 1.911 0 0 0 .2.011 1.744 1.744 0 0 0 .578-.1 94.062 94.062 0 0 0 18.857 2.046c.022 0 .042.007.063.007s.033 0 .05-.006c.151 0 .3.006.45.006a91.808 91.808 0 0 0 18.855-1.964c.048 0 .094.014.143.014a1.926 1.926 0 0 0 .2-.011 1.747 1.747 0 0 0 .7-.241 90.8 90.8 0 0 0 25.371-9.7l.3 1.491.585 2.938a87.434 87.434 0 0 1 -46.159 13.053 92.8 92.8 0 0 1 -47.144-13.083z"/></svg>