<svg xmlns="http://www.w3.org/2000/svg" xmlns:xlink="http://www.w3.org/1999/xlink" id="Calque_1" x="0" y="0" version="1.1" viewBox="0 91 612 612" xml:space="preserve" style="enable-background:new 0 91 612 612"><style type="text/css">.st0{fill:#d4e1f4}.st1{fill:#0062ff}.st2{fill:#ff5f59}</style><g><path d="M313.9,510.5c0-5.6,0.3-11.2,0.9-16.7H101.7c-24.4,0-44.2-19.8-44.3-44.3v-297c-22.8,2.1-40.2,21.2-40.2,44.1 v293.2c0,24.4,19.8,44.2,44.3,44.3h254.3C314.5,526.4,313.9,518.5,313.9,510.5z" class="st0"/><path d="M471.8,197.6v163c-3-0.2-6-0.3-9-0.3c-3.2,0-6.4,0.1-9.6,0.3V262H18.7v227c0,24.3,19.7,44,44,44h252.7 c0.8,4.9,1.8,9.8,3.1,14.7c0.3,1.3,0.7,2.7,1.1,4h-257C28.1,551.7,0,523.7,0,489V197.6c0-34.6,28.1-62.6,62.6-62.6h346.6 C443.8,135.1,471.8,163.1,471.8,197.6z M453.2,243.4v-45.8c0-24.3-19.7-44-44-44H62.6c-24.3,0-44,19.7-44,44v45.8H453.2z" class="st1"/><g><path d="M462.8,659c80.6,0,146.7-64.1,149.1-144.8c2.4-80.6-59.6-148.6-140.1-153.5c-3-0.2-6-0.3-9-0.3 c-3.2,0-6.4,0.1-9.6,0.3c-44.5,3-85.4,25.6-111.4,61.8c-26.1,36.2-34.6,82.1-23.3,125.3c0.3,1.3,0.7,2.7,1.1,4 C338.2,615.3,396.6,658.9,462.8,659z M335.9,540.5c-9.4-38.9-0.5-79.9,24.2-111.4s62.4-49.9,102.5-50h0.3 c67.8,0,124.3,51.9,130.1,119.4s-41,128.3-107.8,139.9C418.3,650,353.8,608.5,336.5,543C336.3,542.2,336.1,541.4,335.9,540.5z" class="st2"/><path d="M498.7,552.4c3.3,3.9,9.2,4.4,13.2,1l43.6-37.1c2.1-1.8,3.3-4.4,3.3-7.1s-1.2-5.3-3.3-7.1L511.9,465 c-3.9-3.3-9.8-2.9-13.2,1c-3.3,3.9-2.9,9.8,1,13.2l35.3,30l-35.3,30C495.9,542.5,495.4,548.5,498.7,552.4z" class="st2"/><path d="M445.4,583.3c0.6,0.1,1.3,0.2,1.9,0.2c4.4,0,8.2-3.1,9.1-7.4l27.2-129c0.7-3.3-0.4-6.7-2.9-8.9s-6-3-9.2-1.9 c-3.2,1.1-5.5,3.7-6.2,7l-27.2,129c-0.5,2.4,0,4.9,1.3,7C440.9,581.4,443,582.8,445.4,583.3z" class="st2"/><path d="M419.8,555.7c3.9,0,7.4-2.4,8.8-6.1c1.4-3.7,0.3-7.8-2.7-10.3l-35.3-30l35.3-30c2.6-2.1,3.9-5.5,3.3-8.8 s-2.9-6.1-6.1-7.2c-3.2-1.1-6.7-0.4-9.3,1.8l-43.6,37.1c-2.1,1.8-3.3,4.4-3.3,7.1s1.2,5.3,3.3,7.1l43.6,37.1 C415.4,554.9,417.6,555.7,419.8,555.7z" class="st2"/><path d="M208.9,225.3L208.9,225.3c14.5,0,26.2-11.6,26.2-26s-11.6-26.1-26-26.1H209c-14.4,0-26.1,11.6-26.1,26 C182.9,213.6,194.5,225.3,208.9,225.3z M203.8,193.9c1.4-1.4,3.3-2.2,5.2-2.2l0,0c4.1,0,7.4,3.3,7.4,7.4c0,4.1-3.3,7.4-7.4,7.4 l0,0c-3,0-5.7-1.8-6.8-4.6C201,199.3,201.7,196.1,203.8,193.9z" class="st2"/><path d="M133.7,225.1L133.7,225.1c14.4,0,26.1-11.6,26.2-26c0-14.4-11.6-26.1-26-26.2h-0.1c-14.4,0-26.1,11.6-26.1,26 C107.6,213.3,119.3,225.1,133.7,225.1z M128.6,193.8c1.4-1.4,3.3-2.2,5.2-2.2l0,0c4.1,0,7.4,3.3,7.4,7.4l0,0 c0,4.1-3.3,7.4-7.4,7.4l0,0c-3,0-5.7-1.8-6.8-4.6C125.8,199.1,126.4,195.8,128.6,193.8z" class="st2"/><path d="M58.5,224.8L58.5,224.8c10.6,0,20.1-6.3,24.2-16.1c4-9.7,1.8-20.9-5.6-28.4c-4.9-4.9-11.5-7.7-18.4-7.7h-0.1 c-14.4,0-26.1,11.6-26.1,26C32.4,213.1,44.1,224.8,58.5,224.8z M53.3,193.4c1.4-1.4,3.3-2.1,5.2-2.1l0,0c4.1,0,7.4,3.3,7.4,7.4 c0,4.1-3.3,7.4-7.4,7.4l0,0c-4.1,0-7.4-3.4-7.4-7.5C51.1,196.8,51.9,194.8,53.3,193.4z" class="st2"/></g></g></svg>