<svg xmlns="http://www.w3.org/2000/svg" xmlns:xlink="http://www.w3.org/1999/xlink" id="Calque_1" x="0" y="0" version="1.1" viewBox="0 91 612 612" xml:space="preserve" style="enable-background:new 0 91 612 612"><style type="text/css">.st0{fill:#d4e1f4}.st1{fill:#0062ff}.st2{fill:#ff5f59}</style><g><path d="M73.7,204.2v-9.5c0-23.9,18.4-43.3,41-43.3h-23c-22.6,0-41,19.4-41,43.3v362.4c6.1-7.3,14-12.8,23-16.1V204.2z" class="st0"/><path d="M568.1,219.8l-396.5-0.7v-74.6c0-3.8-3.1-6.9-6.9-6.9H91.8c-29.7,0-54,24.8-54.8,55.6l0,0v406.1 c0,31.5,24.6,57.1,54.8,57.1h476.3c3.8,0,6.9-3.1,6.9-6.9V226.7C575,222.9,571.9,219.8,568.1,219.8z M50.8,204.2v-9.5 c0-23.9,18.4-43.3,41-43.3h66v386.5h-66c-15.9,0.1-30.9,7.1-41,19.3C50.8,557.2,50.8,204.2,50.8,204.2z M561.2,642.6H91.8 c-22.6,0-41-19.4-41-43.3v-4.4c0-23.9,18.4-43.3,41-43.3h72.9c3.8,0,6.9-3.1,6.9-6.9V232.9l389.6,0.7V642.6z" class="st1"/><g><path d="M212.4,373.2c0.1,0.7,0.3,1.4,0.6,2c0,0,0,0.1,0.1,0.1c0.1,0.3,0.3,0.5,0.5,0.8c0,0.1,0.1,0.1,0.1,0.2 c0.2,0.2,0.4,0.5,0.6,0.7c0,0,0.1,0,0.1,0.1c0.2,0.2,0.4,0.4,0.7,0.6c0.1,0,0.1,0.1,0.2,0.1c0.3,0.2,0.5,0.3,0.8,0.5 c0,0,0.1,0,0.1,0.1c0.3,0.1,0.6,0.2,0.8,0.3h0.1c0.3,0.1,0.6,0.2,0.9,0.2c0.1,0,0.2,0,0.2,0c0.3,0,0.6,0.1,0.9,0.1h0.1l0,0h283 l0,0h0.1c0.3,0,0.6,0,0.9-0.1c0.1,0,0.2,0,0.2,0c0.3-0.1,0.6-0.1,0.9-0.2h0.1c0.3-0.1,0.6-0.2,0.8-0.3c0,0,0.1,0,0.1-0.1 c0.3-0.1,0.5-0.3,0.8-0.5c0.1,0,0.1-0.1,0.2-0.1c0.2-0.2,0.5-0.4,0.7-0.6c0,0,0.1,0,0.1-0.1c0.2-0.2,0.4-0.5,0.6-0.7 c0-0.1,0.1-0.1,0.1-0.2c0.2-0.3,0.3-0.5,0.5-0.8c0,0,0-0.1,0.1-0.1c0.5-0.9,0.7-2,0.7-3v-89.8c0-0.9-0.2-1.9-0.6-2.7 c0-0.1-0.1-0.1-0.1-0.2c-0.1-0.1-0.1-0.3-0.2-0.4c-0.1-0.1-0.1-0.2-0.2-0.3s-0.1-0.2-0.2-0.3s-0.2-0.2-0.2-0.3 c-0.1-0.1-0.1-0.2-0.2-0.2c-0.1-0.1-0.2-0.2-0.3-0.3c-0.1-0.1-0.1-0.1-0.2-0.2c-0.1-0.1-0.2-0.1-0.2-0.2c-0.1-0.1-0.2-0.2-0.3-0.2 c-0.1-0.1-0.1-0.1-0.2-0.2c-0.1-0.1-0.2-0.2-0.3-0.2c0,0-0.1-0.1-0.2-0.1c-0.1-0.1-0.3-0.2-0.4-0.2c0,0-0.1,0-0.1-0.1 c-0.2-0.1-0.3-0.2-0.5-0.2h-0.1c-0.2-0.1-0.4-0.1-0.5-0.2H504c-0.2,0-0.4-0.1-0.5-0.1s-0.1,0-0.2,0s-0.3,0-0.4-0.1 c-0.1-0.1-0.3,0-0.4,0s-0.2,0-0.2,0h-283c-0.3,0-0.5,0-0.8,0h-0.1c-0.2,0-0.4,0-0.5,0.1c-0.1,0-0.2,0-0.3,0.1 c-0.1,0-0.2,0.1-0.3,0.1s-0.2,0.1-0.4,0.1c-0.1,0-0.2,0.1-0.3,0.1c-0.1,0.1-0.2,0.1-0.4,0.2c-0.1,0-0.2,0.1-0.2,0.1 c-0.1,0.1-0.2,0.1-0.3,0.2c-0.1,0.1-0.2,0.1-0.3,0.2c-0.1,0.1-0.2,0.1-0.3,0.2c-0.1,0.1-0.2,0.1-0.3,0.2c-0.1,0.1-0.1,0.1-0.2,0.2 c-0.1,0.1-0.2,0.2-0.3,0.3c-0.1,0.1-0.1,0.1-0.2,0.2c-0.1,0.1-0.2,0.2-0.3,0.3c-0.1,0.1-0.1,0.1-0.1,0.2c-0.1,0.1-0.2,0.2-0.3,0.3 c-0.1,0.1-0.1,0.2-0.2,0.3c-0.1,0.1-0.1,0.2-0.2,0.3c-0.1,0.1-0.1,0.3-0.2,0.4c0,0.1-0.1,0.1-0.1,0.2c-0.4,0.9-0.6,1.8-0.6,2.7 v89.8C212.4,372.5,212.4,372.8,212.4,373.2z M495.4,362.8l-111.9-35.5l111.9-35.5V362.8z M457.8,365.3h-194l97-30.8L457.8,365.3z M360.8,320.1l-97-30.8h194.1L360.8,320.1z M338,327.3l-111.9,35.5v-70.9L338,327.3z" class="st2"/><path d="M509.2,417.1L509.2,417.1v-0.2c0-0.4-0.1-0.8-0.1-1.2c0,0,0,0,0-0.1c-0.1-0.4-0.2-0.8-0.4-1.2c0,0,0,0,0-0.1 c-0.2-0.4-0.4-0.8-0.6-1.1c0,0,0-0.1-0.1-0.1c-0.2-0.3-0.5-0.7-0.8-1l0,0c0,0,0,0-0.1,0c-0.3-0.3-0.6-0.5-1-0.8l-0.1-0.1 c-0.3-0.2-0.7-0.4-1.1-0.5l-0.2-0.1c-0.4-0.1-0.7-0.2-1.1-0.3c-0.1,0-0.1,0-0.2,0c-0.4-0.1-0.7-0.1-1.1-0.1H350.4 c-0.4,0-0.7,0-1.1,0.1h-0.2c-0.4,0.1-0.8,0.2-1.1,0.3l-0.2,0.1c-0.4,0.1-0.7,0.3-1.1,0.5l-0.1,0.1c-0.4,0.2-0.7,0.5-1,0.8 c0,0,0,0-0.1,0l0,0c-0.3,0.3-0.6,0.6-0.8,1c0,0,0,0.1-0.1,0.1c-0.2,0.4-0.4,0.7-0.6,1.1c0,0,0,0,0,0.1c-0.2,0.4-0.3,0.8-0.4,1.2 c0,0,0,0,0,0.1c-0.1,0.4-0.1,0.8-0.1,1.2v0.1v0.1v158.8v0.1v0.1c0,0.4,0.1,0.8,0.1,1.2c0,0,0,0,0,0.1c0.1,0.4,0.2,0.8,0.4,1.2 c0,0,0,0,0,0.1c0.2,0.4,0.4,0.8,0.6,1.1c0,0,0,0.1,0.1,0.1c0.2,0.3,0.5,0.7,0.8,1l0,0c0,0,0,0,0.1,0.1c0.3,0.3,0.6,0.5,1,0.7 l0.1,0.1c0.3,0.2,0.7,0.4,1,0.5c0,0,0.1,0,0.1,0.1c0.4,0.1,0.7,0.2,1.1,0.3h0.1c0.4,0.1,0.8,0.1,1.2,0.1h151.9 c0.4,0,0.8,0,1.2-0.1h0.1c0.4-0.1,0.8-0.2,1.1-0.3h0.1c0.4-0.1,0.7-0.3,1-0.5l0.1-0.1c0.3-0.2,0.7-0.5,1-0.8c0,0,0,0,0.1-0.1l0,0 c0.3-0.3,0.6-0.6,0.8-1c0,0,0-0.1,0.1-0.1c0.2-0.4,0.4-0.7,0.6-1.1c0,0,0,0,0-0.1c0.2-0.4,0.3-0.8,0.4-1.2c0,0,0,0,0-0.1 c0.1-0.4,0.1-0.8,0.1-1.2V576v-0.1L509.2,417.1z M416.8,496.4l-59.5,62.2V434.2L416.8,496.4z M366.5,423.9h119.7l-59.8,62.5 L366.5,423.9z M426.4,506.4l59.8,62.5H366.5L426.4,506.4z M435.9,496.4l59.5-62.2v124.5L435.9,496.4z" class="st2"/><path d="M217,582.3c0.2,0.1,0.3,0.1,0.5,0.2c0.1,0,0.2,0,0.3,0.1c0.2,0,0.3,0.1,0.5,0.1c0.1,0,0.2,0,0.3,0 c0.2,0,0.4,0,0.6,0c0.1,0,0.1,0,0.2,0h82.9c0.1,0,0.1,0,0.2,0c0.2,0,0.4,0,0.6,0c0.1,0,0.2,0,0.3,0c0.2,0,0.3-0.1,0.5-0.1 c0.1,0,0.2,0,0.3-0.1c0.2,0,0.3-0.1,0.5-0.2c0.1,0,0.1-0.1,0.2-0.1c0.2-0.1,0.4-0.2,0.6-0.3h0.1l0,0c0.1-0.1,0.3-0.2,0.4-0.2 s0.1-0.1,0.2-0.1c0.1-0.1,0.2-0.1,0.3-0.2s0.2-0.1,0.3-0.2c0,0,0,0,0.1-0.1c1.1-1,1.9-2.3,2.3-3.7v-0.1c0-0.1,0-0.2,0.1-0.3 c0-0.1,0-0.2,0.1-0.4c0-0.1,0-0.1,0-0.2c0-0.2,0-0.3,0-0.5l0,0V417.1l0,0c0-0.2,0-0.3,0-0.5c0-0.1,0-0.1,0-0.2 c0-0.1,0-0.2-0.1-0.4c0-0.1,0-0.2-0.1-0.3v-0.1c-0.3-1.4-1.1-2.7-2.3-3.7c0,0,0,0-0.1-0.1c-0.1-0.1-0.2-0.1-0.3-0.2 c-0.1-0.1-0.2-0.1-0.3-0.2c-0.1,0-0.1-0.1-0.2-0.1c-0.1-0.1-0.3-0.2-0.4-0.2l0,0c0,0-0.1,0-0.1-0.1c-0.1-0.1-0.3-0.1-0.4-0.2 c-0.1,0-0.2-0.1-0.2-0.1c-0.1,0-0.3-0.1-0.4-0.1s-0.2-0.1-0.3-0.1c-0.1,0-0.2-0.1-0.3-0.1c-0.1,0-0.3,0-0.4-0.1 c-0.1,0-0.2,0-0.2,0c-0.2,0-0.3,0-0.5,0c-0.1,0-0.1,0-0.2,0h-82.8h-0.1c-0.2,0-0.4,0-0.5,0s-0.1,0-0.2,0c-0.1,0-0.3,0-0.4,0.1 c-0.1,0-0.2,0-0.3,0.1c-0.1,0-0.2,0.1-0.3,0.1s-0.3,0.1-0.4,0.1c-0.1,0-0.2,0.1-0.3,0.1c-0.2,0.1-0.3,0.1-0.4,0.2 c0,0-0.1,0-0.1,0.1l0,0c-0.1,0.1-0.3,0.2-0.4,0.2c-0.1,0-0.1,0.1-0.2,0.1c-0.1,0.1-0.2,0.1-0.3,0.2c-0.1,0.1-0.2,0.1-0.3,0.2 c0,0,0,0-0.1,0.1c-1.1,1-1.9,2.3-2.3,3.7v0.1c0,0.1,0,0.2-0.1,0.3c0,0.1,0,0.2-0.1,0.4c0,0.1,0,0.1,0,0.2c0,0.2,0,0.3,0,0.5V576 c0,0.2,0,0.3,0,0.5c0,0.1,0,0.1,0,0.2c0,0.1,0,0.2,0.1,0.4c0,0.1,0,0.2,0.1,0.3v0.1c0.3,1.4,1.1,2.7,2.3,3.7c0,0,0,0,0.1,0.1 s0.2,0.1,0.3,0.2s0.2,0.1,0.3,0.2c0.1,0,0.1,0.1,0.2,0.1c0.1,0.1,0.3,0.2,0.4,0.2l0,0h0.1c0.2,0.1,0.4,0.2,0.6,0.3 C216.8,582.3,216.9,582.3,217,582.3L217,582.3z M268.4,496.4l26.8-51.3v102.6L268.4,496.4z M290.7,569h-60.1l30.1-57.6L290.7,569z M260.7,481.6L230.6,424h60.1L260.7,481.6z M252.9,496.4l-26.8,51.3V445.1L252.9,496.4z" class="st2"/></g></g></svg>