<svg xmlns="http://www.w3.org/2000/svg" xmlns:xlink="http://www.w3.org/1999/xlink" id="Calque_1" x="0" y="0" version="1.1" viewBox="0 91 612 612" xml:space="preserve" style="enable-background:new 0 91 612 612"><style type="text/css">.st0{fill:#d4e1f4}.st1{fill:#0062ff}.st2{fill:#ff5f59}</style><g><path d="M206.9,574.5c-35.8-35.8-55.5-84.1-55.5-135.8s19.7-100,55.6-135.9l117.5-117.5L306,167L170.1,302.8 c-35.8,35.8-55.6,84.1-55.6,135.9s19.7,100,55.5,135.8c36.6,35.7,85.7,55.6,136.9,55.6c6.2,0,12.3-0.3,18.4-0.9 C280.8,625,239,605.7,206.9,574.5L206.9,574.5z" class="st0"/><path d="M159.8,585c39.4,38.4,92.2,59.8,147.2,59.8c54.5,0.3,106.8-21.3,145.3-59.9c38.6-38.6,59.9-90.6,59.9-146.3 S490.9,331,452.3,292.4L311.2,151.3c-2.9-2.9-7.5-2.9-10.4,0L159.7,292.4C121.1,331,99.9,383,99.9,438.7S121.1,546.4,159.8,585 L159.8,585z M170.1,302.8L306,167l135.9,135.9c35.8,35.8,55.6,84.1,55.6,135.9s-19.7,100-55.6,135.9 c-35.7,35.8-84.3,55.8-134.9,55.6c-51.1,0-100.2-19.9-136.9-55.6c-35.8-35.8-55.5-84.1-55.5-135.8S134.3,338.6,170.1,302.8 L170.1,302.8z" class="st1"/><path d="M355.2,577.6c0.9,0,1.9-0.2,2.8-0.5c44.4-17.9,76-58,83-105.4c0.6-4-2.1-7.8-6.1-8.4s-7.8,2.1-8.4,6.1v0.1 c-6.2,42.2-34.4,78-74,94c-3.8,1.5-5.6,5.8-4.1,9.6C349.5,575.8,352.2,577.6,355.2,577.6L355.2,577.6z" class="st2"/></g></svg>