<svg xmlns="http://www.w3.org/2000/svg" xmlns:xlink="http://www.w3.org/1999/xlink" id="Calque_1" x="0" y="0" version="1.1" viewBox="0 91 612 612" xml:space="preserve" style="enable-background:new 0 91 612 612"><style type="text/css">.st0{fill:#d4e1f4}.st1{fill:#0062ff}.st2{fill:#ff5f59}</style><g><path d="M120.3,231H97.3c-14.7,0-26.6,11.9-26.6,26.6V492h22.9V257.6C93.6,242.9,105.5,231,120.3,231L120.3,231z" class="st0"/><path d="M93.6,529.3v-23.7H70.8v23.7c0,14.7,11.9,26.6,26.6,26.6h22.9C105.5,555.9,93.6,544,93.6,529.3z" class="st0"/><path d="M514.5,217.3H391.4c-3.8,0-6.9,3.1-6.9,6.9c0,3.8,3.1,6.9,6.9,6.9h123.2c14.7,0,26.6,11.9,26.6,26.6v234.4 H70.8V257.6c0-14.7,11.9-26.6,26.6-26.6h123.2c3.8,0,6.9-3.1,6.9-6.9c0-3.8-3.1-6.9-6.9-6.9H97.3c-22.2,0-40.3,18.1-40.3,40.3 v271.7c0,22.2,18.1,40.3,40.3,40.3h137.8v82.1h-31.9c-3.8,0-6.9,3.1-6.9,6.9s3.1,6.9,6.9,6.9h211.6c3.8,0,6.9-3.1,6.9-6.9 s-3.1-6.9-6.9-6.9h-38v-82.1h137.8c22.2,0,40.3-18.1,40.3-40.3V257.6C554.9,235.4,536.8,217.3,514.5,217.3L514.5,217.3z M363.1,651.8H248.8v-82.1H363L363.1,651.8L363.1,651.8z M514.5,555.9H97.3c-14.7,0-26.6-11.9-26.6-26.6v-23.7H541v23.7 C541.2,544,529.3,555.9,514.5,555.9z" class="st1"/><g><path d="M450.5,130.1c-15.8-0.1-29.6,10.8-33.1,26.2H340v-20.8c0-3.8-3.1-6.9-6.9-6.9H278c-3.8,0-6.9,3.1-6.9,6.9 v20.8h-78c-3-15.6-16.6-26.8-32.4-27c-18.3,0-33.1,15.2-33.1,33.8s14.9,33.8,33.1,33.8c15.8-0.2,29.4-11.4,32.4-27h63 c-29.4,17.5-47.4,49.2-47.3,83.4c0,3.8,3.1,6.9,6.9,6.9c3.8,0,6.9-3.1,6.9-6.9c-0.1-32.6,18.9-62.2,48.5-75.8v13.2 c0,3.8,3.1,6.9,6.9,6.9h55.3c3.8,0,6.9-3.1,6.9-6.9v-13.5c30.1,13.4,49.4,43.2,49.3,76.1c0,3.8,3.1,6.9,6.9,6.9s6.9-3.1,6.9-6.9 c0.1-21-6.7-41.4-19.3-58.1c-7.6-10.2-17.2-18.8-28.1-25.3h61.7c3.5,15.4,17.3,26.4,33.1,26.2c18.7,0,33.8-14.9,33.8-33.1 S469.2,130.1,450.5,130.1L450.5,130.1z M160.6,183.3c-10.7,0-19.4-9-19.4-20.1s8.7-20.1,19.4-20.1s19.4,9,19.4,20.1 C180.1,174.3,171.3,183.3,160.6,183.3z M284.9,184v-14.3c0.5-1.4,0.5-2.9,0-4.3v-0.1v-22.9h41.5v22.5c0,0.1-0.1,0.2-0.1,0.3 c-0.4,1.4-0.4,3,0.1,4.4V184L284.9,184L284.9,184z M450.5,182.6c-11.1,0-20.1-8.7-20.1-19.4s9-19.4,20.1-19.4s20.1,8.7,20.1,19.4 S461.6,182.6,450.5,182.6z" class="st2"/><path d="M231.6,291.4c-3.1-6.2-5.5-12.7-7-19.4c-0.9-3.7-4.6-5.9-8.3-5c-3.6,0.9-5.8,4.4-5.1,8 c1.8,7.9,4.5,15.5,8.2,22.6c1.7,3.4,5.8,4.8,9.2,3.1c3.4-1.7,4.8-5.8,3.1-9.2C231.8,291.5,231.6,291.5,231.6,291.4L231.6,291.4z" class="st2"/><path d="M394.4,273.2c-3.6-1.1-7.5,0.9-8.6,4.6c-2,6.6-4.9,12.9-8.4,18.9c-2,3.2-0.9,7.5,2.3,9.4 c3.2,2,7.5,0.9,9.4-2.3c4.2-6.9,7.5-14.3,9.8-22C400,278.2,398,274.4,394.4,273.2L394.4,273.2z" class="st2"/><path d="M366.5,329.4c2.7-2.1,5.2-4.4,7.6-6.7c2.7-2.6,2.8-7,0.2-9.7c-2.6-2.7-7-2.8-9.7-0.2l-0.1,0.1 c-1.8,1.8-3.8,3.5-5.8,5.2l-47.8-69.4c-2.1-3.1-6.4-3.9-9.5-1.8c-0.7,0.5-1.3,1.1-1.8,1.8L253.2,318c-3.6-2.9-6.9-6.1-9.9-9.5 c-2.5-2.8-6.8-3.1-9.7-0.6c-2.8,2.5-3.1,6.8-0.6,9.7c3.8,4.3,8,8.3,12.5,11.9l-13.7,20.6c-1.3,2-1.5,4.6-0.5,6.7l32.1,68.4 c-1.9,1.3-3,3.4-2.9,5.7l0.4,36.3c0,3.8,3.1,6.8,6.9,6.8l0,0l78.6-0.5c3.8,0,6.8-3.1,6.8-6.9l0,0l-0.4-36.3c0-2.3-1.2-4.4-3.2-5.7 l31.2-68.7c1-2.2,0.8-4.7-0.6-6.7L366.5,329.4z M305.9,354.2L305.9,354.2c7.8,0,14,6.3,14,14.1c0,7.6-6.2,13.8-13.8,13.9H306 c-7.7,0-14-6.3-13.9-14.1C292.1,360.5,298.3,354.3,305.9,354.2z M274.5,460.2l-0.3-22.3c0.6,0,1.1-0.1,1.6-0.3l61.3-0.4 c0.6,0.2,1.3,0.3,1.9,0.3l0.3,22.2L274.5,460.2z M335,423.5l-57.1,0.4l-32.6-69.4l53.2-79.5l0.4,66.4c-14.8,3.9-23.7,19-19.8,33.8 c3.2,12.2,14.2,20.7,26.8,20.7h0.2c15.3-0.1,27.6-12.6,27.5-27.9c-0.1-12.7-8.7-23.7-21-26.7l-0.4-66.4l39.2,56.9l15.2,22 L335,423.5z" class="st2"/></g></g></svg>