<svg xmlns="http://www.w3.org/2000/svg" xmlns:xlink="http://www.w3.org/1999/xlink" id="Calque_1" x="0" y="0" version="1.1" viewBox="0 91 612 612" xml:space="preserve" style="enable-background:new 0 91 612 612"><style type="text/css">.st0{fill:#d4e1f4}.st1{fill:#0062ff}.st2{fill:#ff5f59}</style><g><path d="M239.1,438.4c-54.2-49.7-57.8-133.9-8-188.1c1.4-1.5,2.9-3.1,4.4-4.5c22-22,51.1-35.4,82.1-38.1 c-3.4-0.3-6.8-0.5-10.3-0.5c-73.5-0.7-133.7,58.4-134.4,131.9c-0.4,37.7,15.3,73.8,43.1,99.3c19.9,18.5,32,43.9,33.7,71.1h23.2 C271.2,482.3,259.1,456.9,239.1,438.4z" class="st0"/><path d="M273.1,539.3v-15.9h-23.2v15.9v13.9v16.9h23.2v-16.9V539.3z" class="st0"/><path d="M273.1,586.3V584h-23.2v2.3c0,8.1,6.5,14.6,14.6,14.6h23.2C279.6,600.9,273.1,594.4,273.1,586.3z" class="st0"/><g><path d="M424.9,414.8c3.3,1.9,7.6,0.7,9.5-2.7c39.6-71,14.1-160.6-56.9-200.2c-21.4-11.9-45.5-18.3-70.1-18.6 c-0.5,0-0.9,0-1.4,0c-81.2,0-147,65.8-147,147c0,41.2,17.3,80.5,47.6,108.3c18.8,17.5,29.5,42.1,29.4,67.8v69.9 c0,15.7,12.8,28.5,28.5,28.5h66.7c3.8,0,7-3.1,7-7s-3.1-7-7-7h-66.7c-8.1,0-14.6-6.5-14.6-14.6V584h68.6c3.8,0,7-3.1,7-7 c0-3.8-3.1-7-7-7h-68.6v-16.9h17.8c3.8,0,7-3.1,7-7c0-3.8-3.1-7-7-7l0,0h-17.8v-15.9H317c3.8,0,7-3.1,7-7s-3.1-7-7-7h-67.3 c-1.7-27.1-13.8-52.6-33.7-71.1c-54.1-49.7-57.7-133.9-8-188.1s133.9-57.7,188.1-8c45.4,41.7,56.2,109.1,26.1,162.9 C420.3,408.7,421.5,412.9,424.9,414.8L424.9,414.8L424.9,414.8z" class="st1"/><path d="M290,539.3c-3.8,0-7,3.1-7,7c0,3.8,3.1,7,7,7h46c3.8,0,7-3.1,7-7c0-3.8-3.1-7-7-7H290z" class="st1"/><path d="M311.1,169c3.8,0,7-3.1,7-7v-43c0-3.8-3.1-7-7-7s-7,3.1-7,7v43C304.2,165.9,307.3,169,311.1,169z" class="st1"/><path d="M511.4,317.4h-43.1c-3.8,0-7,3.1-7,7s3.1,7,7,7h43.1c3.8,0,7-3.1,7-7S515.2,317.4,511.4,317.4z" class="st1"/><path d="M100.6,331.3h43.1c3.8,0,7-3.1,7-7s-3.1-7-7-7h-43.1c-3.8,0-7,3.1-7,7S96.8,331.3,100.6,331.3z" class="st1"/><path d="M462.5,167.9c-2.7-2.7-7.1-2.7-9.8,0L419,201.5c-2.8,2.7-2.8,7.1-0.1,9.8c2.7,2.8,7.1,2.8,9.8,0.1l0.1-0.1 l33.6-33.6C465.2,175,465.2,170.6,462.5,167.9L462.5,167.9z" class="st1"/><path d="M193,211.3c2.7-2.7,2.7-7.1,0-9.8l-33.6-33.6c-2.7-2.7-7.1-2.8-9.8-0.1s-2.8,7.1-0.1,9.8l0.1,0.1l33.6,33.6 C185.9,214.1,190.3,214.1,193,211.3L193,211.3z" class="st1"/></g><path d="M338,638.4c-1.3,1.3-2,3.1-2,5l0.4,31.7c0,3.8,3.1,6.9,7,6.9l0,0l68.8-0.4c3.8,0,6.9-3.2,6.9-7l0,0l-0.4-31.7 c0-2-0.9-4-2.5-5.3l27-59.4c1-2.2,0.8-4.8-0.6-6.8l-21.2-30.8c34.4-24.9,42.1-73,17.2-107.5c-4.7-6.5-10.4-12.3-16.9-17h25.1 c3.5,13.6,15.7,23,29.7,23c16.9,0,30.6-13.4,30.6-29.9s-13.7-29.9-30.6-29.9c-14-0.1-26.3,9.4-29.7,23h-39v-17.2c0-3.8-3.1-7-7-7 l0,0h-48.4c-3.8,0-7,3.1-7,7l0,0v17.2h-39.6c-3-13.7-15.1-23.5-29.1-23.6c-16.5,0-29.9,13.7-29.9,30.6s13.4,30.6,29.9,30.6 c14-0.1,26.1-9.9,29.1-23.6h25c-34.3,25.1-41.8,73.2-16.7,107.5c5,6.8,11,12.7,17.8,17.5l-20.7,31c-1.4,2-1.6,4.6-0.5,6.8 l27.8,59.2C338.2,638.2,338.1,638.3,338,638.4L338,638.4z M350.2,668.1l-0.2-17.7c0.2,0,0.4-0.1,0.6-0.2l53.4-0.3 c0.3,0.1,0.6,0.1,0.9,0.2l0.2,17.6L350.2,668.1z M476.4,393.1c9.2,0,16.7,7.2,16.7,16s-7.5,16-16.7,16s-16.7-7.2-16.7-16 C459.7,400.3,467.2,393.1,476.4,393.1L476.4,393.1z M359.2,391.9h34.5v34.5h-34.5V391.9z M276.6,425.8c-8.8,0-16-7.5-16-16.7 s7.2-16.7,16-16.7s16,7.5,16,16.7S285.4,425.8,276.6,425.8z M313,478.2c0-22.8,12.4-43.9,32.3-55.1v10.2c0,3.8,3.1,7,7,7h48.4 c3.8,0,7-3.1,7-7v-9.7c30.2,17.4,40.6,56,23.2,86.1c-4.4,7.6-10.3,14.2-17.4,19.4L382,483.4c-1.3-1.9-3.5-3-5.8-3s-4.4,1.2-5.7,3.1 l-30.9,46.1C322.9,517.7,313.1,498.6,313,478.2L313,478.2z M376.7,577.2L376.7,577.2c6.3,0,11.4,5,11.4,11.3 c0,6.2-5,11.3-11.3,11.3l0,0h-0.1c-6.2,0-11.3-5-11.3-11.3C365.4,582.2,370.5,577.2,376.7,577.2L376.7,577.2z M369.4,510l0.3,54.3 c-13.4,3.9-21,17.9-17.1,31.3c3.1,10.7,13,18.1,24.2,18.1h0.2c13.9-0.1,25.1-11.4,25-25.3c-0.1-11.2-7.6-21.1-18.4-24.1l-0.3-54.4 l45.5,66.1l-27.3,60l-48.7,0.3l-28-59.7L369.4,510z" class="st2"/></g></svg>