<svg xmlns="http://www.w3.org/2000/svg" xmlns:xlink="http://www.w3.org/1999/xlink" id="Calque_1" x="0" y="0" version="1.1" viewBox="0 91 612 612" xml:space="preserve" style="enable-background:new 0 91 612 612"><style type="text/css">.st0{fill:#d4e1f4}.st1{fill:#0062ff}.st2{fill:#ff5f59}</style><g><path d="M244.4,489.1c0.1-71.2,54.4-130.6,125.3-137.1c-4.1-0.4-8.2-0.6-12.4-0.6c-76.1,0-137.7,61.7-137.7,137.7 s61.7,137.7,137.7,137.7c4.2,0,8.3-0.2,12.4-0.6C298.8,619.7,244.5,560.3,244.4,489.1L244.4,489.1z" class="st0"/><path d="M27.9,517.7h185.8c4.1,0,7.4-3.3,7.4-7.4s-3.3-7.4-7.4-7.4H40.9l192.3-328.3l102,174c2.1,3.5,6.6,4.7,10.2,2.7 c0.7-0.4,1.3-0.9,1.8-1.5c3.2,2.6,7.9,2.2,10.5-0.9c1.1-1.3,1.7-3,1.7-4.8v-58.6h217.4v217.4H501c-4.1,0-7.4,3.3-7.4,7.4 c0,4.1,3.3,7.4,7.4,7.4h83.2c4.1,0,7.4-3.3,7.4-7.4V278c0-4.1-3.3-7.4-7.4-7.4H351.9c-4.1,0-7.4,3.3-7.4,7.4v57L239.6,156 c-2.1-3.5-6.6-4.7-10.2-2.7c-1.1,0.6-2,1.6-2.7,2.7L21.4,506.4c-2.1,3.5-0.9,8.1,2.7,10.2C25.2,517.3,26.5,517.7,27.9,517.7 L27.9,517.7z" class="st1"/><path d="M357.3,641.7c84.3,0,152.6-68.3,152.6-152.6s-68.3-152.6-152.6-152.6s-152.6,68.3-152.6,152.6l0,0 C204.8,573.3,273.1,641.6,357.3,641.7z M357.3,351.4c76.1,0,137.7,61.7,137.7,137.7s-61.7,137.7-137.7,137.7 s-137.7-61.7-137.7-137.7C219.7,413.1,281.3,351.4,357.3,351.4L357.3,351.4z" class="st2"/></g></svg>