<svg xmlns="http://www.w3.org/2000/svg" xmlns:xlink="http://www.w3.org/1999/xlink" id="Calque_1" x="0" y="0" version="1.1" viewBox="0 91 612 612" xml:space="preserve" style="enable-background:new 0 91 612 612"><style type="text/css">.st0{fill:#d4e1f4}.st1{fill:#0062ff}.st2{fill:#ff5f59}</style><g><path d="M387.3,475.1l-12.2-12.2l-10.2,43.9l15.8-3.7L387.3,475.1z" class="st0"/><path d="M393.6,460.7l96.8-96.6l29.5,29.5L478.2,352l-96.8,96.6l41.8,41.8L393.6,460.7z" class="st0"/><path d="M500.7,353.9l11.4-11.3c1.7-1.7,4.5-1.7,6.2,0l-12.2-12.2c-1.7-1.7-4.5-1.7-6.2,0l-11.4,11.3l41.6,41.6 L500.7,353.9z" class="st0"/><g><path d="M116.7,653.3h260.1c0.3,0,0.7,0,1-0.1c1,0,2,0.1,3.1,0.1c36,0,65.1-29.2,65.2-65.2V485.2c0-4-3.3-7.3-7.3-7.3 s-7.3,3.3-7.3,7.3v102.9c0,27.9-22.6,50.5-50.5,50.5s-50.5-22.6-50.5-50.5v-37.4c0-4-3.3-7.3-7.3-7.3H137.4l2-355 c0.2-18.4,15.2-33.3,33.6-33.1h273.3c-9.5,9.4-14.9,22.3-14.9,35.7v190c0,4,3.3,7.3,7.3,7.3s7.3-3.3,7.3-7.3l0,0V266.9h78.7 c4,0,7.3-3.3,7.3-7.3V191c0-27.8-22.5-50.3-50.3-50.3H173c-26.6,0-48.3,21.4-48.3,47.7l-2,355H62c-4,0-7.3,3.3-7.3,7.3v37.4 c0,34.1,26.4,62.5,60.5,65C115.6,653.2,116.2,653.3,116.7,653.3L116.7,653.3z M517.4,191v61.3H446V191c0-19.7,16-35.7,35.7-35.7 S517.4,171.3,517.4,191L517.4,191z M69.3,588.1V558h246.5v30.1c0,19.6,8.9,38.2,24.1,50.5h-220C91.9,638.6,69.3,616,69.3,588.1z" class="st1"/><path d="M195.6,240.8h79.3c4,0,7.3-3.3,7.3-7.3s-3.3-7.3-7.3-7.3h-79.3c-4,0-7.3,3.3-7.3,7.3 C188.3,237.5,191.5,240.8,195.6,240.8z" class="st1"/><path d="M367.1,287.6H195.6c-4,0-7.3,3.3-7.3,7.3s3.3,7.3,7.3,7.3h171.5c4,0,7.3-3.3,7.3-7.3S371.1,287.6,367.1,287.6 z" class="st1"/><path d="M367.1,348.9H195.6c-4,0-7.3,3.3-7.3,7.3s3.3,7.3,7.3,7.3h171.5c4,0,7.3-3.3,7.3-7.3 C374.4,352.2,371.1,348.9,367.1,348.9z" class="st1"/><path d="M374.4,417.4c0-4-3.3-7.3-7.3-7.3H195.6c-4,0-7.3,3.3-7.3,7.3s3.3,7.3,7.3,7.3h171.5 C371.1,424.7,374.4,421.5,374.4,417.4z" class="st1"/><path d="M195.6,471.4c-4,0-7.3,3.3-7.3,7.3s3.3,7.3,7.3,7.3h128.9c4,0,7.3-3.3,7.3-7.3s-3.3-7.3-7.3-7.3H195.6z" class="st1"/></g><path d="M516.4,320c-7.4-7.4-19.4-7.4-26.8,0L366.9,442.4c-1.7,1.7-3,3.9-3.5,6.3L348.1,515c-0.9,3.9,1.5,7.9,5.5,8.8 c1.1,0.3,2.2,0.3,3.3,0l66.2-15.3c2.4-0.6,4.6-1.8,6.3-3.5l122.4-122.6c7.4-7.4,7.4-19.4,0-26.8L516.4,320z M375.1,462.9l33.8,33.8 L365,506.9L375.1,462.9z M423.2,490.4l-41.8-41.8l96.8-96.6l41.6,41.6L423.2,490.4z M541.5,371.9l-11.3,11.4l-41.6-41.6l11.4-11.3 c1.7-1.7,4.5-1.7,6.2,0l35.4,35.4C543.2,367.4,543.2,370.2,541.5,371.9z" class="st2"/></g></svg>