<svg xmlns="http://www.w3.org/2000/svg" xmlns:xlink="http://www.w3.org/1999/xlink" id="Calque_1" x="0" y="0" version="1.1" viewBox="0 91 612 612" xml:space="preserve" style="enable-background:new 0 91 612 612"><style type="text/css">.st0{fill:#d4e1f4}.st1{fill:#0062ff}.st2{fill:#ff5f59}</style><g><path d="M114.9,489.8c-24.8,0-45-20.2-45-45V146.7c0-1.3,0.1-2.6,0.2-3.9C46.9,144.9,29,164.3,29,187.6v298.1 c0,24.8,20.2,45,45,45h317.2l-13.6-40.9L114.9,489.8L114.9,489.8z" class="st0"/><path d="M492.7,188.2v157.1c-3.1-0.2-6.1-0.4-9.2-0.4c-3.3,0-6.6,0.1-9.8,0.4v-91.2H29v232.2c0,24.8,20.2,45,45,45 h315.6c5.6,7.1,12,13.5,19.1,19.1H74c-35.4,0-64.1-28.7-64.1-64.1V188.2c0-35.4,28.7-64,64.1-64.1h354.6 C464,124.2,492.6,152.8,492.7,188.2z M473.6,235v-46.8c0-24.8-20.2-45-45-45H74c-24.8,0-45,20.2-45,45V235H473.6z" class="st1"/><g><path d="M417.7,451.6l31.4,22.2l-12,35.8c-1.3,3.9,0.1,8.2,3.4,10.7s7.8,2.5,11.2,0.1l31.7-22.4l31.7,22.4 c3.4,2.4,7.9,2.3,11.2-0.1c3.3-2.5,4.7-6.8,3.4-10.7l-12-35.8l31.4-22.2c3.4-2.4,4.8-6.7,3.6-10.7c-1.3-4-4.9-6.6-9.1-6.7h-39.1 l-12-36c-1.3-3.9-5-6.5-9.1-6.5s-7.8,2.6-9.1,6.5l-12,36h-39.1c-4.2,0-7.8,2.7-9.1,6.7C412.9,444.9,414.4,449.2,417.7,451.6z M469.2,453.3c4.1,0,7.8-2.6,9-6.5l5.2-15.4l5.2,15.4c1.3,3.9,5,6.5,9.1,6.5h15.9l-12.7,9c-3.4,2.4-4.9,6.8-3.5,10.8l5,14.9 l-13.4-9.5c-3.3-2.3-7.7-2.3-11,0l-13.4,9.5l5-14.9c1.3-4-0.1-8.4-3.5-10.8l-12.7-9H469.2z" class="st2"/><path d="M408.7,550.4c1.2,1,2.5,2,3.8,2.9v107c0,3.8,2.2,7.2,5.7,8.7c3.4,1.5,7.5,0.9,10.3-1.6l55-49.4l55,49.4 c2.8,2.5,6.8,3.2,10.3,1.6c3.4-1.5,5.6-4.9,5.6-8.7v-107c29-21.1,47.7-54.8,47.7-92.7c0-60.8-48.3-110.7-109.4-115.4 c-3.1-0.2-6.1-0.4-9.2-0.4c-3.3,0-6.6,0.1-9.8,0.4c-60.8,4.9-108.8,54.7-108.8,115.3c0,25.7,8.8,50.6,24.8,70.7 C395.2,538.4,401.6,544.8,408.7,550.4z M535.2,638.9l-45.4-40.8c-3.6-3.3-9.1-3.3-12.7,0l-45.5,40.8v-74.3 c32.8,15.5,70.8,15.5,103.6,0V638.9z M383.9,460.6c0-53.2,44.5-96.5,99.2-96.6h0.3c54.9,0,99.5,43.3,99.5,96.6 s-44.6,96.6-99.5,96.6c-23.9,0.1-47.1-8.4-65.3-23.8C396.5,515.4,384,488.8,383.9,460.6z" class="st2"/><path d="M223.7,216.5L223.7,216.5c10.9,0,20.6-6.5,24.7-16.4c4.1-9.9,1.9-21.4-5.7-29.1c-5-5-11.8-7.9-18.8-7.9h-0.1 c-14.7,0-26.7,11.9-26.7,26.6C197,204.5,209,216.5,223.7,216.5z M218.4,184.4c1.4-1.4,3.4-2.2,5.4-2.2l0,0c4.2,0,7.6,3.4,7.6,7.6 c0,4.2-3.4,7.6-7.6,7.6l0,0c-3.1,0-5.8-1.9-7-4.7C215.6,189.8,216.2,186.6,218.4,184.4z" class="st2"/><path d="M146.7,216.3L146.7,216.3c14.8,0,26.8-11.9,26.8-26.6c0-14.7-11.9-26.7-26.6-26.7h-0.1 c-14.7,0-26.7,11.9-26.7,26.6C120.1,204.3,132,216.2,146.7,216.3z M141.5,184.2c1.4-1.4,3.3-2.2,5.3-2.2l0,0 c4.2,0,7.6,3.4,7.6,7.6c0,4.2-3.4,7.6-7.6,7.6l0,0c-3.1,0-5.8-1.9-7-4.7C138.6,189.6,139.3,186.4,141.5,184.2z" class="st2"/><path d="M69.8,216L69.8,216c14.8,0,26.8-11.9,26.8-26.6c0-14.7-11.9-26.7-26.6-26.7h-0.1c-14.7,0-26.7,11.9-26.7,26.6 C43.1,204,55,216,69.8,216z M64.5,183.9c1.4-1.4,3.3-2.2,5.3-2.2l0,0c4.2,0,7.6,3.4,7.6,7.6c0,4.2-3.4,7.6-7.6,7.6l0,0 c-4.2,0-7.6-3.4-7.6-7.6C62.2,187.3,63.1,185.4,64.5,183.9z" class="st2"/></g></g></svg>