<svg xmlns="http://www.w3.org/2000/svg" xmlns:xlink="http://www.w3.org/1999/xlink" id="Calque_1" x="0" y="0" version="1.1" viewBox="0 91 612 612" xml:space="preserve" style="enable-background:new 0 91 612 612"><style type="text/css">.st0{fill:#d4e1f4}.st1{fill:#0062ff}.st2{fill:#ff5f59}</style><g><path d="M119.5,190.7c0-22.1,18-40.1,40.1-40.1h-35.4c-22.1,0-40.1,18-40.1,40.1v16.5h35.4 C119.5,207.2,119.5,190.7,119.5,190.7z" class="st0"/><rect width="35.4" height="337.2" x="84.1" y="221.3" class="st0"/><path d="M119.5,603.3v-30.7H84.1v30.7c0,22.1,18,40.1,40.1,40.1h35.4C137.5,643.4,119.5,625.5,119.5,603.3z" class="st0"/><path d="M123.9,657.6h188.7c30,0,54.4-24.2,54.5-54.2V548H353v10.6H84.1V221.3H276c3.9,0,7.1-3.2,7.1-7.1 s-3.2-7.1-7.1-7.1H84.1v-16.5c-0.1-22,17.6-40,39.7-40.1h0.1h188.7c22.2,0,40.2,17.9,40.4,40.1v16.5h-16.8c-3.9,0-7.1,3.2-7.1,7.1 s3.2,7.1,7.1,7.1H353v31.8h14.1v-62.5c-0.2-30-24.5-54.2-54.5-54.2H123.9c-29.9,0.1-54,24.3-53.9,54.2v0.1v412.7 C69.9,633.2,94,657.5,123.9,657.6L123.9,657.6z M84.1,572.7H353v30.7c-0.2,22.2-18.2,40.1-40.4,40.1H123.9c-22,0-39.8-17.9-39.8-40 v-0.1C84.1,603.4,84.1,572.7,84.1,572.7z" class="st1"/><path d="M299.3,207.2c-3.9,0-7.1,3.2-7.1,7.1s3.2,7.1,7.1,7.1h13.1c3.9,0,7.1-3.2,7.1-7.1s-3.2-7.1-7.1-7.1H299.3z" class="st1"/><path d="M218.3,632.8c13.7,0,24.8-11.1,24.8-24.8s-11.1-24.8-24.8-24.8s-24.8,11.1-24.8,24.8S204.6,632.8,218.3,632.8z M218.3,597.4c5.9,0,10.6,4.8,10.6,10.6s-4.8,10.6-10.6,10.6c-5.9,0-10.6-4.8-10.6-10.6S212.4,597.5,218.3,597.4z" class="st1"/><path d="M467.6,505.8c26.2-28.6,40.7-65.9,40.7-104.7c0-85.6-69.7-155.3-155.3-155.3s-155.3,69.7-155.3,155.3 S267.3,556.5,353,556.5c38.7,0,76.1-14.5,104.7-40.7l72.2,72.2c2.7,2.8,7.2,2.9,10,0.1c2.8-2.7,2.9-7.2,0.1-10l-0.1-0.1 L467.6,505.8z M211.8,401.2c0-78,63.2-141.2,141.2-141.2s141.2,63.2,141.2,141.2S430.9,542.4,353,542.4 C275,542.3,211.9,479.1,211.8,401.2z" class="st2"/></g></svg>