<svg xmlns="http://www.w3.org/2000/svg" xmlns:xlink="http://www.w3.org/1999/xlink" id="Calque_1" x="0" y="0" version="1.1" viewBox="0 91 612 612" xml:space="preserve" style="enable-background:new 0 91 612 612"><style type="text/css">.st0{fill:#d4e1f4}.st1{fill:#0062ff}.st2{fill:url(#SVGID_1_)}.st3{fill:#ff5f59}</style><g><path d="M112.7,347.9c0-106.7,86.7-193.5,193.3-193.5c8.1,0,16.1,0.5,24.1,1.5c-22-8.4-45.3-12.7-68.8-12.7 C154.7,143.3,68,230.1,68,336.8c0,98.5,73.9,180.1,169.2,192C164.5,501,112.7,430.4,112.7,347.9z" class="st0"/><path d="M257.9,128.6c-114.5,0-207.7,93.3-207.7,207.9s93.2,207.9,207.7,207.9c19.2,0,38.4-2.6,56.9-7.9l-4.3-15 c-17.1,4.9-34.8,7.3-52.6,7.3c-105.9,0-192.1-86.2-192.1-192.3S152,144.2,257.9,144.2S450,230.5,450,336.5c0,2.3,0,4.6-0.1,6.9 h-1.1l15.6,0.7h1c0.1-2.5,0.1-5.1,0.1-7.6C465.6,221.9,372.4,128.6,257.9,128.6z" class="st1"/><path d="M368.7,323.4l-114.3,10.4L202,281.3c-3.1-3.1-8-3.1-11.1,0c-3.1,3.1-3.1,8,0,11.1l0,0l55,55.1 c1.5,1.5,3.5,2.3,5.5,2.3c0.2,0,0.5,0,0.7,0l118-10.8c4.3-0.4,7.4-4.3,7-8.6C376.6,326.2,372.9,323.1,368.7,323.4L368.7,323.4z" class="st1"/><linearGradient id="SVGID_1_" x1="446.613" x2="446.613" y1="331.551" y2="331.493" gradientTransform="matrix(1 0 0 1 0 4)" gradientUnits="userSpaceOnUse"><stop offset=".322" style="stop-color:#a163f5"/><stop offset=".466" style="stop-color:#b074ee"/><stop offset=".752" style="stop-color:#d8a1dd"/><stop offset=".898" style="stop-color:#efbad3"/></linearGradient><path d="M448.4,335.5c-0.5,0-0.9,0-1.4,0c-1.2,0-2.5,0-3.7,0.1h6.7C449.4,335.5,448.9,335.5,448.4,335.5z" class="st2"/><path d="M535.8,545.4c0.9-9.6,9.5-32.6,13-41.1c18.4-35.3,17.3-77.5-2.8-111.9c-17.1-29.6-46.6-50-80.4-55.4 c0-0.1,0-0.3,0-0.4h-34.5c-59.2,7.7-104.6,56.5-107.9,116.1c-0.1,2-0.2,16.8-0.2,23.1L305,523l-4.3,17.1 c1.2,6.1,6.5,10.4,12.7,10.4h26.4v20c-13,0.2-23.4,11-23.1,24c0.2,13,11,23.4,24,23.1h0.3l46.6-0.7c2.2,0,4.3-1,5.8-2.7 c5,0,10.3,0,14.9-0.1l0,0c4.1,0,7.6,2.8,8.6,6.7l9.7,38.7c0.9,3.5,4,5.9,7.6,5.9h108.2c4.3,0,7.8-3.5,7.8-7.8c0-0.7-0.1-1.4-0.3-2 C549.7,654.9,531.9,587.5,535.8,545.4z M456.9,471.1c14.9,0,27,12,27.2,26.8l0.1,4.4c0.2,15-11.8,27.4-26.8,27.6h-0.1H457 c-14.9,0-27-12-27.2-26.8l-0.1-4.4c-0.2-15,11.8-27.4,26.8-27.6h0.1L456.9,471.1z M340.7,601.9c-4.4,0-8-3.5-8-7.9 c0-4.3,3.4-7.9,7.7-8h38.8l0.2,15.3L340.7,601.9z M394.9,585.3l-0.1-7.2c-0.1-4.3-3.5-7.7-7.8-7.7h-31.5v-27.8 c0-4.3-3.5-7.8-7.8-7.8h-30.4l20.9-54.8c0.3-0.9,0.5-1.8,0.5-2.8c0-10.4,0.1-22.2,0.2-23.7c3-57.5,50.6-102.5,108.2-102.4 c0.4,0,0.8,0,1.2,0c0.2,0,0.4,0,0.6,0v105.1c-20.4,3.9-35,21.9-34.7,42.6l0.1,4.4c0.3,19.9,14.3,37.1,33.8,41.3l0.1,9.2 c0.2,17.2-13.7,31.3-30.9,31.5L394.9,585.3z M534.4,498c-1.3,3.3-12.9,32.2-14.2,45.9c-3.3,35.3,7.1,84.9,12.1,105.8h-92.1L432,617 c-1.8-7.2-6.7-13.1-13.4-16.2c25.4-0.9,45.4-21.8,45.2-47.2l-0.1-8.6c21.1-3.3,36.5-21.6,36.2-42.9l-0.1-4.4 c-0.3-20.5-15.1-38-35.3-41.6V352.6c28.6,5,53.5,22.5,68,47.6c17.5,29.8,18.3,66.5,2.3,97.1C534.6,497.6,534.5,497.8,534.4,498z" class="st3"/></g></svg>