<svg xmlns="http://www.w3.org/2000/svg" xmlns:xlink="http://www.w3.org/1999/xlink" id="Calque_1" x="0" y="0" version="1.1" viewBox="-269 361 72 72" xml:space="preserve" style="enable-background:new -269 361 72 72"><style type="text/css">.st0{fill:#d7f1f8}.st1{fill:#98d9e9}.st2{fill:#48b0cb}</style><path d="M-233,433c19.9,0,36-16.1,36-36c0-19.9-16.1-36-36-36c-19.9,0-36,16.1-36,36C-269,416.9-252.9,433-233,433z" class="st0"/><g><path d="M-217.1,394.9l-4.9,19.8c-0.2,0.8-0.9,1.3-1.7,1.3h-18.7c-0.8,0-1.5-0.5-1.7-1.3l-4.9-19.8H-217.1z" class="st1"/><path d="M-217.1,394.9l-4.9,19.8c-0.2,0.8-0.9,1.3-1.7,1.3h-15.9c-0.8,0-1.5-0.5-1.7-1.3l-4.9-19.8H-217.1z" class="st1"/><path d="M-216.4,401.6c-1.5,0-2.8-1.2-3-2.7c0-0.2-0.1-0.3-0.3-0.3c-0.2,0-0.4,0.1-0.4,0.3c-0.2,1.5-1.4,2.7-3,2.7 c-1.5,0-2.8-1.2-3-2.7c0-0.1-0.1-0.2-0.2-0.3c-0.2-0.1-0.4,0.1-0.4,0.3c-0.1,1.5-1.4,2.7-3,2.7c-1.5,0-2.8-1.2-3-2.7 c0-0.2-0.1-0.3-0.3-0.3c-0.2,0-0.4,0.1-0.4,0.3c-0.2,1.5-1.4,2.7-3,2.7c-1.5,0-2.8-1.1-3-2.6c0-0.1-0.1-0.2-0.2-0.3 c-0.3-0.2-0.6,0-0.7,0.3c-0.2,1.5-1.4,2.6-3,2.6c-1.5,0-2.8-1.2-3-2.7c0-0.2-0.1-0.3-0.3-0.3c-0.2,0-0.4,0.1-0.4,0.3 c-0.2,1.5-1.4,2.7-3,2.7c-1.5,0-2.8-1.1-2.8-3.9c0.1-3.5,0.8-6.5,2.2-9.2c3.1-6.1,9-9.8,15.4-10.5c0.6-0.1,1.3-0.1,1.9-0.1 c5,0,9.8,1.9,13.4,5.3c1.5,1.5,2.9,3.2,3.9,5.2c1.3,2.7,2.1,5.7,2.2,9.2C-213.5,399.9-214.1,401.6-216.4,401.6z" class="st2"/><path d="M-216.4,401.6c-1.5,0-2.8-1.2-3-2.7c0-0.2-0.1-0.3-0.3-0.3c-0.2,0-0.4,0.1-0.4,0.3c-0.2,1.5-1.4,2.7-3,2.7 c-1.5,0-2.8-1.2-3-2.7c0-0.1-0.1-0.2-0.2-0.3c-0.2-0.1-0.4,0.1-0.4,0.3c-0.1,1.5-1.4,2.7-3,2.7c-1.5,0-2.8-1.2-3-2.7 c0-0.2-0.1-0.3-0.3-0.3c-0.2,0-0.4,0.1-0.4,0.3c-0.2,1.5-1.4,2.7-3,2.7c-1.5,0-2.8-1.1-3-2.6c0-0.1-0.1-0.2-0.2-0.3 c-0.3-0.2-0.6,0-0.7,0.3c-0.2,1.5-1.4,2.6-3,2.6c-1.5,0-2.8-1.2-3-2.7c0-0.2-0.1-0.3-0.3-0.3c-0.2,0-0.4,0.1-0.4,0.3 c-0.2,1.5-1.4,2.7-3,2.7c0.1-4.2,0.9-7.9,2.2-11.2c2.6-6.4,7.3-10.8,12.6-12.4c0.6-0.1,1.3-0.1,1.9-0.1c5,0,9.8,1.9,13.4,5.3 c1.5,1.5,2.9,3.2,3.9,5.2c1.3,2.7,2.1,5.7,2.2,9.2C-213.5,399.9-214.1,401.6-216.4,401.6z" class="st2"/><g><path d="M-233,403.6c-0.3,0-0.6,0.3-0.6,0.6v8.5c0,0.3,0.3,0.6,0.6,0.6s0.6-0.3,0.6-0.6v-8.5 C-232.4,403.9-232.7,403.6-233,403.6z" class="st2"/><path d="M-236.9,404.2c0-0.3-0.3-0.6-0.7-0.5c-0.3,0-0.6,0.3-0.5,0.7l0.9,8.5c0,0.3,0.3,0.5,0.6,0.5 c0.4,0,0.6-0.3,0.6-0.7L-236.9,404.2z" class="st2"/><path d="M-241.4,404.1c-0.1-0.3-0.4-0.5-0.7-0.5c-0.3,0.1-0.5,0.4-0.5,0.7l1.9,8.5c0.1,0.3,0.3,0.5,0.6,0.5 c0.4,0,0.7-0.4,0.6-0.7L-241.4,404.1z" class="st2"/><path d="M-228.5,403.6c-0.3,0-0.6,0.2-0.7,0.5l-0.9,8.5c0,0.4,0.2,0.7,0.6,0.7c0.3,0,0.6-0.2,0.6-0.5l0.9-8.5 C-227.9,404-228.2,403.7-228.5,403.6z" class="st2"/><path d="M-223.9,403.6c-0.3-0.1-0.6,0.1-0.7,0.5l-1.9,8.5c-0.1,0.3,0.1,0.6,0.5,0.7c0.3,0.1,0.6-0.1,0.7-0.5l1.9-8.5 C-223.4,404-223.6,403.7-223.9,403.6z" class="st2"/></g><path d="M-215.7,388.6l-0.2,0c-2.1,0-2.1,2.5-4.3,2.5c-2.1,0-2.1-2.5-4.3-2.5c-0.3,0-0.6,0.1-0.8,0.1 c-0.3,0.1-0.6,0.5-0.6,0.8v2.7c0,0.9-0.4,1.7-0.9,2.2c-0.6,0.6-1.3,0.9-2.2,0.9c-1.7,0-3.2-1.5-3.2-3.2v-2.7c0-0.5-0.4-0.9-0.9-0.9 c0,0,0,0,0,0c-2.1,0-2.1,2.5-4.3,2.5c-2.1,0-2.1-2.5-4.3-2.5c-2.1,0-2.1,2.5-4.3,2.5c-2.1,0-2.1-2.5-4.3-2.5h-0.2 c3.4-6.7,10.2-10.6,17.3-10.6c5,0,9.8,1.9,13.4,5.3C-218.1,384.8-216.7,386.6-215.7,388.6z" class="st1"/><path d="M-250.3,388.6h0.2c1.4,0,1.9,1,2.6,1.8c2.6-6.4,7.3-10.7,12.6-12.3C-241.3,378.7-247.2,382.5-250.3,388.6z" class="st1"/></g></svg>