<svg xmlns="http://www.w3.org/2000/svg" xmlns:xlink="http://www.w3.org/1999/xlink" id="Calque_1" x="0" y="0" version="1.1" viewBox="-269 361 72 72" xml:space="preserve" style="enable-background:new -269 361 72 72"><style type="text/css">.st0{fill:#fce5eb}.st1{fill:#ef7398}.st2{fill:#f7b7ca}</style><path d="M-233,433c19.9,0,36-16.1,36-36s-16.1-36-36-36s-36,16.1-36,36S-252.9,433-233,433z" class="st0"/><g><path d="M-240.5,382.6c0.9-0.3,1.9,0.2,2.5,1c0.2,0.3,0.5,0.4,0.8,0.3c0.3-0.1,0.5-0.4,0.5-0.7c0-1,0.6-1.9,1.5-2.2 l0.9-0.3c1.2-0.3,2.4,0.5,2.7,1.7c0.1,0.3,0.2,0.6,0.3,1c0.1,0.5,0.3,1,0.4,1.4c0.2,0.6,0.4,1.3,0.5,1.9c0.2,0.7,0.4,1.5,0.6,2.2 c0.2,0.8,0.5,1.7,0.7,2.5c0.3,0.9,0.5,1.8,0.8,2.7c0.3,0.9,0.5,1.8,0.8,2.7c0.3,0.9,0.5,1.8,0.8,2.7c0.2,0.9,0.5,1.7,0.7,2.6 c0.2,0.8,0.5,1.6,0.7,2.4c0.2,0.7,0.4,1.4,0.6,2.1c0.2,0.5,0.3,1.1,0.5,1.6c0.1,0.4,0.2,0.8,0.3,1.1c0.1,0.2,0.1,0.3,0.1,0.5 c0,0,0,0,0,0c0.4-0.3,0.8-0.5,1.3-0.5c1,0,1.9,0.6,2.2,1.6c0.1,0.3,0.3,0.5,0.6,0.5l0.9,0c0.3,0,0.5-0.3,0.6-0.6 c0-0.1-1.6-34.4-1.6-34.4c-0.1-0.3-0.3-0.5-0.6-0.5l-0.9,0c-0.3,0-0.5,0.3-0.6,0.6c-0.2,1-1,1.7-2.1,1.8c-1,0-1.9-0.6-2.2-1.6 c-0.1-0.3-0.3-0.5-0.6-0.5l-0.9,0c-0.3,0-0.5,0.3-0.6,0.6c-0.2,1-1,1.7-2.1,1.8c-1,0-1.9-0.6-2.2-1.6c-0.1-0.3-0.3-0.5-0.6-0.5 l-0.9,0c-0.3,0-0.5,0.3-0.6,0.6c-0.2,1-1,1.7-2.1,1.8c-1,0-1.9-0.6-2.2-1.6c-0.1-0.3-0.3-0.5-0.6-0.5l-1,0c-0.3,0-0.5,0.3-0.5,0.6 l0.2,5.1L-240.5,382.6z" class="st1"/><path d="M-223.7,415.7c0-0.1-9.5-33.1-9.5-33.1c-0.1-0.3-0.4-0.4-0.7-0.3l-0.9,0.3c-0.3,0.1-0.4,0.4-0.4,0.7 c0,1-0.6,1.9-1.6,2.2c-1,0.3-2-0.2-2.5-1c-0.1-0.3-0.4-0.4-0.7-0.3l-0.7,0.2l-0.2,0.1c-0.3,0.1-0.4,0.4-0.4,0.7 c0,1-0.6,1.9-1.6,2.2c-1,0.3-2-0.2-2.5-1c-0.1-0.3-0.4-0.4-0.7-0.3l-0.9,0.3c-0.3,0.1-0.4,0.4-0.4,0.7c0,1-0.6,1.9-1.6,2.2 c-1,0.3-2-0.2-2.5-1c-0.1-0.3-0.4-0.4-0.7-0.3l-1,0.3c-0.3,0.1-0.4,0.4-0.4,0.7c0,0,9.5,33.2,9.5,33.2c0.1,0.2,0.4,0.3,0.6,0.3 l1-0.3c0.3-0.1,0.4-0.4,0.4-0.7c0-1,0.6-1.9,1.6-2.2c1-0.3,2,0.2,2.5,1c0.1,0.3,0.4,0.4,0.7,0.3l0.9-0.3c0.3-0.1,0.4-0.4,0.4-0.7 c0-1,0.6-1.9,1.6-2.2c1-0.3,2,0.2,2.5,1c0.1,0.3,0.4,0.4,0.7,0.3l0.9-0.3c0.3-0.1,0.4-0.4,0.4-0.7c0-1,0.6-1.9,1.6-2.2 c1-0.3,2,0.2,2.5,1c0.1,0.3,0.4,0.4,0.7,0.3l0.9-0.3C-223.8,416.3-223.6,416-223.7,415.7z M-246.8,395.2c-0.6,0.2-1.2-0.2-1.3-0.7 c-0.2-0.6,0.2-1.2,0.7-1.3l7-2l4.3-1.2c0.5-0.1,1,0.1,1.3,0.5c0,0.1,0.1,0.1,0.1,0.2c0.2,0.6-0.2,1.2-0.7,1.3l-4.8,1.4 L-246.8,395.2z M-241.3,414.3c-0.6,0.2-1.2-0.2-1.3-0.7c-0.2-0.6,0.2-1.2,0.7-1.3l2.4-0.7l2.7-0.8l2.2-0.6l3.9-1.1 c0.5-0.1,1,0.1,1.3,0.5c0,0.1,0.1,0.1,0.1,0.2c0,0,0,0.1,0,0.1c0.1,0.5-0.2,1.1-0.8,1.2l-0.8,0.2l-2.1,0.6L-241.3,414.3z" class="st2"/></g></svg>