<svg xmlns="http://www.w3.org/2000/svg" xmlns:xlink="http://www.w3.org/1999/xlink" id="Calque_1" x="0" y="0" version="1.1" viewBox="-269 361 72 72" xml:space="preserve" style="enable-background:new -269 361 72 72"><style type="text/css">.st0{fill:#f1e7fc}.st1{fill:#b981f1}.st2{fill:#dbbef8}</style><path d="M-233,433c19.9,0,36-16.1,36-36s-16.1-36-36-36s-36,16.1-36,36S-252.9,433-233,433z" class="st0"/><g><g><g><path d="M-223.9,411.5c0,0.8,0.3,1.5,0.9,2.1c0.6,0.6,1.3,0.9,2.1,0.9c0.8,0,1.5-0.3,2.1-0.9 c0.6-0.6,0.9-1.3,0.9-2.1c0-0.8-0.3-1.5-0.9-2.1c-0.6-0.6-1.3-0.9-2.1-0.9c-0.8,0-1.5,0.3-2.1,0.9 C-223.6,410-223.9,410.7-223.9,411.5z" class="st1"/><path d="M-215.4,385c-0.3-0.3-0.6-0.4-1.1-0.4h-28.1c0-0.1-0.1-0.3-0.1-0.6c-0.1-0.3-0.1-0.5-0.1-0.7 c0-0.2-0.1-0.4-0.2-0.6c-0.1-0.2-0.2-0.4-0.3-0.6c-0.1-0.1-0.3-0.3-0.5-0.4c-0.2-0.1-0.4-0.2-0.7-0.2h-6c-0.4,0-0.8,0.1-1.1,0.4 c-0.3,0.3-0.4,0.6-0.4,1.1s0.1,0.8,0.4,1.1c0.3,0.3,0.6,0.4,1.1,0.4h4.8l4.1,19.3c0,0.1-0.2,0.4-0.5,0.9c-0.3,0.5-0.5,1-0.7,1.4 c-0.2,0.4-0.3,0.7-0.3,0.9c0,0.4,0.1,0.8,0.4,1.1c0.3,0.3,0.6,0.4,1.1,0.4h1.5h21h1.5c0.4,0,0.8-0.1,1.1-0.4 c0.3-0.3,0.4-0.6,0.4-1.1c0-0.4-0.1-0.8-0.4-1.1c-0.3-0.3-0.6-0.4-1.1-0.4H-241c0.4-0.8,0.6-1.2,0.6-1.5c0-0.2,0-0.3-0.1-0.5 c0-0.2-0.1-0.4-0.1-0.6c-0.1-0.2-0.1-0.4-0.1-0.5l24.5-2.9c0.4,0,0.7-0.2,1-0.5c0.3-0.3,0.4-0.6,0.4-1v-12 C-214.9,385.6-215.1,385.3-215.4,385z" class="st1"/><path d="M-244.9,411.5c0,0.8,0.3,1.5,0.9,2.1c0.6,0.6,1.3,0.9,2.1,0.9c0.8,0,1.5-0.3,2.1-0.9 c0.6-0.6,0.9-1.3,0.9-2.1c0-0.8-0.3-1.5-0.9-2.1c-0.6-0.6-1.3-0.9-2.1-0.9c-0.8,0-1.5,0.3-2.1,0.9 C-244.6,410-244.9,410.7-244.9,411.5z" class="st1"/></g></g><circle cx="-216.8" cy="384.2" r="4.8" class="st2"/></g></svg>