<svg xmlns="http://www.w3.org/2000/svg" width="72" height="72" fill="none" viewBox="0 0 72 72"><path fill="#D7F1F8" d="M36 72C55.8822 72 72 55.8822 72 36C72 16.1177 55.8822 0 36 0C16.1177 0 0 16.1177 0 36C0 55.8822 16.1177 72 36 72Z"/><path fill="#48B0CB" d="M4.438 0H0V2.709H4.438V0Z" transform="translate(20.6409 25.4248) rotate(-38.1489)"/><path fill="#98D9E9" d="M2.98761 2.94224L5.33561 1.09824C5.29061 1.04124 5.24561 0.987239 5.19861 0.932239C4.34161 -0.0167614 3.06761 -0.289762 2.26761 0.339238L1.44561 0.983239L0.629608 1.62724C-0.169392 2.25424 -0.207392 3.55724 0.512608 4.61324C0.554608 4.67424 0.594608 4.72824 0.640608 4.78624L2.98761 2.94224Z" transform="translate(19.6553 21.4393)"/><path fill="#48B0CB" d="M4.439 0H0V2.707H4.439V0Z" transform="translate(49.6877 27.5568) rotate(-141.86)"/><path fill="#98D9E9" d="M2.348 2.94224L0 1.09824C0.045 1.04124 0.0910005 0.987239 0.138 0.932239C0.992 -0.0167614 2.268 -0.289762 3.07 0.339238L3.89 0.983239L4.705 1.62724C5.506 2.25424 5.545 3.55724 4.823 4.61324C4.782 4.67424 4.741 4.72824 4.695 4.78624L2.348 2.94224Z" transform="translate(47.0078 21.4393)"/><path fill="#48B0CB" d="M10.9948 0H0V5.23H10.9948V0Z" transform="translate(30.5018 18.5205)"/><path fill="#98D9E9" d="M7.39723 4.813H14.7885C14.7885 4.674 14.7845 4.538 14.7725 4.401C14.5634 1.936 12.4971 0 9.97266 0H7.39723H4.8188C2.29538 0 0.226039 1.936 0.0190042 4.402C0.00800234 4.539 0 4.675 0 4.814H7.39723V4.813Z" transform="translate(28.6038 14.5024)"/><path fill="#98D9E9" d="M36.8481 18.4251C36.8481 28.6028 28.6028 36.8531 18.4261 36.8531C8.24937 36.8531 0 28.6028 0 18.4251C0 8.25137 8.25038 0 18.4261 0C28.6018 0 36.8481 8.25037 36.8481 18.4251Z" transform="translate(17.575 21.0985)"/><path fill="#48B0CB" d="M13.5733 27.1465C21.0696 27.1465 27.1465 21.0696 27.1465 13.5733C27.1465 6.07696 21.0696 0 13.5733 0C6.07696 0 0 6.07696 0 13.5733C0 21.0696 6.07696 27.1465 13.5733 27.1465Z" transform="translate(22.4269 25.9503)"/><path fill="#D7F1F8" fill-rule="evenodd" d="M9.02305 3.8905C9.27509 3.45943 9.51313 3.02135 9.77617 2.60228C10.1712 1.97018 10.6443 1.40308 11.2164 0.924005C12.7947 -0.389214 15.039 -0.274197 16.5063 1.08803C17.4945 2.00618 18.1026 3.13037 18.3196 4.46259C18.5216 5.73681 18.4456 6.99702 18.0405 8.22722C17.7605 9.07936 17.3014 9.82649 16.6223 10.4276C16.0122 10.9677 15.2951 11.2687 14.486 11.3457C13.7858 11.4098 13.1077 11.3267 12.4576 11.0477C11.8355 10.7776 11.3334 10.3566 10.8934 9.85249C10.3243 9.20438 9.86118 8.48426 9.43011 7.73914C9.40911 7.70413 9.38811 7.66613 9.3571 7.61712C9.3361 7.65713 9.3201 7.68813 9.30009 7.71714C8.90803 8.45026 8.47695 9.15238 7.92986 9.78148C7.40877 10.3856 6.81568 10.9017 6.05755 11.1717C4.70833 11.6508 3.42711 11.4828 2.26392 10.6466C1.21674 9.8975 0.571637 8.85833 0.232581 7.62612C0.0325476 6.895 -0.020461 6.15088 0.00654349 5.39775C0.0325478 4.69263 0.129565 4.00152 0.3416 3.3294C0.611645 2.48526 1.03572 1.73614 1.68182 1.12104C2.34693 0.488931 3.14107 0.151876 4.05822 0.0848644C5.35643 -0.00815112 6.42061 0.471928 7.30876 1.39908C7.90486 2.02019 8.36793 2.73231 8.79101 3.47243C8.87202 3.61545 8.94803 3.75848 9.02305 3.8905ZM13.9689 9.10337C14.1309 9.09136 14.2949 9.08437 14.4589 9.06536C15.6211 8.92034 16.4523 8.30924 16.9664 7.26506C17.2484 6.69297 17.3324 6.07686 17.3114 5.44376C17.2844 4.59661 17.0324 3.83349 16.4773 3.18038C15.5391 2.0762 13.9339 1.85716 12.7447 2.67129C12.2486 3.00935 11.8675 3.45343 11.5285 3.94051C10.9744 4.73064 10.5373 5.58378 10.1252 6.45293C10.1102 6.48193 10.1192 6.53694 10.1352 6.56495C10.3473 6.94201 10.5893 7.29607 10.8694 7.62612C11.6815 8.58328 12.7037 9.09136 13.9689 9.10337ZM4.45128 2.37625C4.24625 2.39525 4.04222 2.40225 3.84418 2.43525C2.725 2.60928 1.92987 3.23039 1.43478 4.23756C1.16174 4.79565 1.08672 5.40075 1.10473 6.01785C1.13373 6.79298 1.35077 7.5051 1.82885 8.13321C2.82601 9.44943 4.5643 9.57445 5.70849 8.76231C6.16857 8.43726 6.53563 8.01819 6.86169 7.56011C7.43278 6.75698 7.87885 5.88383 8.29792 4.99568C8.31093 4.96768 8.30593 4.91567 8.28492 4.89067C8.07689 4.57761 7.88386 4.25056 7.64882 3.96051C6.82868 2.95034 5.7725 2.38825 4.45128 2.37625Z" clip-rule="evenodd" transform="translate(26.788 33.8087)"/></svg>