<svg xmlns="http://www.w3.org/2000/svg" width="72" height="72" fill="none" viewBox="0 0 72 72"><path fill="#D5F6E4" d="M36 72C55.8822 72 72 55.8823 72 36C72 16.1178 55.8822 0 36 0C16.1177 0 0 16.1178 0 36C0 55.8823 16.1177 72 36 72Z"/><path fill="#3EC17B" d="M11.3263 0C11.3263 0 9.85609 9.24603 8.23091 13.2095C6.60473 17.1719 4.26747 19.3061 4.26747 19.3061C4.26747 19.3061 1.32115 19.8142 0 18.29C0 18.29 3.96244 14.5006 5.79264 10.8612C7.56484 7.33482 8.58295 3.35237 8.78698 0H11.3263V0Z" transform="translate(24.6729 38.5734)"/><path fill="#92E3B8" d="M25.6972 20.7405C25.6972 20.7405 33.6431 22.0487 35.1782 27.5233C36.7144 32.9999 34.3711 34.7621 29.3286 34.373C29.3286 34.373 27.1983 39.8206 23.3469 38.3125C19.4955 36.8043 18.0693 29.6605 18.1573 25.8891C16.4932 29.2745 11.9236 34.9461 7.81119 34.5021C3.69773 34.059 4.3298 28.2424 4.3298 28.2424C-0.320716 26.2541 -1.58286 23.6078 2.31258 19.4644C6.20501 15.3199 13.8549 17.8362 13.8549 17.8362C13.8549 17.8362 5.91098 16.5281 4.37481 11.0524C2.83563 5.57584 5.17989 3.81464 10.2215 4.20268C10.2215 4.20268 12.3527 -1.24492 16.2041 0.264248C20.0555 1.77242 21.4827 8.91721 21.3927 12.6866C23.0589 9.30225 27.6294 3.62962 31.7418 4.07267C35.8543 4.51672 35.2232 10.3334 35.2232 10.3334C39.8727 12.3216 41.1359 14.9669 37.2394 19.1123C33.347 23.2558 25.6972 20.7405 25.6972 20.7405Z" transform="translate(16.2235 14.4976)"/></svg>