<svg xmlns="http://www.w3.org/2000/svg" xmlns:xlink="http://www.w3.org/1999/xlink" id="Calque_1" x="0" y="0" version="1.1" viewBox="-269 361 72 72" xml:space="preserve" style="enable-background:new -269 361 72 72"><style type="text/css">.st0{fill:#d3f4ed}.st1{fill:#39bca1}.st2{fill:#8edfcf}</style><path d="M-233,433c19.9,0,36-16.1,36-36c0-19.9-16.1-36-36-36s-36,16.1-36,36C-269,416.9-252.9,433-233,433z" class="st0"/><g><path d="M-215.7,394.4c-0.4-5-2.2-10.9-5.2-12c-2-0.8-5.2,0-8.2,1.9c-0.2,0.1-0.5,0.3-0.7,0.5 c-2.6,1.9-7.2,6.4-8.3,14.7c-0.2-0.7-0.3-1.5-0.4-2.3c-0.1-1.8,0.1-3.2,0.2-4.2c0.1-0.5,0.1-0.9,0.1-1.1c-0.1-0.7-0.5-1.3-1.1-1.5 c-0.6-0.2-1.3,0.1-1.7,0.7c-3.5,5.1-3.4,9.6-2.7,12.5c0.9,3.9,3.5,7.3,7.1,9.2c2,1.1,4.3,1.7,6.6,1.7h0.2c2.3,0,4.6-0.6,6.6-1.7 C-217.8,409.7-215,402.8-215.7,394.4z" class="st1"/><path d="M-218.8,392.7c-0.4-5.5-2.4-12.1-5.8-13.4c-2.2-0.8-5.8,0-9.2,2.1c-0.3,0.1-0.5,0.3-0.8,0.6 c-2.9,2.1-8.1,7.1-9.3,16.4c-0.3-0.8-0.4-1.7-0.4-2.5c-0.1-2,0.1-3.6,0.3-4.7c0.1-0.6,0.1-1,0.1-1.2c-0.1-0.8-0.5-1.5-1.2-1.7 c-0.7-0.2-1.4,0.1-1.9,0.8c-3.9,5.7-3.8,10.7-3,13.9c1,4.3,3.9,8.1,7.9,10.3c2.3,1.2,4.8,1.8,7.4,1.8h0.2c2.6,0,5.1-0.7,7.4-1.9 C-221.2,409.7-218,402.1-218.8,392.7z" class="st2"/></g></svg>