<svg xmlns="http://www.w3.org/2000/svg" xmlns:xlink="http://www.w3.org/1999/xlink" id="Calque_1" x="0" y="0" version="1.1" viewBox="-269 361 72 72" xml:space="preserve" style="enable-background:new -269 361 72 72"><style type="text/css">.st0{fill:#fce5eb}.st1{fill:#ef7398}.st2{fill:#f7b7ca}</style><g><path d="M-233,433c19.9,0,36-16.1,36-36s-16.1-36-36-36s-36,16.1-36,36S-252.9,433-233,433z" class="st0"/><g><path d="M-217.4,379.2c-1.5,0-3.2,0.6-4.8,1.8c-0.3,0.2-0.6,0.2-0.9,0c-1.7-1.3-3.3-1.9-4.8-1.9 c-2.7,0-4.7,1.9-5.2,4.8c-0.9,4.6,2,10.8,10.5,14.1l0,0l0,0c6.1-2.5,11.7-7.8,10.5-14.1C-212.7,381-214.7,379.2-217.4,379.2z" class="st1"/><path d="M-248.8,402.7v5.1c0,1.5,1.2,2.8,2.8,2.8h0.1c0.2,0,1.7,0,4.6,0l0,0c1.4,0,2.6,0.9,2.9,2.2l1.2,4.7h13.1 c-0.2-1-0.6-2.6-1-4.5c-0.7-4.1-1-7.5-0.8-10c0.1-1,0.6-2.7,1.2-4.2c-8-3.8-10.7-10.2-9.8-15.1c0.5-2.9,2.3-4.9,4.6-5.7 c-1.7-0.9-3.7-1.4-5.6-1.4c-0.1,0-0.3,0-0.4,0c-0.1,0-0.1,0-0.2,0c-7.9,0-14.5,6.2-14.9,14.1c0,0.2,0,2.1,0,3.2c0,0.1,0,0.2,0,0.3 l-3,7.8h4.6C-249.1,402-248.8,402.3-248.8,402.7L-248.8,402.7z" class="st2"/></g></g></svg>