<svg xmlns="http://www.w3.org/2000/svg" width="72" height="72" fill="none" viewBox="0 0 72 72"><path fill="#F1E7FC" d="M36 72C55.8823 72 72 55.8823 72 36C72 16.1177 55.8823 0 36 0C16.1177 0 0 16.1177 0 36C0 55.8823 16.1177 72 36 72Z"/><path fill="#DBBEF8" d="M18.523 40.81H33.034C35.248 40.81 37.046 39.011 37.046 36.796V17.586C37.046 15.371 18.524 0 18.524 0C18.524 0 0 15.371 0 17.586V36.796C0 39.011 1.797 40.81 4.012 40.81H18.523Z" transform="translate(17.435 17.135)"/><path fill="#B981F1" d="M21.399 4.487L39.499 20.348L41.223 21.84C41.223 21.84 41.924 21.188 42.139 20.943C42.797 20.199 42.797 18.752 42.797 18.752L21.399 0L0 18.751C0 18.751 -5.36442e-07 20.199 0.658999 20.942C0.873999 21.188 1.574 21.839 1.574 21.839L3.298 20.347L21.399 4.487Z" transform="translate(14.601 14.499)"/><path fill="#B981F1" d="M15.7436 3.829C15.7376 3.791 15.7376 3.757 15.7356 3.72C15.4216 1.014 12.5386 0 7.90659 0C3.27859 0 0.394592 1.014 0.0785922 3.72C-0.0574078 4.903 0.0155923 5.83 0.0575923 7.16H11.8006C13.7806 7.16 15.4196 5.719 15.7436 3.829Z" transform="translate(38.6684 50.785)"/><path fill="#B981F1" d="M12.275 6.148C12.275 9.541 9.53 12.293 6.137 12.293C2.746 12.293 0 9.541 0 6.148C0 2.752 2.746 0 6.137 0C9.53 0 12.275 2.752 12.275 6.148Z" transform="translate(40.438 35.64)"/><path fill="#B981F1" d="M15.654 3.72C15.341 1.014 12.459 0 7.828 0C3.199 0 0.314 1.014 0 3.72C0 3.722 0 3.723 0 3.725C0.282 5.665 1.935 7.161 3.953 7.161H15.675C15.717 5.83 15.791 4.903 15.654 3.72Z" transform="translate(17.493 50.785)"/><path fill="#B981F1" d="M12.275 6.148C12.275 9.541 9.525 12.293 6.137 12.293C2.75 12.293 0 9.541 0 6.148C0 2.752 2.75 0 6.137 0C9.525 0 12.275 2.752 12.275 6.148Z" transform="translate(19.184 35.64)"/><path fill="#F1E7FC" d="M12.276 6.147C12.276 9.538 9.526 12.292 6.139 12.292C2.75 12.292 0 9.538 0 6.147C0 2.75 2.75 0 6.139 0C9.526 0.001 12.276 2.751 12.276 6.147Z" transform="translate(30.132 32.957)"/><path fill="#F1E7FC" d="M0.357054 9.848C0.145054 8.692 -0.120945 5.258 0.0600549 3.724C0.374055 1.021 3.25705 0 7.88605 0C12.5151 0 15.3951 1.021 15.7121 3.724C15.8901 5.258 15.6231 8.692 15.4131 9.848H0.357054Z" transform="translate(28.386 48.097)"/></svg>