<svg xmlns="http://www.w3.org/2000/svg" xmlns:xlink="http://www.w3.org/1999/xlink" id="Calque_1" x="0" y="0" version="1.1" viewBox="-269 360 73 73" xml:space="preserve" style="enable-background:new -269 360 73 73"><style type="text/css">.st0{fill:#ffefca}.st1{fill:#ffe1a6}.st2{fill:#fff}.st3{fill:#fccd7a}</style><g><path d="M-232.5,432.5c19.9,0,36-16.1,36-36s-16.1-36-36-36s-36,16.1-36,36S-252.4,432.5-232.5,432.5z" class="st0"/><g><path d="M-218.8,388.9c0,3.6-1.4,7-4,9.4c-1.7,1.6-2.6,3.9-2.6,6.2v1.9h-13.2v-1.9c0-2.3-0.9-4.5-2.5-6.2 c-2.9-2.7-4.4-6.6-4-10.6c0.6-7.1,6.6-12.4,13.7-12.1C-224.4,376-218.8,381.9-218.8,388.9z" class="st1"/><path d="M-236.4,415.3h8.8c0,1.6-1.3,2.9-2.9,2.9h-2.9C-235.1,418.3-236.4,416.9-236.4,415.3z" class="st2"/><path d="M-226.1,410.9c1.2,0,2.2,1,2.2,2.2s-1,2.2-2.2,2.2h-11.7c-1.2,0-2.2-1-2.2-2.2s1-2.2,2.2-2.2H-226.1z" class="st3"/><path d="M-224.7,406.5c1.2,0,2.2,1,2.2,2.2s-1,2.2-2.2,2.2h-14.7c-1.2,0-2.2-1-2.2-2.2s1-2.2,2.2-2.2H-224.7z" class="st3"/></g></g></svg>