<svg xmlns="http://www.w3.org/2000/svg" xmlns:xlink="http://www.w3.org/1999/xlink" id="Calque_1" x="0" y="0" version="1.1" viewBox="-269 361 72 72" xml:space="preserve" style="enable-background:new -269 361 72 72"><style type="text/css">.st0{fill:#cb9fff}.st1{fill:#f7f7f7}.st2{fill:#b27efc}</style><circle cx="-233" cy="397" r="36" class="st0"/><g><path d="M-217.7,395.2c0-10.7-8.7-19.3-19.3-19.3c-10.7,0-19.3,8.7-19.3,19.3c0,3.5,1,6.9,2.6,9.7l-2.4,9l8.8-2.4 c3,1.9,6.5,3,10.3,3C-226.3,414.5-217.7,405.8-217.7,395.2z" class="st1"/><path d="M-217.2,386.2c1.2,2.7,1.9,5.8,1.9,9c0,11-8.3,20.2-18.9,21.6c2.1,0.9,4.5,1.4,6.9,1.4c3.5,0,6.7-1,9.4-2.7 l8,2.1l-2.2-8.2c1.5-2.6,2.4-5.6,2.4-8.8C-209.7,394.6-212.6,389.4-217.2,386.2z" class="st2"/></g></svg>