<svg xmlns="http://www.w3.org/2000/svg" xmlns:xlink="http://www.w3.org/1999/xlink" id="Calque_1" x="0" y="0" version="1.1" viewBox="-269 361 72 72" xml:space="preserve" style="enable-background:new -269 361 72 72"><style type="text/css">.st0{fill:#ffefca}.st0,.st1,.st2{clip-path:url(#SVGID_2_)}.st1{fill:#ffe1a6}.st2{fill:#fff}</style><g><defs><circle id="SVGID_1_" cx="-233" cy="397" r="36"/></defs><clipPath id="SVGID_2_"><use xlink:href="#SVGID_1_" style="overflow:visible"/></clipPath><path d="M-197,397c0-19.9-16.1-36-36-36c-19.9,0-36,16.1-36,36c0,19.9,16.1,36,36,36C-213.1,433-197,416.9-197,397z" class="st0"/><path d="M-242.8,390.6c0,0,8.2-0.9,8.7,3.3c0.6,4.2-0.5,10.5,1,12c1.6,1.5,1.8,8.3,1.8,8.3l11,22h30.4l8.6-28.8 l-39.7-28.9l-14.6,0.7l-5.9,6.4L-242.8,390.6z" class="st1"/><path d="M-247.2,387.4c0-1.8,0.6-3.6,1.7-5.5c1.2-1.8,2.8-3.4,5-4.6c2.2-1.2,4.8-1.8,7.7-1.8c2.7,0,5.2,0.5,7.3,1.5 c2.1,1,3.7,2.4,4.9,4.1c1.1,1.7,1.7,3.6,1.7,5.7c0,1.6-0.3,3-1,4.2c-0.7,1.2-1.4,2.3-2.3,3.1c-0.9,0.9-2.5,2.4-4.8,4.4 c-0.6,0.6-1.2,1.1-1.5,1.5c-0.4,0.4-0.7,0.8-0.9,1.2c-0.2,0.4-0.3,0.7-0.4,1.1c-0.1,0.4-0.3,1-0.5,1.9c-0.4,2-1.5,2.9-3.4,2.9 c-1,0-1.8-0.3-2.5-1c-0.7-0.6-1-1.6-1-2.9c0-1.6,0.2-3,0.7-4.1c0.5-1.2,1.1-2.2,2-3.1c0.8-0.9,1.9-1.9,3.3-3.1 c1.2-1.1,2.1-1.9,2.6-2.4s1-1.1,1.4-1.8c0.4-0.7,0.6-1.4,0.6-2.2c0-1.5-0.6-2.8-1.7-3.8c-1.1-1-2.6-1.6-4.3-1.6 c-2.1,0-3.6,0.5-4.6,1.6c-1,1-1.8,2.6-2.5,4.6c-0.6,2.1-1.9,3.2-3.7,3.2c-1.1,0-2-0.4-2.7-1.1 C-246.8,389.1-247.2,388.3-247.2,387.4z M-233.3,418.4c-1.2,0-2.2-0.4-3-1.1c-0.9-0.7-1.3-1.8-1.3-3.1c0-1.2,0.4-2.2,1.2-3 c0.8-0.8,1.9-1.2,3.1-1.2c1.2,0,2.2,0.4,3,1.2c0.8,0.8,1.2,1.8,1.2,3c0,1.3-0.4,2.4-1.3,3.1C-231.2,418.1-232.2,418.4-233.3,418.4z" class="st2"/></g></svg>