<svg xmlns="http://www.w3.org/2000/svg" xmlns:xlink="http://www.w3.org/1999/xlink" id="Calque_1" x="0" y="0" version="1.1" viewBox="-269 361 72 72" xml:space="preserve" style="enable-background:new -269 361 72 72"><style type="text/css">.st0{fill:#f1e7fc}.st1{fill:#dbbef8}.st2{fill:#b981f1}</style><path d="M-233,433c19.9,0,36-16.1,36-36s-16.1-36-36-36s-36,16.1-36,36S-252.9,433-233,433z" class="st0"/><g><g><g><g><path d="M-217.1,392.7l-0.2-0.1l-0.7-1.6l0.1-0.2c2-4.6,1.9-4.7,1.5-5l-2.7-2.6c-0.1-0.1-0.3-0.2-0.5-0.2 c-0.2,0-0.6,0-4.6,1.8l-0.2,0.1l-1.6-0.7l-0.1-0.2c-1.9-4.6-2.1-4.6-2.5-4.6h-3.8c-0.5,0-0.7,0-2.4,4.6l-0.1,0.2l-1.6,0.7 l-0.2-0.1c-2.7-1.1-4.2-1.7-4.6-1.7c-0.2,0-0.4,0.1-0.5,0.2l-2.7,2.6c-0.3,0.3-0.5,0.5,1.6,4.9l0.1,0.2l-0.7,1.6l-0.2,0.1 c-4.7,1.8-4.7,2-4.7,2.5v3.7c0,0.5,0,0.7,4.7,2.4l0.2,0.1l0.7,1.6l-0.1,0.2c-2,4.6-1.9,4.7-1.5,5l2.7,2.6 c0.1,0.1,0.3,0.2,0.5,0.2c0.1,0,0.6,0,4.6-1.8l0.2-0.1l1.6,0.7l0.1,0.2c1.9,4.6,2.1,4.6,2.5,4.6h3.8c0.5,0,0.7,0,2.4-4.6 l0.1-0.2l1.6-0.7l0.2,0.1c2.7,1.1,4.2,1.7,4.6,1.7c0.2,0,0.4-0.1,0.5-0.2l2.7-2.6c0.3-0.3,0.5-0.5-1.6-4.9l-0.1-0.2l0.7-1.6 l0.2-0.1c4.7-1.8,4.7-2,4.7-2.5v-3.7C-212.4,394.6-212.4,394.4-217.1,392.7z M-230.3,403c-3.4,0-6.1-2.7-6.1-6 c0-3.3,2.7-6,6.1-6c3.4,0,6.1,2.7,6.1,6C-224.1,400.3-226.9,403-230.3,403z" class="st1"/></g></g></g><g><g><g><path d="M-219.9,392.7l-0.2-0.1l-0.7-1.6l0.1-0.2c2-4.6,1.9-4.7,1.5-5l-2.7-2.6c-0.1-0.1-0.3-0.2-0.5-0.2 c-0.2,0-0.6,0-4.6,1.8l-0.2,0.1l-1.6-0.7l-0.1-0.2c-1.9-4.6-2.1-4.6-2.5-4.6h-3.8c-0.5,0-0.7,0-2.4,4.6l-0.1,0.2l-1.6,0.7 l-0.2-0.1c-2.7-1.1-4.2-1.7-4.6-1.7c-0.2,0-0.4,0.1-0.5,0.2l-2.7,2.6c-0.3,0.3-0.5,0.5,1.6,4.9l0.1,0.2l-0.7,1.6l-0.2,0.1 c-4.7,1.8-4.7,2-4.7,2.5v3.7c0,0.5,0,0.7,4.7,2.4l0.2,0.1l0.7,1.6l-0.1,0.2c-2,4.6-1.9,4.7-1.5,5l2.7,2.6 c0.1,0.1,0.3,0.2,0.5,0.2c0.1,0,0.6,0,4.6-1.8l0.2-0.1l1.6,0.7l0.1,0.2c1.9,4.6,2.1,4.6,2.5,4.6h3.8c0.5,0,0.7,0,2.4-4.6 l0.1-0.2l1.6-0.7l0.2,0.1c2.7,1.1,4.2,1.7,4.6,1.7c0.2,0,0.4-0.1,0.5-0.2l2.7-2.6c0.3-0.3,0.5-0.5-1.6-4.9l-0.1-0.2l0.7-1.6 l0.2-0.1c4.7-1.8,4.7-2,4.7-2.5v-3.7C-215.2,394.6-215.2,394.4-219.9,392.7z M-233,403c-3.4,0-6.1-2.7-6.1-6c0-3.3,2.7-6,6.1-6 c3.4,0,6.1,2.7,6.1,6C-226.9,400.3-229.6,403-233,403z" class="st2"/></g></g></g></g></svg>