<svg xmlns="http://www.w3.org/2000/svg" width="72" height="72" fill="none" viewBox="0 0 72 72"><path fill="#D3F4ED" d="M35.998 71.996C55.8791 71.996 71.996 55.8791 71.996 35.998C71.996 16.1169 55.8791 0 35.998 0C16.1169 0 0 16.1169 0 35.998C0 55.8791 16.1169 71.996 35.998 71.996Z"/><path fill="#39BCA1" d="M0.0440689 10.628C-0.184931 12.047 0.46407 13.56 2.33107 16.393C3.74707 18.544 7.56907 24.522 8.64707 24.696L37.2421 29.338C38.3181 29.513 39.3331 28.78 39.5091 27.704L41.1961 17.308L42.8841 6.91101C43.0591 5.834 42.3261 4.82 41.2511 4.644L12.6531 0.005005C11.5771 -0.169995 6.06207 4.292 4.03507 5.884C1.36907 7.981 0.276069 9.211 0.0440689 10.628Z" transform="translate(16.3849 22.5951)"/><path fill="#8EDFCF" d="M0 12.506C0 13.943 0.882001 15.333 3.179 17.83C4.922 19.726 9.654 25.015 10.744 25.015H39.713C40.804 25.015 41.689 24.129 41.689 23.038V12.506V1.975C41.689 0.883999 40.804 0 39.713 0H10.744C9.654 0 4.922 5.287 3.179 7.184C0.882001 9.681 0 11.07 0 12.506Z" transform="translate(11.662 20.0371)"/><path fill="#39BCA1" d="M3.034 6.068C4.70963 6.068 6.068 4.70963 6.068 3.034C6.068 1.35837 4.70963 0 3.034 0C1.35837 0 0 1.35837 0 3.034C0 4.70963 1.35837 6.068 3.034 6.068Z" transform="translate(15.369 29.5092)"/><path stroke="#39BCA1" stroke-linecap="round" stroke-linejoin="round" stroke-miterlimit="10" stroke-width="1.969" d="M10.3189 0.453386C10.3189 0.453386 7.42294 -0.486615 4.69794 0.340385C2.31794 1.05938 0.0719451 3.25639 0.00194509 6.88039C-0.145055 14.6564 8.07795 14.2104 11.8149 12.4144" transform="translate(30.6481 26.3617)"/><path stroke="#39BCA1" stroke-linecap="round" stroke-linejoin="round" stroke-miterlimit="10" stroke-width="1.969" d="M0 0H10.238" transform="translate(27.666 31.7501)"/><path stroke="#39BCA1" stroke-linecap="round" stroke-linejoin="round" stroke-miterlimit="10" stroke-width="1.969" d="M0 0H10.238" transform="translate(27.666 34.801)"/></svg>