<svg xmlns="http://www.w3.org/2000/svg" xmlns:xlink="http://www.w3.org/1999/xlink" id="Calque_1" x="0" y="0" version="1.1" viewBox="-269 361 72 72" xml:space="preserve" style="enable-background:new -269 361 72 72"><style type="text/css">.st0{fill:#cb9fff}.st1{fill:#b27efc}.st2{fill:#fff}.st3{fill:#f7f7f7}</style><g><circle cx="-233" cy="397" r="36" class="st0"/><path d="M-214.9,385c-1.1,0.3-2.2,0.6-3.3,0.9c-8,1.7-18.7-2.9-23.3,4.6c-3.8,6-5.1,13.5-9.4,18.8l23.3,23.3 c15.5-2.4,27.8-14.6,30.2-30.2L-214.9,385z" class="st1"/><path d="M-221,382.4H-245c-4.7,0-8.6,3.8-8.6,8.6v12c0,4.7,3.8,8.6,8.6,8.6h24.1c4.7,0,8.6-3.8,8.6-8.6v-12 C-212.4,386.3-216.2,382.4-221,382.4L-221,382.4z M-226.7,397.6L-238,403c-0.3,0.1-0.6-0.1-0.6-0.4v-11.1c0-0.3,0.4-0.6,0.7-0.4 l11.3,5.7C-226.4,396.9-226.4,397.4-226.7,397.6L-226.7,397.6z" class="st2"/><path d="M-221,382.4h-12.3v11.1l6.5,3.3c0.3,0.2,0.3,0.7,0,0.8l-6.5,3.1v10.9h12.3c4.7,0,8.6-3.8,8.6-8.6v-12 C-212.4,386.3-216.2,382.4-221,382.4z" class="st3"/></g></svg>