<svg xmlns="http://www.w3.org/2000/svg" xmlns:xlink="http://www.w3.org/1999/xlink" id="Calque_1" x="0" y="0" version="1.1" viewBox="94 -4 800 800" xml:space="preserve" style="enable-background:new 94 -4 800 800"><style type="text/css">.st0{clip-path:url(#SVGID_2_)}.st1{fill:#fc4c4c}.st2{fill:#d83939}.st3{fill:none}.st4{fill:#e77f28}.st5,.st6{clip-path:url(#SVGID_4_);fill:#d83939}.st6{clip-path:url(#SVGID_6_)}.st7{fill:#d6305b}.st8{fill:#d1305a}.st9{clip-path:url(#SVGID_8_)}</style><g><g><g><g><g><defs><rect id="SVGID_1_" width="803.1" height="800" x="90.9" y="-4"/></defs><clipPath id="SVGID_2_"><use xlink:href="#SVGID_1_" style="overflow:visible"/></clipPath><g class="st0"><g><g><g><g><rect width="17" height="94.8" x="643.2" y="336.7" class="st1"/><path d="M655.6,331.3c-1.5,1.3-3.9,1.6-5.7,0.9c-0.7-0.2-1.6-0.2-2.3-0.6c-2.7,1.9-4.2,5-4.2,5h17 C660.2,336.7,658.6,333.2,655.6,331.3z" class="st1"/><path d="M655.6,331.3c-1.1-0.7-2.4-1.2-3.8-1.2c-1.6,0-3.1,0.6-4.3,1.5c0.7,0.4,1.6,0.4,2.3,0.6 C651.7,332.8,654.1,332.6,655.6,331.3z" class="st2"/><g><polygon points="660.2 346.3 643.2 352.6 643.2 346 660.2 339.7" class="st2"/><polygon points="660.2 360.8 643.2 367 643.2 360.4 660.2 354.2" class="st2"/><polygon points="660.2 375.3 643.2 381.5 643.2 374.9 660.2 368.6" class="st2"/><polygon points="660.2 389.7 643.2 396 643.2 389.4 660.2 383.1" class="st2"/><polygon points="660.2 404.2 643.2 410.4 643.2 403.8 660.2 397.6" class="st2"/><polygon points="660.2 418.6 643.2 424.9 643.2 418.3 660.2 412" class="st2"/></g><g><g><path d="M652.2,325.2c1.8-0.8,4.9-3.1,6.2-4.9c10.4-13.4-2.1-29.4-4-32c-1.6-2.1-4.7-4.7-5.2-5 c0.8,3.1,0.9,5.6-0.4,9c-2.3,6-7.6,12.4-6.3,19.9c0.9,5.2,5.1,11.6,9.4,12.7L652.2,325.2z" class="st2"/></g><g><path d="M652.2,325.2c1.2-0.4,2.9-1.6,3.5-2.9c3.2-7,0.5-11.5-0.5-13.2c-1-1.8-3.8-5.9-3.8-6.7 c0,1.1-2.1,4.7-3.8,9.9s-1.2,7.6,0.5,10.1C649.2,323.7,650.4,324.6,652.2,325.2z" class="st1"/></g></g><g><path d="M652.2,325.2c0.9-0.3,5.5-3.9,2.3-9.4c-0.8-1.3-3-4.8-3-4.8s-1.7,3.3-3,7 C647.2,321.8,650.7,324.7,652.2,325.2z" class="st1"/></g><g><rect width="2" height="2.7" x="651" y="328.6" class="st1"/><path d="M653,328.8h-2c0-0.6,0-1.1,0.1-1.7c0.1-1.7,0.2-3.6-0.5-7.5l1.9-0.7c0.8,4.4,0.7,6.6,0.6,8.4 C653,327.9,653,328.4,653,328.8z" class="st1"/></g><rect width="17" height="94.8" x="718" y="336.7" class="st1"/><path d="M730.2,331.3c-1.5,1.3-3.9,1.6-5.7,0.9c-0.7-0.2-1.6-0.2-2.3-0.6c-2.7,1.9-4.2,5-4.2,5h17 C735,336.7,733.2,333.2,730.2,331.3z" class="st1"/><path d="M730.2,331.3c-1.1-0.7-2.4-1.2-3.8-1.2c-1.6,0-3.1,0.6-4.3,1.5c0.7,0.4,1.6,0.4,2.3,0.6 C726.4,332.8,728.7,332.6,730.2,331.3z" class="st2"/><polygon points="735 346.3 718 352.6 718 346 735 339.7" class="st2"/><polygon points="735 360.8 718 367 718 360.4 735 354.2" class="st2"/><polygon points="735 375.3 718 381.5 718 374.9 735 368.6" class="st2"/><polygon points="735 389.7 718 396 718 389.4 735 383.1" class="st2"/><polygon points="735 404.2 718 410.4 718 403.8 735 397.6" class="st2"/><polygon points="735 418.6 718 424.9 718 418.3 735 412" class="st2"/><g><g><path d="M727,325.2c1.8-0.8,4.9-3.1,6.2-4.9c10.4-13.4-2.1-29.4-4-32c-1.6-2.1-4.7-4.7-5.2-5 c0.8,3.1,0.9,5.6-0.4,9c-2.3,6-7.6,12.4-6.3,19.9c0.9,5.2,5.1,11.6,9.4,12.7L727,325.2z" class="st2"/></g><g><path d="M727,325.2c1.2-0.4,2.9-1.6,3.5-2.9c3.2-7,0.5-11.5-0.5-13.2c-1-1.8-3.8-5.9-3.8-6.7 c0,1.1-2.1,4.7-3.8,9.9c-1.7,5.2-1.2,7.6,0.5,10.1C724,323.7,725,324.6,727,325.2z" class="st1"/></g></g><g><path d="M726.9,325.2c0.9-0.3,5.5-3.9,2.3-9.4c-0.8-1.3-3-4.8-3-4.8s-1.7,3.3-3,7 C721.9,321.8,725.4,324.7,726.9,325.2z" class="st1"/></g><g><rect width="2" height="2.7" x="725.6" y="328.6" class="st1"/><path d="M727.6,328.8h-2c0-0.6,0-1.1,0.1-1.7c0.1-1.7,0.2-3.6-0.5-7.5l1.9-0.7c0.8,4.4,0.7,6.6,0.6,8.4 C727.7,327.9,727.6,328.4,727.6,328.8z" class="st1"/></g><rect width="17" height="94.8" x="792.6" y="336.7" class="st1"/><path d="M804.9,331.3c-1.5,1.3-3.9,1.6-5.7,0.9c-0.7-0.2-1.6-0.2-2.3-0.6c-2.7,1.9-4.2,5-4.2,5h17 C809.6,336.7,807.9,333.2,804.9,331.3z" class="st1"/><path d="M804.9,331.3c-1.1-0.7-2.4-1.2-3.8-1.2c-1.6,0-3.1,0.6-4.3,1.5c0.7,0.4,1.6,0.4,2.3,0.6 C801,332.8,803.4,332.6,804.9,331.3z" class="st2"/><polygon points="809.6 346.3 792.6 352.6 792.6 346 809.6 339.7" class="st2"/><polygon points="809.6 360.8 792.6 367 792.6 360.4 809.6 354.2" class="st2"/><polygon points="809.6 375.3 792.6 381.5 792.6 374.9 809.6 368.6" class="st2"/><polygon points="809.6 389.7 792.6 396 792.6 389.4 809.6 383.1" class="st2"/><polygon points="809.6 404.2 792.6 410.4 792.6 403.8 809.6 397.6" class="st2"/><polygon points="809.6 418.6 792.6 424.9 792.6 418.3 809.6 412" class="st2"/><g><g><path d="M801.6,325.2c1.8-0.8,4.9-3.1,6.2-4.9c10.4-13.4-2.1-29.4-4-32c-1.6-2.1-4.7-4.7-5.2-5 c0.8,3.1,0.9,5.6-0.4,9c-2.3,6-7.6,12.4-6.3,19.9c0.9,5.2,5.1,11.6,9.4,12.7L801.6,325.2z" class="st2"/></g><g><path d="M801.6,325.2c1.2-0.4,2.9-1.6,3.5-2.9c3.2-7,0.5-11.5-0.5-13.2c-1-1.8-3.8-5.9-3.8-6.7 c0,1.1-2.1,4.7-3.8,9.9s-1.2,7.6,0.5,10.1C798.6,323.7,799.7,324.6,801.6,325.2z" class="st1"/></g></g><g><path d="M801.6,325.2c0.9-0.3,5.5-3.9,2.3-9.4c-0.8-1.3-3-4.8-3-4.8s-1.7,3.3-3,7 C796.6,321.8,800,324.7,801.6,325.2z" class="st1"/></g><g><rect width="2" height="2.7" x="800.2" y="328.6" class="st1"/><path d="M802.2,328.8h-2c0-0.6,0-1.1,0.1-1.7c0.1-1.7,0.2-3.6-0.5-7.5l1.9-0.7c0.8,4.4,0.7,6.6,0.6,8.4 C802.2,327.9,802.2,328.4,802.2,328.8z" class="st1"/></g></g></g></g><g><g><g><line x1="816.2" x2="799.1" y1="431.5" y2="431.5" class="st3"/><g><line x1="799.1" x2="799.1" y1="396" y2="389.4" class="st3"/><line x1="799.1" x2="799.1" y1="410.4" y2="403.8" class="st3"/><line x1="799.1" x2="799.1" y1="424.9" y2="418.3" class="st3"/></g></g></g></g><g><g><g><g><g><line x1="736.5" x2="719.6" y1="431.5" y2="431.5" class="st3"/></g></g></g></g><g><line x1="719.6" x2="719.6" y1="397" y2="390.4" class="st3"/><path d="M736.5,390.8" class="st4"/><line x1="736.5" x2="736.5" y1="397.9" y2="404.5" class="st3"/><line x1="719.6" x2="719.6" y1="410.6" y2="404.1" class="st3"/><line x1="736.5" x2="736.5" y1="412.2" y2="418.8" class="st3"/><line x1="719.6" x2="719.6" y1="424.9" y2="418.4" class="st3"/></g></g></g><g><path d="M867.9,569.1c0,6-4.9,10.9-10.9,10.9H597.4c-6,0-10.9-4.9-10.9-10.9V437c0-6,4.9-10.9,10.9-10.9H857 c6,0,10.9,4.9,10.9,10.9V569.1z" class="st1"/><rect width="281.5" height="12.9" x="586.4" y="501.8" class="st2"/><g><g><g><g><defs><path id="SVGID_3_" d="M867.9,569.1c0,6-4.9,10.9-10.9,10.9H597.4c-6,0-10.9-4.9-10.9-10.9V437c0-6,4.9-10.9,10.9-10.9 H857c6,0,10.9,4.9,10.9,10.9V569.1z"/></defs><clipPath id="SVGID_4_"><use xlink:href="#SVGID_3_" style="overflow:visible"/></clipPath><path d="M546.7,364.1v73.1c0,22,17.9,39.9,39.9,39.9c15.4,0,28.8-8.8,35.4-21.6c6.6,12.8,20,21.6,35.4,21.6 s28.8-8.8,35.4-21.6c6.6,12.8,20,21.6,35.4,21.6s28.8-8.8,35.4-21.6c6.6,12.8,20,21.6,35.4,21.6s28.8-8.8,35.4-21.6 c6.6,12.8,20,21.6,35.4,21.6c22,0,39.9-17.9,39.9-39.9v-73.1H546.7z" class="st5"/></g><g><path d="M628.1,415.9c0,8.2-6.6,14.8-14.8,14.8s-14.8-6.6-14.8-14.8s6.6-14.8,14.8-14.8 C621.5,401.1,628.1,407.7,628.1,415.9z" class="st2"/><circle cx="689.1" cy="415.9" r="14.8" class="st2"/><circle cx="764.9" cy="415.9" r="14.8" class="st2"/><circle cx="840.7" cy="415.9" r="14.8" class="st2"/></g></g><g><g><path d="M939.9,738.8c0,8.9-7.2,16.1-16.1,16.1H522.9c-8.9,0-16.1-7.2-16.1-16.1v-167 c0-8.9,7.2-16.1,16.1-16.1h400.8c8.9,0,16.1,7.2,16.1,16.1L939.9,738.8L939.9,738.8z" class="st1"/><g><g><g><g><defs><path id="SVGID_5_" d="M939.9,738.8c0,8.9-7.2,16.1-16.1,16.1H522.9c-8.9,0-16.1-7.2-16.1-16.1v-167 c0-8.9,7.2-16.1,16.1-16.1h400.8c8.9,0,16.1,7.2,16.1,16.1L939.9,738.8L939.9,738.8z"/></defs><clipPath id="SVGID_6_"><use xlink:href="#SVGID_5_" style="overflow:visible"/></clipPath><path d="M976.2,503.7H474.5v77.9l0,0c0,0.2,0,0.3,0,0.5c0,25.5,20.6,46.1,46.1,46.1 c17.8,0,33.3-10.1,40.9-24.9c7.7,14.8,23.1,24.9,40.9,24.9s33.3-10.1,40.9-24.9c7.7,14.8,23.1,24.9,40.9,24.9 s33.3-10.1,40.9-24.9c7.7,14.8,23.1,24.9,41,24.9c17.8,0,33.3-10.1,40.9-24.9c7.7,14.8,23.1,24.9,40.9,24.9 c17.8,0,33.3-10.1,40.9-24.9c7.7,14.8,23.1,24.9,41,24.9c25.5,0,46.1-20.6,46.1-46.1c0-0.2,0-0.3,0-0.5l0,0v-77.9 L976.2,503.7L976.2,503.7z" class="st6"/></g></g><g><circle cx="535.6" cy="546.8" r="14.8" class="st2"/><path d="M621.9,546.8c0,8.2-6.6,14.8-14.8,14.8s-14.8-6.6-14.8-14.8s6.6-14.8,14.8-14.8 C615.2,532,621.9,538.7,621.9,546.8z" class="st2"/><circle cx="682.9" cy="546.8" r="14.8" class="st2"/><circle cx="758.7" cy="546.8" r="14.8" class="st2"/><circle cx="834.5" cy="546.8" r="14.8" class="st2"/><circle cx="910.2" cy="546.8" r="14.8" class="st7"/></g></g><g id="object"><g><path d="M1016.4,917.8c0,12.7-10.3,23-23,23H453.2c-12.7,0-23-10.3-23-23V728.2c0-12.7,10.3-23,23-23 h540.2c12.7,0,23,10.3,23,23V917.8z" class="st1"/><rect width="586.3" height="16.6" x="430.2" y="880.2" class="st8"/><rect width="586.3" height="16.6" x="430.2" y="842.2" class="st8"/><g><g><g><g><defs><path id="SVGID_7_" d="M1016.4,917.8c0,12.7-10.3,23-23,23H453.2c-12.7,0-23-10.3-23-23V728.2 c0-12.7,10.3-23,23-23h540.2c12.7,0,23,10.3,23,23V917.8z"/></defs><clipPath id="SVGID_8_"><use xlink:href="#SVGID_7_" style="overflow:visible"/></clipPath><g class="st9"><path d="M430.2,713.7c-6.2,9-9.8,19.9-9.8,31.7c0,30.9,25,55.9,55.9,55.9 c21.6,0,40.3-12.3,49.6-30.2c9.3,17.9,28,30.2,49.6,30.2s40.3-12.3,49.6-30.2c9.3,17.9,28,30.2,49.6,30.2 s40.3-12.3,49.6-30.2c9.3,17.9,28,30.2,49.6,30.2s40.3-12.3,49.6-30.2c9.3,17.9,28,30.2,49.6,30.2 s40.3-12.3,49.6-30.2c9.3,17.9,28,30.2,49.6,30.2c30.8,0,55.9-25,55.9-55.9v-77.9h-598L430.2,713.7L430.2,713.7z" class="st2"/></g></g></g><g><circle cx="458.2" cy="697.2" r="14.8" class="st2"/><path d="M544.6,697.2c0,8.2-6.6,14.8-14.8,14.8s-14.8-6.6-14.8-14.8s6.6-14.8,14.8-14.8 C538,682.4,544.6,689.1,544.6,697.2z" class="st2"/><circle cx="605.6" cy="697.2" r="14.8" class="st2"/><circle cx="681.4" cy="697.2" r="14.8" class="st2"/><circle cx="757.2" cy="697.2" r="14.8" class="st2"/><circle cx="833" cy="697.2" r="14.8" class="st2"/><circle cx="908.7" cy="697.2" r="14.8" class="st7"/><circle cx="984.6" cy="697.2" r="14.8" class="st7"/></g></g></g></g></g></g></g></g></g></g></g></g></g></g></g></g></g></svg>