<svg xmlns="http://www.w3.org/2000/svg" xmlns:xlink="http://www.w3.org/1999/xlink" id="Calque_1" x="0" y="0" version="1.1" viewBox="94 -4 800 800" xml:space="preserve" style="enable-background:new 94 -4 800 800"><style type="text/css">.st0{fill:#e6e7e9}.st1{fill:#fff}.st2{fill:#9e9e9e}.st3{fill:#b8b9bb}.st4{fill:#fefcfe}.st5{fill:#20262b}.st6{fill:#2f363e}.st7{fill:#f75c5c}.st8{fill:#e54545}.st9{fill:#d83939}.st10{fill:#d6d6d6}.st11,.st12{opacity:.38;fill:#fff;enable-background:new}.st12{opacity:.51}</style><g><path d="M-4972.2,667.5c0,21.4-1.6,42.5-4.6,63.1c-30.5,210-211.3,371.2-429.7,371.2c-6.3,0-12.5-0.2-18.8-0.4 c-231.2-9.8-415.6-200.3-415.6-433.8c0-239.9,194.5-434.3,434.3-434.3C-5166.6,233.3-4972.2,427.6-4972.2,667.5z" class="st0"/><path d="M-5406.4,220.8c-246.3,0-446.8,200.4-446.8,446.7c0,240.1,187.7,436.2,427.5,446.3c4.6,0.2,9.3,0.3,13.9,0.3 l-12.7-12.8l-13.1-13.2c-220.2-15.9-390.8-198.3-390.8-420.6c0-232.6,189.2-421.8,421.9-421.8c232.6,0,421.8,189.2,421.8,421.8 c0,16.8-1,33.9-3.1,50.7l11.1,11.1l10.9,10.9c0.5-2.6,0.8-5.1,1.2-7.8c3.2-21.5,4.7-43.3,4.7-64.9 C-4959.7,421.2-5160.1,220.8-5406.4,220.8z" class="st1"/><path d="M-4965.7,740.2c-34.9,213.7-223.1,374-440.7,374c-1.8,0-3.6,0-5.3-0.1l-12.7-12.8l-13.1-13.2 c4.2,0.3,8.5,0.6,12.9,0.7c6.1,0.2,12.1,0.4,18.3,0.4c208.1,0,387.4-155,417.4-360.6c0.5-3.5,1-7.1,1.3-10.5l11.1,11.1 L-4965.7,740.2z" class="st2"/><path d="M-4987.7,718.2c-0.3,3.5-0.8,7.1-1.3,10.5c-30,205.6-209.3,360.6-417.4,360.6c-6.1,0-12.2-0.2-18.3-0.4 c-4.3-0.2-8.6-0.4-12.9-0.7l-382.2-385.9l617.3-198.3L-4987.7,718.2z" class="st3"/><path d="M-5806,702.3h150.7c0.2,0,0.4-0.2,0.4-0.4v-61.3c0-3.2-2.6-5.9-5.9-5.9h-144.4c-18.8,0-34.2,15.4-34.2,34.2 l0,0C-5839.4,687.3-5824.4,702.3-5806,702.3z" class="st4"/><circle cx="-5406.5" cy="667.5" r="260.2" class="st4"/><path d="M-5191.8,667.5c0,118.6-96.1,214.7-214.6,214.7c-67.3,0-127.3-31-166.7-79.4c-30.1-36.9-48.1-84-48.1-135.3 c0-118.6,96.1-214.7,214.7-214.7c83.5,0,155.9,47.7,191.3,117.4C-5200.2,599.4-5191.8,632.5-5191.8,667.5z" class="st5"/><path d="M-5191.8,667.5c0,118.6-96.1,214.7-214.6,214.7c-67.3,0-127.3-31-166.7-79.4c-14.9-29.2-23.3-62.3-23.3-97.3 c0-118.5,96.1-214.7,214.6-214.7c67.3,0,127.3,31,166.7,79.4C-5200.2,599.4-5191.8,632.5-5191.8,667.5z" class="st6"/></g><g><path d="M894.1,796H405.4l-31.2-24.7c-13.9-11-16.3-31.2-5.2-45.1l370.5-467.9c11-13.9,31.2-16.3,45.1-5.2l109.5,86.7 v116.9c0.3,0.5,0.3,1.1,0,1.6L894.1,796L894.1,796z" class="st7"/><path d="M866.2,796H563.9l317.2-400.5c3.2-4,8.4-5.4,13-4v65.2c0.3,0.5,0.3,1.1,0,1.6v302.5L866.2,796z" class="st8"/><path d="M881.4,748l-7.8-6.1c-2.6-2.1-3.1-5.9-1-8.5l14.8-18.7c1.6-2,4.3-2.7,6.6-2v29l-4.2,5.3 C887.8,749.7,884,750.1,881.4,748z" class="st9"/><path d="M846.8,766.2l16.7-21.1c1.5-1.9,4.4-2.3,6.3-0.7l10.1,8c1.9,1.5,2.3,4.4,0.7,6.3l-16.7,21.1 c-1.5,1.9-4.4,2.3-6.3,0.7l-10.1-8C845.5,770.9,845.2,768.1,846.8,766.2z" class="st9"/><path d="M851.1,796h-28l14.4-18.2c2.1-2.6,5.9-3,8.5-1l7.8,6.1c2.6,2.1,3,5.9,1,8.5L851.1,796z" class="st9"/><path d="M894.1,533.9l-2.2-1.7c-0.6-0.5-0.7-1.3-0.2-1.9l2.4-3.1V533.9L894.1,533.9z" class="st9"/><path d="M849.5,522.8l18.5-23.4c0.5-0.6,1.3-0.7,1.9-0.2l23.4,18.5c0.6,0.5,0.7,1.3,0.2,1.9L875,543 c-0.5,0.6-1.3,0.7-1.9,0.2l-23.4-18.5C849.2,524.2,849.1,523.4,849.5,522.8z" class="st9"/><path d="M894.1,447.5l-22.4-17.8c-0.6-0.5-0.7-1.4-0.2-2l18.4-23.3c0.5-0.6,1.4-0.7,2-0.2l2.2,1.8V447.5z" class="st9"/><path d="M873.6,481.9l-26.5-21c-0.6-0.5-0.7-1.4-0.2-2l18.4-23.3c0.5-0.6,1.4-0.7,2-0.2l26.5,21 c0.1,0.1,0.2,0.2,0.3,0.3c0.3,0.5,0.3,1.1,0,1.6c0,0,0,0.1-0.1,0.1l-18.4,23.3C875.1,482.3,874.2,482.4,873.6,481.9z" class="st9"/><path d="M822.9,489l18.4-23.3c0.5-0.6,1.4-0.7,2-0.2l26.5,21c0.6,0.5,0.7,1.4,0.2,2l-18.4,23.3c-0.5,0.6-1.4,0.7-2,0.2 l-26.5-21C822.5,490.5,822.4,489.6,822.9,489z" class="st9"/><path d="M792.8,527l24.3-30.7c0.6-0.7,1.6-0.8,2.3-0.3l26.2,20.8c0.7,0.6,0.8,1.6,0.3,2.3l-24.3,30.7 c-0.6,0.7-1.6,0.8-2.3,0.3l-26.2-20.8C792.4,528.7,792.3,527.7,792.8,527z" class="st9"/><path d="M643.2,715.9l24.3-30.7c0.6-0.7,1.6-0.8,2.3-0.3l26.2,20.8c0.7,0.6,0.8,1.6,0.3,2.3L672,738.7 c-0.6,0.7-1.6,0.8-2.3,0.3l-26.2-20.8C642.8,717.7,642.7,716.6,643.2,715.9z" class="st9"/><path d="M618.6,747l18.2-22.9c0.5-0.6,1.4-0.7,2-0.2l26.5,21c0.6,0.5,0.7,1.4,0.2,2l-18.2,22.9c-0.5,0.6-1.4,0.7-2,0.2 l-26.5-21C618.2,748.5,618.1,747.7,618.6,747z" class="st9"/><path d="M673.6,677.6l112.2-141.7c1.2-1.5,3.3-1.7,4.8-0.6l23.4,18.5c1.5,1.2,1.7,3.3,0.6,4.8L702.4,700.3 c-1.2,1.5-3.3,1.7-4.8,0.6l-23.4-18.5C672.7,681.2,672.4,679.1,673.6,677.6z" class="st9"/><path d="M507.3,583l123.6-156.1c2.8-3.6,8-4.2,11.5-1.3l109.8,87c3.6,2.8,4.2,8,1.3,11.5L629.9,680.2 c-2.8,3.6-8,4.2-11.5,1.3l-109.8-87C505.1,591.7,504.5,586.5,507.3,583z" class="st8"/><path d="M825.4,553.2l18.5-23.4c0.5-0.6,1.3-0.7,1.9-0.2l23.4,18.5c0.6,0.5,0.7,1.3,0.2,1.9l-18.5,23.4 c-0.5,0.6-1.3,0.7-1.9,0.2l-23.4-18.5C825.1,554.6,825,553.8,825.4,553.2z" class="st9"/><path d="M801.4,583.6l18.5-23.4c0.5-0.6,1.3-0.7,1.9-0.2l23.4,18.5c0.6,0.5,0.7,1.3,0.2,1.9l-18.5,23.4 c-0.5,0.6-1.3,0.7-1.9,0.2l-23.4-18.5C801,585,800.9,584.2,801.4,583.6z" class="st9"/><path d="M777.3,614l18.5-23.4c0.5-0.6,1.3-0.7,1.9-0.2l23.4,18.5c0.6,0.5,0.7,1.3,0.2,1.9l-18.5,23.4 c-0.5,0.6-1.3,0.7-1.9,0.2l-23.4-18.5C776.9,615.4,776.8,614.6,777.3,614z" class="st9"/><path d="M753.2,644.4l18.5-23.4c0.5-0.6,1.3-0.7,1.9-0.2l23.4,18.5c0.6,0.5,0.7,1.3,0.2,1.9l-18.5,23.4 c-0.5,0.6-1.3,0.7-1.9,0.2l-23.4-18.5C752.9,645.8,752.8,645,753.2,644.4z" class="st9"/><path d="M729.2,674.8l18.5-23.4c0.5-0.6,1.3-0.7,1.9-0.2l23.4,18.5c0.6,0.5,0.7,1.3,0.2,1.9L754.7,695 c-0.5,0.6-1.3,0.7-1.9,0.2l-23.4-18.5C728.8,676.2,728.7,675.4,729.2,674.8z" class="st9"/><path d="M705.1,705.2l18.5-23.4c0.5-0.6,1.3-0.7,1.9-0.2l23.4,18.5c0.6,0.5,0.7,1.3,0.2,1.9l-18.5,23.4 c-0.5,0.6-1.3,0.7-1.9,0.2l-23.4-18.5C704.7,706.6,704.6,705.8,705.1,705.2z" class="st9"/><path d="M681,735.6l18.5-23.4c0.5-0.6,1.3-0.7,1.9-0.2l23.4,18.5c0.6,0.5,0.7,1.3,0.2,1.9l-18.5,23.4 c-0.5,0.6-1.3,0.7-1.9,0.2l-23.4-18.5C680.7,737,680.6,736.1,681,735.6z" class="st9"/><path d="M657,766l18.5-23.4c0.5-0.6,1.3-0.7,1.9-0.2l23.4,18.5c0.6,0.5,0.7,1.3,0.2,1.9l-18.5,23.4 c-0.5,0.6-1.3,0.7-1.9,0.2l-23.4-18.5C656.6,767.4,656.5,766.5,657,766z" class="st9"/><path d="M596.4,774.1l14.1-17.8c1.8-2.3,5.1-2.6,7.3-0.9l6.6,5.2c2.3,1.8,2.6,5.1,0.9,7.3l-14.1,17.8 c-1.8,2.3-5.1,2.6-7.3,0.9l-6.6-5.2C595,779.7,594.6,776.4,596.4,774.1z" class="st9"/><path d="M602.3,796h-23.2l7.3-9.2c1.8-2.3,5.1-2.6,7.3-0.9l6.6,5.2C601.8,792.4,602.5,794.2,602.3,796z" class="st9"/><path d="M891,581.4l-23.4-18.5c-0.6-0.5-0.7-1.3-0.2-1.9l18.5-23.4c0.5-0.6,1.3-0.7,1.9-0.2l6.3,5v37.3l-1.2,1.5 C892.4,581.8,891.6,581.9,891,581.4z" class="st9"/><path d="M843.1,591.7l18.5-23.4c0.5-0.6,1.3-0.7,1.9-0.2l23.4,18.5c0.6,0.5,0.7,1.3,0.2,1.9l-18.5,23.4 c-0.5,0.6-1.3,0.7-1.9,0.2l-23.4-18.6C842.7,593.1,842.6,592.2,843.1,591.7z" class="st9"/><path d="M818.8,622.3l18.5-23.4c0.5-0.6,1.3-0.7,1.9-0.2l23.4,18.5c0.6,0.5,0.7,1.3,0.2,1.9l-18.5,23.4 c-0.5,0.6-1.3,0.7-1.9,0.2L819,624.2C818.4,623.8,818.3,622.9,818.8,622.3z" class="st9"/><path d="M794.6,652.8l18.5-23.4c0.5-0.6,1.3-0.7,1.9-0.2l23.4,18.5c0.6,0.5,0.7,1.3,0.2,1.9L820.1,673 c-0.5,0.6-1.3,0.7-1.9,0.2l-23.4-18.5C794.3,654.3,794.2,653.4,794.6,652.8z" class="st9"/><path d="M770.3,683.5l18.5-23.4c0.5-0.6,1.3-0.7,1.9-0.2l23.4,18.5c0.6,0.5,0.7,1.3,0.2,1.9l-18.5,23.4 c-0.5,0.6-1.3,0.7-1.9,0.2l-23.4-18.5C770,684.9,769.9,684.1,770.3,683.5z" class="st9"/><path d="M747.1,712.9l18.5-23.4c0.5-0.6,1.3-0.7,1.9-0.2l23.4,18.5c0.6,0.5,0.7,1.3,0.2,1.9l-18.5,23.4 c-0.5,0.6-1.3,0.7-1.9,0.2l-23.4-18.5C746.7,714.3,746.6,713.5,747.1,712.9z" class="st9"/><path d="M723,743.3l18.5-23.4c0.5-0.6,1.3-0.7,1.9-0.2l23.4,18.5c0.6,0.5,0.7,1.3,0.2,1.9l-18.5,23.4 c-0.5,0.6-1.3,0.7-1.9,0.2l-23.4-18.5C722.7,744.7,722.6,743.8,723,743.3z" class="st9"/><path d="M698.9,773.7l18.5-23.4c0.5-0.6,1.3-0.7,1.9-0.2l23.4,18.5c0.6,0.5,0.7,1.3,0.2,1.9l-18.5,23.4 c-0.5,0.6-1.3,0.7-1.9,0.2l-23.4-18.5C698.6,775.1,698.5,774.2,698.9,773.7z" class="st9"/><path d="M715.3,796h-34l12.3-15.5c0.5-0.6,1.3-0.7,1.9-0.2L715.3,796z" class="st9"/><path d="M674.7,796h-41.5l18.5-23.3c0.5-0.6,1.3-0.7,1.9-0.2L677,791c0.6,0.5,0.7,1.3,0.2,1.9L674.7,796z" class="st9"/><path d="M894.1,510.7L874.2,495c-0.9-0.7-1.1-2.1-0.4-3l20.2-25.5L894.1,510.7L894.1,510.7z" class="st9"/><path d="M894.1,621.9l-15.4-12.2c-0.6-0.5-0.7-1.3-0.2-1.9l15.7-19.8v33.9H894.1z" class="st9"/><path d="M877.9,658.7l-23.4-18.5c-0.6-0.5-0.7-1.3-0.2-1.9l18.5-23.4c0.5-0.6,1.3-0.7,1.9-0.2l19.4,15.4v10.4 l-14.3,18.1C879.3,659,878.5,659.1,877.9,658.7z" class="st9"/><path d="M830.1,668.8l18.5-23.4c0.5-0.6,1.3-0.7,1.9-0.2l23.4,18.5c0.6,0.5,0.7,1.3,0.2,1.9L855.6,689 c-0.5,0.6-1.3,0.7-1.9,0.2l-23.4-18.5C829.7,670.2,829.6,669.4,830.1,668.8z" class="st9"/><path d="M806.1,699.1l18.5-23.4c0.5-0.6,1.3-0.7,1.9-0.2l23.4,18.5c0.6,0.5,0.7,1.3,0.2,1.9l-18.5,23.4 c-0.5,0.6-1.3,0.7-1.9,0.2L806.3,701C805.7,700.5,805.6,699.7,806.1,699.1z" class="st9"/><path d="M782.6,728.8l18.5-23.4c0.5-0.6,1.3-0.7,1.9-0.2l23.4,18.5c0.6,0.5,0.7,1.3,0.2,1.9L808.1,749 c-0.5,0.6-1.3,0.7-1.9,0.2l-23.4-18.5C782.2,730.2,782.1,729.3,782.6,728.8z" class="st9"/><path d="M758.2,759.5l18.5-23.4c0.5-0.6,1.3-0.7,1.9-0.2l23.4,18.5c0.6,0.5,0.7,1.3,0.2,1.9l-18.5,23.4 c-0.5,0.6-1.3,0.7-1.9,0.2l-23.4-18.5C757.8,761,757.7,760.1,758.2,759.5z" class="st9"/><path d="M770.9,796h-31.2l-5.3-4.2c-0.6-0.5-0.7-1.3-0.2-1.9l18.5-23.4c0.5-0.6,1.3-0.7,1.9-0.2l23.4,18.5 c0.6,0.5,0.7,1.3,0.2,1.9L770.9,796z" class="st9"/><path d="M894.1,696l-22-17.4c-0.6-0.5-0.7-1.3-0.2-1.9l18.5-23.4c0.5-0.6,1.3-0.7,1.9-0.2l1.8,1.4V696L894.1,696z" class="st9"/><path d="M848.3,706.4l18.5-23.4c0.5-0.6,1.3-0.7,1.9-0.2l23.4,18.5c0.6,0.5,0.7,1.3,0.2,1.9l-18.5,23.4 c-0.5,0.6-1.3,0.7-1.9,0.2l-23.4-18.5C848,707.9,847.9,707,848.3,706.4z" class="st9"/><path d="M823.9,737.3l18.5-23.4c0.5-0.6,1.3-0.7,1.9-0.2l23.4,18.5c0.6,0.5,0.7,1.3,0.2,1.9l-18.5,23.4 c-0.5,0.6-1.3,0.7-1.9,0.2l-23.4-18.5C823.5,738.8,823.4,737.9,823.9,737.3z" class="st9"/><path d="M800.1,767.4l18.5-23.4c0.5-0.6,1.3-0.7,1.9-0.2l23.4,18.5c0.6,0.5,0.7,1.3,0.2,1.9l-18.5,23.4 c-0.5,0.6-1.3,0.7-1.9,0.2l-23.4-18.5C799.7,768.8,799.6,767.9,800.1,767.4z" class="st9"/><path d="M818.9,796h-41.5l16.8-21.2c0.5-0.6,1.3-0.7,1.9-0.2l23.4,18.5c0.6,0.5,0.7,1.3,0.2,1.9L818.9,796z" class="st9"/></g><g><ellipse cx="-4093.4" cy="1737.3" class="st10" rx="6.8" ry="24" transform="matrix(0.4816 -0.8764 0.8764 0.4816 -3644.5667 -2686.8599)"/><path d="M-4040.2,1725.2l-578-105.6c-10.8-2-21.9-1.9-32.6,0.3l-207.9,41.7c-9.2,1.8-16.9,8.6-19,17.8 c-1.9,8.1,0.3,18.7,17.3,24c6.5,2,16,1,22.5-0.9l175.1-51.5c14.1-4.1,29-4.5,43.3-1.3l561.7,126.5L-4040.2,1725.2z" class="st6"/><path d="M-4829.5,1435.5l513.7,285.1c9.6,5.3,18.1,12.4,25.1,20.9l134.2,164.1c5.9,7.3,7.6,17.4,3.4,25.8 c-3.7,7.5-12.1,14.3-28.6,7.6c-6.3-2.5-13-9.4-16.9-15l-102.7-151c-8.3-12.1-19.6-21.9-32.7-28.5l-514.4-258.6L-4829.5,1435.5z" class="st6"/><path d="M-4084.3,1784.8c5.5-5.2,24,2.2,29.9-2.6c10.4-8.4,15.8-43,14.9-53c-1.4-16-21.8-3.5-59.7-38.5 c-104.3-96.3-287.8-105.8-287.8-105.8c-10.2-9.5-26.3-18.5-44.1-24.9c-17.7-6.7-35.8-10.4-49.8-9.9c0,0-145.5-112.2-287.4-107.1 c-51.6,1.9-58.9-20.9-70.4-9.7c-7.1,7-25.6,36.8-23.1,49.9c1.4,7.5,20.2,14,21,21.5c4.9,44.8-44,116.6,36.6,178.5 c80.6,62,195.9,71.4,249.9,13.9c41.1-48.4,59.3-100.2,99.6-86c1.4,0.4,2.9,0.9,4,1.3s2.5,1,3.9,1.6c39.8,15.5,19.9,66.7,19.6,130.1 c3.5,78.8,97.2,146.7,198.8,152.1C-4126.8,1901.9-4117.2,1815.6-4084.3,1784.8z M-4719.2,1703c-11.2-4.1-22.1-8.7-32.5-13.8 c-9.3-4.6-18.2-9.6-26.3-15.2c-3.8-2.6-7.5-5.4-11-8.2c-13.2-10.9-23.6-23.6-29.6-38.5c-3.6-8.9-5.1-19.2-5.3-29.8 c-0.2-20.2,4.8-42,11.1-59.1c9.6-26,19.3-45.7,43.8-58.5c21-11,47.1-10.3,74.1-4.4c17.9,3.9,36.1,10,53.7,16.5 c8.1,3,16.4,6.4,24.6,10.1c4,1.8,8.1,3.7,12.1,5.7c8.3,4.1,16.5,8.6,24.3,13.4c31.5,19.3,57.4,43.9,62.8,72.1 c2.1,10.9-14.4,38.7-21,50.7C-4571,1703-4644.3,1730.7-4719.2,1703z M-4305.6,1856.3c-12.7-4.7-24.3-10.6-34.8-17.4 c-8.4-5.5-16.1-11.6-23-18.2c-2.9-2.8-5.7-5.6-8.3-8.6c-18-20.1-29.5-44.1-33.8-69.3c-2.8-16.2-2.6-33,0.9-49.5 c2.8-13.5,8.4-45.4,17.1-52.3c24.2-19.3,63.6-20,102.9-12.5c19.8,3.8,39.6,9.6,57.4,16.2c7.5,2.8,15.1,5.7,22.5,8.8 c4.3,1.8,8.6,3.6,12.8,5.6c8.7,4,17.1,8.3,25,13c20.4,12.3,37,27.3,44.8,46.7c10.3,25.7,4.8,47-4.9,73.1 c-9.7,26.2-28.9,58.7-53.6,71.5C-4215.7,1881.7-4261.6,1872.6-4305.6,1856.3z" class="st6"/><path d="M-4517.3,1593.1c-8.7-45.6-70.8-81.7-123.8-101.3c-44.1-16.3-92.8-30.4-127.8-12.1 c-24.5,12.8-34.2,32.5-43.8,58.5c-9.7,26.1-16.2,63.2-5.9,89c14.7,36.5,55.3,59.5,99.3,75.7c75,27.8,148.2,0,180.9-59.1 C-4531.6,1631.8-4515.2,1604-4517.3,1593.1z" class="st11"/><path d="M-4127.1,1792c9.7-26.1,15.2-47.4,4.9-73.1c-14.7-36.7-60.9-57.8-105.1-74.2c-53.1-19.7-123.9-32.8-160.3-3.8 c-8.7,6.9-14.3,38.8-17.1,52.3c-13.7,66.3,23.9,135.2,99.1,163c44.1,16.3,89.9,25.3,124.9,7.2 C-4156,1850.7-4136.8,1818.2-4127.1,1792z" class="st11"/><path d="M-4788.9,1665.8c-13.2-10.9-23.6-23.6-29.6-38.5c-3.6-8.9-5.1-19.2-5.3-29.8l129-122.1 c17.9,3.9,36.1,10,53.7,16.5c8.1,3,16.4,6.4,24.6,10.1L-4788.9,1665.8z" class="st12"/><path d="M-4751.7,1689.2c-9.3-4.6-18.2-9.6-26.3-15.2l173.6-166.4c8.3,4.1,16.5,8.6,24.3,13.4L-4751.7,1689.2z" class="st12"/><path d="M-4371.7,1812.2c-18-20.1-29.5-44.1-33.8-69.3l120.8-114.3c19.8,3.8,39.6,9.6,57.4,16.2 c7.5,2.8,15.1,5.7,22.5,8.8L-4371.7,1812.2z" class="st12"/><path d="M-4340.4,1839c-8.4-5.5-16.1-11.6-23-18.2l171.4-161.6c8.7,4,17.1,8.3,25,13L-4340.4,1839z" class="st12"/></g></svg>