<svg xmlns="http://www.w3.org/2000/svg" id="fd9b490f-82a4-477b-ac7e-4c73995efbb2" width="952" height="725.342" data-name="Layer 1" viewBox="0 0 952 725.342"><title>polaroid</title><path fill="#f2f2f2" d="M886.63464,743.472H371.85281C235.41918,713.25815,124,609.19154,124,453.56788a324.06787,324.06787,0,0,1,7.5907-70.00285l414.93681-66.83757,320.09807-51.55705a572.47354,572.47354,0,0,1,65.47827,49.90995L625.70862,431.95682l-144.54025,55.139,162.32131-40.3447,336.9067-83.73547a574.65812,574.65812,0,0,1,55.62516,73.19784l-101.8836,76.17463,115.1103-54.48412q.73064,1.26,1.45505,2.52415C1122.92569,586.45727,1031.891,743.472,886.63464,743.472Z" transform="translate(-124 -87.32915)"/><path fill="#f2f2f2" d="M804.37217,229.79693C726.45124,245.8911,630.65,266.23212,532.1499,287.37685c-142.41689,30.581-290.46966,62.85872-398.25719,86.45427l.07156-.27946a96.326,96.326,0,0,1,27.519-46.096A570.78321,570.78321,0,0,1,456.53092,180.2839h.00993a576.21651,576.21651,0,0,1,97.06137-8.19595A570.21015,570.21015,0,0,1,804.37217,229.79693Z" transform="translate(-124 -87.32915)"/><path fill="#3f3d56" d="M221.213,87.32915v725.3417H931.7853V87.32915ZM866.14352,599.33506H288.49582V149.68884h577.6477Z" transform="translate(-124 -87.32915)"/><path fill="#2f2e41" d="M614.03476,276.42151c-17.51754-29.59923-52.1746-30.97868-52.1746-30.97868s-33.77132-4.31865-55.43542,40.76134c-20.19266,42.01824-48.06111,82.58772-4.48659,92.42389l7.87082-24.49753,4.87436,26.32134a170.49833,170.49833,0,0,0,18.64392.31864c46.66479-1.50662,91.106.44079,89.675-16.3045C621.10007,342.20552,630.89015,304.90188,614.03476,276.42151Z" transform="translate(-124 -87.32915)"/><path fill="#ffb8b8" d="M494.44692,557.48842l-59.07761,41.02611s-34.46193,36.103-9.84626,36.103S459.985,603.43767,459.985,603.43767l75.488-32.82089Z" transform="translate(-124 -87.32915)"/><path fill="#d0cde1" d="M518.24207,397.48657s-51.69291,160.00185-35.28246,168.20707S535.473,578.822,535.473,578.822Z" transform="translate(-124 -87.32915)"/><path d="M518.24207,397.48657s-51.69291,160.00185-35.28246,168.20707S535.473,578.822,535.473,578.822Z" opacity=".1" transform="translate(-124 -87.32915)"/><path fill="#2f2e41" d="M680.75476,599.33506H564.38823l82.67583-41.84664a52.7165,52.7165,0,0,1,5.23494,3.87284A104.96914,104.96914,0,0,1,680.75476,599.33506Z" transform="translate(-124 -87.32915)"/><circle cx="427.063" cy="226.464" r="42.667" fill="#ffb8b8"/><path fill="#ffb8b8" d="M550.24243,349.07576s9.84627,31.17985,0,42.66716,54.15448-16.41045,54.15448-16.41045-22.97463-32.82089-16.41045-47.59029Z" transform="translate(-124 -87.32915)"/><path fill="#d0cde1" d="M644.76656,491.53483l-3.44615,22.46591s1.7395,5.10362,3.85641,12.5376c2.757,9.69853,6.15392,23.36846,7.12218,34.82292,1.001,11.61862-.50872,20.9726-7.6965,21.56335-10.30581.85328-15.672,7.10565-21.02178,16.41045H504.86751c.3118-5.12.68931-10.437,1.13233-15.90173q.36929-4.92313.82052-9.97758c.32823-3.87284,11.95647-76.61962,3.21648-92.2759C491.99026,448.8523,514.96,430.30747,514.96,430.30747s3.28209-24.61567,3.28209-32.8209c0-6.433,25.20642-13.86684,36.103-16.78795.70563-.18049,1.32924-.361,1.90356-.49229,1.88724-.4923,3.01957-.77125,3.01957-.77125l8.61548-3.52828s24.20541-4.67694,25.84646-7.959c.59075-1.1816,2.24822-2.14976,4.20107-2.98671,3.46258-1.477,7.877-2.52717,8.92728-3.57747a41.8278,41.8278,0,0,0,4.05333-5.51388c2.98672-3.6596,7.25349-5.85854,12.07817-7.05657,17.6248-4.44717,42.94611,4.36523,42.94611,4.36523l-8.86168,57.84682Z" transform="translate(-124 -87.32915)"/><path fill="#ffb8b8" d="M696.2954,455.74366l-59.0776,41.02611s-34.46194,36.103-9.84627,36.103,34.46194-31.17985,34.46194-31.17985l75.488-32.82089Z" transform="translate(-124 -87.32915)"/><path fill="#2f2e41" d="M594.80273,273.56822l-34.2395-17.935-21.48191,3.33338a38.4038,38.4038,0,0,0-31.567,29.46907l-4.017,17.74164,24.35213-.93663,6.80307-15.87383V304.979l11.23664-.43222,6.52183-25.272,4.07608,26.9025,39.94618-.81525Z" transform="translate(-124 -87.32915)"/><path fill="#d0cde1" d="M654.44877,356.46046l11.48731-3.28209s116.51416,47.59029,113.23207,88.61641,1.64105,41.02611-18.05149,42.66716-77.12909-18.05149-75.48805-21.33358S698.757,443.43582,698.757,443.43582l-44.3082-34.46193Z" transform="translate(-124 -87.32915)"/><circle cx="469.73" cy="226.464" r="6.564" fill="#ffb8b8"/><path fill="#3f3d56" d="M788.70292,603.56936c-.33387-.54556-8.206-13.68994-10.93519-40.98457-2.50328-25.04138-.89362-67.25059,20.99664-126.129,41.47044-111.54114-9.5571-201.53868-10.0785-202.43515l2.51749-1.46049c.13213.22732,13.29924,23.17316,21.07761,59.71091a260.49883,260.49883,0,0,1-10.78885,145.19911c-41.3994,111.35077-10.6212,164.06327-10.30581,164.58325Z" transform="translate(-124 -87.32915)"/><circle cx="648.487" cy="121.23" r="18.912" fill="#0062ff"/><circle cx="708.134" cy="191.06" r="18.912" fill="#3f3d56"/><circle cx="667.399" cy="237.614" r="18.912" fill="#0062ff"/><circle cx="716.863" cy="276.894" r="18.912" fill="#0062ff"/><circle cx="652.851" cy="337.995" r="18.912" fill="#3f3d56"/><path fill="#3f3d56" d="M800.12825,604.2655s-18.91246-46.55373,37.8249-81.469Z" transform="translate(-124 -87.32915)"/><path fill="#3f3d56" d="M776.86886,603.421s-8.60723-49.506-75.22574-49.08172Z" transform="translate(-124 -87.32915)"/></svg>