<svg xmlns="http://www.w3.org/2000/svg" xmlns:xlink="http://www.w3.org/1999/xlink" id="Layer_1" x="0" y="0" version="1.1" viewBox="-344.5 253.8 499.6 285.7" xml:space="preserve" style="enable-background:new -344.5 253.8 499.6 285.7"><style type="text/css">.st0{fill:#055ac1}.st1{fill:#035ee2}</style><g><polygon points="146.1 441 146.1 474 136.3 474 136.3 487 122.1 487 122.1 494.7 115.1 494.7 115.1 464.9 110.7 464.9 110.7 461.1 95 461.1 95 464.9 88.5 464.9 88.5 450.1 80.4 450.1 80.4 445.2 71.8 444.3 71.8 437.5 61.2 438.7 61.2 443.2 48.7 441.9 48.7 450.1 40.5 450.1 40.5 462.8 30.4 462.8 30.4 494.7 17.9 494.7 17.9 483.1 -.9 483.1 -.9 474.1 -5.5 474.7 -5.5 469.7 -16.1 471 -16.1 475.9 -20.6 476.5 -20.6 483.1 -30.1 483.1 -30.1 490.1 -44 490.1 -44 485.4 -80.9 485.4 -80.9 478 -90.4 478 -90.4 471.2 -94.9 470.6 -94.9 465.4 -105.5 464.1 -105.5 469.3 -110.1 468.7 -110.1 478 -128.9 478 -128.9 490.1 -141.4 490.1 -141.4 456.8 -151.5 456.8 -151.5 443.7 -159.7 443.7 -159.7 435.1 -172.2 436.4 -172.2 431.8 -182.8 430.5 -182.8 437.6 -191.4 438.5 -191.4 443.7 -199.5 443.7 -199.5 459 -206 459 -206 455.1 -221.7 455.1 -221.7 459 -226.1 459 -226.1 490.1 -233.1 490.1 -233.1 482.1 -247.3 482.1 -247.3 468.6 -257.1 468.6 -257.1 434.1 -281.1 430.5 -281.1 468.6 -289.8 468.6 -289.8 456.8 -299.6 456.8 -299.6 451.8 -310.3 450.5 -310.3 456.8 -313.8 456.8 -313.8 468.2 -321.6 468.2 -321.6 459 -344.5 459 -344.5 539.5 -68.1 539.5 -42.9 539.5 155.1 539.5 155.1 439.7" class="st0"/><path d="M155.1,472.2v-1.5c-10.6-4.2-17.9-7.9-20.5-9.2c-0.3-0.7-1-1.3-1.9-1.5l-4.2-0.7c-0.2-0.2-0.5-0.2-0.8-0.1 l-14.4-2.4c-1.5-0.3-2.9,0.9-2.9,2.5v0.6c-28,21.1-53.7,26.9-73.5,26.8c-0.4-0.1-0.7-0.1-1.1-0.2c-18.5-3.1-31.5-10.8-36-13.7 c-0.1-0.9-0.7-1.6-1.6-1.7l-14.8-2.5c-0.5-0.1-1,0.1-1.4,0.3c-0.1,0-0.1,0-0.2,0.1c-8.6,6.7-16.9,11.4-24.7,14.6v-5h-22.9v7.9h-7.8 v-9.8h-3.5v-5.5l-10.7,1.1v4.4h-9.9v4.4c-0.1-0.1-0.3-0.2-0.4-0.2v-5.1c0-0.9-0.6-1.6-1.5-1.7l-6.7-1.1v-18.9l-18.6,2.4v-61.6h-4.6 v-18.1h-5.4v-14.2h-2.3v-7.3l-4.7-4.7h-0.6v-15.1h-1v-13.1h-1.7v13.1h-1v14.9h-0.6l-4.7,4.7v7.3h-2.3v14.2h-5.4v18.1h-4.6v83.8 h-1.7v-3.4h-15.7v3.4h-6.4v-13.2h-8.2v-4.5l-8.6-0.8v-6.1l-10.7,1.1v4l-12.5-1.2v7.4h-8.2v11.3H-246v28.7h-12.5v-10.4h-18.9v-8 l-4.5,0.5v-4.5l-10.6,1.2v4.5l-4.5,0.5v5.9h-9.5v6.3h-36.9v4.1h-1.1v34.2h499.6v-25.7l-4.2-0.3v-2.7l-10-0.7v2.7l-4.2-0.3v4.8h-1.8 v-14.8l20.3-0.2v-10h-1.6v-8.5c0.5,0.1,1,0.3,1.6,0.4v-1.5c-0.5-0.1-1.1-0.3-1.6-0.4v-3.4c0.5,0.1,1,0.3,1.6,0.4v-1.5 c-0.5-0.1-1-0.3-1.6-0.4v-2.2c0.5,0.2,1,0.4,1.6,0.5v-1.5c-0.5-0.2-1-0.4-1.6-0.6v-2.1C154,471.8,154.6,472,155.1,472.2z M-102.9,482c0.2-0.1,0.4-0.1,0.6-0.1c1.1,0,2.1,1,2.2,2.2c-1-0.4-1.9-0.8-2.8-1.2V482z M-100.1,486.7h-2.8v-2.1 c0.9,0.5,1.8,0.9,2.8,1.4V486.7z M-97.7,485.1c-0.1,0-0.3-0.1-0.4-0.1v-0.8c0.1,0.1,0.3,0.2,0.4,0.3V485.1z M-97.7,483.3 c-0.1-0.1-0.3-0.2-0.4-0.3v-1.1c0.1,0.1,0.3,0.2,0.4,0.2V483.3z M-27.3,476.5c0.9-0.5,1.7-1.1,2.6-1.7v2.6 c-0.9,0.6-1.7,1.1-2.6,1.6V476.5z M-27.3,480.1c0.9-0.5,1.7-1.1,2.6-1.6v2.8c-0.9,0.4-1.7,0.9-2.6,1.3V480.1z M-27.3,483.6 c0.9-0.4,1.7-0.8,2.6-1.3v2.4c-0.9,0.5-1.7,0.9-2.6,1.3V483.6z M-27.3,487.2c0.9-0.4,1.7-0.9,2.6-1.3v11.8l-2.6,0.1V487.2z M-30.3,478.3c0.9-0.5,1.7-1,2.6-1.5v2.6c-0.9,0.5-1.7,1-2.6,1.5V478.3z M-30.3,481.9c0.9-0.5,1.7-1,2.6-1.5v2.4 c-0.9,0.4-1.7,0.8-2.6,1.2V481.9z M-30.3,485c0.9-0.4,1.7-0.8,2.6-1.2v2.5c-0.9,0.4-1.7,0.8-2.6,1.2V485z M-30.3,488.6 c0.9-0.4,1.7-0.8,2.6-1.2v10.4l-2.6,0.1V488.6z M-33.4,480c0.9-0.5,1.7-0.9,2.6-1.4v2.5c-0.9,0.5-1.7,1-2.6,1.4V480z M-33.4,483.6 c0.9-0.4,1.7-0.9,2.6-1.4v2c-0.9,0.4-1.7,0.7-2.6,1.1V483.6z M-33.4,486.3c0.9-0.3,1.7-0.7,2.6-1v2.5c-0.9,0.4-1.7,0.7-2.6,1.1 V486.3z M-33.4,489.9c0.9-0.3,1.7-0.7,2.6-1.1v9.1l-2.6,0.1V489.9z M-36.4,481.6c0.9-0.4,1.7-0.9,2.6-1.3v2.5 c-0.9,0.4-1.7,0.9-2.6,1.3V481.6z M-36.4,485.1c0.9-0.4,1.7-0.8,2.6-1.3v1.6c-0.9,0.3-1.7,0.6-2.6,0.9V485.1z M-36.4,487.4 c0.9-0.3,1.7-0.6,2.6-0.9v2.6c-0.9,0.3-1.7,0.7-2.6,1V487.4z M-36.4,491.1c0.9-0.3,1.7-0.6,2.6-1v7.9l-2.6,0.1V491.1z M-39.4,483 c0.9-0.4,1.7-0.8,2.6-1.2v2.4c-0.9,0.4-1.7,0.8-2.6,1.2V483z M-39.4,486.5c0.9-0.4,1.7-0.8,2.6-1.2v1.2c-0.9,0.3-1.7,0.6-2.6,0.8 V486.5z M-39.4,488.4c0.9-0.3,1.7-0.5,2.6-0.8v2.6c-0.9,0.3-1.7,0.6-2.6,0.9V488.4z M-39.4,492.1c0.9-0.3,1.7-0.6,2.6-0.9v6.8 l-2.6,0.1V492.1z M-42.5,484.3c0.9-0.4,1.7-0.7,2.6-1.1v2.4c-0.9,0.4-1.7,0.7-2.6,1V484.3z M-42.5,487.7c0.9-0.3,1.7-0.7,2.6-1v0.8 c-0.9,0.3-1.7,0.5-2.6,0.7V487.7z M-42.5,489.3c0.9-0.2,1.7-0.5,2.6-0.7v2.7c-0.9,0.3-1.7,0.5-2.6,0.7V489.3z M-42.5,493 c0.9-0.2,1.7-0.5,2.6-0.7v5.9l-2.6,0.1V493z M-24.4,512.5h-8.1v-6.1h-9.3v-2.2l17.4-0.2V512.5z M-21.7,493l-2.6-0.2v-7.1 c0.9-0.5,1.7-0.9,2.6-1.4V493z M-21.7,483.1c-0.9,0.5-1.7,1-2.6,1.5v-2.4c0.9-0.4,1.7-0.9,2.6-1.4V483.1z M-21.7,479.6 c-0.9,0.5-1.7,0.9-2.6,1.4v-2.8c0.9-0.6,1.7-1.1,2.6-1.7V479.6z M-21.7,475.3c-0.9,0.6-1.7,1.2-2.6,1.8v-2.6 c0.9-0.6,1.7-1.2,2.6-1.8V475.3z M-18.8,493.2l-2.4-0.2v-9.1c0.8-0.5,1.6-1,2.4-1.5V493.2z M-18.8,481.3c-0.8,0.5-1.6,1-2.4,1.5 v-2.3c0.8-0.5,1.6-0.9,2.4-1.4V481.3z M-18.8,477.9c-0.8,0.5-1.6,1-2.4,1.4V476c0.8-0.6,1.6-1.2,2.4-1.8V477.9z M-18.8,473.1 c-0.8,0.6-1.6,1.2-2.4,1.8v-2.6c0.8-0.6,1.6-1.2,2.4-1.8V473.1z M-10.4,493.9l-4.9-0.4v-11.9c0-0.8,0.3-1.5,0.7-2 c0.3-0.2,0.6-0.4,0.9-0.6c0.2-0.1,0.5-0.1,0.8-0.1c1.3,0,2.4,1.2,2.4,2.8v12.2H-10.4z M-2.4,494.6l-4.9-0.4v-11.8 c0-1.5,1.1-2.8,2.4-2.8h0.1c0.5,0.3,1.1,0.5,1.6,0.8c0.4,0.5,0.7,1.2,0.7,1.9L-2.4,494.6L-2.4,494.6z M105.7,465 c0.7-0.5,1.5-1,2.2-1.6v3.4c-0.7,0.5-1.5,1.1-2.2,1.6V465z M105.7,470.2c0.7-0.5,1.5-1,2.2-1.5v3.8c-0.7,0.4-1.5,0.8-2.2,1.2V470.2 z M105.7,475.3c0.7-0.4,1.5-0.8,2.2-1.2v3.6c-0.7,0.4-1.5,0.9-2.2,1.3V475.3z M105.7,480.6c0.7-0.4,1.5-0.8,2.2-1.3v14.5l-2.2,0.1 V480.6z M102.9,466.8c0.7-0.5,1.5-1,2.2-1.5v3.4c-0.7,0.5-1.5,1-2.2,1.5V466.8z M102.9,472c0.7-0.5,1.5-1,2.2-1.5v3.4 c-0.7,0.4-1.5,0.8-2.2,1.2V472z M102.9,476.7c0.7-0.4,1.5-0.8,2.2-1.2v3.7c-0.7,0.4-1.5,0.8-2.2,1.2V476.7z M102.9,482 c0.7-0.4,1.5-0.8,2.2-1.2v13l-2.2,0.1V482z M100.2,468.6c0.7-0.5,1.5-1,2.2-1.4v3.4c-0.7,0.5-1.5,1-2.2,1.4V468.6z M100.2,473.7 c0.7-0.5,1.5-0.9,2.2-1.4v3c-0.7,0.4-1.5,0.7-2.2,1.1V473.7z M100.2,478c0.7-0.4,1.5-0.7,2.2-1.1v3.7c-0.7,0.4-1.5,0.8-2.2,1.1V478 z M100.2,483.4c0.7-0.4,1.5-0.8,2.2-1.1V494l-2.2,0.1V483.4z M97.5,470.3c0.7-0.4,1.5-0.9,2.2-1.4v3.4c-0.7,0.5-1.5,0.9-2.2,1.4 V470.3z M97.5,475.3c0.7-0.4,1.5-0.9,2.2-1.3v2.6c-0.7,0.4-1.5,0.7-2.2,1V475.3z M97.5,479.2c0.7-0.3,1.5-0.7,2.2-1v3.8 c-0.7,0.4-1.5,0.7-2.2,1.1V479.2z M51.4,489.2c0.3,0,0.7,0,1,0C52.1,489.2,51.7,489.3,51.4,489.2L51.4,489.2z M48.7,487.4 c0.7-0.1,1.5-0.2,2.2-0.3v0.6c-0.8,0-1.5,0-2.2-0.1V487.4z M48.7,489.2c0.7,0,1.5,0,2.2,0.1v0.2c-0.7,0.1-1.5,0.1-2.2,0.2V489.2z M48.7,491.1c0.7-0.1,1.5-0.1,2.2-0.2v2.5c-0.8,0-1.5-0.1-2.2-0.1V491.1z M48.7,494.7c0.7,0,1.5,0.1,2.2,0.1v0.7l-2.2,0.1V494.7z M48.2,487.5v0.2c-0.4,0-0.9,0-1.3-0.1C47.3,487.6,47.8,487.5,48.2,487.5z M46,489c0.7,0,1.5,0.1,2.2,0.1v0.5 c-0.8,0-1.5,0.1-2.2,0.1V489z M46,491.2c0.7,0,1.5-0.1,2.2-0.1v2.1c-0.8,0-1.5-0.1-2.2-0.2V491.2z M46,494.5 c0.7,0.1,1.5,0.1,2.2,0.2v0.9l-2.2,0.1V494.5z M43.3,488.8c0.7,0.1,1.5,0.1,2.2,0.2v0.8c-0.8,0-1.5,0-2.2,0.1V488.8z M43.3,491.3 c0.7,0,1.5,0,2.2-0.1v1.8c-0.8-0.1-1.5-0.1-2.2-0.2V491.3z M43.3,494.2c0.7,0.1,1.5,0.2,2.2,0.2v1.2l-2.2,0.1V494.2z M40.6,488.5 c0.7,0.1,1.5,0.2,2.2,0.2v1c-0.8,0-1.5,0-2.2,0V488.5z M40.6,491.3c0.5,0,1,0,1.5,0c0.2,0,0.5,0,0.7,0v1.4 c-0.8-0.1-1.5-0.2-2.2-0.3V491.3z M40.6,493.9c0.7,0.1,1.5,0.2,2.2,0.3v1.6l-2.2,0.1V493.9z M37.9,488.2c0.7,0.1,1.5,0.2,2.2,0.3 v1.3c-0.8,0-1.5,0-2.2-0.1V488.2z M37.9,491.2c0.7,0,1.5,0.1,2.2,0.1v1.1c-0.8-0.1-1.5-0.2-2.2-0.4V491.2z M37.9,493.4 c0.7,0.1,1.5,0.3,2.2,0.4v2l-2.2,0.1V493.4z M35.1,488c0.6,0,1.2,0,1.9,0c0.1,0,0.2,0,0.4,0.1v1.6c-0.8,0-1.5-0.1-2.2-0.1L35.1,488 L35.1,488z M35.1,491c0.7,0.1,1.5,0.1,2.2,0.1v0.7c-0.8-0.1-1.5-0.3-2.2-0.4V491z M35.1,492.9c0.7,0.2,1.5,0.3,2.2,0.4v2.6 l-2.2,0.1V492.9z M32.4,487.9c0.7,0,1.5,0.1,2.2,0.1v1.6c-0.8-0.1-1.5-0.1-2.2-0.2V487.9z M32.4,490.8c0.7,0.1,1.5,0.1,2.2,0.2v0.3 c-0.2,0-0.4-0.1-0.7-0.1C33.5,491.1,33,490.9,32.4,490.8L32.4,490.8z M32.4,492.3c0.4,0.1,0.8,0.2,1.2,0.3c0.3,0.1,0.7,0.1,1,0.2 v3.2l-2.2,0.1V492.3z M29.7,487.7c0.7,0.1,1.5,0.1,2.2,0.2v1.4c-0.8-0.1-1.5-0.2-2.2-0.3V487.7z M29.7,491.6 c0.7,0.2,1.5,0.4,2.2,0.6v3.9l-2.2,0.1V491.6z M27,487.5c0.7,0.1,1.5,0.1,2.2,0.2v1.3c-0.8-0.1-1.5-0.2-2.2-0.3V487.5z M27,490.8 c0.7,0.2,1.5,0.4,2.2,0.7v4.7l-2.2,0.1V490.8z M24.3,485.2c0.7,0.2,1.5,0.4,2.2,0.6v0.1c-0.8-0.1-1.5-0.2-2.2-0.3V485.2z M24.3,487.1c0.7,0.1,1.5,0.2,2.2,0.3v1.2c-0.8-0.1-1.5-0.3-2.2-0.4V487.1z M24.3,489.9c0.7,0.2,1.5,0.5,2.2,0.7v5.6l-2.2,0.1 V489.9z M21.6,484.4c0.7,0.2,1.5,0.5,2.2,0.7v0.6c-0.8-0.1-1.5-0.2-2.2-0.3V484.4z M21.6,486.7c0.7,0.1,1.5,0.2,2.2,0.3v1 c-0.3-0.1-0.5-0.1-0.8-0.2c-0.5-0.2-1-0.4-1.4-0.5L21.6,486.7L21.6,486.7z M21.6,489.1c0.3,0.1,0.7,0.1,1,0.2 c0.4,0.1,0.8,0.3,1.2,0.4v6.5l-2.2,0.1V489.1z M18.9,483.5c0.7,0.3,1.5,0.5,2.2,0.8v1H21c-0.7-0.1-1.4-0.3-2.1-0.4V483.5z M18.9,486.3c0.6,0.1,1.2,0.2,1.8,0.3c0.1,0,0.3,0,0.4,0.1v0.6C20.3,486.9,19.6,486.6,18.9,486.3L18.9,486.3z M18.9,488.5 c0.7,0.2,1.4,0.3,2.1,0.5c0.1,0,0.1,0,0.2,0v7.4l-2.2,0.1v-8H18.9z M16.2,482.5c0.7,0.3,1.5,0.6,2.2,0.8v1.4 c-0.8-0.1-1.5-0.3-2.2-0.5V482.5z M16.2,487.8c0.7,0.2,1.5,0.4,2.2,0.6v8.1l-2.2,0.1V487.8z M13.4,481.4c0.7,0.3,1.5,0.6,2.2,0.9 v1.9c-0.8-0.2-1.5-0.3-2.2-0.5V481.4z M13.4,487c0.7,0.2,1.5,0.4,2.2,0.6v8.9l-2.2,0.1V487z M10.7,480.2c0.7,0.3,1.5,0.7,2.2,1v2.3 c-0.2-0.1-0.4-0.1-0.6-0.2c-0.5-0.3-1.1-0.6-1.6-0.8V480.2z M10.7,484.4c0.4,0.1,0.7,0.2,1.1,0.3c0.4,0.2,0.8,0.4,1.1,0.6v0.1 c-0.8-0.2-1.5-0.5-2.2-0.7V484.4z M10.7,486.2c0.7,0.2,1.5,0.5,2.2,0.7v9.7l-2.2,0.1V486.2z M8,478.9c0.7,0.4,1.5,0.7,2.2,1.1v2.2 c-0.8-0.4-1.5-0.8-2.2-1.2V478.9z M8,483.6c0.7,0.2,1.5,0.4,2.2,0.7v0.2c-0.8-0.3-1.5-0.5-2.2-0.8V483.6z M8,485.2 c0.7,0.3,1.5,0.5,2.2,0.8v10.7L8,496.8V485.2z M5.3,477.5c0.7,0.4,1.4,0.8,2.2,1.1v2c-0.8-0.5-1.5-0.9-2.2-1.4V477.5z M7.5,483.4 L7.5,483.4c-0.4-0.1-0.8-0.2-1.2-0.4C6.8,483.2,7.2,483.3,7.5,483.4z M5.3,481c0.2,0.1,0.4,0.2,0.6,0.4c-0.2-0.1-0.4-0.1-0.6-0.2 V481z M5.3,484.2c0.7,0.3,1.5,0.6,2.2,0.9v11.7l-2.2,0.1V484.2z M2.6,476c0.7,0.4,1.4,0.8,2.2,1.2v1.8c-0.8-0.5-1.6-1-2.2-1.5V476z M2.6,479.3c0.7,0.5,1.4,0.9,2.2,1.4v0.3c-0.8-0.3-1.5-0.5-2.2-0.8V479.3z M2.6,483.1c0.7,0.3,1.5,0.6,2.2,0.9v12.9L2.6,497V483.1z M-0.2,474.4c0.6,0.4,1.4,0.9,2.3,1.4v1.5c-0.9-0.6-1.6-1.2-2.3-1.6V474.4z M-0.2,477.4c0.7,0.5,1.4,1,2.3,1.6v1.1 c-0.8-0.3-1.5-0.6-2.3-0.9V477.4z M-0.2,481.8c0.7,0.3,1.5,0.7,2.3,1v14.1l-2.3,0.1V481.8z M52.4,507.5h-6.1v-2.1H31.5v2.1h-4.1 v16.1h-6.6v-4.2H7.5v-7h-7.7v-8.6l52.5-0.5v4.2H52.4z M53.7,495.4l-2.2,0.1v-0.7c0.7,0,1.5,0,2.2,0V495.4z M53.7,493.4 c-0.8,0-1.5,0-2.2,0v-2.6c0.7-0.1,1.5-0.2,2.2-0.2V493.4z M53.7,487.8c-0.8,0-1.5,0-2.2,0v-0.7c0.7-0.1,1.5-0.2,2.2-0.3V487.8z M56.4,495.3l-2.2,0.1v-0.5c0.7,0,1.5,0,2.2,0V495.3z M56.4,493.4c-0.8,0-1.5,0-2.2,0v-2.9c0.7-0.1,1.5-0.2,2.2-0.3V493.4z M56.4,487.7c-0.8,0-1.5,0.1-2.2,0.1v-1c0.7-0.1,1.5-0.2,2.2-0.4V487.7z M59.1,495.2l-2.2,0.1v-0.5c0.7,0,1.5-0.1,2.2-0.1V495.2z M59.1,493.3c-0.8,0-1.5,0.1-2.2,0.1v-3.2c0.7-0.1,1.5-0.2,2.2-0.4V493.3z M59.1,487.5c-0.8,0.1-1.5,0.1-2.2,0.1v-1.4 c0.7-0.1,1.5-0.3,2.2-0.4V487.5z M61.8,495.2l-2.2,0.1v-0.5c0.7,0,1.5-0.1,2.2-0.2V495.2z M61.8,493.1c-0.8,0.1-1.5,0.1-2.2,0.2 v-3.5c0.7-0.1,1.5-0.3,2.2-0.4V493.1z M61.8,487.3c-0.8,0.1-1.5,0.1-2.2,0.2v-1.8c0.7-0.2,1.5-0.3,2.2-0.5V487.3z M64.5,495.1 l-2.2,0.1v-0.6c0.7-0.1,1.5-0.1,2.2-0.2V495.1z M64.5,492.8c-0.8,0.1-1.5,0.2-2.2,0.2v-3.8c0.2,0,0.4-0.1,0.6-0.1 c0.5-0.1,1.1-0.2,1.6-0.4V492.8z M64.5,487c-0.8,0.1-1.5,0.2-2.2,0.2V485h0.1c0.7-0.2,1.4-0.4,2.1-0.5V487z M67.2,495l-2.2,0.1 v-0.8c0.7-0.1,1.5-0.2,2.2-0.3V495z M67.2,492.4c-0.8,0.1-1.5,0.2-2.2,0.3v-4.1c0.4-0.1,0.8-0.2,1.3-0.3c0.3,0,0.6-0.1,1-0.1 L67.2,492.4L67.2,492.4z M67.2,486.5c-0.5,0.1-1,0.3-1.4,0.4c-0.3,0-0.5,0.1-0.8,0.1v-2.6c0.7-0.2,1.5-0.4,2.2-0.6L67.2,486.5 L67.2,486.5z M68.1,495h-0.4v-1.1c0.1,0,0.3,0,0.4-0.1V495z M69.9,492c-0.8,0.1-1.5,0.2-2.2,0.4v-4.3c0.7-0.1,1.5-0.2,2.2-0.4V492z M69.9,485.7c-0.7,0.2-1.5,0.4-2.2,0.6v-2.8c0.7-0.2,1.5-0.4,2.2-0.7V485.7z M72.6,491.5c-0.7,0.2-1.5,0.3-2.2,0.4v-4.3 c0.7-0.1,1.5-0.3,2.2-0.4V491.5z M72.6,484.9c-0.7,0.2-1.5,0.5-2.2,0.7v-2.8c0.7-0.2,1.5-0.5,2.2-0.7V484.9z M75.3,493.2l-2.2-0.2 v-0.1c0.4-0.1,0.9-0.2,1.3-0.3c0.3-0.1,0.6-0.1,1-0.2L75.3,493.2L75.3,493.2z M75.3,490.9c-0.7,0.2-1.5,0.3-2.2,0.5v-4.3 c0.7-0.2,1.5-0.3,2.2-0.5V490.9z M75.3,484c-0.7,0.3-1.5,0.5-2.2,0.8v-2.9c0.7-0.3,1.5-0.5,2.2-0.8V484z M78.1,493.4l-2.2-0.2v-0.9 c0.7-0.2,1.5-0.4,2.2-0.5V493.4z M78.1,490.2c-0.7,0.2-1.5,0.4-2.2,0.6v-4.2c0.5-0.1,0.9-0.2,1.4-0.3c0.3-0.1,0.5-0.1,0.8-0.2 L78.1,490.2L78.1,490.2z M78.1,483c-0.7,0.3-1.5,0.6-2.2,0.8v-3c0.7-0.3,1.5-0.6,2.2-0.9V483z M80.8,494.6l-2.2,0.1v-3 c0.7-0.2,1.5-0.4,2.2-0.6V494.6z M80.8,489.5c-0.7,0.2-1.5,0.4-2.2,0.6v-4.2c0.7-0.2,1.5-0.4,2.2-0.6V489.5z M80.8,483.8 c-0.5,0.1-1,0.3-1.5,0.4c0.5-0.2,1-0.4,1.5-0.6V483.8z M80.8,482c-0.7,0.3-1.5,0.6-2.2,0.9v-3c0.7-0.3,1.5-0.6,2.2-0.9V482z M83.5,494.5l-2.2,0.1v-3.7c0.7-0.2,1.5-0.4,2.2-0.7V494.5z M83.5,488.7c-0.7,0.2-1.5,0.5-2.2,0.7v-4.2c0.7-0.2,1.5-0.4,2.2-0.7 V488.7z M83.5,483c-0.7,0.2-1.5,0.5-2.2,0.7v-0.2c0.7-0.3,1.5-0.6,2.2-0.9V483z M83.5,480.8c-0.7,0.3-1.5,0.6-2.2,0.9v-3.1 c0.7-0.3,1.5-0.7,2.2-1V480.8z M86.2,494.4l-2.2,0.1v-4.4c0.7-0.2,1.5-0.5,2.2-0.7V494.4z M86.2,487.8c-0.7,0.3-1.5,0.5-2.2,0.7 v-4.1c0.7-0.2,1.5-0.5,2.2-0.7V487.8z M86.2,482.1c-0.7,0.3-1.5,0.5-2.2,0.7v-0.6c0.7-0.3,1.5-0.7,2.2-1V482.1z M86.2,479.6 c-0.7,0.3-1.5,0.7-2.2,1v-3.2c0.7-0.3,1.5-0.7,2.2-1.1V479.6z M88.9,494.4l-2.2,0.1v-5.2c0.7-0.3,1.5-0.5,2.2-0.8V494.4z M88.9,486.8c-0.7,0.3-1.5,0.6-2.2,0.8v-4.1c0.7-0.3,1.5-0.5,2.2-0.8V486.8z M88.9,481.1c-0.7,0.3-1.5,0.5-2.2,0.8V481 c0.7-0.3,1.5-0.7,2.2-1.1V481.1z M88.9,478.3c-0.7,0.4-1.5,0.7-2.2,1.1v-3.2c0.7-0.4,1.5-0.7,2.2-1.1V478.3z M91.6,494.3l-2.2,0.1 v-6.2c0.7-0.3,1.5-0.6,2.2-0.9V494.3z M91.6,485.7c-0.7,0.3-1.5,0.6-2.2,0.9v-4.1c0.7-0.3,1.5-0.6,2.2-0.8V485.7z M91.6,480.1 c-0.7,0.3-1.5,0.6-2.2,0.8v-1.3c0.7-0.4,1.5-0.7,2.2-1.1V480.1z M91.6,476.9c-0.7,0.4-1.5,0.8-2.2,1.1v-3.2 c0.7-0.4,1.5-0.8,2.2-1.2V476.9z M94.3,494.2l-2.2,0.1v-7.1c0.7-0.3,1.5-0.6,2.2-0.9V494.2z M94.3,484.6c-0.7,0.3-1.5,0.6-2.2,0.9 v-4c0.7-0.3,1.5-0.6,2.2-0.9V484.6z M94.3,479c-0.7,0.3-1.5,0.6-2.2,0.9v-1.6c0.7-0.4,1.5-0.8,2.2-1.2V479z M94.3,475.5 c-0.7,0.4-1.5,0.8-2.2,1.2v-3.3c0.7-0.4,1.5-0.8,2.2-1.2V475.5z M97,494.1l-2.2,0.1V486c0.7-0.3,1.5-0.7,2.2-1V494.1z M97,483.3 c-0.7,0.3-1.5,0.7-2.2,1v-3.9c0.7-0.3,1.5-0.6,2.2-1V483.3z M97,477.8c-0.7,0.3-1.5,0.7-2.2,1v-2c0.7-0.4,1.5-0.8,2.2-1.3V477.8z M97,473.9c-0.7,0.4-1.5,0.9-2.2,1.3v-3.3c0.7-0.4,1.5-0.9,2.2-1.3V473.9z M97.5,484.7c0.7-0.3,1.5-0.7,2.2-1.1V494l-2.2,0.1V484.7 z M110.4,523.7H107v-17.3h-9.5v-3.5l12.9-0.1V523.7z M110.4,493.7l-2.1,0.1V479c0.7-0.4,1.4-0.8,2.1-1.2V493.7z M110.4,476.1 c-0.7,0.4-1.4,0.8-2.1,1.3v-3.6c0.7-0.4,1.4-0.8,2.1-1.2V476.1z M110.4,470.9c-0.7,0.4-1.4,0.8-2.1,1.2v-3.8c0.7-0.5,1.4-1,2.1-1.5 V470.9z M110.4,465c-0.7,0.5-1.4,1-2.1,1.5v-3.4c0.7-0.5,1.4-1,2.1-1.5V465z M116.9,470.6c0.3,0.2,0.7,0.3,1,0.5 c-0.9,0.7-1.9,1.3-2.8,1.9C115.3,472,116,471.1,116.9,470.6z M121.4,493.4l-6.3,0.2v-18.7c1.5-1,3-2,4.4-3.1 c0.5,0.2,1.1,0.5,1.7,0.7c0.2,0.4,0.2,0.9,0.2,1.4L121.4,493.4L121.4,493.4z M131.8,493.1l-6.3,0.2v-18.4c0-0.2,0-0.4,0-0.5 c1.9,0.8,4,1.6,6.3,2.5V493.1z M131.8,475.3c-2.1-0.8-4.1-1.6-5.9-2.3c0.5-1,1.5-1.7,2.6-1.7c0.6,0.2,1.3,0.4,1.9,0.6 c0.8,0.7,1.4,1.7,1.4,3V475.3z M137.9,492.9l-3.1,0.1v-15.1c1,0.4,2,0.7,3.1,1.1V492.9z M137.9,477.5c-1.1-0.4-2.1-0.7-3.1-1.1 v-3.1c1,0.3,2,0.6,3.1,1V477.5z M137.9,472.8c-1.1-0.3-2.1-0.7-3.1-1V468c1,0.4,2,0.8,3.1,1.3V472.8z M137.9,467.7 c-1.1-0.4-2.1-0.9-3.1-1.3v-3.3c0.8,0.4,1.8,0.9,3.1,1.5V467.7z M140.9,492.8l-2.6,0.1v-13.7c0.8,0.3,1.7,0.6,2.6,0.9V492.8z M140.9,478.5c-0.9-0.3-1.7-0.6-2.6-0.9v-3.2c0.8,0.3,1.7,0.5,2.6,0.8V478.5z M140.9,473.7c-0.9-0.3-1.7-0.5-2.6-0.8v-3.5 c0.8,0.3,1.7,0.7,2.6,1V473.7z M140.9,469c-0.9-0.3-1.7-0.7-2.6-1v-3c0.8,0.4,1.6,0.8,2.6,1.2V469z M143.9,492.7l-2.6,0.1v-12.6 c0.8,0.3,1.7,0.5,2.6,0.8V492.7z M143.9,479.5c-0.9-0.3-1.7-0.5-2.6-0.8v-3.3c0.8,0.3,1.7,0.5,2.6,0.8V479.5z M143.9,474.6 c-0.9-0.3-1.7-0.5-2.6-0.8v-3.2c0.8,0.3,1.7,0.7,2.6,1V474.6z M143.9,470.1c-0.9-0.3-1.7-0.7-2.6-1v-2.8c0.8,0.4,1.7,0.8,2.6,1.2 V470.1z M147,492.6l-2.6,0.1v-11.6c0.8,0.3,1.7,0.5,2.6,0.8V492.6z M147,480.4c-0.9-0.3-1.7-0.5-2.6-0.8v-3.4 c0.8,0.2,1.7,0.5,2.6,0.7V480.4z M147,475.5c-0.9-0.3-1.7-0.5-2.6-0.7v-3c0.8,0.3,1.7,0.6,2.6,1V475.5z M147,471.3 c-0.9-0.3-1.7-0.6-2.6-1v-2.6c0.8,0.4,1.7,0.7,2.6,1.1V471.3z M150,492.5l-2.6,0.1V482c0.4,0.1,0.7,0.2,1.1,0.3 c0.5,0.1,1,0.3,1.5,0.4V492.5z M150,481.3c-0.4-0.1-0.7-0.2-1.1-0.3c-0.5-0.1-1-0.3-1.5-0.4v-3.4c0.8,0.2,1.7,0.5,2.6,0.7V481.3z M150,476.4c-0.9-0.2-1.7-0.5-2.6-0.7V473c0.8,0.3,1.7,0.6,2.6,0.9V476.4z M150,472.4c-0.9-0.3-1.7-0.6-2.6-0.9v-2.4 c0.8,0.4,1.7,0.7,2.6,1.1V472.4z M153,492.5l-2.6,0.1V483c0.8,0.2,1.7,0.5,2.6,0.7V492.5z M153,482.2c-0.9-0.2-1.7-0.5-2.6-0.7 v-3.4c0.8,0.2,1.7,0.5,2.6,0.7V482.2z M153,477.3c-0.9-0.2-1.7-0.5-2.6-0.7v-2.4c0.8,0.3,1.7,0.6,2.6,0.9V477.3z M153,473.5 c-0.9-0.3-1.7-0.6-2.6-0.9v-2.2c0.8,0.3,1.7,0.7,2.6,1.1V473.5z" class="st1"/></g></svg>