<svg xmlns="http://www.w3.org/2000/svg" xmlns:xlink="http://www.w3.org/1999/xlink" id="Layer_1" x="0" y="0" version="1.1" viewBox="-49 141 512 512" xml:space="preserve" style="enable-background:new -49 141 512 512"><style type="text/css">.st0{fill:#f3f2f4}.st1{fill:#8d6a59}.st2,.st3{opacity:.2;enable-background:new}.st3{opacity:.3;fill:#fff}.st4{fill:#e36566}.st5{fill:#7f00ff}.st6{fill:#394049}.st7,.st8{opacity:.3;enable-background:new}.st8{opacity:.15}.st9{fill:#f6cdb5}</style><rect width="512" height="510.5" x="-49" y="141.5" class="st0"/><g><path d="M332.8,630.5l-56.1-23.2l69.2-167.5c1.7-4.1,6.5-6.1,10.6-4.4l41.2,17c4.1,1.7,6.1,6.5,4.4,10.6L332.8,630.5z" class="st1"/><polygon points="386.9 499.2 347.7 514.4 330.8 476.1 323.5 493.6 334.9 519.4 308.7 529.6 301.4 547.1 340.6 531.9 357.6 570.3 364.8 552.8 353.4 527 379.7 516.8" class="st2"/><path d="M390.6,490.5l-56.1-23.2l11.4-27.5c1.7-4.1,6.5-6.1,10.6-4.4l41.2,17c4.1,1.7,6.1,6.5,4.4,10.6L390.6,490.5z" class="st3"/><path d="M33.8,508.8c26.3-33.4,38-68.8,34.8-105.1l46-4.1c2.9,32.6-3.1,64.9-18,95.9c-9.4,19.7-20.2,34.2-27,42.7 c-2.3,2.8-6.5,3.3-9.2,0.9l-25.4-21.2C32,515.5,31.7,511.5,33.8,508.8z" class="st4"/><path d="M33.8,508.8c26.3-33.4,38-68.8,34.8-105.1l46-4.1c2.9,32.6-3.1,64.9-18,95.9c-9.4,19.7-20.2,34.2-27,42.7 c-2.3,2.8-6.5,3.3-9.2,0.9l-25.4-21.2C32,515.5,31.7,511.5,33.8,508.8z" class="st5"/><path d="M4.9,452.2c38.7-17.7,65.3-43.8,78.9-77.6l42.8,17.3c-12.3,30.3-32.4,56.2-59.8,77 c-17.3,13.2-33.5,21.1-43.6,25.6c-3.3,1.5-7.3-0.1-8.7-3.4L1.6,460.7C0.2,457.5,1.7,453.8,4.9,452.2z" class="st5"/><path d="M101.8,537.6c-67.4,10.8-77,71.1-78,96.8c-0.3,6.3,4.9,11.6,11.2,11.6h66.8V537.6L101.8,537.6z" class="st6"/><path d="M91.8,539.6C63.9,567,46,604.3,44.2,646h57.7V537.6C98.3,538.1,95,538.9,91.8,539.6z" class="st7"/><path d="M335.2,537.6c67.4,10.8,77,71.1,78,96.8c0.3,6.3-4.9,11.6-11.2,11.6h-66.8V537.6z" class="st6"/><path d="M345.4,539.6c27.9,27.3,45.8,64.7,47.6,106.3h-57.7V537.6C338.8,538.1,342.2,538.9,345.4,539.6z" class="st7"/><path d="M377,646c0-87.8-71.2-159-159-159s-159,71.2-159,159H377z" class="st6"/><path d="M218.1,487.1c-46.1,0-87.5,19.6-116.6,50.9c31.9,25.7,72.4,41.1,116.6,41.1s84.7-15.4,116.6-41.1 C305.6,506.7,264.1,487.1,218.1,487.1z" class="st8"/><circle cx="218.5" cy="363.9" r="185.9" class="st6"/><path d="M332.9,374.2H103.2c-15.9,0-28.7-12.9-28.7-28.7l0,0c0-15.9,12.9-28.7,28.7-28.7h229.8 c15.9,0,28.7,12.9,28.7,28.7l0,0C361.8,361.3,348.9,374.2,332.9,374.2z" class="st9"/><path d="M379.6,270.9H57.5c-8.2,14.2-14.6,29.6-18.8,45.8h359.8C394.2,300.4,387.8,285,379.6,270.9z" class="st5"/><path d="M405.3,578.1c-7.4-13.3-17.4-23.7-29.7-31.5l32.8-78.2c3.2-7.6-0.5-16.4-8.3-19.6l-5.7-2.4c11-23.9,17.1-50.5,17.1-78.4 c0-104.9-86.6-190.1-193.1-190.1S25.4,263.3,25.4,368.1c0,21.3,3.6,41.8,10.2,61c-9.9,7.4-21.2,14.1-33.7,19.8 c-6.8,3-9.8,10.6-6.9,17.4l12.9,30c1.4,3.3,4.1,5.9,7.5,7.3c1.6,0.7,3.3,0.9,5,0.9c1.9,0,3.8-0.4,5.6-1.1c2.4-1,4.9-2.2,7.3-3.4 c-1.6,2.2-3.3,4.4-5,6.6c-4.6,5.7-3.8,13.9,2,18.6l25.4,20.9c1,0.8,2.3,1.5,3.5,2.1c-11.2,7.5-20.3,17.6-27.3,29.9 c-11.3,20.1-14.4,41.7-15,56.3c-0.2,4.9,1.6,9.6,5.1,13.2c3.5,3.6,8.2,5.6,13.2,5.6h341.9c0.3,0,0.7,0,0.9-0.1v0.1h24 c5,0,9.7-2,13.2-5.6c3.5-3.6,5.3-8.2,5.1-13.2C419.7,619.8,416.7,598.1,405.3,578.1z M363.2,539.9c-7.8-3.4-16.3-5.8-25.5-7.3 c-2.8-2.9-5.8-5.7-8.9-8.4c13.9-9.6,26.6-20.9,37.5-33.7l15.1,6.1L363.2,539.9z M394.8,461.7c0.6,0.2,0.8,0.8,0.6,1.4l-8.7,20.6 l-11.5-4.7c4.7-6.4,8.9-13.1,12.8-20.1L394.8,461.7z M218.5,191.8c61.6,0,116,30.8,148.1,77.6H70.3 C102.6,222.6,157,191.8,218.5,191.8z M61.7,283.4h313.6c5.6,9.9,10.1,20.3,13.7,31.2H48.1C51.6,303.7,56.2,293.3,61.7,283.4z M354.7,349.9c0,11.8-9.7,21.4-21.7,21.4H103.2c-12,0-21.7-9.6-21.7-21.4s9.7-21.4,21.7-21.4H333 C344.9,328.5,354.7,338.1,354.7,349.9z M44.2,328.5h30.5c-4.6,5.9-7.3,13.4-7.3,21.4c0,19.5,16.1,35.3,35.8,35.3h229.8 c19.8,0,35.8-15.8,35.8-35.3c0-8-2.7-15.4-7.3-21.4h31.5c3,12.7,4.5,26,4.5,39.6c0,97.2-80.2,176.3-178.9,176.3 S39.5,465.2,39.5,368.1C39.7,354.5,41.3,341.2,44.2,328.5z M107.9,523.8c-3.3,2.9-6.5,5.9-9.5,8.9c-6.4,1.1-12.5,2.7-18.2,4.8 c5.7-7.4,10.8-15.2,15.4-23.1C99.5,517.8,103.6,520.9,107.9,523.8z M20.7,490.4L8.3,461.3c12-5.5,22.9-11.7,32.7-18.7 c4.2,9.8,9.3,19.2,15.2,28.2C45.2,478.2,33.4,484.8,20.7,490.4z M39.7,514.8c7.5-9.4,13.9-19.2,19.2-29c1.8-1.1,3.6-2.4,5.3-3.6 c6.2,8.2,13.1,15.8,20.5,22.9C78.9,515.4,72,525.5,64.3,535L39.7,514.8z M35.2,639.1c-1.1,0-2.2-0.5-3-1.2 c-0.5-0.5-1.2-1.5-1.1-2.9c0.4-10.7,2.6-31.6,13.2-50.1c8.8-15.5,21.7-26.7,38.3-33.2c-18.4,25.4-28.9,55.7-30.2,87.5L35.2,639.1 L35.2,639.1z M66.3,639.1c2-41.8,21.3-80.4,53.8-107.5c28.8,16.9,62.4,26.7,98.4,26.7c35.7,0,69.1-9.6,97.9-26.3 c32.3,27,51.5,65.5,53.4,107.1H66.3L66.3,639.1z M405,637.9c-0.8,0.8-1.9,1.2-3,1.2h-18.1c-1.3-32.1-12.1-62.5-30.7-88.1 c17.3,6.5,30.7,17.8,39.7,33.7c10.5,18.6,12.7,39.4,13.2,50.1C406.2,636.5,405.5,637.4,405,637.9z"/><circle cx="136.1" cy="348.7" r="10.6"/><circle cx="296.9" cy="348.7" r="10.6"/></g></svg>