<svg xmlns="http://www.w3.org/2000/svg" id="ab914baa-e043-4629-9a8e-c3988d23d2a0" width="943.07" height="710" data-name="Layer 1" viewBox="0 0 943.07 710"><title>chasing_love</title><path fill="#2f2e41" d="M933.25616,166.39389c-7.05082,20.8757-17.86231,39.89659-39.89659,39.89659S854.7045,188.39316,853.463,166.39389c-1.5864-28.11068,17.354-40.013,39.89659-39.89658C919.99,126.63486,941.62378,141.61951,933.25616,166.39389Z" transform="translate(-128.46486 -95)"/><rect width="78.743" height="99.741" x="724.998" y="68.244" fill="#2f2e41"/><polygon fill="#f2f2f2" points="595.444 372.758 315.865 372.758 244.319 709.574 666.99 709.574 595.444 372.758"/><path fill="#3f3d56" d="M795.455,430.93825c0,6.08351-39.262,11.312-95.17433,13.52305-15.48987.6108-32.2501,1.00171-49.81662,1.09939q-5.03907.03668-10.15144.03668c-85.6826,0-155.14239-6.56-155.14239-14.65912S554.63,416.27912,640.31259,416.27912,795.455,422.83908,795.455,430.93825Z" transform="translate(-128.46486 -95)"/><rect width="382.148" height="2.443" x="254.394" y="616.621" fill="#3f3d56" transform="translate(-379.99186 830.03637) rotate(-77.99318)"/><rect width="2.444" height="382.148" x="833.935" y="426.768" fill="#3f3d56" transform="translate(-238.61428 92.01513) rotate(-11.99242)"/><rect width="943.07" height="2.443" y="707.303" fill="#2f2e41"/><path fill="#ff6584" d="M613.73478,432.00518l-5.01668-1.64256c-17.90559-6.03682-29.66891-9.89213-33.859-19.33671a14.69889,14.69889,0,0,1,7.5232-19.699,15.989,15.989,0,0,1,13.43334.28766,15.98839,15.98839,0,0,1,8.80178-10.15216,14.6989,14.6989,0,0,1,19.65306,7.64237c4.19009,9.4447-.8461,20.753-8.38683,38.07884Z" transform="translate(-128.46486 -95)"/><path fill="#ff6584" d="M700.28065,444.4613c-15.48987.6108-32.2501,1.00171-49.81662,1.09939a15.0415,15.0415,0,0,1,6.43782-5.375,15.96167,15.96167,0,0,1,13.4253.29317,16.02917,16.02917,0,0,1,8.80772-10.15144,14.70334,14.70334,0,0,1,19.6554,7.64719A17.64952,17.64952,0,0,1,700.28065,444.4613Z" transform="translate(-128.46486 -95)"/><path fill="#ff6584" d="M617.36274,276.82955l-2.0642-1.55853c-7.33987-5.64347-12.17948-9.29973-12.62069-14.34312a7.2022,7.2022,0,0,1,6.61739-7.9349,7.83435,7.83435,0,0,1,6.18061,2.26805,7.83407,7.83407,0,0,1,5.6929-3.30679,7.20221,7.20221,0,0,1,7.89467,6.66534c.44122,5.04345-3.69007,9.48452-9.93846,16.31667Z" transform="translate(-128.46486 -95)"/><path fill="#ff6584" d="M649.12417,193.76118l-2.0642-1.55853c-7.33986-5.64347-12.17948-9.29973-12.62069-14.34312a7.20221,7.20221,0,0,1,6.61739-7.9349,7.83431,7.83431,0,0,1,6.18061,2.26806,7.834,7.834,0,0,1,5.69291-3.30679,7.2022,7.2022,0,0,1,7.89467,6.66533c.44122,5.04345-3.69008,9.48452-9.93847,16.31667Z" transform="translate(-128.46486 -95)"/><path fill="#ff6584" d="M656.5452,345.69433l-.76664-4.3478c-2.60783-15.58686-4.40269-25.78323.9111-32.59774a12.29339,12.29339,0,0,1,17.4957-2.21868,13.37233,13.37233,0,0,1,5.08474,10.02135,13.37184,13.37184,0,0,1,10.95848,2.48876,12.2934,12.2934,0,0,1,2.11267,17.50882c-5.31386,6.8146-15.64028,7.55908-31.39252,8.82906Z" transform="translate(-128.46486 -95)"/><path fill="#2f2e41" d="M283.47125,804.085l-2.17119-1.12139c28.19686-54.51242,13.119-125.3052-4.49389-175.09349a536.63547,536.63547,0,0,0-45.53836-96.10864l2.065-1.3051a539.3786,539.3786,0,0,1,45.77576,96.59775C296.88373,677.29813,312.06776,748.79715,283.47125,804.085Z" transform="translate(-128.46486 -95)"/><rect width="88.175" height="2.442" x="253.568" y="573.254" fill="#2f2e41" transform="matrix(0.17975, -0.98371, 0.98371, 0.17975, -449.43054, 669.02412)"/><rect width="2.444" height="120.145" x="237.797" y="589.531" fill="#2f2e41" transform="translate(-506.9529 241.87393) rotate(-42.93968)"/><rect width="70.863" height="2.444" x="290.932" y="729.618" fill="#2f2e41" transform="translate(-585.58879 472.17104) rotate(-54.13715)"/><circle cx="183.239" cy="400.683" r="12.216" fill="#0062ff"/><circle cx="50.085" cy="494.745" r="12.216" fill="#3f3d56"/><circle cx="103.835" cy="506.961" r="12.216" fill="#3f3d56"/><circle cx="79.404" cy="554.604" r="12.216" fill="#0062ff"/><circle cx="232.103" cy="585.143" r="12.216" fill="#3f3d56"/><circle cx="191.79" cy="598.581" r="12.216" fill="#3f3d56"/><circle cx="219.887" cy="637.672" r="12.216" fill="#3f3d56"/><circle cx="91.62" cy="415.342" r="12.216" fill="#3f3d56"/><path fill="#0062ff" d="M934.51842,237.552H941.216s16.37193,20.837,8.93014,49.11579-1.48836,33.488-1.48836,33.488,9.68812,30.62355-.73038,76.76262,9.66053,58.67789,9.66053,58.67789L938.98349,418.3874,928.565,320.15582Z" transform="translate(-128.46486 -95)"/><path d="M934.51842,237.59H941.216s16.37193,20.837,8.93014,49.11579-1.48836,33.488-1.48836,33.488,9.68812,30.62355-.73038,76.76262,9.66053,58.67789,9.66053,58.67789l-18.60447-37.20893L928.565,320.19381Z" opacity=".1" transform="translate(-128.46486 -95)"/><path fill="#fbbebe" d="M911.07679,201.45934s-5.95342,23.81371-2.97671,23.81371,13.39521,12.651,13.39521,12.651L928.1929,262.482l-5.20925,17.86029-17.86028-3.72089L882.798,252.06348l-6.69761-6.69761L870.147,223.78469s7.44179-8.93014,2.23254-16.37193S911.07679,201.45934,911.07679,201.45934Z" transform="translate(-128.46486 -95)"/><path d="M911.07679,201.45934s-5.95342,23.81371-2.97671,23.81371,13.39521,12.651,13.39521,12.651L928.1929,262.482l-5.20925,17.86029-17.86028-3.72089L882.798,252.06348l-6.69761-6.69761L870.147,223.78469s7.44179-8.93014,2.23254-16.37193S911.07679,201.45934,911.07679,201.45934Z" opacity=".1" transform="translate(-128.46486 -95)"/><path fill="#fbbebe" d="M730.98557,267.69123,714.61364,240.9008S696.941,201.79838,684.29,215.93777s19.161,42.82332,19.161,42.82332l16.37193,21.58118Z" transform="translate(-128.46486 -95)"/><path fill="#fbbebe" d="M948.28572,500.61914,936.37887,587.688s1.48835,6.69761-13.39522,31.2555-55.06922,78.13876-55.06922,78.13876l-11.90685-22.32536s14.13939-70.697,38.69728-85.58054l-2.97671-107.16172Z" transform="translate(-128.46486 -95)"/><path d="M948.28572,500.61914,936.37887,587.688s1.48835,6.69761-13.39522,31.2555-55.06922,78.13876-55.06922,78.13876l-11.90685-22.32536s14.13939-70.697,38.69728-85.58054l-2.97671-107.16172Z" opacity=".1" transform="translate(-128.46486 -95)"/><path fill="#2f2e41" d="M856.00758,665.82679l16.37193,31.2555s-13.39522,37.95311-8.186,41.674,11.90686,37.20893-2.23253,33.488-25.30208-18.60447-25.30208-20.837,8.186-33.488,3.7209-40.92983-7.44179-9.67432-7.44179-9.67432l-11.16268,18.60447-3.72089-2.23254,18.60446-31.2555s2.23254-5.95343,11.16268-9.67432Z" transform="translate(-128.46486 -95)"/><path d="M856.00758,665.82679l16.37193,31.2555s-13.39522,37.95311-8.186,41.674,11.90686,37.20893-2.23253,33.488-25.30208-18.60447-25.30208-20.837,8.186-33.488,3.7209-40.92983-7.44179-9.67432-7.44179-9.67432l-11.16268,18.60447-3.72089-2.23254,18.60446-31.2555s2.23254-5.95343,11.16268-9.67432Z" opacity=".1" transform="translate(-128.46486 -95)"/><path fill="#fbbebe" d="M891.90179,488.26586s5.77979,82.30606-6.87125,103.88724V699.31482l-17.11611,2.23254s-29.023-58.04593-16.37192-113.85933S832.938,482.01467,832.938,482.01467Z" transform="translate(-128.46486 -95)"/><circle cx="759.17" cy="93.436" r="31.256" fill="#fbbebe"/><path fill="#0062ff" d="M919.26276,270.668l-31.2555-39.44147L870.147,219.31962l-7.44179,9.67432-20.837,5.95343s-13.39521,2.97672-27.5346,19.34865-39.44147,26.04625-39.44147,26.04625l-20.837-3.72089s-24.5579-11.16268-24.5579-14.1394S707.916,282.5748,713.12528,291.505s16.37193,20.09282,22.32536,26.04625,8.186,23.06954,44.65072,17.86029,49.86-23.06954,49.86-23.06954,6.6976,34.23221,26.04625,40.92982,82.60382,11.16268,82.60382,11.16268l13.39522-44.65072s14.88357-19.34864-5.20925-47.62743c0,0-.38575-15.81551-2.54585-26.33965-.84018-4.09344-1.94881-7.38636-3.40758-8.63674-5.20925-4.46507-32.74386-11.90686-32.74386-11.90686s4.46507,14.88357,6.69761,15.62775S922.23947,266.94705,919.26276,270.668Z" transform="translate(-128.46486 -95)"/><path fill="#2f2e41" d="M819.17074,492.80526c37.47673-2.60462,59.2961,3.53485,69.03,8.21572a24.67577,24.67577,0,0,1,5.07535,3.08091c.71438.60278,1.05668,1.07162,1.05668,1.35441,0,2.23253,51.34832,6.6976,69.95278,2.23253s-12.651-100.46411-20.837-108.65007-3.773-38.14661-3.773-38.14661-16.31979-3.5274-20.78486-2.039-27.53461-2.23253-35.72057-6.69761-18.60447-1.48835-25.30208-2.97671c-2.99161-.66233-4.50231.45394-5.25394,1.89765a12.86777,12.86777,0,0,1-5.09007,5.14225c-15.79889,9.10134-28.47973,72.02908-38.0276,106.81943C799.07791,500.99122,819.17074,492.80526,819.17074,492.80526Z" transform="translate(-128.46486 -95)"/><path fill="#2f2e41" d="M888.00726,692.61722l2.97671,16.37193s15.62775,22.32535,11.16268,40.92982c0,0,3.72089,24.55789,17.11611,31.2555s2.23253,22.32536-10.4185,21.58118-24.5579.74418-26.04625-2.97671-10.4185-40.18565-10.4185-40.18565l-2.44319,42.67115-7.44179.74418,2.44319-49.36876s-5.95343-11.16268,2.23254-29.76714l-2.066-28.5575S885.77472,700.059,888.00726,692.61722Z" transform="translate(-128.46486 -95)"/><path d="M888.20075,501.021a24.67577,24.67577,0,0,1,5.07535,3.08091c.39425-7.0325,2.67148-49.56233-.05959-48.87765Z" opacity=".1" transform="translate(-128.46486 -95)"/><path fill="#2f2e41" d="M874.69616,145.39569s-.34614-1.92689-13.88381,3.14973-21.65256,42.53989-14.88373,64.5386c2.72782,8.86539.50879,15.25736-3.113,19.72968-13.59108,16.78288-8.24083,41.9903,11.55563,50.62063q.83817.36541,1.7106.72243l8.461,5.07663s-10.786-14.19212-5.38828-32.34645a93.0793,93.0793,0,0,0,1.67966-47.65026c-.61927-2.65858-1.3227-5.39907-2.12176-8.19575-6.76883-23.69091-3.47676-20.955,20.21415-44.64589,0,0,13.53767,10.15325,25.38313,15.22988s21.9987,10.15325,13.53766,27.07533-28.76754,32.152-15.22987,54.15066,15.22987,13.53767,13.53767,21.99871h0l-1.69221,8.461,10.15325-10.15325-6.76884,13.53766s21.99871,0,28.76754-16.92208l3.38442,3.38442s13.53766-23.69092-11.84546-45.68962c0,0-8.461-5.07663,3.38442-21.99871s2.748-53.30456-12.48187-60.07339S874.69616,145.39569,874.69616,145.39569Z" transform="translate(-128.46486 -95)"/><circle cx="764.895" cy="24.148" r="15.749" fill="#2f2e41"/><path fill="#2f2e41" d="M874.46119,110.74865A15.7493,15.7493,0,0,1,888.635,95.07953C888.11688,95.02807,887.59179,95,887.06011,95a15.74865,15.74865,0,0,0,0,31.49731c.53168,0,1.05677-.02807,1.57486-.07953A15.74936,15.74936,0,0,1,874.46119,110.74865Z" transform="translate(-128.46486 -95)"/><path fill="#ff6584" d="M689.43676,227.96581l-2.0642-1.55854c-7.33986-5.64346-12.17948-9.29973-12.62069-14.34311a7.2022,7.2022,0,0,1,6.61739-7.9349,7.8343,7.8343,0,0,1,6.18061,2.26805,7.834,7.834,0,0,1,5.69291-3.30679,7.2022,7.2022,0,0,1,7.89467,6.66533c.44122,5.04345-3.69008,9.48452-9.93847,16.31667Z" transform="translate(-128.46486 -95)"/><circle cx="901.679" cy="493.985" r="18.025" fill="#f1f1f1"/><circle cx="400.825" cy="106.74" r="18.025" fill="#f1f1f1"/><circle cx="226.137" cy="310.746" r="18.025" fill="#f1f1f1"/></svg>