<svg xmlns="http://www.w3.org/2000/svg" id="bf6b072d-b0c7-410f-9e86-e550d19ff3f5" width="1002.501" height="516.22" data-name="Layer 1" viewBox="0 0 1002.501 516.22"><title>towing</title><path fill="#d0cde1" d="M149.07843,674.20215l43.07664-68.361-43.09661,75.80813-.02309,7.7894q-4.60974-.0539-9.12643-.35342l3.51352-100.06285-.0462-.77342.07916-.14767.33455-9.45528L98.74955,503.72254l45.08688,67.8427.1349,2.00269,2.65414-75.6014-38.7204-77.518,39.023,64.23377,1.8152-156.70073.00832-.52151.00624.51318.88382,123.54783,36.99947-49.43346L149.60894,462.1622l-.17171,67.668,34.33009-65.354-34.349,75.30247-.095,37.62683,49.86758-90.99615L149.284,590.5318Z" transform="translate(-98.74955 -191.88988)"/><rect width="12.11" height="85.984" x="642.851" y="193.767" fill="#3f3d56"/><rect width="12.11" height="483.657" x="521.329" y="57.4" fill="#3f3d56" transform="translate(-46.96838 483.46895) rotate(-67.90849)"/><path fill="#d0cde1" d="M1101.24876,685.58308C1082.49147,716.92037,97.76,714.2897,99.25214,685.58122,118.00918,654.24579,1102.7407,656.87647,1101.24876,685.58308Z" transform="translate(-98.74955 -191.88988)"/><rect width="105.361" height="41.176" x="773.644" y="366.947" fill="#3f3d56"/><rect width="519.539" height="46.02" x="349.778" y="403.278" fill="#3f3d56"/><polygon fill="#d0cde1" points="783.938 426.288 659.2 426.288 659.2 269.458 752.451 269.458 783.938 348.555 783.938 426.288"/><rect width="53.286" height="53.286" x="678.577" y="279.146" fill="#fff"/><polygon fill="#fff" points="771.827 333.038 737.918 333.038 737.918 279.752 752.451 279.752 771.827 333.038"/><rect width="12.11" height="23.01" x="680.999" y="362.708" fill="#3f3d56"/><path fill="#3f3d56" d="M748.212,313.661h.60553a11.50493,11.50493,0,0,1,11.50493,11.50493v0a11.50493,11.50493,0,0,1-11.50493,11.50493H748.212a0,0,0,0,1,0,0V313.661a0,0,0,0,1,0,0Z"/><path fill="#3f3d56" d="M297.70277,403.2784h.60553a11.50493,11.50493,0,0,1,11.50493,11.50493v0a11.50493,11.50493,0,0,1-11.50493,11.50493h-.60553a0,0,0,0,1,0,0V403.2784A0,0,0,0,1,297.70277,403.2784Z"/><path fill="#d0cde1" d="M931.12924,594.99452c18.45486,0,35.05463,8.94049,46.5728,23.18364h23.66789l-23.00988-64.09594-107.1776-21.138,3.02762,85.234h10.34637C896.07461,603.935,912.67439,594.99452,931.12924,594.99452Z" transform="translate(-98.74955 -191.88988)"/><circle cx="833.591" cy="441.426" r="52.681" fill="#3f3d56"/><circle cx="833.591" cy="441.426" r="27.727" fill="#d0cde1"/><circle cx="357.65" cy="447.482" r="46.02" fill="#3f3d56"/><circle cx="357.65" cy="447.482" r="24.221" fill="#d0cde1"/><rect width="25.432" height="183.474" x="637.401" y="247.659" fill="#3f3d56"/><rect width="365.736" height="10.899" x="297.097" y="397.829" fill="#3f3d56"/><rect width="413.358" height="10.899" x="194.303" y="575.272" fill="#3f3d56" transform="translate(-237.13545 -66.25763) rotate(-15.21949)"/><rect width="8.477" height="70.856" x="585.082" y="530.057" fill="#3f3d56" transform="translate(-319.17476 266.90058) rotate(-36.31135)"/><rect width="12.11" height="4.844" x="743.368" y="335.46" fill="#3f3d56"/><path fill="#3f3d56" d="M747.65574,563.68108H589.00868a1.21092,1.21092,0,0,1-.34416-2.37183l155.01392-46.01976a1.21074,1.21074,0,0,1,1.55166,1.06558l3.63314,46.01976a1.21143,1.21143,0,0,1-1.2075,1.30625ZM597.3429,561.259H746.34535l-3.412-43.22217Z" transform="translate(-98.74955 -191.88988)"/><path fill="#3f3d56" d="M318.04891,510.395h-.01124l-34.76613-.3276a1.2112,1.2112,0,0,1-1.19213-1.34882l18.064-157.61519a1.21146,1.21146,0,0,1,1.20336-1.07326h.00532a1.21158,1.21158,0,0,1,1.19922,1.08391l16.70215,157.94278a1.21129,1.21129,0,0,1-1.20454,1.33818Zm-33.40962-2.73668,32.06257.30158L301.29827,362.2997Z" transform="translate(-98.74955 -191.88988)"/><path fill="#3f3d56" d="M970.48825,556.4148h.60553a11.50493,11.50493,0,0,1,11.50493,11.50493v0a11.50493,11.50493,0,0,1-11.50493,11.50493h-.60553a0,0,0,0,1,0,0V556.4148A0,0,0,0,1,970.48825,556.4148Z" transform="translate(1992.09742 561.76549) rotate(159.28262)"/><rect width="35.08" height="5.568" x="215.948" y="588.226" fill="#3f3d56" transform="translate(-249.4105 -107.08039) rotate(-15.63709)"/><path fill="#6c63ff" d="M494.25243,516.57572l-6.5206,3.55983L222.83891,594.27986l-3.93276-4.88514a58.17112,58.17112,0,0,1-12.58107-29.144c-1.00026-7.98461-.26866-16.40044,5.30138-21.52286l-10.11625-81.59017,146.50027-41.20421,69.48493,29.899s26.616-7.953,46.20245,6.08c6.19992,4.44595,11.698,11.09472,15.416,20.90745l3.20251,9.25159Z" transform="translate(-98.74955 -191.88988)"/><circle cx="336.948" cy="339.63" r="33.967" fill="#3f3d56"/><circle cx="336.948" cy="339.63" r="17.877" fill="#d0cde1"/><circle cx="175.545" cy="384.807" r="33.967" fill="#3f3d56"/><circle cx="175.545" cy="384.807" r="17.877" fill="#d0cde1"/><polygon fill="#fff" points="294.724 254.884 189.624 284.302 180.769 252.665 247.797 233.903 294.724 254.884"/><rect width="43.433" height="32.853" x="228.448" y="453.402" fill="#fff" transform="translate(-216.12969 -107.07056) rotate(-15.63709)"/><rect width="5.568" height="10.58" x="296.301" y="498.839" fill="#3f3d56" transform="translate(-223.56445 -92.61487) rotate(-15.63709)"/><rect width="5.568" height="10.58" x="377.636" y="457.859" fill="#3f3d56" transform="translate(625.13777 -219.92039) rotate(74.36291)"/><path fill="#3f3d56" d="M375.62632,438.70629h.61252A11.63773,11.63773,0,0,1,387.87657,450.344v0a11.63773,11.63773,0,0,1-11.63773,11.63773h-.61252a0,0,0,0,1,0,0V438.70629A0,0,0,0,1,375.62632,438.70629Z" transform="translate(-206.00747 -72.32334) rotate(-15.63709)"/><path fill="#3f3d56" d="M482.31639,482.07146a17.98812,17.98812,0,0,1-18.61853-30.159c6.19992,4.44595,11.698,11.09472,15.416,20.90745Z" transform="translate(-98.74955 -191.88988)"/><rect width="12.11" height="176.813" x="195.975" y="10.899" fill="#3f3d56"/><circle cx="202.03" cy="16.955" r="16.955" fill="#3f3d56"/><circle cx="648.906" cy="196.189" r="16.955" fill="#3f3d56"/></svg>