<svg xmlns="http://www.w3.org/2000/svg" xmlns:xlink="http://www.w3.org/1999/xlink" id="Calque_1" x="0" y="0" version="1.1" viewBox="-155 247 300 300" xml:space="preserve" style="enable-background:new -155 247 300 300"><style type="text/css">.st0{fill:url(#SVGID_1_)}.st1{fill:#fff}</style><linearGradient id="SVGID_1_" x1="-154.8" x2="144.8" y1="546.8" y2="247.2" gradientUnits="userSpaceOnUse"><stop offset="0" style="stop-color:#f90"/><stop offset="1" style="stop-color:#c03"/></linearGradient><rect width="299.6" height="299.6" x="-154.8" y="247.2" class="st0"/><g><path d="M10.5,400.6c-2.2-1.2-4.4-2-6.4-2.2c-2.1-0.3-3.3-0.4-3.8-0.4H0.1c-0.9-0.1-1.7-0.4-2.3-1 c-0.6-0.6-0.9-1.4-0.9-2.3c-0.1-0.8,0.2-1.6,0.9-2.2c0.6-0.6,1.4-1,2.2-1.1h0.3c0.2,0,0.6,0,1.2-0.1c0.6,0,1.3-0.1,2.1-0.3 c0.8-0.2,1.7-0.4,2.7-0.7c1-0.3,1.9-0.7,2.9-1.3c4.7-2.4,7-6.7,7-12.8c0-6.3-2.6-10.8-7.8-13.5c-1.1-0.5-2.1-0.8-3.1-1.1 c-1-0.3-1.9-0.5-2.7-0.6c-0.8-0.1-1.7-0.2-2.7-0.3h-28.8v30.6h15.6c0.9,0,1.7,0.3,2.3,1c0.6,0.6,1,1.4,1,2.3c0,0.8-0.3,1.6-1,2.3 c-0.7,0.7-1.4,1-2.3,1h-15.6v35.4h28.4h0.2c0.1,0,0.4,0,1.1-0.1c0.6,0,1.5-0.1,2.5-0.2c1-0.1,2.1-0.3,3.3-0.6 c1.2-0.3,2.4-0.7,3.6-1.3c5.8-2.6,8.7-7.1,8.7-13.5C18.9,409.5,16.1,403.8,10.5,400.6z" class="st1"/><path d="M41.7,323h-93.3c-15.1,0-27.3,12.2-27.3,27.3v93.3c0,15.1,12.2,27.3,27.3,27.3h93.3 c15.1,0,27.3-12.2,27.3-27.3v-93.3C69,335.2,56.8,323,41.7,323z M21.5,430.3c-2.2,3-5.1,5.3-8.7,6.9c-1.5,0.7-3,1.2-4.4,1.5 c-1.4,0.3-2.7,0.6-4,0.8c-1.2,0.2-2.3,0.3-3.1,0.3c-0.8,0-1.4,0.1-1.6,0.1h-0.2h-31.7c-0.8,0-1.6-0.3-2.2-1c-0.7-0.6-1-1.4-1-2.3 v-79.3c0-0.9,0.3-1.7,1-2.3c0.6-0.6,1.4-1,2.2-1h32.1c0.1,0,0.4,0,1.1,0.1c0.6,0,1.5,0.2,2.5,0.3c1,0.2,2.2,0.5,3.5,0.8 c1.3,0.3,2.6,0.8,4,1.4c3.4,1.6,6.1,3.8,8.1,6.6c1.2,1.8,2.1,3.7,2.7,5.9c0.6,2.2,0.9,4.5,0.9,6.9c0,2.5-0.3,4.8-0.9,6.8 c-0.6,2-1.3,3.7-2.2,5.2c-0.9,1.5-1.9,2.7-3.1,3.8s-2.3,1.9-3.4,2.6c0.3,0.2,0.6,0.3,0.8,0.3c1.3,0.8,2.6,1.8,4,3 c1.4,1.3,2.6,2.8,3.7,4.6c1.1,1.8,2,4,2.7,6.5c0.7,2.5,1.1,5.4,1.1,8.6C25.4,422.7,24.1,427,21.5,430.3z" class="st1"/></g></svg>