<svg xmlns="http://www.w3.org/2000/svg" xmlns:xlink="http://www.w3.org/1999/xlink" id="Calque_1" x="0" y="0" version="1.1" viewBox="-155 247 300 300" xml:space="preserve" style="enable-background:new -155 247 300 300"><style type="text/css">.st0{fill:#fc309b}.st1{fill:#fff}</style><rect width="299.6" height="299.6" x="-154.8" y="247.2" class="st0"/><g><path d="M-24.1,367.3L4.6,396c15.9,15.9,15.9,41.6,0,57.5s-41.6,15.9-57.5,0s-15.9-41.6,0-57.5c0,0,0,0,0,0 L-24.1,367.3z" class="st1"/><path d="M31,328.6l16.8,16.8c9.3,9.3,9.3,24.3,0,33.6c-9.3,9.3-24.3,9.3-33.6,0c-9.3-9.3-9.3-24.3,0-33.6c0,0,0,0,0,0 L31,328.6z" class="st1"/></g></svg>