<svg xmlns="http://www.w3.org/2000/svg" xmlns:xlink="http://www.w3.org/1999/xlink" id="Calque_1" x="0" y="0" version="1.1" viewBox="-155 247 300 300" xml:space="preserve" style="enable-background:new -155 247 300 300"><style type="text/css">.st0{fill:#4c6ee5}.st1{fill:#4067d3}.st2{fill:#fff}</style><rect width="299.6" height="299.6" x="-154.6" y="247.4" class="st0"/><polygon points="-70.1 421.4 -23.3 547 145 547 145 454 79.7 345.4 20.7 424 -5 436.7 -42.1 436" class="st1"/><g><path d="M74.8,345.4H36.4c-10.3,0-19.8,3.5-27.2,9.5c4,7.8,6.2,16.6,6.2,26c0,26.2-21.3,47.6-47.6,47.6h-10.7 c-9.9,0-19.2-2.5-27.2-7c3.5,5.8,7.7,11.1,12.6,16c15.2,14.9,35.4,23.1,56.8,23.1s41.5-8.2,56.8-23.1 c15.3-14.9,23.7-34.7,23.7-55.7v-31.3C79.7,347.6,77.5,345.4,74.8,345.4L74.8,345.4z M40.7,386.8L40.7,386.8c-2.7,0-5-2.2-5-5 s2.2-5,5-5c2.7,0,5,2.2,5,5S43.4,386.8,40.7,386.8L40.7,386.8z" class="st2"/><path d="M-41.8,333.5h-42.9c-2.7,0-5,2.2-5,5v22H-58c2.7,0,5,2.2,5,5c0,2.7-2.2,5-5,5h-31.7v1.2c0,4,0.5,7.9,1.5,11.6 H-58c2.7,0,5,2.2,5,5s-2.2,5-5,5h-26.5c7.8,15,23.5,25.3,41.6,25.3h10.7c20.8,0,37.7-16.9,37.7-37.7 C5.5,354.7-15.7,333.5-41.8,333.5L-41.8,333.5z" class="st2"/></g></svg>