<svg xmlns="http://www.w3.org/2000/svg" xmlns:xlink="http://www.w3.org/1999/xlink" id="Calque_1" x="0" y="0" version="1.1" viewBox="-180 272 250 250" xml:space="preserve" style="enable-background:new -180 272 250 250"><style type="text/css">.st0{fill:#d34b47}.st1{fill:#fff}</style><g id="XMLID_5_"><path id="XMLID_174_" d="M-25,512.6l2.5-39.4l6.4-11.1c0,0-14.8,6.1-39.6,6.1s-39.4-5.9-39.4-5.9l7.4,12.1l2.5,38.1 c0,4.2,13.5,7.4,30.3,7.4C-38.5,520-25,516.8-25,512.6" class="st0"/><path id="XMLID_173_" d="M-32.4,328.9l4.9-19.7l27.5-28.8l-7.1-6.1L-36.3,305l-5.7,23.4c-4.2-0.2-8.6-0.2-13-0.2 c-30.5,0-55.3,3.4-55.3,7.9c0,4.2,24.8,7.9,55.3,7.9s55.3-3.4,55.3-7.9C0.3,332.8-13.2,330.1-32.4,328.9" class="st0"/><path id="XMLID_131_" d="M-35.3,340c0,0-1,0.2-4.2,0.2c-3.2,0-5.4,0-6.4-0.7c-0.2-0.2-0.5-0.7-0.5-1c0-0.5,0.5-1,1-1 l0.5,0.7c-0.2,0-0.2,0.2-0.2,0.2c0,0.5,3.2,0.7,5.7,0.7s5.4-0.2,5.4-0.7c0-0.2-0.2-0.2-0.7-0.2l0.5-0.7c0.7,0.2,1.2,0.5,1.2,1.2 C-32.9,339.7-34.3,339.7-35.3,340" class="st1"/><path id="XMLID_130_" d="M-0.2,280.7c0.7-0.7-0.2-3-2.5-4.7c-2-1.7-4.2-2.5-4.9-1.7s0.2,3,2.5,4.4 C-2.9,280.7-0.6,281.4-0.2,280.7" class="st0"/><path id="XMLID_129_" d="M-26.2,416.5c-0.7-6.1,13.8-15.2,10.1-15.5c-7.9,0.5-11.8,9.3-15.7,18.4 c-1.5,3.4-6.4,18-9.8,16c-3.2-1.7,4.2-13.8,6.4-20.7c-2.5,1.7-11.3,8.6-13.8,2.2c-3.7,3.2-11.6,4.9-10.8-3.4 c-2,3.4-6.4,8.4-11.6,6.4c-6.9-2.7,3.9-24.8,6.6-23.6c2.7,1.2-0.5,6.1-1.5,8.1c-2,4.4-4.2,9.8-2.7,10.8c2.5,2,9.3-7.1,9.3-7.4 c1.2-1.7,4.9-12.8,7.9-11.3c3,1.2-7.4,15.7-3.4,18.7c0.7,0.5,3.9-0.2,5.9-2.5c1.2-1.2,0.7-4.4,4.9-14.3s7.9-22.1,10.6-21.2 c3,1,0.5,7.1-0.5,9.6c-4.7,11.1-13,29.3-9.1,27.8s5.9-1.5,9.8-5.9c3.7-4.4,3.7-11.8,6.1-11.6c2.5,0.2,2.2,2.5,1.5,4.4 c2.5-3,11.8-8.9,14-3c2.7,7.1-13.3,17.2-9.3,16.7c3.9-0.5,10.3-4.4,13-8.1l7.4-66.9c0,0-7.4,6.1-55.1,6.1 c-47.5,0-54.4-6.1-54.4-6.1l6.4,61c3.4-9.6,11.3-28.8,23.9-28.3c5.7,0.2,13.3,11.3,6.9,11.6c-2.7,0.2-3-5.4-6.4-6.4 c-2.5-0.5-5.7,1.2-7.9,3.4c-4.2,4.2-13.3,20.4-12.1,28.8c1.5,10.3,14.3-3.7,16.5-7.9c1.5-3,2.5-11.6,5.9-10.8 c3.4,1-0.2,9.8-2.7,17.7c-2.7,8.9-4.2,18.2-7.6,17.2c-3.4-1,2.2-12.5,2-14.5c-3.2,3-9.1,10.6-16.7,6.6l3.9,37.9 c0,0,10.3,8.4,41.8,8.4s42.3-8.1,42.3-8.1l4.9-43.8C-12.7,417.4-25.5,424.3-26.2,416.5" class="st0"/></g></svg>