<svg xmlns="http://www.w3.org/2000/svg" xmlns:xlink="http://www.w3.org/1999/xlink" id="Calque_1" x="0" y="0" version="1.1" viewBox="-155 247 300 300" xml:space="preserve" style="enable-background:new -155 247 300 300"><style type="text/css">.st0{fill:#f93232}.st1{fill:#fff}</style><rect width="299.6" height="299.6" x="-154.6" y="247.4" class="st0"/><path d="M-5,375.2c-12,0-21.8,9.8-21.8,21.8S-17,418.8-5,418.8S16.8,409,16.8,397S7,375.2-5,375.2L-5,375.2z M-5,410.1	c-7.2,0-13.1-5.9-13.1-13.1c0-7.2,5.9-13.1,13.1-13.1S8.1,389.8,8.1,397C8.1,404.2,2.2,410.1-5,410.1z" class="st1"/><path d="M54,397c4.6-7.5,8.2-14.9,10.8-22.1c6.9-19.2,5.6-34.9-3.6-44.1c-9.2-9.2-24.9-10.5-44.1-3.6	C9.9,329.8,2.5,333.4-5,338c-7.5-4.6-14.9-8.2-22.1-10.8c-19.2-6.9-34.9-5.6-44.1,3.6c-9.2,9.2-10.5,24.9-3.6,44.1	c2.6,7.2,6.3,14.7,10.8,22.1c-4.6,7.5-8.2,14.9-10.8,22.1c-6.9,19.2-5.6,34.9,3.6,44.1c5.3,5.3,12.7,8,21.7,8	c6.7,0,14.2-1.5,22.4-4.4c7.2-2.6,14.7-6.3,22.1-10.8c7.5,4.6,14.9,8.2,22.1,10.8c8.2,2.9,15.7,4.4,22.4,4.4c9,0,16.4-2.7,21.7-8	c9.2-9.2,10.5-24.9,3.6-44.1C62.2,411.9,58.6,404.5,54,397L54,397z M20.1,335.4c7.2-2.6,13.7-3.9,19.4-3.9c0.7,0,1.3,0,1.9,0.1	c5.9,0.3,10.5,2.1,13.7,5.4c3.2,3.2,5,7.9,5.4,13.7c0.3,6.1-1,13.3-3.8,21.3c-2,5.5-4.7,11.2-7.9,17c-5.9-8.5-13-16.8-20.9-24.7	s-16.3-14.9-24.7-20.9C8.8,340,14.5,337.4,20.1,335.4L20.1,335.4z M43.7,397c-6,9.1-13.5,18.2-22,26.7c-8.5,8.5-17.6,16-26.7,22	c-9.1-6-18.2-13.5-26.7-22c-8.5-8.5-16-17.6-22-26.7c6-9.1,13.5-18.2,22-26.7c8.5-8.5,17.6-16,26.7-22c9.1,6,18.2,13.5,26.7,22	C30.2,378.8,37.7,387.9,43.7,397z M-66.6,371.9c-2.9-8-4.2-15.2-3.8-21.3c0.3-5.9,2.1-10.5,5.4-13.7c3.2-3.2,7.9-5,13.7-5.4	c0.6,0,1.3-0.1,1.9-0.1c5.7,0,12.2,1.3,19.4,3.9c5.5,2,11.2,4.7,17,7.9c-8.5,5.9-16.8,13-24.7,20.9s-14.9,16.3-20.9,24.7	C-62,383.2-64.6,377.5-66.6,371.9L-66.6,371.9z M-30.1,458.6c-8,2.9-15.2,4.2-21.3,3.8c-5.9-0.3-10.5-2.1-13.7-5.4	c-3.2-3.2-5-7.9-5.4-13.7c-0.3-6.1,1-13.3,3.8-21.3c2-5.5,4.7-11.2,7.9-17c5.9,8.5,13,16.8,20.9,24.7s16.3,14.9,24.7,20.9	C-18.8,454-24.5,456.6-30.1,458.6L-30.1,458.6z M60.5,443.4c-0.3,5.9-2.1,10.5-5.4,13.7c-3.2,3.2-7.9,5-13.7,5.4	c-6.1,0.3-13.3-1-21.3-3.8c-5.5-2-11.2-4.7-17-7.9c8.5-5.9,16.8-13,24.7-20.9s14.9-16.3,20.9-24.7c3.3,5.7,5.9,11.4,7.9,17	C59.5,430.1,60.8,437.2,60.5,443.4L60.5,443.4z" class="st1"/></svg>