<svg xmlns="http://www.w3.org/2000/svg" xmlns:xlink="http://www.w3.org/1999/xlink" id="Calque_1" x="0" y="0" version="1.1" viewBox="-155 247 300 300" xml:space="preserve" style="enable-background:new -155 247 300 300"><style type="text/css">.st0{fill:#1ce5a7}.st1{fill:#fff}</style><rect width="300" height="299.8" x="-155" y="247.2" class="st0"/><g><g><path d="M47.6,354.1c0-0.6-0.5-1-1.1-1H26.8v-5.5c0-17.5-14.2-31.8-31.8-31.8s-31.8,14.2-31.8,31.8v5.5h-19.7 c-0.6,0-1,0.4-1.1,1l-7.7,100.8c0,0.3,0.1,0.6,0.3,0.8c0.2,0.2,0.5,0.4,0.8,0.4H54.1c0.3,0,0.6-0.1,0.8-0.4 c0.2-0.2,0.3-0.5,0.3-0.8L47.6,354.1z M-28,347.7c0-12.7,10.3-23,23-23s23,10.3,23,23v5.5h-46V347.7z M-32.4,383.8 c-6,0-11-4.9-11-11c0-4.4,2.2-8.3,6.6-10v10c0,2.4,2,4.4,4.4,4.4s4.4-2,4.4-4.4v-10c4.4,1.7,6.6,5.7,6.6,10 C-21.4,378.9-26.3,383.8-32.4,383.8z M22.4,383.8c-6,0-11-4.9-11-11c0-4.4,2.2-8.3,6.6-10v10c0,2.4,2,4.4,4.4,4.4s4.4-2,4.4-4.4 v-10c4.4,1.7,6.6,5.7,6.6,10C33.3,378.9,28.4,383.8,22.4,383.8z" class="st1"/></g></g></svg>