<svg xmlns="http://www.w3.org/2000/svg" xmlns:xlink="http://www.w3.org/1999/xlink" id="Calque_1" x="0" y="0" version="1.1" viewBox="-180 272 250 250" xml:space="preserve" style="enable-background:new -180 272 250 250"><style type="text/css">.st0{fill:#cf649a}</style><title>HTML5 Logo</title><path d="M26.9,409.7c-7.9,0.1-14.8,1.9-20.6,4.8c-2.1-4.2-4.2-7.9-4.6-10.7c-0.4-3.2-0.9-5.2-0.4-8.9	c0.5-3.8,2.7-9.2,2.7-9.7c-0.1-0.4-0.5-2.3-5-2.4c-4.6-0.1-8.5,0.9-8.9,2.1s-1.3,4-1.9,6.8c-0.8,4.2-9.1,18.9-13.9,26.7	c-1.5-3-2.9-5.7-3.2-7.8c-0.4-3.2-0.9-5.2-0.4-8.9c0.5-3.8,2.7-9.2,2.7-9.7c-0.1-0.4-0.5-2.3-5-2.4c-4.6-0.1-8.5,0.9-8.9,2.1	c-0.4,1.2-0.9,4-1.9,6.8c-0.9,2.8-12,27.4-14.9,33.8c-1.5,3.3-2.8,5.9-3.7,7.7c-0.9,1.8-0.1,0.1-0.1,0.3c-0.8,1.5-1.3,2.3-1.3,2.3	v0.1c-0.6,1.1-1.3,2.2-1.6,2.2c-0.2,0-0.7-3,0.1-7c1.7-8.5,5.6-21.9,5.6-22.4c0-0.2,0.7-2.6-2.6-3.8c-3.2-1.2-4.4,0.8-4.6,0.8	s-0.5,0.7-0.5,0.7s3.6-15-6.9-15c-6.6,0-15.6,7.2-20.1,13.6c-2.8,1.5-8.9,4.8-15.2,8.3c-2.5,1.3-5,2.8-7.4,4l-0.5-0.5	c-12.7-13.5-36.2-23.1-35.2-41.3c0.3-6.6,2.6-24,45-45.2c34.7-17.3,62.5-12.6,67.4-2c6.9,15.1-14.8,43.1-50.9,47.2	c-13.8,1.5-21-3.8-22.8-5.8c-1.9-2.1-2.2-2.2-2.9-1.8c-1.1,0.6-0.5,2.5,0,3.6c1.1,2.8,5.5,7.8,13,10.3c6.6,2.2,22.8,3.4,42.3-4.2	c21.9-8.5,38.9-32,33.9-51.7c-5.1-20-38.3-26.6-69.6-15.4c-18.7,6.6-38.9,17-53.5,30.7c-17.3,16.2-20.1,30.3-18.9,36.1	c4,20.9,32.9,34.5,44.4,44.6c-0.6,0.3-1.1,0.6-1.6,0.9c-5.8,2.8-27.8,14.3-33.3,26.5c-6.2,13.8,1,23.6,5.8,25	c14.8,4.1,30-3.3,38.2-15.5c8.1-12.2,7.2-28,3.4-35.2l-0.1-0.3l4.5-2.6c2.9-1.7,5.8-3.3,8.3-4.7c-1.4,3.8-2.5,8.4-3,15.1	c-0.6,7.8,2.6,18,6.8,21.9c1.9,1.7,4.1,1.8,5.4,1.8c4.9,0,7.1-4,9.5-8.9c3-5.9,5.7-12.7,5.7-12.7s-3.3,18.5,5.8,18.5	c3.3,0,6.6-4.3,8.1-6.5v0.1c0,0,0.1-0.1,0.3-0.5c0.2-0.3,0.3-0.5,0.5-0.9v-0.1c1.3-2.3,4.3-7.6,8.7-16.3	c5.7-11.3,11.2-25.4,11.2-25.4s0.5,3.4,2.2,9.1c1,3.4,3.1,7,4.8,10.7c-1.3,1.9-2.1,2.9-2.1,2.9l0.1,0.1c-1.1,1.4-2.3,2.9-3.5,4.4	c-4.5,5.4-9.9,11.6-10.7,13.4c-0.9,2.1-0.7,3.6,1,4.9c1.2,0.9,3.3,1.1,5.6,0.9c4.1-0.3,6.9-1.3,8.3-1.9c2.2-0.8,4.8-2,7.2-3.8	c4.4-3.3,7.2-7.9,6.9-14.2c-0.1-3.4-1.3-6.8-2.6-10c0.4-0.6,0.8-1.1,1.2-1.8c7-10.3,12.5-21.5,12.5-21.5s0.5,3.4,2.2,9.1	c0.9,2.9,2.5,6,4,9.1c-6.6,5.4-10.7,11.6-12.1,15.6c-2.6,7.6-0.6,10.9,3.3,11.7c1.7,0.3,4.2-0.5,6.1-1.3c2.3-0.7,5.1-2.1,7.7-4	c4.4-3.3,8.7-7.9,8.5-14c-0.1-2.8-0.9-5.6-1.9-8.3c5.6-2.3,12.9-3.6,22-2.5c19.7,2.3,23.6,14.6,22.9,19.8c-0.7,5.2-4.9,8-6.2,8.9	c-1.4,0.9-1.8,1.1-1.7,1.8c0.2,0.9,0.8,0.9,2,0.7c1.7-0.3,10.4-4.2,10.7-13.7C59,422.9,47.5,409.6,26.9,409.7L26.9,409.7z M-125.3,461c-6.5,7.2-15.7,9.9-19.6,7.6c-4.2-2.5-2.6-13,5.4-20.5c4.9-4.6,11.2-8.9,15.4-11.5c0.9-0.6,2.3-1.4,4-2.5	c0.3-0.2,0.5-0.3,0.5-0.3c0.3-0.2,0.7-0.4,1-0.6C-115.6,444-118.4,453.5-125.3,461L-125.3,461z M-77.6,428.6c-2.3,5.6-7,19.8-9.9,19	c-2.5-0.7-4-11.5-0.5-22.1c1.8-5.4,5.6-11.7,7.8-14.2c3.6-4,7.5-5.3,8.5-3.7C-70.7,409.7-76.2,425.1-77.6,428.6z M-38.3,447.4	c-1,0.5-1.9,0.9-2.3,0.6c-0.3-0.2,0.4-0.9,0.4-0.9s4.9-5.3,6.9-7.8c1.1-1.4,2.5-3,3.8-4.9v0.5C-29.4,441.4-35.5,445.7-38.3,447.4	L-38.3,447.4z M-7.9,440.5c-0.7-0.5-0.6-2.2,1.8-7.4c0.9-2.1,3-5.4,6.8-8.7c0.5,1.3,0.7,2.6,0.7,3.8C1.2,436.3-4.5,439.2-7.9,440.5z" class="st0"/></svg>