<svg xmlns="http://www.w3.org/2000/svg" xmlns:xlink="http://www.w3.org/1999/xlink" id="Calque_1" x="0" y="0" version="1.1" viewBox="-155 247 300 300" xml:space="preserve" style="enable-background:new -155 247 300 300"><style type="text/css">.st0{fill:#8f23f7}.st1{fill:#fff}</style><rect width="299.6" height="299.6" x="-154.6" y="247.4" class="st0"/><g><path d="M-41.2,384.6c1.4,2,2.7,3.8,4.1,5.5h50.9c0,0,0,0-0.1-0.1l-8.9-7.9c-0.1-0.1-0.9-0.8-2.2-2 c-1.4-1.2-2.2-1.9-2.4-2.1c-0.2-0.2-1-0.9-2.1-2c-1.2-1.1-1.9-1.9-2.2-2.3c-0.3-0.4-0.9-1.2-1.8-2.3c-0.9-1.1-1.5-2-1.8-2.7 c-0.3-0.7-0.8-1.6-1.4-2.7c-0.6-1.1-1-2.2-1.2-3.1c-0.2-1-0.4-2-0.6-3.3c-0.2-1.2-0.3-2.5-0.3-3.8c0-2.4,0.6-4.8,1.8-7.1 c1.2-2.3,2.9-3.5,5.2-3.6c1.6,0,2.9,0.4,3.8,1.2c1,0.8,1.6,2.3,2.1,4.4c0.4,2.1,0.7,4.2,0.8,6.2c0.1,2,0.1,5,0.1,9l32.5-3.2 C34.8,332.9,22.1,318-3,318c-14,0.1-25.1,3.7-33,10.9c-8,7.2-12,17.4-12,30.6c0,5.1,0.6,9.6,1.7,13.8 C-45.2,377.4-43.5,381.2-41.2,384.6z" class="st1"/><path d="M30.8,409.7c-1.2-1.9-2.4-3.6-3.6-5.3H-22l5.9,5c5.9,5.1,10.2,9.7,12.9,14s4,9.3,4,15.2c0,6-2.1,9.1-6.3,9.1 c-1.6,0-3-0.4-4.2-1.1c-1.2-0.7-2.3-2-3.4-3.8c-1-1.8-1.8-4.4-2.4-7.9c-0.6-3.4-0.8-7.7-0.8-12.8l-31.8,4.2 c0.4,17.9,4.2,30.6,11.4,38.3c7.2,7.6,18.3,11.5,33.5,11.5c12.3,0,22.3-3.8,29.8-11.3c7.5-7.5,11.3-16.8,11.3-27.8 c0-5.2-0.6-10.1-1.8-14.6C35,417.7,33.2,413.6,30.8,409.7z" class="st1"/></g></svg>