<svg xmlns="http://www.w3.org/2000/svg" xmlns:xlink="http://www.w3.org/1999/xlink" id="Layer_1" x="0" y="0" version="1.1" viewBox="0 0 500 500" xml:space="preserve" style="enable-background:new 0 0 500 500"><style type="text/css">.st0{fill:#fff}.st1{fill:#fdc5ce}.st2{fill:#232020}</style><rect width="500" height="500" class="st0"/><g id="XMLID_3064_"><g id="XMLID_3113_"><g id="XMLID_3132_"><path id="XMLID_3133_" d="M304.5,172.7c0.1-5.4-0.9-10.8-2.9-15.8c-2.1-4.9-4.8-9.4-8.2-12.9 c0.4-1.9,0.3-5.1-2.1-8.1c-3.2-4.2-7.8-8.7-13.1-11.6c-5.2-3-11-4-15-2.9c-1.5-1-3.2-1.7-4.8-2.1c-1.6-0.3-3.1-0.3-4.1,0 c-1.5,0.3-3,0.7-4.6,1.1c-1.1,0.2-2.2,0.4-3.2,0.6c-0.2,0-0.4,0-0.5,0c-2.6,0-5.2-0.1-7.8,0c-1.3,0.1-2.5,0.1-3.9,0.3 c-1.6,0.2-3.1,0.6-4.5,1c0.1,0,0.2,0,0.3,0c-0.7,0.1-1.3,0.1-2,0.2c-3.3,0.5-6.6,1.3-9.6,2.5c-6.7,3.4-14,7.7-17.3,12.6 c-1.9,3.3-3.8,6.1-5.4,8.8c-0.1,0.1-0.1,0.2-0.2,0.3c-0.4,0.4-0.8,0.8-1.1,1.2c0,0,0,0,0,0l0,0c-0.4,0.5-0.8,1.1-1,1.7 c0.4-0.6,0.7-1.2,1.1-1.7l0.4,0.3c-0.3,0.7-0.7,1.3-0.9,2c-2.5,3.4-4.4,8.3-6,9.4c1.1,2.1,1.9-1.2,2.8-4.1 c-0.5,1.5-0.8,3.2-1.2,4.9c-0.3,1.7-0.6,3.5-0.9,5.1c0,0.2-0.1,0.4-0.1,0.6c-0.1-1.5-0.5-2.6,0.6-4c-0.4-0.9-0.8-0.7-1.4,0.3 c-0.5,3.3-1.7,9.6-0.4,9.9c-0.2,0.7-0.5,1.3-0.8,1.9l1.1,1.6c-0.1,0.2-0.2,0.5-0.2,0.7c0.2-0.2,0.3-0.4,0.4-0.6 c0.4,4.3,1,8.9,3,11.6c0.4,0.2,0.8,0.4,1.1,0.5c-0.2,1.3-0.8-0.4-1.5-0.7c0.8,2.9,1.8,5,3.1,5.4c-0.5-1.6-1-3.1-1.3-4.7 c0.4,0.1,0.7,0.1,1,0.1c1.2,1.3,2.2,2.3,2.2,2.9c0.5,2,0.8,3.8,1.1,5.6c0,0,0,0,0,0c0,0,0,0,0,0c0.2,1.4,0.5,2.8,0.7,4.1 c-0.1,0-0.3-0.1-0.4-0.1c-0.9-1.9-2.3-4.4-2.6-5.5c0.1,1.3,0.2,2.5,0.5,3.8l1.2,0.7c0.2,0.5,0.2,0.8,0.1,1c0,0-0.1,0.1-0.1,0.1 c-0.1,0.1-0.2,0.2-0.3,0.2c0,0.1,0.1,0.1,0.2,0.2c0,0.1-0.1,0.3-0.1,0.5l0.4-0.1c0.4,0.4,0.7,0.8,1.1,1.2c0.1,0,0.2-0.1,0.2-0.2 c0.1,1.9,0.1,3.8,2.1,6.6c0,0,0.1,0,0.2,0c0.8,1.6,1.8,3.3,3.2,4.9c0.2,0.4,1.7,1,3.2,1.5c0.1,0.1,0.2,0.2,0.3,0.2 c1.1,0.3,1.8,0.3,2.2,0.2c0.5,0,0.9,0,1-0.1c-0.2-1.4-1.5-3.5-2.9-5.7c0.2,0.1,0.3,0.3,0.4,0.4l-0.2-0.3c-0.1,0-0.2-0.1-0.3-0.1 c-1.1-1.8-2.2-3.5-2.7-5c0.2-1.4,0.2-2.1,0.2-3.4c0.1-2,2.8,0.2,3.6,0.5c0-1.9-0.7-4-1.6-6.2c1.7,2.2,3.5,4.3,5.6,6.1l-0.7,0.6 c2,1.4,1.5,2.8,4,4.2l0.1,0l0,0c0.2-1.4-0.9-2.4-1.8-3.6c5.9,4.7,13.1,7.9,21,8.8l12,1.4c2,0.2,3.9,0.3,5.9,0.2 c-2,1-4,1.8-6.2,2.2c0.3,2.1,0.5,4.3,2,6.3c1.5,2,4.3,3.7,9.7,3.7c1.6,0,3.2-0.3,4.9-0.7c2.4,0.1,5.1,0,7.9-0.5 c0.6-0.5,1.3-1.1,2.1-1.6c0.7-0.6,1.5-1.2,2.3-1.8c1.7-1.2,3.4-2.5,5.1-3.9c0.6-0.5,1.2-1,1.8-1.5c0.4-0.1,0.8-0.2,1.2-0.3 c0.6-0.9,1.7-2,2.7-3.2c0,0,0,0,0,0c1-1,2-2,2.8-2.9c5.8-4.8,10.1-11,12.7-17.6c0.6-1.7,1.1-3.4,1.6-5c0.5-1.7,0.7-3.4,1-5.1 c0.3-1.7,0.3-3.4,0.5-5.2C304.6,175.1,304.5,174.3,304.5,172.7z M197.2,201.5l0.2,0c0,0.2,0,0.4,0.1,0.6 C197.3,201.9,197.2,201.7,197.2,201.5z" class="st1"/></g><g id="XMLID_3130_"><path id="XMLID_3131_" d="M243.9,228.2c-0.9,0-2.4-0.3-1.9-1l-1.4,0.6l4.2,0.6c-0.7-0.8-2-1.4-1.8-2.4l-1.8-0.4 C242.8,226.5,243.2,227.4,243.9,228.2z" class="st1"/></g><g id="XMLID_3128_"><path id="XMLID_3129_" d="M244.6,226.5c0.8-0.7-0.3-1.2-1.8-1.5c-1.6,0.4,2.3-0.1,1,1.1 C244.2,226.2,244.5,226.2,244.6,226.5z" class="st1"/></g><g id="XMLID_3126_"><path id="XMLID_3127_" d="M243.9,226.2c-0.3,0-0.6-0.1-0.9-0.2c0,0,0,0.1,0,0.1L243.9,226.2 C243.8,226.2,243.8,226.2,243.9,226.2z" class="st1"/></g><g id="XMLID_3124_"><path id="XMLID_3125_" d="M233.9,225.5c0,0.2,0.2,0.5,0.7,0.8C234.6,226.1,234.3,225.8,233.9,225.5z" class="st1"/></g><g id="XMLID_3122_"><path id="XMLID_3123_" d="M232.5,222.8c1.1,0.6,1.7,1.1,1.3,1.7l-0.9-0.3c-0.2,0.4,0.5,0.8,1,1.3 C233.7,224.6,235.6,224.1,232.5,222.8z" class="st1"/></g><g id="XMLID_3120_"><path id="XMLID_3121_" d="M238.1,221.8l-0.7,0.2l4.1,2.1C241.4,222.4,239.6,223.4,238.1,221.8z" class="st1"/></g><g id="XMLID_3118_"><path id="XMLID_3119_" d="M191.5,197.4l0.2-0.4c-0.1-0.1-0.3-0.3-0.4-0.4C191.3,196.9,191.4,197.1,191.5,197.4z" class="st1"/></g><g id="XMLID_3116_"><path id="XMLID_3117_" d="M190,192.2c0.1,1.3,0.2,2.6,0.5,3.9c0.3,0.2,0.5,0.4,0.7,0.6 C190.4,194.3,191.5,194.7,190,192.2z" class="st1"/></g><g id="XMLID_3114_"><path id="XMLID_3115_" d="M191.6,197c1.1,1.2,1.5,2.3,1.9,3.6c0.4,1.3,0.9,2.8,2.6,4.5c-1.3-3.3-2.9-6.3-4.2-8.8 L191.6,197z" class="st1"/></g></g><g id="XMLID_3092_"><g id="XMLID_3110_"><path id="XMLID_3111_" d="M67,334.1v-84.3h20.5v84.3H67z" class="st2"/></g><g id="XMLID_3107_"><path id="XMLID_3108_" d="M108.7,325.6c-6.2-6.2-9.3-14.6-9.3-25c0-10.4,3.1-18.7,9.3-24.9 c6.2-6.2,14.2-9.3,24.1-9.3c8.2,0,15.1,2,20.8,6.1c5.7,4,9.4,9.8,11.3,17.3h-22.2c-1.9-4-5.1-6-9.4-6c-4.4,0-7.6,1.5-9.7,4.6 c-2.1,3.1-3.2,7.1-3.2,12.2c0,5,1.1,9.1,3.2,12.2c2.1,3.1,5.2,4.6,9.3,4.6c2.6,0,4.6-0.4,6-1.3c1.4-0.9,2.7-2.4,3.8-4.7h22.2 c-1.8,7.2-5.6,12.9-11.4,17.2c-5.8,4.2-12.6,6.4-20.6,6.4C122.9,335,114.9,331.8,108.7,325.6z" class="st2"/></g><g id="XMLID_3103_"><path id="XMLID_3104_" d="M180.5,325.5c-6.8-6.3-10.1-14.6-10.1-25c0-10.3,3.4-18.6,10.1-24.8c6.7-6.2,15-9.3,25-9.3 c9.9,0,18.2,3.1,24.9,9.3c6.7,6.2,10,14.5,10,24.8c0,10.3-3.3,18.6-10,25c-6.6,6.3-14.9,9.5-24.8,9.5 C195.6,335,187.3,331.8,180.5,325.5z M215.4,313.1c2.7-2.9,4.1-7,4.1-12.5c0-5.4-1.4-9.6-4.2-12.4c-2.8-2.8-6.1-4.3-10-4.3 c-3.8,0-7.1,1.4-9.9,4.3c-2.8,2.8-4.1,7-4.1,12.4c0,5.4,1.4,9.6,4.3,12.5c2.8,2.9,6.2,4.3,10,4.3 C209.4,317.4,212.6,316,215.4,313.1z" class="st2"/></g><g id="XMLID_3100_"><path id="XMLID_3101_" d="M272.9,267.1v9.8c4.2-7,11-10.6,20.3-10.6c7.7,0,13.9,2.6,18.7,7.7 c4.8,5.1,7.1,12.1,7.1,20.9v39.1h-20.4v-36.4c0-4.3-1.1-7.7-3.4-10c-2.3-2.4-5.4-3.5-9.4-3.5c-4,0-7.1,1.2-9.4,3.5 c-2.3,2.4-3.4,5.7-3.4,10v36.4h-20.5v-67H272.9z" class="st2"/></g><g id="XMLID_3096_"><path id="XMLID_3097_" d="M353.9,259.6c-2.3,2.3-5.2,3.5-8.5,3.5c-3.4,0-6.2-1.2-8.5-3.5c-2.3-2.3-3.5-5.2-3.5-8.6 c0-3.4,1.2-6.3,3.5-8.6c2.3-2.3,5.2-3.5,8.5-3.5c3.4,0,6.2,1.2,8.5,3.5c2.3,2.3,3.5,5.2,3.5,8.6 C357.4,254.4,356.2,257.3,353.9,259.6z M335.2,334.1v-67h20.5v67H335.2z" class="st2"/></g><g id="XMLID_3093_"><path id="XMLID_3094_" d="M376.9,325.6c-6.2-6.2-9.3-14.6-9.3-25c0-10.4,3.1-18.7,9.3-24.9 c6.2-6.2,14.2-9.3,24.1-9.3c8.2,0,15.1,2,20.8,6.1c5.7,4,9.4,9.8,11.3,17.3h-22.2c-1.9-4-5.1-6-9.4-6c-4.4,0-7.6,1.5-9.7,4.6 c-2.1,3.1-3.2,7.1-3.2,12.2c0,5,1.1,9.1,3.2,12.2c2.1,3.1,5.2,4.6,9.3,4.6c2.6,0,4.6-0.4,6-1.3c1.4-0.9,2.7-2.4,3.8-4.7H433 c-1.8,7.2-5.6,12.9-11.4,17.2c-5.8,4.2-12.6,6.4-20.6,6.4C391.1,335,383.1,331.8,376.9,325.6z" class="st2"/></g></g><g id="XMLID_3065_"><g id="XMLID_3089_"><path id="XMLID_3090_" d="M153.4,363.8v17.1h-4.2v-9.6l-4,9.6h-3.1l-4-9.6v9.6h-4.2v-17.1h4.8l4.9,11.8l4.9-11.8 H153.4z" class="st2"/></g><g id="XMLID_3086_"><path id="XMLID_3087_" d="M178.5,363.7v3.2h-6.2v3.7h5.4v3.2h-5.4v4h6.2v3.2h-10.3v-17.1H178.5z" class="st2"/></g><g id="XMLID_3083_"><path id="XMLID_3084_" d="M204.3,363.7h4.2v17.1h-4.2l-6.9-10.8v10.8h-4.2v-17.1h4.2l6.9,10.8V363.7z" class="st2"/></g><g id="XMLID_3080_"><path id="XMLID_3081_" d="M229,366.8c-0.5,0-0.9,0.1-1.3,0.4c-0.3,0.3-0.5,0.7-0.5,1.2s0.2,0.9,0.5,1.3 c0.3,0.3,0.7,0.6,1.2,0.7c0.5,0.2,1,0.3,1.7,0.5c0.6,0.2,1.2,0.3,1.8,0.6c0.6,0.2,1.1,0.5,1.6,0.8c0.5,0.3,0.9,0.8,1.2,1.4 c0.3,0.6,0.5,1.3,0.5,2.1c0,1.4-0.6,2.7-1.8,3.7c-1.2,1-2.7,1.5-4.6,1.5c-1.9,0-3.5-0.5-4.6-1.4c-1.2-0.9-1.8-2.2-1.8-3.9h4.4 c0.1,1.4,0.8,2,2.1,2c0.6,0,1.1-0.2,1.4-0.5c0.3-0.3,0.5-0.7,0.5-1.2c0-0.5-0.2-0.9-0.5-1.2c-0.3-0.3-0.7-0.6-1.2-0.7 c-0.5-0.2-1-0.3-1.7-0.5c-0.6-0.2-1.2-0.3-1.8-0.6c-0.6-0.2-1.1-0.5-1.6-0.8c-0.5-0.3-0.9-0.8-1.2-1.4c-0.3-0.6-0.5-1.3-0.5-2.1 c0-1.6,0.6-2.9,1.8-3.8c1.2-1,2.7-1.4,4.5-1.4c1.8,0,3.3,0.4,4.5,1.3c1.1,0.8,1.7,2.2,1.8,3.9h-4.5c-0.1-0.6-0.3-1.1-0.6-1.4 C229.9,367,229.5,366.8,229,366.8z" class="st2"/></g><g id="XMLID_3077_"><path id="XMLID_3078_" d="M269,363.8h4.5l-4.8,17.1h-4.8l-3-10.8l-3,10.8h-4.8l-4.8-17.1h4.4l3,12.3l3-12.3h4.7 l2.9,12.1L269,363.8z" class="st2"/></g><g id="XMLID_3074_"><path id="XMLID_3075_" d="M296.9,363.7v3.2h-6.2v3.7h5.4v3.2h-5.4v4h6.2v3.2h-10.3v-17.1H296.9z" class="st2"/></g><g id="XMLID_3070_"><path id="XMLID_3071_" d="M322.4,380.8l-0.9-2.9h-6.1l-0.9,2.9H310l5.9-17.1h5.1l5.9,17.1H322.4z M316.4,374.8h4 l-2-6.1L316.4,374.8z" class="st2"/></g><g id="XMLID_3066_"><path id="XMLID_3067_" d="M344.2,374.2v6.6h-4.2v-17.1h6.7c2,0,3.5,0.5,4.6,1.5c1.1,1,1.7,2.3,1.7,3.7 c0,1-0.3,2-0.9,2.9c-0.6,0.9-1.6,1.6-2.9,2l4.2,6.9h-4.9l-3.8-6.6H344.2z M344.2,366.9v4.1h2.6c0.6,0,1.1-0.2,1.5-0.6 c0.4-0.4,0.5-0.9,0.5-1.5c0-0.6-0.2-1.1-0.6-1.5c-0.4-0.4-0.9-0.6-1.5-0.6H344.2z" class="st2"/></g></g></g></svg>