<svg xmlns="http://www.w3.org/2000/svg" xmlns:xlink="http://www.w3.org/1999/xlink" id="Layer_1" x="0" y="0" version="1.1" viewBox="-49 141 512 512" xml:space="preserve" style="enable-background:new -49 141 512 512"><style type="text/css">.st0{fill:#0062ff}.st1{fill:#ff5f59}.st2{fill:#d4e1f4}</style><title>adress map call</title><g><path d="M319.5,505.2L319.5,505.2c-2.9-3.1-8.7-8.1-16.5-8.1c-5.8,0-11.7,2.8-16.9,8.1L257.3,534c-1.1,1.1-4,4-8.5,4 c-1.9,0-3.8-0.5-5.5-1.4l-0.1-0.1c-0.2-0.1-0.5-0.3-0.7-0.4c-2.6-1.6-5.5-3.1-8.7-4.6c-3.4-1.6-6.6-3.4-9.8-5.3 c-26.4-16.7-50.4-38.5-73.2-66.7c-0.1-0.1-0.1-0.2-0.2-0.2c-12.4-15.7-20.4-28.9-26.1-42.5l-0.2-0.5c-1.5-4.7-1.5-8.6,2.9-13 c0.1-0.1,0.1-0.1,0.2-0.2l0.1-0.1c7.2-6.5,13.7-12.9,21.3-20.7c1.7-1.6,3.3-3.2,4.9-4.8c0.8-0.8,1.6-1.6,2.4-2.4 c11.3-11.3,11.3-23.3,0-34.6L133,317.5c-1.3-1.4-2.7-2.8-4-4.1c-1.3-1.4-2.7-2.7-4-4c-5.6-5.8-10.3-10.6-15.3-15.2l-0.2-0.2 c-5-5-10.7-7.6-16.5-7.6S81.4,289,76.1,294l-0.1,0.1l-28.7,28.7c-7.8,7.6-12.6,17.8-13.3,28.7c-1.4,16.5,1.7,33.5,9.8,55.2 c12.9,35,32.5,67.6,61.6,102.6c34.5,41.5,77.5,75.2,126.1,98.8c17.9,8.6,41.8,18.6,67.8,20.3c1.5,0.1,3,0.1,4.3,0.1 c14.6,0,26.4-5,36-15.3c0.1-0.1,0.1-0.1,0.2-0.2c5-5.7,10.3-11.2,15.9-16.4l1.9-1.8c3-2.9,5.8-5.6,8.5-8.6 c10.8-11.2,10.7-23.9-0.2-34.7L319.5,505.2z M93.1,298.5c3.2,0,6.2,2.2,8,4.1l0.3,0.3l0.1,0.1c4.8,4.5,9.4,9.2,14.9,14.8 c1.3,1.4,2.7,2.7,4,4.1c1.3,1.3,2.6,2.7,4,4.1l23,23c6.6,6.6,6.6,11,0,17.6c-0.8,0.8-1.6,1.6-2.4,2.5l-0.2,0.3L81.4,306l3.1-3.1 C87.4,299.9,90.4,298.5,93.1,298.5z M330.7,605.2c-7.4,7.9-15.8,11.4-27.1,11.4c-1.2,0-2.4,0-3.5-0.1c-24-1.5-46.5-11-63.4-19.1 c-47.1-22.8-88.7-55.4-122.1-95.6c-28.2-34-47.1-65.4-59.5-99.1c-7.5-20-10.3-35.4-9.1-50c0.5-8.1,4-15.6,9.9-21.2l17-17l63.5,63.5 c-5.9,5.9-11.2,11.1-17,16.3l0,0c-0.3,0.3-0.7,0.6-0.9,0.9c-10.1,10.4-6.7,21.2-5.5,24.8v0.1l0.3,0.8c0,0.1,0.1,0.3,0.1,0.4 c6.1,14.8,14.8,28.9,28,45.7c0.1,0.1,0.2,0.2,0.3,0.4c23.6,29.1,48.5,51.7,76,69c3.5,2.2,7.1,4.1,10.9,5.9c2.9,1.5,5.6,2.8,7.8,4.2 c0.1,0.1,0.3,0.2,0.4,0.2l0.1,0.1c0.3,0.2,0.7,0.4,1,0.6c3.4,1.8,7.2,2.7,11,2.7c6.3,0,12-2.5,17-7.6l17.6-17.6l63.5,63.5 C341.2,593.7,335.8,599.3,330.7,605.2z M357.6,577.7c-0.2,0.2-0.5,0.5-0.7,0.7c-0.5,0.5-1,1-1.5,1.6l-63.6-63.6l2.7-2.7 c1.7-1.7,5.1-4.5,8.5-4.5c3.5,0,6.5,2.9,7.7,4.2c0.1,0.1,0.1,0.1,0.2,0.2l46.5,46.5C363.6,566.2,363.7,571.2,357.6,577.7 L357.6,577.7z" class="st0"/><path d="M274.3,165.4c-58.5,0-106,47.5-106,106s47.5,106,106,106s106-47.5,106-106 C380.2,212.8,332.8,165.4,274.3,165.4z M274.3,365.5c-51.9,0-94-42.1-94-94s42.1-94,94-94s94,42.1,94,94 C368.2,323.3,326.2,365.3,274.3,365.5z" class="st1"/><path d="M320.6,209.6c-25.5-25.6-66.9-25.6-92.4-0.1l-0.1,0.1c-11.8,11.9-18.9,27.6-20,44.3c-0.6,9.2,0.8,18.4,4,27 c3.3,8.9,8.5,17.1,15.1,24l42.9,45.7c2.3,2.4,6.1,2.5,8.5,0.3c0.1-0.1,0.2-0.2,0.3-0.3l42.9-45.7c6.6-6.9,11.7-15,15.1-24 c3.2-8.6,4.5-17.8,4-27C339.5,237.3,332.4,221.4,320.6,209.6z M325.4,276.8c-2.8,7.4-7.1,14.2-12.6,19.9l-38.5,41l-38.5-41 c-5.5-5.7-9.8-12.5-12.6-19.9c-2.6-7-3.7-14.6-3.3-22.1c0.9-13.8,6.8-26.8,16.5-36.7c20.9-20.7,54.7-20.8,75.6,0l0.1,0.1 c9.8,9.8,15.6,22.8,16.5,36.7C329.1,262.3,328,269.8,325.4,276.8z" class="st1"/><path d="M274.3,214.6c-21.7,0-39.3,18-39.3,40.2s17.6,40.2,39.3,40.2s39.3-18,39.3-40.2S296,214.6,274.3,214.6z M274.3,283c-15.1,0-27.3-12.6-27.3-28.2s12.3-28.2,27.3-28.2s27.3,12.7,27.3,28.2S289.4,283,274.3,283z" class="st1"/><path d="M268.7,550c6.3,0,12-2.5,17-7.6l7.6-7.6l-10-10l-17.6,17.6c-2.1,2.1-4.5,3.9-7.2,5.2 C261.8,549.2,265.2,550,268.7,550z" class="st2"/><path d="M256.7,597.3c-47.1-22.8-88.7-55.4-122.1-95.6c-28.2-34-47.1-65.4-59.5-99.1c-7.5-20-10.3-35.4-9.1-50 c0.5-8.1,4-15.6,9.9-21.2l7-7l-10-10l-17,17c-5.8,5.6-9.3,13.2-9.9,21.2c-1.2,14.6,1.6,30,9.1,50c12.5,33.7,31.4,65.2,59.5,99.1 c33.4,40.2,75.1,72.8,122.1,95.6c16.9,8.1,39.4,17.6,63.4,19.1c1.1,0.1,2.3,0.1,3.5,0.1c3,0,5.9-0.3,8.8-0.8 C291.3,612.8,271.8,604.5,256.7,597.3z" class="st2"/></g></svg>