<svg xmlns="http://www.w3.org/2000/svg" xmlns:xlink="http://www.w3.org/1999/xlink" id="Layer_1" x="0" y="0" version="1.1" viewBox="-49 141 512 512" xml:space="preserve" style="enable-background:new -49 141 512 512"><style type="text/css">.st0{fill:#d4e1f4}.st1{fill:#0062ff}.st2{fill:#ff5f59}</style><title>Intellectual Property</title><g><path d="M87.3,397c-28.2-26.5-43.5-64-42-102.7c2.4-64.9,53.7-119.5,118.1-127.1c-7.7-0.9-15.5-1.1-23.2-0.6 c-67.6,4.5-122.4,60.6-124.9,127.8c-1.5,38.7,13.8,76.1,42,102.7c22.8,21.9,33.6,53.4,29.2,84.7l-1.1,8.3h30l1.1-8.3 C120.9,450.4,110.1,418.9,87.3,397z" class="st0"/><rect width="30" height="32" x="92.8" y="502" class="st0"/><path d="M122.8,560.1V546h-30v14.1c0,12.1,9.8,21.9,21.8,21.9c0.1,0,0.2,0,0.3,0h30c-12.1,0.2-22-9.5-22.2-21.5 C122.8,560.3,122.8,560.2,122.8,560.1z" class="st0"/><path d="M248,574.1c-11.1-7.6-21.5-20.8-28.8-36.4c-5.5-11.8-8.4-24-8.4-34.3V394.7l94-46l-20-9.8l-114,55.8v108.7 c0,10.3,2.9,22.5,8.4,34.3c7.2,15.5,17.6,28.8,28.8,36.4l76.7,52.3l20-13.6L248,574.1z" class="st0"/><path d="M49,405.7c20,19.2,29.5,46.8,25.5,74.2L73,491.4c-0.9,4.7,2.2,9.2,6.9,10.1c0.3,0,0.5,0.1,0.8,0.1v58.5 c0,18.7,15.1,33.9,33.8,33.9c0.1,0,0.2,0,0.3,0H182c10.1,0.1,19.7-4.3,26.2-12l-9.2-7.8c-4.3,5-10.5,7.9-17.1,7.8h-67.2 c-12.1,0.2-22-9.5-22.2-21.5c0-0.1,0-0.2,0-0.3V546h81v-12h-81v-32h72v-12H85.1l1.1-8.3c4.5-31.3-6.4-62.8-29.2-84.7 c-28.2-26.5-43.5-64-42-102.7c2.8-67.1,57.6-123.2,125.2-127.7c73.6-4.5,136.9,51.4,141.5,125c0.8,13.2-0.3,26.5-3.4,39.4l11.7,2.8 c12-50.5-3.8-103.8-41.6-139.6c-29.5-27.8-68.1-41.9-108.9-39.5c-35.9,2.4-69.6,18-94.7,43.8C6.1,237.8-6.9,295.6,11.4,347.6 C19,369.7,32,389.6,49,405.7z" class="st1"/><path d="M407.4,385.7l-120.1-58.9c-1.7-0.8-3.6-0.8-5.3,0l-120,58.8c-2,1-3.3,3.1-3.2,5.4v112.4 c0,12.2,3.2,25.8,9.5,39.4c8.1,17.4,20.1,32.5,32.9,41.2l80,54.6c2,1.4,4.7,1.4,6.7,0L368,584c23.9-16.3,42.7-51.7,42.7-80.6V391.1 C410.8,388.8,409.5,386.7,407.4,385.7z M398.8,503.4c0,24.9-16.8,56.6-37.4,70.7l-76.7,52.3L208,574.1 c-11.1-7.6-21.5-20.8-28.8-36.4c-5.5-11.8-8.4-24-8.4-34.3V394.7l114-55.8l114,56L398.8,503.4z" class="st2"/><path d="M238,475.1c-2.4-2.3-6.2-2.3-8.5,0.1s-2.3,6.2,0.1,8.5l0,0l36.3,35.4c2.3,2.3,6,2.3,8.4,0l65.4-63.8 c2.4-2.3,2.5-6.1,0.2-8.5s-6.1-2.5-8.5-0.2l0,0l-61.2,59.7L238,475.1z" class="st2"/></g></svg>